# Mesh "Account_book" exported with Unity Assets Bundle Extractor; 24 vertices, 36 indices, 56 bytes per vertex
g Account_book
# SubMesh 0
# Vertices
v -0.141395 -0.214359 0.007550
vt 0.018865 0.074546
vn 0.005815 0.000000 0.999983
v -0.141395 0.214359 0.007550
vt 0.018865 0.778928
vn 0.005815 0.000000 0.999983
v 0.141395 0.214359 0.005906
vt 0.483488 0.778928
vn 0.005815 0.000000 0.999983
v 0.141395 -0.214359 0.005906
vt 0.483488 0.074546
vn 0.005815 0.000000 0.999983
v -0.141395 0.214359 0.007550
vt 0.265475 0.917022
vn -0.000000 1.000000 0.000000
v -0.141395 0.214359 -0.007550
vt 0.265475 0.940306
vn -0.000000 1.000000 0.000000
v 0.141395 0.214359 -0.005906
vt 0.701550 0.937771
vn -0.000000 1.000000 0.000000
v 0.141395 0.214359 0.005906
vt 0.701550 0.919557
vn -0.000000 1.000000 0.000000
v -0.141395 0.214359 -0.007550
vt 0.516078 0.074546
vn 0.005815 0.000000 -0.999983
v -0.141395 -0.214359 -0.007550
vt 0.516078 0.778928
vn 0.005815 0.000000 -0.999983
v 0.141395 -0.214359 -0.005906
vt 0.980701 0.778928
vn 0.005815 0.000000 -0.999983
v 0.141395 0.214359 -0.005906
vt 0.980701 0.074546
vn 0.005815 0.000000 -0.999983
v -0.141395 -0.214359 -0.007550
vt 0.265475 0.947038
vn -0.000000 -1.000000 0.000000
v -0.141395 -0.214359 0.007550
vt 0.265475 0.970323
vn -0.000000 -1.000000 0.000000
v 0.141395 -0.214359 0.005906
vt 0.701550 0.967787
vn -0.000000 -1.000000 0.000000
v 0.141395 -0.214359 -0.005906
vt 0.701550 0.949574
vn -0.000000 -1.000000 0.000000
v 0.141395 -0.214359 0.005906
vt 0.701550 0.860991
vn 1.000000 0.000000 0.000000
v 0.141395 0.214359 0.005906
vt 0.040448 0.860991
vn 1.000000 0.000000 0.000000
v 0.141395 0.214359 -0.005906
vt 0.040448 0.879205
vn 1.000000 0.000000 0.000000
v 0.141395 -0.214359 -0.005906
vt 0.701550 0.879205
vn 1.000000 0.000000 0.000000
v -0.141395 -0.214359 -0.007550
vt 0.701550 0.887005
vn -1.000000 0.000000 0.000000
v -0.141395 0.214359 -0.007550
vt 0.040448 0.887005
vn -1.000000 0.000000 0.000000
v -0.141395 0.214359 0.007550
vt 0.040448 0.910290
vn -1.000000 0.000000 0.000000
v -0.141395 -0.214359 0.007550
vt 0.701550 0.910290
vn -1.000000 0.000000 0.000000
# Faces (1 to 24)
f -22/-22/-22 -23/-23/-23 -24/-24/-24
f -21/-21/-21 -22/-22/-22 -24/-24/-24
f -18/-18/-18 -19/-19/-19 -20/-20/-20
f -17/-17/-17 -18/-18/-18 -20/-20/-20
f -14/-14/-14 -15/-15/-15 -16/-16/-16
f -13/-13/-13 -14/-14/-14 -16/-16/-16
f -10/-10/-10 -11/-11/-11 -12/-12/-12
f -9/-9/-9 -10/-10/-10 -12/-12/-12
f -6/-6/-6 -7/-7/-7 -8/-8/-8
f -5/-5/-5 -6/-6/-6 -8/-8/-8
f -2/-2/-2 -3/-3/-3 -4/-4/-4
f -1/-1/-1 -2/-2/-2 -4/-4/-4

