# Mesh "BananaBush" exported with Unity Assets Bundle Extractor; 120 vertices, 384 indices, 72 bytes per vertex
g BananaBush
# SubMesh 0
# Vertices
v -0.006055 0.007715 0.019868
vt 0.021421 0.610433
vn -0.393962 0.886319 -0.243378
v -0.007382 0.003122 0.008159
vt 0.021421 0.853378
vn -0.316663 0.801444 -0.507357
v 0.001008 0.005996 0.007630
vt 0.193900 0.828064
vn -0.126819 0.830051 -0.543077
v 0.002044 0.011846 0.020017
vt 0.187674 0.569686
vn -0.092080 0.951920 -0.292180
v 0.008775 0.003717 0.004981
vt 0.353808 0.872926
vn 0.068605 0.826930 -0.558104
v 0.010311 0.008921 0.018495
vt 0.353808 0.593678
vn 0.218797 0.924410 -0.312402
v 0.008318 -0.001094 -0.000330
vt 0.353808 1.000000
vn -0.052505 0.721209 -0.690725
v 0.000663 -0.001642 0.000002
vt 0.198043 1.000000
vn -0.150627 0.719347 -0.678123
v -0.007917 -0.002458 0.001864
vt 0.021421 1.000000
vn -0.247275 0.710442 -0.658883
v -0.004196 0.011479 0.035163
vt 0.021421 0.310571
vn -0.347626 0.937608 -0.006792
v 0.003309 0.014014 0.032380
vt 0.181923 0.331008
vn -0.062869 0.996946 -0.046324
v 0.011923 0.011962 0.031656
vt 0.353808 0.336769
vn 0.226665 0.970532 -0.081792
v -0.001796 0.009756 0.052144
vt 0.021421 0.010710
vn -0.277181 0.951508 0.133428
v 0.005484 0.012150 0.050488
vt 0.174206 0.010710
vn -0.039798 0.994295 0.098965
v 0.014474 0.010679 0.049939
vt 0.353808 0.010710
vn 0.199948 0.978051 0.058627
v -0.019610 0.008790 -0.005395
vt 0.021421 0.610433
vn 0.146777 0.963677 0.223121
v -0.015870 0.010546 -0.013495
vt 0.187674 0.569686
vn 0.325625 0.944931 -0.032769
v -0.005793 0.005382 -0.005715
vt 0.193900 0.828064
vn 0.524588 0.840264 0.136983
v -0.010132 0.004904 0.002023
vt 0.021421 0.853378
vn 0.409658 0.864951 0.289897
v -0.000364 0.001104 -0.010690
vt 0.353808 0.872926
vn 0.620354 0.784022 -0.021687
v -0.011310 0.005494 -0.019232
vt 0.353808 0.593678
vn 0.472617 0.833760 -0.285444
v 0.003715 -0.003366 -0.006749
vt 0.353808 1.000000
vn 0.677173 0.716020 0.169564
v 0.000035 -0.001761 -0.000185
vt 0.198043 1.000000
vn 0.624961 0.741598 0.243837
v -0.005287 -0.000120 0.006621
vt 0.021421 1.000000
vn 0.567188 0.760579 0.315940
v -0.032176 0.011681 -0.014631
vt 0.021421 0.310571
vn -0.040888 0.996926 0.066830
v -0.026221 0.012107 -0.020535
vt 0.181923 0.331008
vn 0.121696 0.976704 -0.176744
v -0.022139 0.007789 -0.027139
vt 0.353808 0.336769
vn 0.273472 0.872644 -0.404606
v -0.046617 0.009122 -0.023687
vt 0.021421 0.010710
vn -0.135661 0.989011 -0.058759
v -0.041785 0.009458 -0.029853
vt 0.174206 0.010710
vn 0.000514 0.965751 -0.259468
v -0.037639 0.005594 -0.037006
vt 0.353808 0.010710
vn 0.136659 0.885156 -0.444773
v 0.021080 0.006822 0.000069
vt 0.021421 0.610433
vn -0.094300 0.931215 0.352061
v 0.009911 0.003172 0.004746
vt 0.021421 0.853378
vn -0.368456 0.863253 0.345013
v 0.007375 0.005351 -0.003486
vt 0.193900 0.828064
vn -0.457506 0.873164 0.168146
v 0.019331 0.010228 -0.008179
vt 0.187674 0.569686
vn -0.215948 0.974094 0.067139
v 0.002724 0.002607 -0.010071
vt 0.353808 0.872926
vn -0.528882 0.848540 -0.016270
v 0.015609 0.006722 -0.015464
vt 0.353808 0.593678
vn -0.316470 0.921693 -0.224339
v -0.002550 -0.002256 -0.007794
vt 0.353808 1.000000
vn -0.639257 0.756769 0.136567
v -0.000306 -0.001708 -0.000345
vt 0.198043 1.000000
vn -0.589542 0.774592 0.229013
v 0.003767 -0.001518 0.007365
vt 0.021421 1.000000
vn -0.533145 0.783634 0.318864
v 0.035539 0.009355 -0.005940
vt 0.021421 0.310571
vn 0.124523 0.962028 0.242892
v 0.031039 0.011428 -0.012719
vt 0.181923 0.331008
vn 0.015938 0.999502 -0.027248
v 0.028038 0.008705 -0.020626
vt 0.353808 0.336769
vn -0.093778 0.951053 -0.294457
v 0.051241 0.006273 -0.012345
vt 0.021421 0.010710
vn 0.242448 0.960235 0.138452
v 0.047881 0.008148 -0.019177
vt 0.174206 0.010710
vn 0.150175 0.984938 -0.085701
v 0.044978 0.005959 -0.027548
vt 0.353808 0.010710
vn 0.048986 0.951167 -0.304766
v -0.012673 0.009406 0.015551
vt 0.360583 0.610433
vn 0.385887 0.921713 0.039191
v -0.017836 0.012331 0.008661
vt 0.526836 0.569686
vn 0.241396 0.940909 -0.237524
v -0.007009 0.006131 0.002909
vt 0.533062 0.828064
vn 0.463551 0.812820 -0.352766
v -0.002278 0.004521 0.010255
vt 0.360583 0.853378
vn 0.542811 0.821902 -0.172725
v -0.009414 0.002640 -0.004477
vt 0.675118 0.872926
vn 0.365709 0.771896 -0.520033
v -0.021409 0.008181 0.001644
vt 0.692969 0.593678
vn 0.073298 0.868073 -0.490996
v -0.004612 -0.002952 -0.006550
vt 0.692969 1.000000
vn 0.549962 0.667676 -0.501747
v -0.000185 -0.001747 -0.000199
vt 0.537204 1.000000
vn 0.586372 0.699568 -0.408378
v 0.003306 -0.000619 0.007649
vt 0.360583 1.000000
vn 0.616297 0.723721 -0.310493
v -0.026216 0.013558 0.022687
vt 0.360583 0.310571
vn 0.166261 0.976561 0.136694
v -0.028597 0.014857 0.014741
vt 0.521085 0.331008
vn 0.024888 0.992452 -0.120078
v -0.033059 0.011557 0.007804
vt 0.692969 0.336769
vn -0.118313 0.923073 -0.365975
v -0.041157 0.012285 0.031186
vt 0.360583 0.010710
vn 0.011247 0.986576 0.162914
v -0.044298 0.013529 0.024111
vt 0.513367 0.010710
vn -0.105067 0.993152 -0.051088
v -0.049154 0.010757 0.016898
vt 0.692969 0.010710
vn -0.215143 0.940765 -0.262057
v 0.006369 0.014857 0.016030
vt 0.367722 0.610433
vn -0.525779 0.825233 -0.206268
v -0.001242 0.007188 0.009455
vt 0.367722 0.853378
vn -0.638765 0.636264 -0.432605
v 0.004893 0.008798 0.003234
vt 0.529491 0.828064
vn -0.503287 0.627750 -0.593829
v 0.012563 0.017892 0.010105
vt 0.533976 0.569686
vn -0.316826 0.839766 -0.440925
v 0.009730 0.004964 -0.002635
vt 0.660838 0.872926
vn -0.344723 0.591131 -0.729198
v 0.018527 0.013721 0.004980
vt 0.700110 0.593678
vn -0.076459 0.771184 -0.632004
v 0.006590 -0.002559 -0.004727
vt 0.700110 1.000000
vn -0.504120 0.443989 -0.740768
v 0.000290 -0.001697 -0.000203
vt 0.519354 1.000000
vn -0.594922 0.468830 -0.652891
v -0.005020 -0.000921 0.006803
vt 0.367722 1.000000
vn -0.675857 0.485896 -0.554186
v 0.016547 0.022008 0.025263
vt 0.367722 0.310571
vn -0.324253 0.944474 -0.053193
v 0.020665 0.022731 0.017982
vt 0.538936 0.331008
vn -0.125218 0.956183 -0.264639
v 0.027301 0.019585 0.012983
vt 0.700110 0.336769
vn 0.083741 0.887469 -0.453195
v 0.028604 0.023914 0.037134
vt 0.367722 0.010710
vn -0.172047 0.985033 0.010470
v 0.033224 0.024862 0.030871
vt 0.520508 0.010710
vn -0.012217 0.986790 -0.161542
v 0.040214 0.022276 0.025603
vt 0.700110 0.010710
vn 0.148287 0.934139 -0.324647
v -0.012099 0.015006 -0.011669
vt 0.367722 0.610433
vn 0.119563 -0.777928 -0.616874
v -0.009192 0.006871 -0.002431
vt 0.367722 0.853378
vn -0.047326 -0.594072 -0.803018
v -0.000990 0.009271 -0.004862
vt 0.540202 0.828064
vn -0.255059 -0.597817 -0.759974
v -0.004238 0.018819 -0.014191
vt 0.533976 0.569686
vn -0.182932 -0.820445 -0.541669
v 0.006709 0.006119 -0.006686
vt 0.660838 0.872926
vn -0.452421 -0.574431 -0.682162
v 0.003344 0.015414 -0.017378
vt 0.700110 0.593678
vn -0.467408 -0.781741 -0.412808
v 0.007559 -0.002252 -0.003384
vt 0.700110 1.000000
vn -0.408156 -0.407655 -0.816839
v 0.000544 -0.001525 0.000210
vt 0.544345 1.000000
vn -0.283158 -0.434523 -0.854992
v -0.007997 -0.000887 0.001608
vt 0.367722 1.000000
vn -0.153120 -0.453656 -0.877924
v -0.016170 0.022784 -0.024480
vt 0.367722 0.310571
vn 0.171689 -0.910567 -0.376020
v -0.007887 0.024143 -0.024700
vt 0.528225 0.331008
vn -0.105802 -0.948524 -0.298510
v -0.000185 0.021818 -0.028468
vt 0.700110 0.336769
vn -0.373557 -0.906633 -0.196141
v -0.021343 0.025435 -0.040561
vt 0.367722 0.010710
vn 0.161244 -0.963165 -0.215204
v -0.013749 0.027032 -0.041680
vt 0.520508 0.010710
vn -0.064076 -0.986077 -0.153449
v -0.005689 0.025307 -0.045598
vt 0.700110 0.010710
vn -0.285865 -0.954648 -0.083237
v -0.006105 0.008802 -0.019395
vt 0.021421 0.610433
vn -0.441632 0.846622 0.296972
v 0.001780 0.013322 -0.019093
vt 0.187674 0.569686
vn -0.144243 0.923186 0.356261
v 0.000833 0.006565 -0.007169
vt 0.193900 0.828064
vn -0.161344 0.783622 0.599921
v -0.007393 0.003331 -0.008065
vt 0.021421 0.853378
vn -0.349970 0.760307 0.547224
v 0.008660 0.004483 -0.004533
vt 0.353808 0.872926
vn 0.034836 0.776307 0.629392
v 0.010157 0.010701 -0.017615
vt 0.353808 0.593678
vn 0.167244 0.909448 0.380702
v 0.008411 -0.001626 0.000397
vt 0.353808 1.000000
vn -0.067079 0.642836 0.763061
v 0.000545 -0.001680 -0.000054
vt 0.198043 1.000000
vn -0.167252 0.663765 0.729001
v -0.007772 -0.001871 -0.002178
vt 0.021421 1.000000
vn -0.265480 0.676973 0.686461
v -0.004183 0.013728 -0.034349
vt 0.021421 0.310571
vn -0.394023 0.916761 0.065532
v 0.003139 0.016421 -0.031246
vt 0.181923 0.331008
vn -0.113270 0.986910 0.114796
v 0.011831 0.014744 -0.030496
vt 0.353808 0.336769
vn 0.176598 0.972146 0.154093
v -0.001421 0.013332 -0.051358
vt 0.021421 0.010710
vn -0.322060 0.943982 -0.071936
v 0.005702 0.015954 -0.049393
vt 0.174206 0.010710
vn -0.087706 0.995700 -0.029833
v 0.014744 0.014887 -0.048769
vt 0.353808 0.010710
vn 0.151855 0.988303 0.014041
v -0.008897 0.014335 0.015370
vt 0.024991 0.610433
vn 0.654072 0.755655 0.034274
v -0.012813 0.018663 0.008398
vt 0.191244 0.569686
vn 0.521438 0.817623 -0.244122
v -0.004645 0.009127 0.002823
vt 0.197470 0.828064
vn 0.712335 0.599772 -0.364490
v -0.000702 0.006191 0.010224
vt 0.024991 0.853378
vn 0.799774 0.576648 -0.166851
v -0.008076 0.006479 -0.004508
vt 0.357378 0.872926
vn 0.590651 0.594478 -0.545645
v -0.017564 0.015786 0.001442
vt 0.357378 0.593678
vn 0.337157 0.798681 -0.498431
v -0.005244 -0.001540 -0.006584
vt 0.357378 1.000000
vn 0.723002 0.433676 -0.537767
v -0.000241 -0.001634 -0.000518
vt 0.201613 1.000000
vn 0.795389 0.441514 -0.415237
v 0.002807 -0.002111 0.007739
vt 0.024991 1.000000
vn 0.851617 0.440384 -0.284272
v -0.020336 0.022129 0.022325
vt 0.024991 0.310571
vn 0.433220 0.890193 0.140983
v -0.022164 0.023985 0.014343
vt 0.185494 0.331008
vn 0.303290 0.946190 -0.112874
v -0.027473 0.022205 0.007445
vt 0.357378 0.336769
vn 0.148256 0.922468 -0.356473
v -0.034905 0.024811 0.030719
vt 0.024991 0.010710
vn 0.275087 0.946935 0.166256
v -0.037468 0.026881 0.023605
vt 0.177776 0.010710
vn 0.170479 0.984525 -0.040579
v -0.042976 0.025725 0.016420
vt 0.357378 0.010710
vn 0.056472 0.967832 -0.245177
# Faces (1 to 120)
f -118/-118/-118 -119/-119/-119 -120/-120/-120
f -117/-117/-117 -118/-118/-118 -120/-120/-120
f -116/-116/-116 -118/-118/-118 -117/-117/-117
f -115/-115/-115 -116/-116/-116 -117/-117/-117
f -116/-116/-116 -114/-114/-114 -118/-118/-118
f -114/-114/-114 -113/-113/-113 -118/-118/-118
f -118/-118/-118 -113/-113/-113 -119/-119/-119
f -113/-113/-113 -112/-112/-112 -119/-119/-119
f -117/-117/-117 -120/-120/-120 -111/-111/-111
f -110/-110/-110 -117/-117/-117 -111/-111/-111
f -115/-115/-115 -117/-117/-117 -110/-110/-110
f -109/-109/-109 -115/-115/-115 -110/-110/-110
f -110/-110/-110 -111/-111/-111 -108/-108/-108
f -107/-107/-107 -110/-110/-110 -108/-108/-108
f -109/-109/-109 -110/-110/-110 -107/-107/-107
f -106/-106/-106 -109/-109/-109 -107/-107/-107
f -103/-103/-103 -104/-104/-104 -105/-105/-105
f -102/-102/-102 -103/-103/-103 -105/-105/-105
f -103/-103/-103 -101/-101/-101 -104/-104/-104
f -101/-101/-101 -100/-100/-100 -104/-104/-104
f -99/-99/-99 -101/-101/-101 -103/-103/-103
f -98/-98/-98 -99/-99/-99 -103/-103/-103
f -98/-98/-98 -103/-103/-103 -102/-102/-102
f -97/-97/-97 -98/-98/-98 -102/-102/-102
f -105/-105/-105 -104/-104/-104 -96/-96/-96
f -104/-104/-104 -95/-95/-95 -96/-96/-96
f -104/-104/-104 -100/-100/-100 -95/-95/-95
f -100/-100/-100 -94/-94/-94 -95/-95/-95
f -96/-96/-96 -95/-95/-95 -93/-93/-93
f -95/-95/-95 -92/-92/-92 -93/-93/-93
f -95/-95/-95 -94/-94/-94 -92/-92/-92
f -94/-94/-94 -91/-91/-91 -92/-92/-92
f -88/-88/-88 -89/-89/-89 -90/-90/-90
f -87/-87/-87 -88/-88/-88 -90/-90/-90
f -86/-86/-86 -88/-88/-88 -87/-87/-87
f -85/-85/-85 -86/-86/-86 -87/-87/-87
f -86/-86/-86 -84/-84/-84 -88/-88/-88
f -84/-84/-84 -83/-83/-83 -88/-88/-88
f -88/-88/-88 -83/-83/-83 -89/-89/-89
f -83/-83/-83 -82/-82/-82 -89/-89/-89
f -87/-87/-87 -90/-90/-90 -81/-81/-81
f -80/-80/-80 -87/-87/-87 -81/-81/-81
f -85/-85/-85 -87/-87/-87 -80/-80/-80
f -79/-79/-79 -85/-85/-85 -80/-80/-80
f -80/-80/-80 -81/-81/-81 -78/-78/-78
f -77/-77/-77 -80/-80/-80 -78/-78/-78
f -79/-79/-79 -80/-80/-80 -77/-77/-77
f -76/-76/-76 -79/-79/-79 -77/-77/-77
f -73/-73/-73 -74/-74/-74 -75/-75/-75
f -72/-72/-72 -73/-73/-73 -75/-75/-75
f -73/-73/-73 -71/-71/-71 -74/-74/-74
f -71/-71/-71 -70/-70/-70 -74/-74/-74
f -69/-69/-69 -71/-71/-71 -73/-73/-73
f -68/-68/-68 -69/-69/-69 -73/-73/-73
f -68/-68/-68 -73/-73/-73 -72/-72/-72
f -67/-67/-67 -68/-68/-68 -72/-72/-72
f -75/-75/-75 -74/-74/-74 -66/-66/-66
f -74/-74/-74 -65/-65/-65 -66/-66/-66
f -74/-74/-74 -70/-70/-70 -65/-65/-65
f -70/-70/-70 -64/-64/-64 -65/-65/-65
f -66/-66/-66 -65/-65/-65 -63/-63/-63
f -65/-65/-65 -62/-62/-62 -63/-63/-63
f -65/-65/-65 -64/-64/-64 -62/-62/-62
f -64/-64/-64 -61/-61/-61 -62/-62/-62
f -58/-58/-58 -59/-59/-59 -60/-60/-60
f -57/-57/-57 -58/-58/-58 -60/-60/-60
f -56/-56/-56 -58/-58/-58 -57/-57/-57
f -55/-55/-55 -56/-56/-56 -57/-57/-57
f -56/-56/-56 -54/-54/-54 -58/-58/-58
f -54/-54/-54 -53/-53/-53 -58/-58/-58
f -58/-58/-58 -53/-53/-53 -59/-59/-59
f -53/-53/-53 -52/-52/-52 -59/-59/-59
f -57/-57/-57 -60/-60/-60 -51/-51/-51
f -50/-50/-50 -57/-57/-57 -51/-51/-51
f -55/-55/-55 -57/-57/-57 -50/-50/-50
f -49/-49/-49 -55/-55/-55 -50/-50/-50
f -50/-50/-50 -51/-51/-51 -48/-48/-48
f -47/-47/-47 -50/-50/-50 -48/-48/-48
f -49/-49/-49 -50/-50/-50 -47/-47/-47
f -46/-46/-46 -49/-49/-49 -47/-47/-47
f -43/-43/-43 -44/-44/-44 -45/-45/-45
f -42/-42/-42 -43/-43/-43 -45/-45/-45
f -41/-41/-41 -43/-43/-43 -42/-42/-42
f -40/-40/-40 -41/-41/-41 -42/-42/-42
f -41/-41/-41 -39/-39/-39 -43/-43/-43
f -39/-39/-39 -38/-38/-38 -43/-43/-43
f -43/-43/-43 -38/-38/-38 -44/-44/-44
f -38/-38/-38 -37/-37/-37 -44/-44/-44
f -42/-42/-42 -45/-45/-45 -36/-36/-36
f -35/-35/-35 -42/-42/-42 -36/-36/-36
f -40/-40/-40 -42/-42/-42 -35/-35/-35
f -34/-34/-34 -40/-40/-40 -35/-35/-35
f -35/-35/-35 -36/-36/-36 -33/-33/-33
f -32/-32/-32 -35/-35/-35 -33/-33/-33
f -34/-34/-34 -35/-35/-35 -32/-32/-32
f -31/-31/-31 -34/-34/-34 -32/-32/-32
f -28/-28/-28 -29/-29/-29 -30/-30/-30
f -27/-27/-27 -28/-28/-28 -30/-30/-30
f -28/-28/-28 -26/-26/-26 -29/-29/-29
f -26/-26/-26 -25/-25/-25 -29/-29/-29
f -24/-24/-24 -26/-26/-26 -28/-28/-28
f -23/-23/-23 -24/-24/-24 -28/-28/-28
f -23/-23/-23 -28/-28/-28 -27/-27/-27
f -22/-22/-22 -23/-23/-23 -27/-27/-27
f -30/-30/-30 -29/-29/-29 -21/-21/-21
f -29/-29/-29 -20/-20/-20 -21/-21/-21
f -29/-29/-29 -25/-25/-25 -20/-20/-20
f -25/-25/-25 -19/-19/-19 -20/-20/-20
f -21/-21/-21 -20/-20/-20 -18/-18/-18
f -20/-20/-20 -17/-17/-17 -18/-18/-18
f -20/-20/-20 -19/-19/-19 -17/-17/-17
f -19/-19/-19 -16/-16/-16 -17/-17/-17
f -13/-13/-13 -14/-14/-14 -15/-15/-15
f -12/-12/-12 -13/-13/-13 -15/-15/-15
f -13/-13/-13 -11/-11/-11 -14/-14/-14
f -11/-11/-11 -10/-10/-10 -14/-14/-14
f -9/-9/-9 -11/-11/-11 -13/-13/-13
f -8/-8/-8 -9/-9/-9 -13/-13/-13
f -8/-8/-8 -13/-13/-13 -12/-12/-12
f -7/-7/-7 -8/-8/-8 -12/-12/-12
f -15/-15/-15 -14/-14/-14 -6/-6/-6
f -14/-14/-14 -5/-5/-5 -6/-6/-6
f -14/-14/-14 -10/-10/-10 -5/-5/-5
f -10/-10/-10 -4/-4/-4 -5/-5/-5
f -6/-6/-6 -5/-5/-5 -3/-3/-3
f -5/-5/-5 -2/-2/-2 -3/-3/-3
f -5/-5/-5 -4/-4/-4 -2/-2/-2
f -4/-4/-4 -1/-1/-1 -2/-2/-2

