# Mesh "Board" exported with Unity Assets Bundle Extractor; 24 vertices, 36 indices, 56 bytes per vertex
g Board
# SubMesh 0
# Vertices
v -1.025474 -0.683041 0.017952
vt 0.013008 0.972583
vn -0.000000 0.000000 1.000000
v -1.025474 0.683041 0.017952
vt 0.485805 0.972583
vn -0.000000 0.000000 1.000000
v 1.025474 0.683041 0.017952
vt 0.485805 0.262756
vn -0.000000 0.000000 1.000000
v 1.025474 -0.683041 0.017952
vt 0.013008 0.262756
vn -0.000000 0.000000 1.000000
v -1.025474 0.683041 0.017952
vt 0.017660 0.076468
vn -0.000000 1.000000 0.000000
v -1.025474 0.683041 -0.017952
vt 0.017660 0.088477
vn -0.000000 1.000000 0.000000
v 1.025474 0.683041 -0.017952
vt 0.703671 0.088477
vn -0.000000 1.000000 0.000000
v 1.025474 0.683041 0.017952
vt 0.703671 0.076468
vn -0.000000 1.000000 0.000000
v -1.025474 0.683041 -0.017952
vt 0.512596 0.972583
vn -0.000000 0.000000 -1.000000
v -1.025474 -0.683041 -0.017952
vt 0.985393 0.972583
vn -0.000000 0.000000 -1.000000
v 1.025474 -0.683041 -0.017952
vt 0.985393 0.262756
vn -0.000000 0.000000 -1.000000
v 1.025474 0.683041 -0.017952
vt 0.512596 0.262756
vn -0.000000 0.000000 -1.000000
v -1.025474 -0.683041 -0.017952
vt 0.022018 0.037751
vn -0.000000 -1.000000 0.000000
v -1.025474 -0.683041 0.017952
vt 0.022018 0.049760
vn -0.000000 -1.000000 0.000000
v 1.025474 -0.683041 0.017952
vt 0.708028 0.049760
vn -0.000000 -1.000000 0.000000
v 1.025474 -0.683041 -0.017952
vt 0.708028 0.037751
vn -0.000000 -1.000000 0.000000
v 1.025474 -0.683041 0.017952
vt 0.475406 0.053026
vn 1.000000 0.000000 0.000000
v 1.025474 0.683041 0.017952
vt 0.018472 0.053026
vn 1.000000 0.000000 0.000000
v 1.025474 0.683041 -0.017952
vt 0.018472 0.065036
vn 1.000000 0.000000 0.000000
v 1.025474 -0.683041 -0.017952
vt 0.475406 0.065036
vn 1.000000 0.000000 0.000000
v -1.025474 -0.683041 -0.017952
vt 0.482581 0.016587
vn -1.000000 0.000000 0.000000
v -1.025474 0.683041 -0.017952
vt 0.025648 0.016587
vn -1.000000 0.000000 0.000000
v -1.025474 0.683041 0.017952
vt 0.025647 0.028597
vn -1.000000 0.000000 0.000000
v -1.025474 -0.683041 0.017952
vt 0.482581 0.028597
vn -1.000000 0.000000 0.000000
# Faces (1 to 24)
f -22/-22/-22 -23/-23/-23 -24/-24/-24
f -21/-21/-21 -22/-22/-22 -24/-24/-24
f -18/-18/-18 -19/-19/-19 -20/-20/-20
f -17/-17/-17 -18/-18/-18 -20/-20/-20
f -14/-14/-14 -15/-15/-15 -16/-16/-16
f -13/-13/-13 -14/-14/-14 -16/-16/-16
f -10/-10/-10 -11/-11/-11 -12/-12/-12
f -9/-9/-9 -10/-10/-10 -12/-12/-12
f -6/-6/-6 -7/-7/-7 -8/-8/-8
f -5/-5/-5 -6/-6/-6 -8/-8/-8
f -2/-2/-2 -3/-3/-3 -4/-4/-4
f -1/-1/-1 -2/-2/-2 -4/-4/-4

