# Mesh "Box_6" exported with Unity Assets Bundle Extractor; 24 vertices, 36 indices, 56 bytes per vertex
g Box_6
# SubMesh 0
# Vertices
v -0.240573 -0.162391 0.221094
vt 0.717960 0.595902
vn -0.000000 -0.028239 0.999601
v -0.250556 0.162391 0.230269
vt 0.951652 0.603086
vn -0.000000 -0.028239 0.999601
v 0.250556 0.162391 0.230269
vt 0.951652 0.242518
vn -0.000000 -0.028239 0.999601
v 0.240573 -0.162391 0.221094
vt 0.717960 0.249702
vn -0.000000 -0.028239 0.999601
v -0.250556 0.162391 0.230269
vt 0.031159 0.987348
vn -0.000000 1.000000 0.000000
v -0.250556 0.162391 -0.230269
vt 0.362532 0.987348
vn -0.000000 1.000000 0.000000
v 0.250556 0.162391 -0.230269
vt 0.362532 0.626781
vn -0.000000 1.000000 0.000000
v 0.250556 0.162391 0.230269
vt 0.031159 0.626781
vn -0.000000 1.000000 0.000000
v -0.250556 0.162391 -0.230269
vt 0.166099 0.603086
vn -0.000000 -0.028239 -0.999601
v -0.240573 -0.162391 -0.221094
vt 0.399791 0.595902
vn -0.000000 -0.028239 -0.999601
v 0.240573 -0.162391 -0.221094
vt 0.399791 0.249702
vn -0.000000 -0.028239 -0.999601
v 0.250556 0.162391 -0.230269
vt 0.166099 0.242518
vn -0.000000 -0.028239 -0.999601
v -0.240573 -0.162391 -0.221094
vt 0.399791 0.595902
vn -0.000000 -1.000000 0.000000
v -0.240573 -0.162391 0.221094
vt 0.717960 0.595902
vn -0.000000 -1.000000 0.000000
v 0.240573 -0.162391 0.221094
vt 0.717960 0.249702
vn -0.000000 -1.000000 0.000000
v 0.240573 -0.162391 -0.221094
vt 0.399791 0.249702
vn -0.000000 -1.000000 0.000000
v 0.240573 -0.162391 0.221094
vt 0.717960 0.249702
vn 0.999528 -0.030725 0.000000
v 0.250556 0.162391 0.230269
vt 0.724562 0.016010
vn 0.999528 -0.030725 0.000000
v 0.250556 0.162391 -0.230269
vt 0.393189 0.016010
vn 0.999528 -0.030725 0.000000
v 0.240573 -0.162391 -0.221094
vt 0.399791 0.249702
vn 0.999528 -0.030725 0.000000
v -0.240573 -0.162391 -0.221094
vt 0.399791 0.595902
vn -0.999528 -0.030725 0.000000
v -0.250556 0.162391 -0.230269
vt 0.393189 0.829594
vn -0.999528 -0.030725 0.000000
v -0.250556 0.162391 0.230269
vt 0.724562 0.829594
vn -0.999528 -0.030725 0.000000
v -0.240573 -0.162391 0.221094
vt 0.717960 0.595902
vn -0.999528 -0.030725 0.000000
# Faces (1 to 24)
f -22/-22/-22 -23/-23/-23 -24/-24/-24
f -21/-21/-21 -22/-22/-22 -24/-24/-24
f -18/-18/-18 -19/-19/-19 -20/-20/-20
f -17/-17/-17 -18/-18/-18 -20/-20/-20
f -14/-14/-14 -15/-15/-15 -16/-16/-16
f -13/-13/-13 -14/-14/-14 -16/-16/-16
f -10/-10/-10 -11/-11/-11 -12/-12/-12
f -9/-9/-9 -10/-10/-10 -12/-12/-12
f -6/-6/-6 -7/-7/-7 -8/-8/-8
f -5/-5/-5 -6/-6/-6 -8/-8/-8
f -2/-2/-2 -3/-3/-3 -4/-4/-4
f -1/-1/-1 -2/-2/-2 -4/-4/-4

