# Mesh "Box_8" exported with Unity Assets Bundle Extractor; 100 vertices, 156 indices, 56 bytes per vertex
g Box_8
# SubMesh 0
# Vertices
v -0.525320 -0.088817 0.562867
vt 0.467532 0.453249
vn 0.013372 0.473039 0.880940
v -0.542082 -0.054680 0.528334
vt 0.481122 0.459922
vn 0.010497 0.331131 0.943526
v 0.542082 -0.054680 0.528334
vt 0.481122 0.028307
vn 0.011476 0.378953 0.925345
v 0.558345 -0.088817 0.529961
vt 0.467532 0.021832
vn 0.013372 0.473039 0.880940
v 0.518011 -0.033229 0.531758
vt 0.489662 0.037890
vn 0.013916 -0.151490 0.988361
v -0.518011 -0.033229 0.531758
vt 0.489662 0.450339
vn 0.012744 -0.152009 0.988297
v 0.553907 0.006693 0.513993
vt 0.505556 0.023599
vn 0.021913 0.166841 0.985740
v -0.529729 0.006693 0.560936
vt 0.505556 0.455004
vn 0.021792 0.198294 0.979900
v 0.508053 0.041992 0.514802
vt 0.519608 0.041854
vn 0.004015 0.073320 0.997300
v -0.571522 0.088817 0.503303
vt 0.064389 0.963561
vn -0.000000 1.000000 0.000000
v -0.510900 0.088817 -0.564740
vt 0.489586 0.939427
vn -0.000000 1.000000 0.000000
v 0.571522 0.088817 -0.503303
vt 0.465127 0.508505
vn -0.000000 1.000000 0.000000
v 0.510900 0.088817 0.564740
vt 0.039930 0.532639
vn -0.000000 1.000000 0.000000
v -0.542082 -0.054680 -0.534881
vt 0.688025 0.465375
vn -0.010966 0.370203 -0.928886
v -0.558345 -0.088817 -0.524724
vt 0.701615 0.471849
vn -0.014906 0.188322 -0.981994
v 0.525320 -0.088817 -0.557630
vt 0.701615 0.040433
vn -0.014906 0.188322 -0.981994
v -0.542082 -0.054680 -0.534881
vt 0.688025 0.465375
vn -0.010966 0.370203 -0.928886
v 0.525320 -0.088817 -0.557630
vt 0.701615 0.040433
vn -0.014906 0.188322 -0.981994
v 0.542082 -0.054680 -0.534881
vt 0.688025 0.033759
vn -0.009174 0.443435 -0.896260
v -0.518011 -0.033229 -0.510809
vt 0.679485 0.455792
vn -0.014689 0.048883 -0.998697
v 0.518011 -0.033229 -0.510809
vt 0.679485 0.043343
vn -0.011612 0.241550 -0.970319
v -0.558345 -0.088817 -0.524724
vt 0.502940 0.523953
vn -0.000000 -1.000000 0.000000
v -0.525320 -0.088817 0.562867
vt 0.516087 0.956932
vn -0.000000 -1.000000 0.000000
v 0.558345 -0.088817 0.529961
vt 0.947504 0.943832
vn -0.000000 -1.000000 0.000000
v 0.525320 -0.088817 -0.557630
vt 0.934356 0.510853
vn -0.000000 -1.000000 0.000000
v 0.558345 -0.088817 0.529961
vt 0.289800 0.458403
vn 0.999879 -0.002567 -0.015353
v 0.542082 -0.054680 0.528334
vt 0.303390 0.457756
vn 0.916625 0.399656 -0.008586
v 0.542082 -0.054680 -0.534881
vt 0.303390 0.034480
vn 0.972919 0.230845 -0.011753
v 0.518011 -0.033229 -0.510809
vt 0.311930 0.044064
vn 0.987778 0.155164 -0.014764
v 0.518011 -0.033229 0.531758
vt 0.311930 0.459119
vn 0.973705 0.227420 -0.013400
v 0.506627 0.006693 -0.554177
vt 0.327823 0.026798
vn 0.992543 0.119840 -0.022296
v 0.558345 -0.088817 0.529961
vt 0.289800 0.458403
vn 0.999879 -0.002567 -0.015353
v 0.542082 -0.054680 -0.534881
vt 0.303390 0.034480
vn 0.972919 0.230845 -0.011753
v 0.525320 -0.088817 -0.557630
vt 0.289800 0.025424
vn 0.999879 -0.002567 -0.015353
v -0.558345 -0.088817 -0.524724
vt 0.126435 0.454812
vn -0.999878 0.002733 0.015353
v -0.542082 -0.054680 -0.534881
vt 0.140025 0.458855
vn -0.945799 0.324595 0.010106
v -0.542082 -0.054680 0.528334
vt 0.140025 0.035580
vn -0.944252 0.329070 0.010021
v -0.518011 -0.033229 0.531758
vt 0.148565 0.034217
vn -0.989610 -0.143538 0.008336
v -0.518011 -0.033229 -0.510809
vt 0.148565 0.449272
vn -0.987643 0.156590 0.006326
v -0.558345 -0.088817 -0.524724
vt 0.126435 0.454812
vn -0.999878 0.002733 0.015353
v -0.542082 -0.054680 0.528334
vt 0.140025 0.035580
vn -0.944252 0.329070 0.010021
v -0.525320 -0.088817 0.562867
vt 0.126435 0.021832
vn -0.999878 0.002733 0.015353
v -0.508053 0.041992 0.514802
vt 0.519608 0.446375
vn -0.005586 -0.227232 0.973825
v -0.572042 0.072079 0.512463
vt 0.531586 0.471849
vn -0.047636 0.049862 0.997619
v 0.510380 0.072079 0.573901
vt 0.531586 0.040927
vn -0.036818 -0.369740 0.928406
v 0.510900 0.088817 0.564740
vt 0.538250 0.040720
vn -0.049692 0.480695 0.875479
v -0.571522 0.088817 0.503303
vt 0.538250 0.471642
vn -0.049692 0.480695 0.875479
v -0.508053 0.041992 0.514802
vt 0.519608 0.446375
vn -0.005586 -0.227232 0.973825
v 0.510380 0.072079 0.573901
vt 0.531586 0.040927
vn -0.036818 -0.369740 0.928406
v 0.508053 0.041992 0.514802
vt 0.519608 0.041854
vn 0.004015 0.073320 0.997300
v -0.508053 0.041992 -0.514803
vt 0.178511 0.450862
vn -0.951504 -0.307371 -0.012805
v -0.510380 0.072079 -0.573901
vt 0.190489 0.474390
vn -0.893669 -0.446957 -0.039818
v -0.572042 0.072079 0.512463
vt 0.190489 0.041898
vn -0.775162 -0.631115 -0.028597
v -0.571522 0.088817 0.503303
vt 0.197152 0.045545
vn -0.998393 -0.000004 -0.056668
v -0.510900 0.088817 -0.564740
vt 0.197152 0.470743
vn -0.998393 -0.000004 -0.056668
v -0.508053 0.041992 -0.514803
vt 0.178511 0.450862
vn -0.951504 -0.307371 -0.012805
v -0.572042 0.072079 0.512463
vt 0.190489 0.041898
vn -0.775162 -0.631115 -0.028597
v -0.508053 0.041992 0.514802
vt 0.178511 0.040967
vn -0.976144 0.217106 -0.002812
v -0.510380 0.072079 -0.573901
vt 0.637561 0.452754
vn 0.036818 -0.369741 -0.928405
v -0.508053 0.041992 -0.514803
vt 0.649539 0.451827
vn -0.003998 -0.050173 -0.998733
v 0.508053 0.041992 -0.514803
vt 0.649539 0.047307
vn 0.007969 -0.370788 -0.928684
v -0.510380 0.072079 -0.573901
vt 0.637561 0.452754
vn 0.036818 -0.369741 -0.928405
v 0.508053 0.041992 -0.514803
vt 0.649539 0.047307
vn 0.007969 -0.370788 -0.928684
v 0.572042 0.072079 -0.512463
vt 0.637561 0.021832
vn 0.047636 0.049859 -0.997620
v -0.510900 0.088817 -0.564740
vt 0.630898 0.452961
vn 0.049692 0.480693 -0.875480
v 0.571522 0.088817 -0.503303
vt 0.630898 0.022039
vn 0.049692 0.480693 -0.875480
v 0.508053 0.041992 0.514802
vt 0.341876 0.452368
vn 0.923648 -0.383165 0.007624
v 0.510380 0.072079 0.573901
vt 0.353854 0.475896
vn 0.893669 -0.446957 0.039818
v 0.572042 0.072079 -0.512463
vt 0.353854 0.043405
vn 0.775162 -0.631115 0.028597
v 0.571522 0.088817 -0.503303
vt 0.360518 0.047052
vn 0.998393 0.000000 0.056668
v 0.510900 0.088817 0.564740
vt 0.360518 0.472249
vn 0.998393 0.000000 0.056668
v 0.508053 0.041992 0.514802
vt 0.341876 0.452368
vn 0.923648 -0.383165 0.007624
v 0.572042 0.072079 -0.512463
vt 0.353854 0.043405
vn 0.775162 -0.631115 0.028597
v 0.508053 0.041992 -0.514803
vt 0.341876 0.042474
vn 0.999896 0.013779 -0.004232
v -0.518011 -0.033229 -0.510809
vt 0.148565 0.449272
vn -0.987643 0.156590 0.006326
v -0.553907 0.006693 -0.507235
vt 0.164458 0.447849
vn -0.989453 0.144407 0.011367
v -0.529729 0.006693 0.560936
vt 0.164458 0.022601
vn -0.999450 0.031102 0.011477
v -0.518011 -0.033229 0.531758
vt 0.148565 0.034217
vn -0.989610 -0.143538 0.008336
v -0.553907 0.006693 -0.507235
vt 0.663592 0.470082
vn -0.022330 -0.112179 -0.993437
v -0.518011 -0.033229 -0.510809
vt 0.679485 0.455792
vn -0.014689 0.048883 -0.998697
v 0.518011 -0.033229 -0.510809
vt 0.679485 0.043343
vn -0.011612 0.241550 -0.970319
v 0.506627 0.006693 -0.554177
vt 0.663592 0.047875
vn -0.022409 -0.079233 -0.996604
v -0.508053 0.041992 -0.514803
vt 0.649539 0.451827
vn -0.003998 -0.050173 -0.998733
v 0.518011 -0.033229 0.531758
vt 0.311930 0.459119
vn 0.973705 0.227420 -0.013400
v 0.553907 0.006693 0.513993
vt 0.327823 0.452046
vn 0.996224 0.083890 -0.022374
v 0.506627 0.006693 -0.554177
vt 0.327823 0.026798
vn 0.992543 0.119840 -0.022296
v 0.508053 0.041992 -0.514803
vt 0.341876 0.042474
vn 0.999896 0.013779 -0.004232
v -0.529729 0.006693 0.560936
vt 0.505556 0.455004
vn 0.021792 0.198294 0.979900
v -0.508053 0.041992 0.514802
vt 0.519608 0.446375
vn -0.005586 -0.227232 0.973825
v 0.508053 0.041992 0.514802
vt 0.519608 0.041854
vn 0.004015 0.073320 0.997300
v -0.553907 0.006693 -0.507235
vt 0.164458 0.447849
vn -0.989453 0.144407 0.011367
v -0.508053 0.041992 -0.514803
vt 0.178511 0.450862
vn -0.951504 -0.307371 -0.012805
v -0.508053 0.041992 0.514802
vt 0.178511 0.040967
vn -0.976144 0.217106 -0.002812
v -0.529729 0.006693 0.560936
vt 0.164458 0.022601
vn -0.999450 0.031102 0.011477
v -0.508053 0.041992 -0.514803
vt 0.649539 0.451827
vn -0.003998 -0.050173 -0.998733
v 0.506627 0.006693 -0.554177
vt 0.663592 0.047875
vn -0.022409 -0.079233 -0.996604
v 0.508053 0.041992 -0.514803
vt 0.649539 0.047307
vn 0.007969 -0.370788 -0.928684
v 0.553907 0.006693 0.513993
vt 0.327823 0.452046
vn 0.996224 0.083890 -0.022374
v 0.508053 0.041992 0.514802
vt 0.341876 0.452368
vn 0.923648 -0.383165 0.007624
v 0.508053 0.041992 -0.514803
vt 0.341876 0.042474
vn 0.999896 0.013779 -0.004232
# Faces (1 to 100)
f -98/-98/-98 -99/-99/-99 -100/-100/-100
f -97/-97/-97 -98/-98/-98 -100/-100/-100
f -98/-98/-98 -96/-96/-96 -99/-99/-99
f -96/-96/-96 -95/-95/-95 -99/-99/-99
f -96/-96/-96 -94/-94/-94 -95/-95/-95
f -94/-94/-94 -93/-93/-93 -95/-95/-95
f -94/-94/-94 -92/-92/-92 -93/-93/-93
f -89/-89/-89 -90/-90/-90 -91/-91/-91
f -88/-88/-88 -89/-89/-89 -91/-91/-91
f -85/-85/-85 -86/-86/-86 -87/-87/-87
f -82/-82/-82 -83/-83/-83 -84/-84/-84
f -82/-82/-82 -84/-84/-84 -81/-81/-81
f -80/-80/-80 -82/-82/-82 -81/-81/-81
f -77/-77/-77 -78/-78/-78 -79/-79/-79
f -76/-76/-76 -77/-77/-77 -79/-79/-79
f -73/-73/-73 -74/-74/-74 -75/-75/-75
f -73/-73/-73 -72/-72/-72 -74/-74/-74
f -72/-72/-72 -71/-71/-71 -74/-74/-74
f -72/-72/-72 -70/-70/-70 -71/-71/-71
f -67/-67/-67 -68/-68/-68 -69/-69/-69
f -64/-64/-64 -65/-65/-65 -66/-66/-66
f -64/-64/-64 -63/-63/-63 -65/-65/-65
f -63/-63/-63 -62/-62/-62 -65/-65/-65
f -59/-59/-59 -60/-60/-60 -61/-61/-61
f -56/-56/-56 -57/-57/-57 -58/-58/-58
f -56/-56/-56 -55/-55/-55 -57/-57/-57
f -55/-55/-55 -54/-54/-54 -57/-57/-57
f -51/-51/-51 -52/-52/-52 -53/-53/-53
f -48/-48/-48 -49/-49/-49 -50/-50/-50
f -48/-48/-48 -47/-47/-47 -49/-49/-49
f -47/-47/-47 -46/-46/-46 -49/-49/-49
f -43/-43/-43 -44/-44/-44 -45/-45/-45
f -40/-40/-40 -41/-41/-41 -42/-42/-42
f -37/-37/-37 -38/-38/-38 -39/-39/-39
f -37/-37/-37 -39/-39/-39 -36/-36/-36
f -35/-35/-35 -37/-37/-37 -36/-36/-36
f -32/-32/-32 -33/-33/-33 -34/-34/-34
f -32/-32/-32 -31/-31/-31 -33/-33/-33
f -31/-31/-31 -30/-30/-30 -33/-33/-33
f -27/-27/-27 -28/-28/-28 -29/-29/-29
f -24/-24/-24 -25/-25/-25 -26/-26/-26
f -23/-23/-23 -24/-24/-24 -26/-26/-26
f -20/-20/-20 -21/-21/-21 -22/-22/-22
f -19/-19/-19 -20/-20/-20 -22/-22/-22
f -19/-19/-19 -22/-22/-22 -18/-18/-18
f -15/-15/-15 -16/-16/-16 -17/-17/-17
f -15/-15/-15 -14/-14/-14 -16/-16/-16
f -11/-11/-11 -12/-12/-12 -13/-13/-13
f -8/-8/-8 -9/-9/-9 -10/-10/-10
f -7/-7/-7 -8/-8/-8 -10/-10/-10
f -4/-4/-4 -5/-5/-5 -6/-6/-6
f -1/-1/-1 -2/-2/-2 -3/-3/-3

