# Mesh "clay" exported with Unity Assets Bundle Extractor; 21 vertices, 60 indices, 48 bytes per vertex
g clay
# SubMesh 0
# Vertices
v 0.192837 0.000000 -0.062656
vt 0.894929 0.805838
vn -0.000000 1.000000 0.000000
v 0.000000 0.000000 0.000000
vt 0.745267 0.757210
vn -0.000000 1.000000 0.000000
v 0.164037 0.000000 -0.119180
vt 0.872577 0.849706
vn -0.000000 1.000000 0.000000
v 0.119180 0.000000 -0.164037
vt 0.837763 0.884519
vn -0.000000 1.000000 0.000000
v 0.062657 0.000000 -0.192837
vt 0.793895 0.906871
vn -0.000000 1.000000 0.000000
v 0.000000 0.000000 -0.202761
vt 0.745267 0.914573
vn -0.000000 1.000000 0.000000
v -0.062656 0.000000 -0.192837
vt 0.696639 0.906871
vn -0.000000 1.000000 0.000000
v -0.119180 0.000000 -0.164037
vt 0.652772 0.884519
vn -0.000000 1.000000 0.000000
v -0.164037 0.000000 -0.119180
vt 0.617958 0.849705
vn -0.000000 1.000000 0.000000
v -0.192837 0.000000 -0.062656
vt 0.595606 0.805838
vn -0.000000 1.000000 0.000000
v -0.202761 0.000000 0.000000
vt 0.587904 0.757210
vn -0.000000 1.000000 0.000000
v -0.192837 0.000000 0.062657
vt 0.595606 0.708582
vn -0.000000 1.000000 0.000000
v -0.164037 0.000000 0.119180
vt 0.617958 0.664714
vn -0.000000 1.000000 0.000000
v -0.119180 0.000000 0.164037
vt 0.652772 0.629900
vn -0.000000 1.000000 0.000000
v -0.062656 0.000000 0.192837
vt 0.696639 0.607549
vn -0.000000 1.000000 0.000000
v 0.000000 0.000000 0.202761
vt 0.745267 0.599847
vn -0.000000 1.000000 0.000000
v 0.062657 0.000000 0.192837
vt 0.793895 0.607549
vn -0.000000 1.000000 0.000000
v 0.119180 0.000000 0.164037
vt 0.837763 0.629900
vn -0.000000 1.000000 0.000000
v 0.164037 0.000000 0.119180
vt 0.872577 0.664714
vn -0.000000 1.000000 0.000000
v 0.192837 0.000000 0.062657
vt 0.894929 0.708582
vn -0.000000 1.000000 0.000000
v 0.202761 0.000000 0.000000
vt 0.902630 0.757210
vn -0.000000 1.000000 0.000000
# Faces (1 to 21)
f -19/-19/-19 -20/-20/-20 -21/-21/-21
f -18/-18/-18 -20/-20/-20 -19/-19/-19
f -17/-17/-17 -20/-20/-20 -18/-18/-18
f -16/-16/-16 -20/-20/-20 -17/-17/-17
f -15/-15/-15 -20/-20/-20 -16/-16/-16
f -14/-14/-14 -20/-20/-20 -15/-15/-15
f -13/-13/-13 -20/-20/-20 -14/-14/-14
f -12/-12/-12 -20/-20/-20 -13/-13/-13
f -11/-11/-11 -20/-20/-20 -12/-12/-12
f -10/-10/-10 -20/-20/-20 -11/-11/-11
f -9/-9/-9 -20/-20/-20 -10/-10/-10
f -8/-8/-8 -20/-20/-20 -9/-9/-9
f -7/-7/-7 -20/-20/-20 -8/-8/-8
f -6/-6/-6 -20/-20/-20 -7/-7/-7
f -5/-5/-5 -20/-20/-20 -6/-6/-6
f -4/-4/-4 -20/-20/-20 -5/-5/-5
f -3/-3/-3 -20/-20/-20 -4/-4/-4
f -2/-2/-2 -20/-20/-20 -3/-3/-3
f -1/-1/-1 -20/-20/-20 -2/-2/-2
f -21/-21/-21 -20/-20/-20 -1/-1/-1

