# Mesh "clothes" exported with Unity Assets Bundle Extractor; 128 vertices, 360 indices, 48 bytes per vertex
g clothes
# SubMesh 0
# Vertices
v 0.104410 -0.006631 -0.026636
vt 0.277381 0.510005
vn 0.574913 -0.800038 -0.171505
v 0.104690 -0.000997 -0.028039
vt 0.263817 0.509332
vn 0.642933 0.569192 -0.512502
v 0.080207 -0.000402 -0.042414
vt 0.262384 0.568274
vn 0.401136 0.505192 -0.764114
v 0.079651 -0.011595 -0.039626
vt 0.289332 0.569613
vn 0.334364 -0.838953 -0.429369
v -0.038144 -0.022046 -0.105089
vt 0.314493 0.853213
vn 0.303232 -0.838596 -0.452555
v -0.037588 -0.010853 -0.107877
vt 0.287546 0.851874
vn 0.369577 0.496935 -0.785155
v -0.054599 -0.020739 -0.115003
vt 0.311346 0.892829
vn -0.176083 -0.805271 -0.566156
v -0.054319 -0.015104 -0.116406
vt 0.297782 0.892156
vn -0.113264 0.459228 -0.881068
v 0.104690 -0.000997 -0.028039
vt 0.209779 0.001920
vn 0.642933 0.569192 -0.512502
v 0.097080 0.005600 -0.015400
vt 0.179347 0.020240
vn 0.501406 0.865210 -0.001721
v 0.072736 0.008970 -0.030465
vt 0.215619 0.078851
vn 0.107744 0.954624 -0.277642
v 0.080207 -0.000402 -0.042414
vt 0.244387 0.060862
vn 0.401136 0.505192 -0.764114
v -0.045060 -0.001481 -0.095928
vt 0.373225 0.362452
vn 0.048538 0.949043 -0.311386
v -0.037588 -0.010853 -0.107877
vt 0.401992 0.344462
vn 0.369577 0.496935 -0.785155
v -0.061929 -0.008508 -0.103766
vt 0.392095 0.403065
vn -0.513752 0.673452 -0.531527
v -0.054319 -0.015104 -0.116406
vt 0.422527 0.384744
vn -0.113264 0.459228 -0.881068
v -0.097193 0.008376 -0.043005
vt 0.245810 0.487967
vn -0.553134 0.690632 -0.465908
v -0.080324 0.015403 -0.035167
vt 0.226940 0.447353
vn -0.014308 0.979006 -0.203327
v -0.104410 0.008878 -0.030100
vt 0.214740 0.505341
vn -0.684456 0.716935 0.132374
v -0.087679 0.013129 -0.021571
vt 0.194205 0.465059
vn -0.353433 0.810118 0.467754
v 0.037471 0.025854 0.030295
vt 0.069334 0.163753
vn 0.045869 0.984237 -0.170800
v 0.030117 0.023580 0.043892
vt 0.036599 0.181459
vn -0.319430 0.816460 0.480997
v 0.061815 0.022484 0.045361
vt 0.033062 0.105142
vn 0.459127 0.885310 0.073681
v 0.054599 0.022985 0.058266
vt 0.001992 0.122516
vn 0.018477 0.837124 0.546702
v 0.054599 0.022985 0.058266
vt 0.254817 0.509332
vn 0.018477 0.837124 0.546702
v 0.054319 0.017351 0.059670
vt 0.241252 0.510006
vn -0.047035 -0.481612 0.875122
v 0.029561 0.012387 0.046679
vt 0.229302 0.569613
vn -0.382974 -0.462657 0.799550
v 0.030117 0.023580 0.043892
vt 0.256249 0.568274
vn -0.319430 0.816460 0.480997
v -0.087679 0.013129 -0.021571
vt 0.231088 0.851875
vn -0.353433 0.810118 0.467754
v -0.088235 0.001936 -0.018783
vt 0.204140 0.853213
vn -0.416535 -0.460107 0.784092
v -0.104410 0.008878 -0.030100
vt 0.220852 0.892156
vn -0.684456 0.716935 0.132374
v -0.104690 0.003244 -0.028697
vt 0.207287 0.892830
vn -0.745123 -0.504247 0.436494
v 0.096513 -0.005804 -0.012559
vt 0.675646 0.020931
vn 0.418286 -0.807982 0.414972
v 0.104410 -0.006631 -0.026636
vt 0.641755 0.001920
vn 0.574913 -0.800038 -0.171505
v 0.079651 -0.011595 -0.039626
vt 0.610481 0.061527
vn 0.334364 -0.838953 -0.429369
v 0.071617 -0.013543 -0.024858
vt 0.646036 0.080870
vn 0.011690 -0.978924 0.203890
v -0.046178 -0.023994 -0.090321
vt 0.488430 0.364470
vn -0.047505 -0.984283 0.170091
v -0.038144 -0.022046 -0.105089
vt 0.452874 0.345127
vn 0.303232 -0.838596 -0.452555
v -0.062495 -0.019912 -0.100926
vt 0.462899 0.403755
vn -0.586582 -0.792607 -0.166418
v -0.054599 -0.020739 -0.115003
vt 0.429007 0.384744
vn -0.176083 -0.805271 -0.566156
v 0.061249 0.011080 0.048201
vt 0.821932 0.105833
vn 0.376078 -0.786419 0.490010
v 0.036353 0.003341 0.035902
vt 0.792321 0.165772
vn -0.050179 -0.949182 0.310701
v 0.054319 0.017351 0.059670
vt 0.849542 0.122517
vn -0.047035 -0.481612 0.875122
v 0.029561 0.012387 0.046679
vt 0.818268 0.182124
vn -0.382974 -0.462657 0.799550
v -0.081443 -0.007110 -0.029561
vt 0.634715 0.449372
vn -0.110345 -0.954188 0.278118
v -0.088235 0.001936 -0.018783
vt 0.660662 0.465724
vn -0.416535 -0.460107 0.784092
v -0.097760 -0.003028 -0.040165
vt 0.609184 0.488657
vn -0.625861 -0.773325 -0.101323
v -0.104690 0.003244 -0.028697
vt 0.636795 0.505341
vn -0.745123 -0.504247 0.436494
v -0.054599 -0.020739 -0.115003
vt 0.057064 0.717119
vn -0.176083 -0.805271 -0.566156
v -0.054319 -0.015104 -0.116406
vt 0.070628 0.720497
vn -0.113264 0.459228 -0.881068
v -0.061929 -0.008508 -0.103766
vt 0.086511 0.690066
vn -0.513752 0.673452 -0.531527
v -0.062495 -0.019912 -0.100926
vt 0.059055 0.683228
vn -0.586582 -0.792607 -0.166418
v -0.097760 -0.003028 -0.040165
vt 0.099704 0.536943
vn -0.625861 -0.773325 -0.101323
v -0.097193 0.008376 -0.043005
vt 0.127160 0.543780
vn -0.553134 0.690632 -0.465908
v -0.104690 0.003244 -0.028697
vt 0.114802 0.509332
vn -0.745123 -0.504247 0.436494
v -0.104410 0.008878 -0.030100
vt 0.128367 0.512710
vn -0.684456 0.716935 0.132374
v 0.096513 -0.005804 -0.012559
vt 0.003983 0.761758
vn 0.418286 -0.807982 0.414972
v 0.097080 0.005600 -0.015400
vt 0.031439 0.754920
vn 0.501406 0.865210 -0.001721
v 0.104690 -0.000997 -0.028039
vt 0.015556 0.724489
vn 0.642933 0.569192 -0.512502
v 0.104410 -0.006631 -0.026636
vt 0.001992 0.727867
vn 0.574913 -0.800038 -0.171505
v 0.061249 0.011080 0.048201
vt 0.044632 0.908043
vn 0.376078 -0.786419 0.490010
v 0.061815 0.022484 0.045361
vt 0.072087 0.901205
vn 0.459127 0.885310 0.073681
v 0.054319 0.017351 0.059670
vt 0.059730 0.935654
vn -0.047035 -0.481612 0.875122
v 0.054599 0.022985 0.058266
vt 0.073295 0.932276
vn 0.018477 0.837124 0.546702
v 0.088290 -0.013971 -0.006247
vt 0.380513 0.509332
vn 0.351742 -0.726688 -0.590086
v 0.088176 -0.008159 -0.006253
vt 0.366521 0.509608
vn 0.322839 0.738940 -0.591390
v 0.059909 -0.005847 -0.004833
vt 0.360955 0.577661
vn -0.029322 0.727953 -0.685000
v 0.060137 -0.017393 -0.004823
vt 0.388752 0.577113
vn -0.000576 -0.729761 -0.683702
v -0.074833 -0.020048 0.001980
vt 0.395146 0.902064
vn -0.041056 -0.726333 -0.686116
v -0.075061 -0.008503 0.001970
vt 0.367348 0.902612
vn -0.069635 0.722927 -0.687406
v -0.093902 -0.017556 0.002936
vt 0.389144 0.947973
vn -0.515928 -0.685757 -0.513377
v -0.094017 -0.011744 0.002931
vt 0.375152 0.948249
vn -0.542546 0.663969 -0.514576
v 0.088176 -0.008159 -0.006253
vt 0.998008 0.523092
vn 0.322839 0.738940 -0.591390
v 0.089002 -0.005150 0.011308
vt 0.955731 0.521103
vn 0.483882 0.872661 -0.065727
v 0.060679 0.000025 0.012725
vt 0.952320 0.589293
vn 0.010682 0.998175 -0.059439
v 0.059909 -0.005847 -0.004833
vt 0.994591 0.591146
vn -0.029322 0.727953 -0.685000
v -0.074292 -0.002631 0.019528
vt 0.935941 0.914243
vn -0.057684 0.996723 -0.056703
v -0.075061 -0.008503 0.001970
vt 0.978212 0.916096
vn -0.069635 0.722927 -0.687406
v -0.093191 -0.008735 0.020491
vt 0.933621 0.959745
vn -0.669434 0.742867 -0.002731
v -0.094017 -0.011744 0.002931
vt 0.975899 0.961733
vn -0.542546 0.663969 -0.514576
v -0.089168 -0.008584 0.100375
vt 0.741294 0.950058
vn -0.667078 0.741891 0.067858
v -0.070268 -0.002481 0.099412
vt 0.743613 0.904556
vn -0.051955 0.996883 0.059369
v -0.088302 -0.011530 0.116401
vt 0.702712 0.947974
vn -0.474512 0.645920 0.598018
v -0.069346 -0.008289 0.115440
vt 0.705025 0.902336
vn 0.002796 0.693351 0.720595
v 0.064702 0.000175 0.092609
vt 0.759992 0.579606
vn 0.016569 0.998338 0.055194
v 0.065624 -0.005633 0.108637
vt 0.721404 0.577386
vn 0.040960 0.698524 0.714413
v 0.093025 -0.005000 0.091192
vt 0.763403 0.511416
vn 0.489155 0.872083 0.014112
v 0.093891 -0.007945 0.107218
vt 0.724821 0.509332
vn 0.373264 0.717063 0.588638
v 0.093891 -0.007945 0.107218
vt 0.349253 0.509608
vn 0.373264 0.717063 0.588638
v 0.094006 -0.013757 0.107223
vt 0.335261 0.509332
vn 0.401218 -0.700743 0.589901
v 0.065852 -0.017179 0.108647
vt 0.327022 0.577114
vn 0.068442 -0.695096 0.715652
v 0.065624 -0.005633 0.108637
vt 0.354820 0.577662
vn 0.040960 0.698524 0.714413
v -0.069346 -0.008289 0.115440
vt 0.348426 0.902612
vn 0.002796 0.693351 0.720595
v -0.069118 -0.019835 0.115450
vt 0.320628 0.902064
vn 0.030104 -0.691420 0.721826
v -0.088302 -0.011530 0.116401
vt 0.340623 0.948249
vn -0.474512 0.645920 0.598018
v -0.088187 -0.017342 0.116406
vt 0.326631 0.947974
vn -0.448702 -0.663062 0.599179
v 0.089234 -0.016914 0.011318
vt 0.443572 0.520821
vn 0.517915 -0.853020 -0.064192
v 0.088290 -0.013971 -0.006247
vt 0.401281 0.523092
vn 0.351742 -0.726688 -0.590086
v 0.060137 -0.017393 -0.004823
vt 0.404710 0.590873
vn -0.000576 -0.729761 -0.683702
v 0.061137 -0.023198 0.012745
vt 0.447007 0.588466
vn 0.050029 -0.997082 -0.057664
v -0.073834 -0.025854 0.019548
vt 0.463385 0.913417
vn -0.018341 -0.998322 -0.054929
v -0.074833 -0.020048 0.001980
vt 0.421089 0.915824
vn -0.041056 -0.726333 -0.686116
v -0.092959 -0.020498 0.020501
vt 0.465680 0.959462
vn -0.639626 -0.768685 -0.001386
v -0.093902 -0.017556 0.002936
vt 0.423390 0.961733
vn -0.515928 -0.685757 -0.513377
v 0.093257 -0.016763 0.091203
vt 0.635898 0.511134
vn 0.523155 -0.852094 0.015645
v 0.065160 -0.023048 0.092630
vt 0.639334 0.578780
vn 0.055914 -0.996809 0.056968
v 0.094006 -0.013757 0.107223
vt 0.674468 0.509332
vn 0.401218 -0.700743 0.589901
v 0.065852 -0.017179 0.108647
vt 0.677897 0.577114
vn 0.068442 -0.695096 0.715652
v -0.069810 -0.025704 0.099433
vt 0.655713 0.903730
vn -0.012615 -0.998049 0.061142
v -0.069118 -0.019835 0.115450
vt 0.694276 0.902064
vn 0.030104 -0.691420 0.721826
v -0.088935 -0.020348 0.100386
vt 0.658008 0.949775
vn -0.637314 -0.767491 0.069201
v -0.088187 -0.017342 0.116406
vt 0.696577 0.947974
vn -0.448702 -0.663062 0.599179
v -0.093902 -0.017556 0.002936
vt 0.176406 0.782519
vn -0.515928 -0.685757 -0.513377
v -0.094017 -0.011744 0.002931
vt 0.190398 0.782531
vn -0.542546 0.663969 -0.514576
v -0.093191 -0.008735 0.020491
vt 0.197642 0.740253
vn -0.669434 0.742867 -0.002731
v -0.092959 -0.020498 0.020501
vt 0.169321 0.740228
vn -0.639626 -0.768685 -0.001386
v -0.088935 -0.020348 0.100386
vt 0.169683 0.547901
vn -0.637314 -0.767491 0.069201
v -0.089168 -0.008584 0.100375
vt 0.198005 0.547926
vn -0.667078 0.741891 0.067858
v -0.088187 -0.017342 0.116406
vt 0.176920 0.509332
vn -0.448702 -0.663062 0.599179
v -0.088302 -0.011530 0.116401
vt 0.190913 0.509344
vn -0.474512 0.645920 0.598018
v 0.089234 -0.016914 0.011318
vt 0.134502 0.551635
vn 0.517915 -0.853020 -0.064192
v 0.089002 -0.005150 0.011308
vt 0.162824 0.551609
vn 0.483882 0.872661 -0.065727
v 0.088176 -0.008159 -0.006253
vt 0.155580 0.509332
vn 0.322839 0.738940 -0.591390
v 0.088290 -0.013971 -0.006247
vt 0.141587 0.509344
vn 0.351742 -0.726688 -0.590086
v 0.093257 -0.016763 0.091203
vt 0.134864 0.743962
vn 0.523155 -0.852094 0.015645
v 0.093025 -0.005000 0.091192
vt 0.163186 0.743937
vn 0.489155 0.872083 0.014112
v 0.094006 -0.013757 0.107223
vt 0.142102 0.782531
vn 0.401218 -0.700743 0.589901
v 0.093891 -0.007945 0.107218
vt 0.156094 0.782519
vn 0.373264 0.717063 0.588638
# Faces (1 to 128)
f -126/-126/-126 -127/-127/-127 -128/-128/-128
f -125/-125/-125 -126/-126/-126 -128/-128/-128
f -125/-125/-125 -124/-124/-124 -126/-126/-126
f -124/-124/-124 -123/-123/-123 -126/-126/-126
f -124/-124/-124 -122/-122/-122 -123/-123/-123
f -122/-122/-122 -121/-121/-121 -123/-123/-123
f -118/-118/-118 -119/-119/-119 -120/-120/-120
f -117/-117/-117 -118/-118/-118 -120/-120/-120
f -116/-116/-116 -118/-118/-118 -117/-117/-117
f -115/-115/-115 -116/-116/-116 -117/-117/-117
f -114/-114/-114 -116/-116/-116 -115/-115/-115
f -113/-113/-113 -114/-114/-114 -115/-115/-115
f -114/-114/-114 -112/-112/-112 -116/-116/-116
f -112/-112/-112 -111/-111/-111 -116/-116/-116
f -116/-116/-116 -111/-111/-111 -118/-118/-118
f -112/-112/-112 -110/-110/-110 -111/-111/-111
f -110/-110/-110 -109/-109/-109 -111/-111/-111
f -111/-111/-111 -109/-109/-109 -108/-108/-108
f -111/-111/-111 -108/-108/-108 -118/-118/-118
f -118/-118/-118 -108/-108/-108 -119/-119/-119
f -109/-109/-109 -107/-107/-107 -108/-108/-108
f -108/-108/-108 -107/-107/-107 -106/-106/-106
f -108/-108/-108 -106/-106/-106 -119/-119/-119
f -107/-107/-107 -105/-105/-105 -106/-106/-106
f -102/-102/-102 -103/-103/-103 -104/-104/-104
f -101/-101/-101 -102/-102/-102 -104/-104/-104
f -101/-101/-101 -100/-100/-100 -102/-102/-102
f -100/-100/-100 -99/-99/-99 -102/-102/-102
f -100/-100/-100 -98/-98/-98 -99/-99/-99
f -98/-98/-98 -97/-97/-97 -99/-99/-99
f -94/-94/-94 -95/-95/-95 -96/-96/-96
f -93/-93/-93 -94/-94/-94 -96/-96/-96
f -93/-93/-93 -92/-92/-92 -94/-94/-94
f -92/-92/-92 -91/-91/-91 -94/-94/-94
f -92/-92/-92 -90/-90/-90 -91/-91/-91
f -90/-90/-90 -89/-89/-89 -91/-91/-91
f -93/-93/-93 -96/-96/-96 -88/-88/-88
f -87/-87/-87 -93/-93/-93 -88/-88/-88
f -93/-93/-93 -87/-87/-87 -92/-92/-92
f -87/-87/-87 -88/-88/-88 -86/-86/-86
f -85/-85/-85 -87/-87/-87 -86/-86/-86
f -87/-87/-87 -85/-85/-85 -84/-84/-84
f -87/-87/-87 -84/-84/-84 -92/-92/-92
f -92/-92/-92 -84/-84/-84 -90/-90/-90
f -85/-85/-85 -83/-83/-83 -84/-84/-84
f -84/-84/-84 -83/-83/-83 -82/-82/-82
f -84/-84/-84 -82/-82/-82 -90/-90/-90
f -83/-83/-83 -81/-81/-81 -82/-82/-82
f -78/-78/-78 -79/-79/-79 -80/-80/-80
f -77/-77/-77 -78/-78/-78 -80/-80/-80
f -77/-77/-77 -76/-76/-76 -78/-78/-78
f -76/-76/-76 -75/-75/-75 -78/-78/-78
f -76/-76/-76 -74/-74/-74 -75/-75/-75
f -74/-74/-74 -73/-73/-73 -75/-75/-75
f -70/-70/-70 -71/-71/-71 -72/-72/-72
f -69/-69/-69 -70/-70/-70 -72/-72/-72
f -72/-72/-72 -71/-71/-71 -68/-68/-68
f -71/-71/-71 -67/-67/-67 -68/-68/-68
f -68/-68/-68 -67/-67/-67 -66/-66/-66
f -67/-67/-67 -65/-65/-65 -66/-66/-66
f -62/-62/-62 -63/-63/-63 -64/-64/-64
f -61/-61/-61 -62/-62/-62 -64/-64/-64
f -61/-61/-61 -60/-60/-60 -62/-62/-62
f -60/-60/-60 -59/-59/-59 -62/-62/-62
f -60/-60/-60 -58/-58/-58 -59/-59/-59
f -58/-58/-58 -57/-57/-57 -59/-59/-59
f -54/-54/-54 -55/-55/-55 -56/-56/-56
f -53/-53/-53 -54/-54/-54 -56/-56/-56
f -52/-52/-52 -54/-54/-54 -53/-53/-53
f -51/-51/-51 -52/-52/-52 -53/-53/-53
f -50/-50/-50 -52/-52/-52 -51/-51/-51
f -49/-49/-49 -50/-50/-50 -51/-51/-51
f -50/-50/-50 -48/-48/-48 -52/-52/-52
f -48/-48/-48 -47/-47/-47 -52/-52/-52
f -52/-52/-52 -47/-47/-47 -54/-54/-54
f -48/-48/-48 -46/-46/-46 -47/-47/-47
f -46/-46/-46 -45/-45/-45 -47/-47/-47
f -47/-47/-47 -45/-45/-45 -44/-44/-44
f -47/-47/-47 -44/-44/-44 -54/-54/-54
f -54/-54/-54 -44/-44/-44 -55/-55/-55
f -45/-45/-45 -43/-43/-43 -44/-44/-44
f -44/-44/-44 -43/-43/-43 -42/-42/-42
f -44/-44/-44 -42/-42/-42 -55/-55/-55
f -43/-43/-43 -41/-41/-41 -42/-42/-42
f -38/-38/-38 -39/-39/-39 -40/-40/-40
f -37/-37/-37 -38/-38/-38 -40/-40/-40
f -37/-37/-37 -36/-36/-36 -38/-38/-38
f -36/-36/-36 -35/-35/-35 -38/-38/-38
f -36/-36/-36 -34/-34/-34 -35/-35/-35
f -34/-34/-34 -33/-33/-33 -35/-35/-35
f -30/-30/-30 -31/-31/-31 -32/-32/-32
f -29/-29/-29 -30/-30/-30 -32/-32/-32
f -29/-29/-29 -28/-28/-28 -30/-30/-30
f -28/-28/-28 -27/-27/-27 -30/-30/-30
f -28/-28/-28 -26/-26/-26 -27/-27/-27
f -26/-26/-26 -25/-25/-25 -27/-27/-27
f -29/-29/-29 -32/-32/-32 -24/-24/-24
f -23/-23/-23 -29/-29/-29 -24/-24/-24
f -29/-29/-29 -23/-23/-23 -28/-28/-28
f -23/-23/-23 -24/-24/-24 -22/-22/-22
f -21/-21/-21 -23/-23/-23 -22/-22/-22
f -23/-23/-23 -21/-21/-21 -20/-20/-20
f -23/-23/-23 -20/-20/-20 -28/-28/-28
f -28/-28/-28 -20/-20/-20 -26/-26/-26
f -21/-21/-21 -19/-19/-19 -20/-20/-20
f -20/-20/-20 -19/-19/-19 -18/-18/-18
f -20/-20/-20 -18/-18/-18 -26/-26/-26
f -19/-19/-19 -17/-17/-17 -18/-18/-18
f -14/-14/-14 -15/-15/-15 -16/-16/-16
f -13/-13/-13 -14/-14/-14 -16/-16/-16
f -13/-13/-13 -12/-12/-12 -14/-14/-14
f -12/-12/-12 -11/-11/-11 -14/-14/-14
f -12/-12/-12 -10/-10/-10 -11/-11/-11
f -10/-10/-10 -9/-9/-9 -11/-11/-11
f -6/-6/-6 -7/-7/-7 -8/-8/-8
f -5/-5/-5 -6/-6/-6 -8/-8/-8
f -8/-8/-8 -7/-7/-7 -4/-4/-4
f -7/-7/-7 -3/-3/-3 -4/-4/-4
f -4/-4/-4 -3/-3/-3 -2/-2/-2
f -3/-3/-3 -1/-1/-1 -2/-2/-2

