# Mesh "Crossbeam5" exported with Unity Assets Bundle Extractor; 16 vertices, 30 indices, 56 bytes per vertex
g Crossbeam5
# SubMesh 0
# Vertices
v -0.001543 -0.003195 0.004204
vt 0.367826 0.933357
vn -0.191849 -0.981425 0.000000
v 0.001543 -0.003195 0.004204
vt 0.527766 0.933356
vn 0.191849 -0.981425 0.000000
v 0.001543 -0.003195 -0.004204
vt 0.527765 0.397364
vn 0.191849 -0.981425 0.000000
v -0.001543 -0.003195 -0.004204
vt 0.367828 0.397362
vn -0.191849 -0.981425 0.000000
v 0.002293 -0.002445 0.004204
vt 0.582728 0.933357
vn 0.993182 -0.116571 0.000000
v 0.002293 0.003195 0.004204
vt 0.874990 0.933356
vn 1.000000 0.000000 0.000000
v 0.002293 0.003195 -0.004204
vt 0.874989 0.397363
vn 1.000000 0.000000 0.000000
v 0.002293 -0.002445 -0.004204
vt 0.582728 0.397362
vn 0.993182 -0.116571 0.000000
v 0.001543 -0.003195 -0.004204
vt 0.527765 0.397364
vn 0.191849 -0.981425 0.000000
v 0.001543 -0.003195 0.004204
vt 0.527766 0.933356
vn 0.191849 -0.981425 0.000000
v -0.002293 -0.002445 -0.004204
vt 0.312865 0.397363
vn -0.993182 -0.116571 0.000000
v -0.002293 0.003195 -0.004204
vt 0.020604 0.397363
vn -1.000000 0.000000 0.000000
v -0.002293 0.003195 0.004204
vt 0.020605 0.933357
vn -1.000000 0.000000 0.000000
v -0.002293 -0.002445 0.004204
vt 0.312867 0.933356
vn -0.993182 -0.116571 0.000000
v -0.001543 -0.003195 0.004204
vt 0.367826 0.933357
vn -0.191849 -0.981425 0.000000
v -0.001543 -0.003195 -0.004204
vt 0.367828 0.397362
vn -0.191849 -0.981425 0.000000
# Faces (1 to 16)
f -14/-14/-14 -15/-15/-15 -16/-16/-16
f -13/-13/-13 -14/-14/-14 -16/-16/-16
f -10/-10/-10 -11/-11/-11 -12/-12/-12
f -9/-9/-9 -10/-10/-10 -12/-12/-12
f -8/-8/-8 -9/-9/-9 -12/-12/-12
f -7/-7/-7 -8/-8/-8 -12/-12/-12
f -4/-4/-4 -5/-5/-5 -6/-6/-6
f -3/-3/-3 -4/-4/-4 -6/-6/-6
f -3/-3/-3 -6/-6/-6 -2/-2/-2
f -6/-6/-6 -1/-1/-1 -2/-2/-2

