# Mesh "door1" exported with Unity Assets Bundle Extractor; 92 vertices, 156 indices, 56 bytes per vertex
g door1
# SubMesh 0
# Vertices
v -0.005448 0.007500 -0.005824
vt 0.999501 0.999501
vn -0.000000 0.000000 -1.000000
v -0.005448 -0.002500 -0.005824
vt 0.999501 0.333506
vn -0.000000 0.000000 -1.000000
v 0.564552 0.007500 -0.005824
vt 0.000500 0.999491
vn -0.000000 0.000000 -1.000000
v 0.564552 -0.002500 -0.005824
vt 0.000500 0.333497
vn -0.000000 0.000000 -1.000000
v 0.564552 0.007500 0.853352
vt 0.999500 0.999491
vn -0.000000 0.000000 1.000000
v -0.005448 -0.002500 0.853352
vt 0.000499 0.333506
vn -0.000000 0.000000 1.000000
v -0.005448 0.007500 0.853352
vt 0.000499 0.999501
vn -0.000000 0.000000 1.000000
v 0.564552 -0.002500 0.853352
vt 0.999500 0.333497
vn -0.000000 0.000000 1.000000
v 0.564552 0.003000 0.492498
vt 0.699794 0.579920
vn 1.000000 0.000000 0.000000
v 0.564552 0.007500 0.492498
vt 0.999491 0.579920
vn 1.000000 0.000000 0.000000
v 0.564552 0.007500 0.355030
vt 0.999491 0.420080
vn 1.000000 0.000000 0.000000
v 0.564552 0.003000 0.355030
vt 0.699794 0.420080
vn 1.000000 0.000000 0.000000
v 0.564552 0.000062 0.495498
vt 0.504147 0.583408
vn 1.000000 0.000000 0.000000
v 0.564552 0.007500 0.853352
vt 0.999491 0.999501
vn 1.000000 0.000000 0.000000
v 0.564552 0.000062 0.352031
vt 0.504147 0.416592
vn 1.000000 0.000000 0.000000
v 0.564552 0.007500 -0.005824
vt 0.999491 0.000500
vn 1.000000 0.000000 0.000000
v 0.564552 -0.002500 -0.005824
vt 0.333497 0.000500
vn 1.000000 0.000000 0.000000
v 0.564552 -0.002500 0.355030
vt 0.333497 0.420080
vn 1.000000 0.000000 0.000000
v 0.564552 -0.002500 0.853352
vt 0.333497 0.999501
vn 1.000000 0.000000 0.000000
v 0.564552 -0.002500 0.492498
vt 0.333497 0.579920
vn 1.000000 0.000000 0.000000
v 0.564552 0.007500 0.492498
vt 0.000500 0.579920
vn -0.000000 1.000000 0.000000
v -0.005448 0.007500 0.853352
vt 0.999501 0.999501
vn -0.000000 1.000000 0.000000
v -0.005448 0.007500 -0.005824
vt 0.999501 0.000500
vn -0.000000 1.000000 0.000000
v 0.564552 0.007500 0.355030
vt 0.000500 0.420080
vn -0.000000 1.000000 0.000000
v 0.564552 0.007500 0.853352
vt 0.000500 0.999501
vn -0.000000 1.000000 0.000000
v 0.564552 0.007500 -0.005824
vt 0.000500 0.000500
vn -0.000000 1.000000 0.000000
v -0.005448 0.007500 0.853352
vt 0.000499 0.999501
vn -1.000000 0.000000 0.000000
v -0.005448 -0.002500 0.853352
vt 0.666494 0.999501
vn -1.000000 0.000000 0.000000
v -0.005448 -0.002500 -0.005824
vt 0.666494 0.000500
vn -1.000000 0.000000 0.000000
v -0.005448 0.007500 -0.005824
vt 0.000499 0.000500
vn -1.000000 0.000000 0.000000
v 0.559552 -0.007500 0.848352
vt 0.760165 0.761439
vn -0.000000 -1.000000 0.000000
v 0.559552 -0.007500 0.492498
vt 0.760165 0.444737
vn -0.000000 -1.000000 0.000000
v 0.551425 -0.007500 0.492498
vt 0.749263 0.444737
vn -0.000000 -1.000000 0.000000
v -0.001252 -0.007500 0.850633
vt 0.007854 0.763469
vn -0.000000 -1.000000 0.000000
v -0.001252 -0.007500 -0.003105
vt 0.007854 0.003661
vn -0.000000 -1.000000 0.000000
v 0.551425 -0.007500 0.355030
vt 0.749263 0.322393
vn -0.000000 -1.000000 0.000000
v 0.559552 -0.007500 -0.000824
vt 0.760165 0.005691
vn -0.000000 -1.000000 0.000000
v 0.559552 -0.007500 0.355030
vt 0.760165 0.322393
vn -0.000000 -1.000000 0.000000
v 0.551425 -0.007500 0.492498
vt 0.023506 0.579920
vn 0.934711 0.355409 0.000000
v 0.548573 0.000000 0.492498
vt 0.028504 0.579920
vn 0.934711 0.355409 0.000000
v 0.551425 -0.007500 0.355030
vt 0.023506 0.420080
vn 0.934711 0.355409 0.000000
v 0.548573 0.000000 0.355030
vt 0.028504 0.420080
vn 0.934711 0.355409 0.000000
v 0.559552 -0.007500 0.355030
vt 0.990737 0.000500
vn -0.000000 0.000000 1.000000
v 0.551425 -0.007500 0.355030
vt 0.976494 0.000500
vn -0.000000 0.000000 1.000000
v 0.548573 0.000000 0.355030
vt 0.971496 0.499996
vn -0.000000 0.000000 1.000000
v 0.561552 0.000000 0.355030
vt 0.994243 0.499995
vn -0.000000 0.000000 1.000000
v 0.564552 -0.002500 0.355030
vt 0.999500 0.333497
vn -0.000000 0.000000 1.000000
v 0.548573 0.000000 0.492498
vt 0.971496 0.579920
vn -0.000000 -1.000000 0.000000
v 0.561552 0.000000 0.492498
vt 0.994243 0.579920
vn -0.000000 -1.000000 0.000000
v 0.561552 0.000000 0.355030
vt 0.994243 0.420080
vn -0.000000 -1.000000 0.000000
v 0.548573 0.000000 0.355030
vt 0.971496 0.420080
vn -0.000000 -1.000000 0.000000
v 0.564552 -0.002500 0.492498
vt 0.000500 0.333497
vn -0.000000 0.000000 -1.000000
v 0.561552 0.000000 0.492498
vt 0.005757 0.499995
vn -0.000000 0.000000 -1.000000
v 0.559552 -0.007500 0.492498
vt 0.009263 0.000500
vn -0.000000 0.000000 -1.000000
v 0.548573 0.000000 0.492498
vt 0.028504 0.499996
vn -0.000000 0.000000 -1.000000
v 0.551425 -0.007500 0.492498
vt 0.023506 0.000500
vn -0.000000 0.000000 -1.000000
v -0.005448 -0.002500 -0.005824
vt 0.000499 0.000500
vn 0.001597 -0.611119 -0.791537
v -0.001252 -0.007500 -0.003105
vt 0.007854 0.003661
vn 0.001597 -0.611119 -0.791537
v 0.559552 -0.007500 -0.000824
vt 0.990737 0.006313
vn 0.001597 -0.611119 -0.791537
v 0.564552 -0.002500 -0.005824
vt 0.999500 0.000500
vn 0.001597 -0.611119 -0.791537
v 0.559552 -0.007500 0.848352
vt 0.990737 0.993687
vn 0.001597 -0.611119 0.791537
v -0.001252 -0.007500 0.850633
vt 0.007854 0.996339
vn 0.001597 -0.611119 0.791537
v -0.005448 -0.002500 0.853352
vt 0.000499 0.999501
vn 0.001597 -0.611119 0.791537
v 0.564552 -0.002500 0.853352
vt 0.999500 0.999501
vn 0.001597 -0.611119 0.791537
v 0.559552 -0.007500 0.355030
vt 0.990737 0.420080
vn 0.707107 -0.707107 0.000000
v 0.564552 -0.002500 0.355030
vt 0.999500 0.420080
vn 0.707107 -0.707107 0.000000
v 0.559552 -0.007500 -0.000824
vt 0.990737 0.006313
vn 0.707107 -0.707107 0.000000
v 0.564552 -0.002500 -0.005824
vt 0.999500 0.000500
vn 0.707107 -0.707107 0.000000
v 0.564552 -0.002500 0.492498
vt 0.999500 0.579920
vn 0.707107 -0.707107 0.000000
v 0.559552 -0.007500 0.492498
vt 0.990737 0.579920
vn 0.707107 -0.707107 0.000000
v 0.559552 -0.007500 0.848352
vt 0.990737 0.993687
vn 0.707107 -0.707107 0.000000
v 0.564552 -0.002500 0.853352
vt 0.999500 0.999501
vn 0.707107 -0.707107 0.000000
v -0.005448 -0.002500 0.853352
vt 0.000499 0.999501
vn -0.766003 -0.642837 0.000000
v -0.001252 -0.007500 0.850633
vt 0.007854 0.996339
vn -0.766003 -0.642837 0.000000
v -0.005448 -0.002500 -0.005824
vt 0.000499 0.000500
vn -0.766003 -0.642837 0.000000
v -0.001252 -0.007500 -0.003105
vt 0.007854 0.003661
vn -0.766003 -0.642837 0.000000
v 0.561552 0.000000 0.492498
vt 0.499995 0.579920
vn 0.707030 0.000000 -0.707183
v 0.564552 0.000062 0.495498
vt 0.504147 0.583408
vn 0.707030 0.000000 -0.707183
v 0.564552 0.003000 0.492498
vt 0.699794 0.579920
vn 0.707030 0.000000 -0.707183
v 0.564552 0.000062 0.495498
vt 0.504147 0.583408
vn 0.707030 0.000000 -0.707183
v 0.561552 0.000000 0.492498
vt 0.499995 0.579920
vn 0.707030 0.000000 -0.707183
v 0.564552 -0.002500 0.492498
vt 0.333497 0.579920
vn 0.707030 0.000000 -0.707183
v 0.564552 -0.002500 0.355030
vt 0.333497 0.420080
vn 0.707031 0.000000 0.707182
v 0.561552 0.000000 0.355030
vt 0.499995 0.420080
vn 0.707031 0.000000 0.707182
v 0.564552 0.000062 0.352031
vt 0.504147 0.416592
vn 0.707031 0.000000 0.707182
v 0.564552 0.000062 0.352031
vt 0.504147 0.416592
vn 0.707031 0.000000 0.707182
v 0.561552 0.000000 0.355030
vt 0.499995 0.420080
vn 0.707031 0.000000 0.707182
v 0.564552 0.003000 0.355030
vt 0.699794 0.420080
vn 0.707031 0.000000 0.707182
v 0.561552 0.000000 0.492498
vt 0.994243 0.579920
vn 0.707108 -0.707106 0.000000
v 0.564552 0.003000 0.492498
vt 0.999500 0.579920
vn 0.707108 -0.707106 0.000000
v 0.561552 0.000000 0.355030
vt 0.994243 0.420080
vn 0.707108 -0.707106 0.000000
v 0.564552 0.003000 0.355030
vt 0.999500 0.420080
vn 0.707108 -0.707106 0.000000
# Faces (1 to 92)
f -90/-90/-90 -91/-91/-91 -92/-92/-92
f -91/-91/-91 -90/-90/-90 -89/-89/-89
f -86/-86/-86 -87/-87/-87 -88/-88/-88
f -87/-87/-87 -85/-85/-85 -88/-88/-88
f -82/-82/-82 -83/-83/-83 -84/-84/-84
f -84/-84/-84 -81/-81/-81 -82/-82/-82
f -80/-80/-80 -84/-84/-84 -83/-83/-83
f -79/-79/-79 -80/-80/-80 -83/-83/-83
f -82/-82/-82 -81/-81/-81 -78/-78/-78
f -78/-78/-78 -77/-77/-77 -82/-82/-82
f -76/-76/-76 -77/-77/-77 -78/-78/-78
f -78/-78/-78 -75/-75/-75 -76/-76/-76
f -80/-80/-80 -79/-79/-79 -74/-74/-74
f -74/-74/-74 -73/-73/-73 -80/-80/-80
f -70/-70/-70 -71/-71/-71 -72/-72/-72
f -72/-72/-72 -69/-69/-69 -70/-70/-70
f -68/-68/-68 -72/-72/-72 -71/-71/-71
f -67/-67/-67 -70/-70/-70 -69/-69/-69
f -64/-64/-64 -65/-65/-65 -66/-66/-66
f -66/-66/-66 -63/-63/-63 -64/-64/-64
f -60/-60/-60 -61/-61/-61 -62/-62/-62
f -62/-62/-62 -59/-59/-59 -60/-60/-60
f -58/-58/-58 -60/-60/-60 -59/-59/-59
f -58/-58/-58 -57/-57/-57 -60/-60/-60
f -57/-57/-57 -58/-58/-58 -56/-56/-56
f -56/-56/-56 -55/-55/-55 -57/-57/-57
f -52/-52/-52 -53/-53/-53 -54/-54/-54
f -52/-52/-52 -51/-51/-51 -53/-53/-53
f -48/-48/-48 -49/-49/-49 -50/-50/-50
f -50/-50/-50 -47/-47/-47 -48/-48/-48
f -46/-46/-46 -47/-47/-47 -50/-50/-50
f -43/-43/-43 -44/-44/-44 -45/-45/-45
f -45/-45/-45 -42/-42/-42 -43/-43/-43
f -39/-39/-39 -40/-40/-40 -41/-41/-41
f -39/-39/-39 -38/-38/-38 -40/-40/-40
f -37/-37/-37 -38/-38/-38 -39/-39/-39
f -34/-34/-34 -35/-35/-35 -36/-36/-36
f -36/-36/-36 -33/-33/-33 -34/-34/-34
f -30/-30/-30 -31/-31/-31 -32/-32/-32
f -30/-30/-30 -32/-32/-32 -29/-29/-29
f -26/-26/-26 -27/-27/-27 -28/-28/-28
f -26/-26/-26 -25/-25/-25 -27/-27/-27
f -22/-22/-22 -23/-23/-23 -24/-24/-24
f -24/-24/-24 -21/-21/-21 -22/-22/-22
f -18/-18/-18 -19/-19/-19 -20/-20/-20
f -18/-18/-18 -17/-17/-17 -19/-19/-19
f -14/-14/-14 -15/-15/-15 -16/-16/-16
f -11/-11/-11 -12/-12/-12 -13/-13/-13
f -8/-8/-8 -9/-9/-9 -10/-10/-10
f -5/-5/-5 -6/-6/-6 -7/-7/-7
f -2/-2/-2 -3/-3/-3 -4/-4/-4
f -2/-2/-2 -1/-1/-1 -3/-3/-3

