# Mesh "drawer_1" exported with Unity Assets Bundle Extractor; 168 vertices, 390 indices, 56 bytes per vertex
g drawer_1
# SubMesh 0
# Vertices
v -0.016924 0.035085 0.363058
vt 0.430348 -0.025867
vn -0.520064 -0.854128 0.000000
v -0.016924 0.035085 0.370793
vt 0.430348 -0.037569
vn -0.520064 -0.854127 0.000000
v -0.009365 0.030483 0.370793
vt 0.423385 -0.037569
vn -0.242815 -0.970073 0.000000
v -0.009365 0.030483 0.363052
vt 0.423385 -0.025858
vn -0.242763 -0.970086 0.000000
v -0.021734 0.043643 0.363052
vt 0.443296 -0.025858
vn -0.971421 -0.237363 0.000000
v -0.021734 0.043643 0.370793
vt 0.443296 -0.037569
vn -0.971411 -0.237404 0.000000
v -0.016924 0.035085 0.370793
vt 0.430348 -0.044848
vn -0.459366 -0.431750 0.776257
v -0.021734 0.043643 0.370793
vt 0.443296 -0.037569
vn -0.568258 -0.157438 0.807649
v -0.003986 0.049235 0.380822
vt 0.451758 -0.064422
vn -0.242661 -0.244592 0.938771
v -0.009365 0.030483 0.370793
vt 0.423385 -0.056284
vn -0.117235 -0.509052 0.852714
v 0.001459 0.030483 0.370793
vt 0.423385 -0.072661
vn 0.118451 -0.503829 0.855644
v 0.010072 0.035085 0.370793
vt 0.430348 -0.085692
vn 0.418318 -0.426664 0.801853
v 0.014882 0.043643 0.370793
vt 0.443296 -0.092970
vn 0.526376 -0.156957 0.835639
v 0.014882 0.054764 0.370793
vt 0.460123 -0.092970
vn 0.534486 0.157383 0.830395
v 0.001459 0.066683 0.370793
vt 0.478156 -0.072661
vn 0.116426 0.547468 0.828688
v 0.010072 0.062081 0.370793
vt 0.471192 -0.085692
vn 0.420263 0.473290 0.774194
v -0.009365 0.066683 0.370793
vt 0.478156 -0.056284
vn -0.115265 0.552530 0.825485
v -0.021734 0.054764 0.370793
vt 0.460123 -0.037569
vn -0.576269 0.157996 0.801842
v -0.016924 0.062081 0.370793
vt 0.471192 -0.044848
vn -0.461039 0.478454 0.747345
v -0.016924 0.062081 0.370793
vt 0.471193 -0.037569
vn -0.520067 0.854125 -0.000014
v -0.016924 0.062081 0.363058
vt 0.471193 -0.025867
vn -0.520067 0.854125 -0.000014
v -0.009365 0.066683 0.363052
vt 0.478156 -0.025858
vn -0.242764 0.970085 -0.000013
v -0.009365 0.066683 0.370793
vt 0.478156 -0.037569
vn -0.242816 0.970072 -0.000013
v -0.021734 0.054764 0.370793
vt 0.460123 -0.037569
vn -0.967623 0.252400 -0.000003
v -0.021734 0.054764 0.363052
vt 0.460123 -0.025858
vn -0.967639 0.252339 -0.000003
v -0.021734 0.043643 0.370793
vt 0.443296 -0.037569
vn -0.971411 -0.237404 0.000000
v -0.021734 0.043643 0.363052
vt 0.443296 -0.025858
vn -0.971421 -0.237363 0.000000
v 0.010072 0.035085 0.363058
vt 0.430348 -0.104673
vn 0.871720 -0.490004 0.000000
v 0.010072 0.035085 0.370793
vt 0.430348 -0.092970
vn 0.871720 -0.490004 0.000000
v 0.014882 0.043643 0.370793
vt 0.443296 -0.092970
vn 0.971412 -0.237401 0.000000
v 0.014882 0.043643 0.363052
vt 0.443296 -0.104681
vn 0.971422 -0.237360 0.000000
v 0.014882 0.054764 0.363052
vt 0.460123 -0.104681
vn 0.967639 0.252339 -0.000003
v 0.014882 0.054764 0.370793
vt 0.460123 -0.092970
vn 0.967623 0.252400 -0.000003
v -0.009365 0.066683 0.370793
vt 0.478156 -0.056284
vn -0.242816 0.970072 -0.000013
v -0.009365 0.066683 0.363052
vt 0.489867 -0.056284
vn -0.242764 0.970085 -0.000013
v 0.001459 0.066683 0.363052
vt 0.489867 -0.072661
vn 0.230330 0.973113 -0.000012
v 0.001459 0.066683 0.370793
vt 0.478156 -0.072661
vn 0.230373 0.973102 -0.000012
v 0.010072 0.062081 0.363058
vt 0.489859 -0.085692
vn 0.471315 0.881965 -0.000013
v 0.010072 0.062081 0.370793
vt 0.478156 -0.085692
vn 0.471315 0.881965 -0.000013
v -0.009365 0.030483 0.370793
vt 0.423385 -0.056284
vn -0.242815 -0.970073 0.000000
v 0.001459 0.030483 0.370793
vt 0.423385 -0.072661
vn 0.230372 -0.973103 0.000000
v 0.001459 0.030483 0.363052
vt 0.411674 -0.072661
vn 0.230329 -0.973113 0.000000
v -0.009365 0.030483 0.363052
vt 0.411674 -0.056284
vn -0.242763 -0.970086 0.000000
v 0.001459 0.030483 0.370793
vt 0.423385 -0.072661
vn 0.230372 -0.973103 0.000000
v 0.010072 0.035085 0.370793
vt 0.423385 -0.085692
vn 0.871720 -0.490004 0.000000
v 0.010072 0.035085 0.363058
vt 0.411682 -0.085692
vn 0.871720 -0.490004 0.000000
v 0.001459 0.030483 0.363052
vt 0.411674 -0.072661
vn 0.230329 -0.973113 0.000000
v 0.014882 0.054764 0.370793
vt 0.460123 -0.092970
vn 0.967623 0.252400 -0.000003
v 0.010072 0.062081 0.370793
vt 0.471193 -0.092970
vn 0.471315 0.881965 -0.000013
v 0.010072 0.062081 0.363058
vt 0.471192 -0.104673
vn 0.471315 0.881965 -0.000013
v 0.014882 0.054764 0.363052
vt 0.460123 -0.104681
vn 0.967639 0.252339 -0.000003
v -0.326903 0.116199 0.349617
vt -0.718266 0.554067
vn -0.000000 1.000000 0.000000
v -0.326903 0.116199 0.324226
vt -0.718266 0.558220
vn -0.000000 1.000000 0.000000
v -0.304224 0.116199 0.324226
vt -0.714558 0.558219
vn -0.000000 1.000000 0.000000
v -0.304224 0.116199 0.349617
vt -0.714558 0.554067
vn -0.000000 1.000000 0.000000
v 0.303630 0.116199 0.349617
vt -0.615154 0.554067
vn -0.000000 1.000000 0.000000
v 0.303630 0.116199 0.324226
vt -0.615154 0.558220
vn -0.000000 1.000000 0.000000
v 0.326903 0.116199 0.349617
vt -0.611348 0.554067
vn -0.000000 1.000000 0.000000
v 0.326903 0.116199 0.324226
vt -0.611348 0.558220
vn -0.000000 1.000000 0.000000
v -0.326903 -0.116199 0.324226
vt -0.721970 0.787270
vn -0.000000 -1.000000 0.000000
v -0.326903 -0.116199 0.349617
vt -0.726122 0.787270
vn -0.000000 -1.000000 0.000000
v -0.304224 -0.116199 0.349617
vt -0.726122 0.790979
vn -0.000000 -1.000000 0.000000
v -0.000297 -0.116199 -0.018210
vt -0.665970 0.840681
vn -0.000000 -1.000000 0.000000
v 0.303630 -0.116199 0.349617
vt -0.726122 0.890383
vn -0.000000 -1.000000 0.000000
v 0.326903 -0.116199 0.324226
vt -0.721970 0.894189
vn -0.000000 -1.000000 0.000000
v 0.326903 -0.116199 0.349617
vt -0.726122 0.894189
vn -0.000000 -1.000000 0.000000
v -0.326903 -0.116199 -0.360646
vt -0.609970 0.787270
vn -0.000000 -1.000000 0.000000
v 0.326903 -0.116199 -0.360646
vt -0.609970 0.894189
vn -0.000000 -1.000000 0.000000
v -0.326903 -0.116199 -0.380822
vt -0.606671 0.787270
vn -0.000000 -1.000000 0.000000
v -0.304224 -0.116199 -0.380822
vt -0.606671 0.790979
vn -0.000000 -1.000000 0.000000
v 0.303630 -0.116199 -0.380822
vt -0.606671 0.890383
vn -0.000000 -1.000000 0.000000
v 0.326903 -0.116199 -0.380822
vt -0.606671 0.894189
vn -0.000000 -1.000000 0.000000
v -0.304224 -0.091985 -0.360646
vt -0.714558 0.704264
vn -0.000000 1.000000 0.000000
v 0.303630 -0.091985 -0.360646
vt -0.615154 0.704264
vn -0.000000 1.000000 0.000000
v 0.303630 -0.091985 0.324226
vt -0.615153 0.592264
vn -0.000000 1.000000 0.000000
v -0.304224 -0.091985 0.324226
vt -0.714558 0.592264
vn -0.000000 1.000000 0.000000
v 0.303630 0.116199 -0.380822
vt -0.615154 0.741608
vn -0.000000 1.000000 0.000000
v 0.326903 0.116199 -0.380822
vt -0.611348 0.741608
vn -0.000000 1.000000 0.000000
v 0.326903 0.116199 -0.360646
vt -0.611348 0.738309
vn -0.000000 1.000000 0.000000
v 0.303630 0.116199 -0.360646
vt -0.615154 0.738309
vn -0.000000 1.000000 0.000000
v -0.304224 0.116199 -0.380822
vt -0.714558 0.741608
vn -0.000000 1.000000 0.000000
v -0.304224 0.116199 -0.360646
vt -0.714558 0.738308
vn -0.000000 1.000000 0.000000
v -0.326903 0.116199 -0.360646
vt -0.718267 0.738308
vn -0.000000 1.000000 0.000000
v -0.326903 0.116199 -0.380822
vt -0.718267 0.741608
vn -0.000000 1.000000 0.000000
v -0.326903 -0.116199 0.349617
vt 0.156177 0.323302
vn -0.000000 0.000000 1.000000
v -0.326903 0.076360 0.349617
vt 0.156177 0.616117
vn -0.000000 0.000000 1.000000
v -0.304224 0.076360 0.349617
vt 0.180030 0.616117
vn -0.000000 0.000000 1.000000
v -0.304224 -0.116199 0.349617
vt 0.180030 0.323302
vn -0.000000 0.000000 1.000000
v 0.303630 0.076360 0.349617
vt 0.819345 0.616117
vn -0.000000 0.000000 1.000000
v 0.303630 -0.116199 0.349617
vt 0.819345 0.323302
vn -0.000000 0.000000 1.000000
v 0.326903 0.076360 0.349617
vt 0.843823 0.616117
vn -0.000000 0.000000 1.000000
v 0.326903 -0.116199 0.349617
vt 0.843823 0.323302
vn -0.000000 0.000000 1.000000
v -0.304224 0.116199 0.349617
vt 0.180030 0.676698
vn -0.000000 0.000000 1.000000
v -0.326903 0.116199 0.349617
vt 0.156177 0.676698
vn -0.000000 0.000000 1.000000
v 0.326903 0.116199 0.349617
vt 0.843823 0.676698
vn -0.000000 0.000000 1.000000
v 0.303630 0.116199 0.349617
vt 0.819345 0.676698
vn -0.000000 0.000000 1.000000
v -0.326903 -0.116199 0.324226
vt -0.777324 0.592264
vn -1.000000 0.000000 0.000000
v -0.326903 0.076360 0.324226
vt -0.745835 0.592264
vn -1.000000 0.000000 0.000000
v -0.326903 0.076360 0.349617
vt -0.745835 0.588112
vn -1.000000 0.000000 0.000000
v -0.326903 -0.116199 0.349617
vt -0.777324 0.588112
vn -1.000000 0.000000 0.000000
v -0.326903 -0.116199 -0.360646
vt -0.777324 0.704264
vn -1.000000 0.000000 0.000000
v -0.326903 0.076360 -0.360646
vt -0.745835 0.704264
vn -1.000000 0.000000 0.000000
v -0.326903 -0.116199 -0.380822
vt -0.777324 0.707563
vn -1.000000 0.000000 0.000000
v -0.326903 0.076360 -0.380822
vt -0.745835 0.707563
vn -1.000000 0.000000 0.000000
v -0.326903 0.116199 0.349617
vt -0.739320 0.588112
vn -1.000000 0.000000 0.000000
v -0.326903 0.116199 0.324226
vt -0.739320 0.592264
vn -1.000000 0.000000 0.000000
v -0.326903 0.116199 -0.360646
vt -0.739320 0.704264
vn -1.000000 0.000000 0.000000
v -0.326903 0.116199 -0.380822
vt -0.739320 0.707563
vn -1.000000 0.000000 0.000000
v 0.303630 -0.091985 0.324226
vt -0.615153 0.592264
vn -0.000000 0.000000 -1.000000
v 0.303630 0.076594 0.324226
vt -0.615153 0.564696
vn -0.000000 0.000000 -1.000000
v -0.304224 0.076594 0.324226
vt -0.714558 0.564696
vn -0.000000 0.000000 -1.000000
v -0.304224 -0.091985 0.324226
vt -0.714558 0.592264
vn -0.000000 0.000000 -1.000000
v -0.304224 0.116199 0.324226
vt -0.714558 0.558219
vn -0.000000 0.000000 -1.000000
v 0.303630 0.116199 0.324226
vt -0.615154 0.558220
vn -0.000000 0.000000 -1.000000
v -0.326903 0.076360 0.324226
vt -0.718266 0.564735
vn -0.000000 0.000000 -1.000000
v -0.326903 0.116199 0.324226
vt -0.718266 0.558219
vn -0.000000 0.000000 -1.000000
v 0.326903 0.116199 0.324226
vt -0.611348 0.558220
vn -0.000000 0.000000 -1.000000
v 0.326903 0.076360 0.324226
vt -0.611348 0.564734
vn -0.000000 0.000000 -1.000000
v 0.326903 -0.116199 0.349617
vt -0.552290 0.588112
vn 1.000000 0.000000 0.000000
v 0.326903 0.076360 0.349617
vt -0.583779 0.588112
vn 1.000000 0.000000 0.000000
v 0.326903 0.076360 0.324226
vt -0.583779 0.592264
vn 1.000000 0.000000 0.000000
v 0.326903 -0.116199 0.324226
vt -0.552290 0.592264
vn 1.000000 0.000000 0.000000
v 0.326903 0.076360 -0.360646
vt -0.583779 0.704264
vn 1.000000 0.000000 0.000000
v 0.326903 -0.116199 -0.360646
vt -0.552290 0.704264
vn 1.000000 0.000000 0.000000
v 0.326903 0.076360 -0.380822
vt -0.583779 0.707563
vn 1.000000 0.000000 0.000000
v 0.326903 -0.116199 -0.380822
vt -0.552290 0.707563
vn 1.000000 0.000000 0.000000
v 0.326903 0.116199 -0.380822
vt -0.590294 0.707563
vn 1.000000 0.000000 0.000000
v 0.326903 0.116199 -0.360646
vt -0.590294 0.704264
vn 1.000000 0.000000 0.000000
v 0.326903 0.116199 0.324226
vt -0.590294 0.592264
vn 1.000000 0.000000 0.000000
v 0.326903 0.116199 0.349617
vt -0.590294 0.588112
vn 1.000000 0.000000 0.000000
v 0.303630 -0.091985 -0.360646
vt -0.615154 0.704264
vn -1.000000 0.000000 0.000000
v 0.303630 0.076594 -0.360646
vt -0.587585 0.704264
vn -1.000000 0.000000 0.000000
v 0.303630 0.076594 0.324226
vt -0.587585 0.592264
vn -1.000000 0.000000 0.000000
v 0.303630 -0.091985 0.324226
vt -0.615153 0.592264
vn -1.000000 0.000000 0.000000
v -0.304224 -0.091985 0.324226
vt -0.714558 0.592264
vn 1.000000 0.000000 0.000000
v -0.304224 0.076594 0.324226
vt -0.742126 0.592264
vn 1.000000 0.000000 0.000000
v -0.304224 0.076594 -0.360646
vt -0.742126 0.704264
vn 1.000000 0.000000 0.000000
v -0.304224 -0.091985 -0.360646
vt -0.714558 0.704264
vn 1.000000 0.000000 0.000000
v 0.326903 -0.116199 -0.380822
vt -0.611348 0.779613
vn -0.000000 0.000000 -1.000000
v 0.326903 0.076360 -0.380822
vt -0.611348 0.748123
vn -0.000000 0.000000 -1.000000
v 0.303630 0.076360 -0.380822
vt -0.615154 0.748123
vn -0.000000 0.000000 -1.000000
v 0.303630 -0.116199 -0.380822
vt -0.615154 0.779613
vn -0.000000 0.000000 -1.000000
v -0.304224 0.076360 -0.380822
vt -0.714558 0.748123
vn -0.000000 0.000000 -1.000000
v -0.304224 -0.116199 -0.380822
vt -0.714558 0.779613
vn -0.000000 0.000000 -1.000000
v -0.326903 0.076360 -0.380822
vt -0.718267 0.748123
vn -0.000000 0.000000 -1.000000
v -0.326903 -0.116199 -0.380822
vt -0.718267 0.779612
vn -0.000000 0.000000 -1.000000
v -0.326903 0.116199 -0.380822
vt -0.718267 0.741608
vn -0.000000 0.000000 -1.000000
v -0.304224 0.116199 -0.380822
vt -0.714558 0.741608
vn -0.000000 0.000000 -1.000000
v 0.303630 0.116199 -0.380822
vt -0.615154 0.741608
vn -0.000000 0.000000 -1.000000
v 0.326903 0.116199 -0.380822
vt -0.611348 0.741608
vn -0.000000 0.000000 -1.000000
v -0.304224 -0.091985 -0.360646
vt -0.714558 0.704264
vn -0.000000 0.000000 1.000000
v -0.304224 0.076594 -0.360646
vt -0.714558 0.731832
vn -0.000000 0.000000 1.000000
v 0.303630 0.076594 -0.360646
vt -0.615154 0.731832
vn -0.000000 0.000000 1.000000
v 0.303630 -0.091985 -0.360646
vt -0.615154 0.704264
vn -0.000000 0.000000 1.000000
v 0.303630 0.116199 -0.360646
vt -0.615154 0.738309
vn -0.000000 0.000000 1.000000
v -0.304224 0.116199 -0.360646
vt -0.714558 0.738308
vn -0.000000 0.000000 1.000000
v 0.326903 0.076360 -0.360646
vt -0.611348 0.731794
vn -0.000000 0.000000 1.000000
v 0.326903 0.116199 -0.360646
vt -0.611348 0.738309
vn -0.000000 0.000000 1.000000
v -0.326903 0.116199 -0.360646
vt -0.718267 0.738308
vn -0.000000 0.000000 1.000000
v -0.326903 0.076360 -0.360646
vt -0.718267 0.731793
vn -0.000000 0.000000 1.000000
v 0.326903 0.076360 0.324226
vt -0.583779 0.592264
vn 0.010075 0.999949 0.000000
v 0.303630 0.076594 0.324226
vt -0.587585 0.592264
vn 0.010075 0.999949 0.000000
v 0.303630 0.076594 -0.360646
vt -0.587585 0.704264
vn 0.010075 0.999949 0.000000
v 0.326903 0.076360 -0.360646
vt -0.583779 0.704264
vn 0.010075 0.999949 0.000000
v -0.326903 0.076360 -0.360646
vt -0.745835 0.704264
vn -0.010339 0.999947 0.000000
v -0.304224 0.076594 -0.360646
vt -0.742126 0.704264
vn -0.010339 0.999947 0.000000
v -0.304224 0.076594 0.324226
vt -0.742126 0.592264
vn -0.010339 0.999947 0.000000
v -0.326903 0.076360 0.324226
vt -0.745835 0.592264
vn -0.010339 0.999947 0.000000
# Faces (1 to 168)
f -166/-166/-166 -167/-167/-167 -168/-168/-168
f -165/-165/-165 -166/-166/-166 -168/-168/-168
f -168/-168/-168 -167/-167/-167 -164/-164/-164
f -167/-167/-167 -163/-163/-163 -164/-164/-164
f -160/-160/-160 -161/-161/-161 -162/-162/-162
f -159/-159/-159 -160/-160/-160 -162/-162/-162
f -159/-159/-159 -158/-158/-158 -160/-160/-160
f -158/-158/-158 -157/-157/-157 -160/-160/-160
f -157/-157/-157 -156/-156/-156 -160/-160/-160
f -156/-156/-156 -155/-155/-155 -160/-160/-160
f -160/-160/-160 -155/-155/-155 -154/-154/-154
f -155/-155/-155 -153/-153/-153 -154/-154/-154
f -160/-160/-160 -154/-154/-154 -152/-152/-152
f -160/-160/-160 -152/-152/-152 -151/-151/-151
f -160/-160/-160 -151/-151/-151 -161/-161/-161
f -152/-152/-152 -150/-150/-150 -151/-151/-151
f -147/-147/-147 -148/-148/-148 -149/-149/-149
f -146/-146/-146 -147/-147/-147 -149/-149/-149
f -145/-145/-145 -149/-149/-149 -148/-148/-148
f -144/-144/-144 -145/-145/-145 -148/-148/-148
f -143/-143/-143 -145/-145/-145 -144/-144/-144
f -142/-142/-142 -143/-143/-143 -144/-144/-144
f -139/-139/-139 -140/-140/-140 -141/-141/-141
f -138/-138/-138 -139/-139/-139 -141/-141/-141
f -138/-138/-138 -137/-137/-137 -139/-139/-139
f -137/-137/-137 -136/-136/-136 -139/-139/-139
f -133/-133/-133 -134/-134/-134 -135/-135/-135
f -132/-132/-132 -133/-133/-133 -135/-135/-135
f -131/-131/-131 -133/-133/-133 -132/-132/-132
f -130/-130/-130 -131/-131/-131 -132/-132/-132
f -127/-127/-127 -128/-128/-128 -129/-129/-129
f -126/-126/-126 -127/-127/-127 -129/-129/-129
f -123/-123/-123 -124/-124/-124 -125/-125/-125
f -122/-122/-122 -123/-123/-123 -125/-125/-125
f -119/-119/-119 -120/-120/-120 -121/-121/-121
f -118/-118/-118 -119/-119/-119 -121/-121/-121
f -115/-115/-115 -116/-116/-116 -117/-117/-117
f -114/-114/-114 -115/-115/-115 -117/-117/-117
f -114/-114/-114 -113/-113/-113 -115/-115/-115
f -113/-113/-113 -112/-112/-112 -115/-115/-115
f -113/-113/-113 -111/-111/-111 -112/-112/-112
f -111/-111/-111 -110/-110/-110 -112/-112/-112
f -107/-107/-107 -108/-108/-108 -109/-109/-109
f -106/-106/-106 -107/-107/-107 -109/-109/-109
f -106/-106/-106 -105/-105/-105 -107/-107/-107
f -106/-106/-106 -104/-104/-104 -105/-105/-105
f -104/-104/-104 -103/-103/-103 -105/-105/-105
f -106/-106/-106 -109/-109/-109 -102/-102/-102
f -106/-106/-106 -101/-101/-101 -104/-104/-104
f -106/-106/-106 -102/-102/-102 -100/-100/-100
f -99/-99/-99 -106/-106/-106 -100/-100/-100
f -99/-99/-99 -98/-98/-98 -106/-106/-106
f -106/-106/-106 -98/-98/-98 -101/-101/-101
f -98/-98/-98 -97/-97/-97 -101/-101/-101
f -94/-94/-94 -95/-95/-95 -96/-96/-96
f -93/-93/-93 -94/-94/-94 -96/-96/-96
f -90/-90/-90 -91/-91/-91 -92/-92/-92
f -89/-89/-89 -90/-90/-90 -92/-92/-92
f -89/-89/-89 -92/-92/-92 -88/-88/-88
f -87/-87/-87 -89/-89/-89 -88/-88/-88
f -87/-87/-87 -88/-88/-88 -86/-86/-86
f -88/-88/-88 -85/-85/-85 -86/-86/-86
f -82/-82/-82 -83/-83/-83 -84/-84/-84
f -81/-81/-81 -82/-82/-82 -84/-84/-84
f -80/-80/-80 -82/-82/-82 -81/-81/-81
f -79/-79/-79 -80/-80/-80 -81/-81/-81
f -78/-78/-78 -80/-80/-80 -79/-79/-79
f -77/-77/-77 -78/-78/-78 -79/-79/-79
f -82/-82/-82 -76/-76/-76 -83/-83/-83
f -76/-76/-76 -75/-75/-75 -83/-83/-83
f -78/-78/-78 -74/-74/-74 -80/-80/-80
f -74/-74/-74 -73/-73/-73 -80/-80/-80
f -73/-73/-73 -76/-76/-76 -82/-82/-82
f -80/-80/-80 -73/-73/-73 -82/-82/-82
f -70/-70/-70 -71/-71/-71 -72/-72/-72
f -69/-69/-69 -70/-70/-70 -72/-72/-72
f -72/-72/-72 -71/-71/-71 -68/-68/-68
f -71/-71/-71 -67/-67/-67 -68/-68/-68
f -68/-68/-68 -67/-67/-67 -66/-66/-66
f -67/-67/-67 -65/-65/-65 -66/-66/-66
f -70/-70/-70 -64/-64/-64 -71/-71/-71
f -64/-64/-64 -63/-63/-63 -71/-71/-71
f -67/-67/-67 -62/-62/-62 -65/-65/-65
f -62/-62/-62 -61/-61/-61 -65/-65/-65
f -58/-58/-58 -59/-59/-59 -60/-60/-60
f -57/-57/-57 -58/-58/-58 -60/-60/-60
f -58/-58/-58 -56/-56/-56 -59/-59/-59
f -56/-56/-56 -55/-55/-55 -59/-59/-59
f -56/-56/-56 -58/-58/-58 -54/-54/-54
f -53/-53/-53 -56/-56/-56 -54/-54/-54
f -59/-59/-59 -55/-55/-55 -52/-52/-52
f -51/-51/-51 -59/-59/-59 -52/-52/-52
f -48/-48/-48 -49/-49/-49 -50/-50/-50
f -47/-47/-47 -48/-48/-48 -50/-50/-50
f -46/-46/-46 -48/-48/-48 -47/-47/-47
f -45/-45/-45 -46/-46/-46 -47/-47/-47
f -44/-44/-44 -46/-46/-46 -45/-45/-45
f -43/-43/-43 -44/-44/-44 -45/-45/-45
f -44/-44/-44 -42/-42/-42 -46/-46/-46
f -42/-42/-42 -41/-41/-41 -46/-46/-46
f -48/-48/-48 -40/-40/-40 -49/-49/-49
f -40/-40/-40 -39/-39/-39 -49/-49/-49
f -36/-36/-36 -37/-37/-37 -38/-38/-38
f -35/-35/-35 -36/-36/-36 -38/-38/-38
f -32/-32/-32 -33/-33/-33 -34/-34/-34
f -31/-31/-31 -32/-32/-32 -34/-34/-34
f -28/-28/-28 -29/-29/-29 -30/-30/-30
f -27/-27/-27 -28/-28/-28 -30/-30/-30
f -26/-26/-26 -28/-28/-28 -27/-27/-27
f -25/-25/-25 -26/-26/-26 -27/-27/-27
f -24/-24/-24 -26/-26/-26 -25/-25/-25
f -23/-23/-23 -24/-24/-24 -25/-25/-25
f -24/-24/-24 -22/-22/-22 -26/-26/-26
f -22/-22/-22 -21/-21/-21 -26/-26/-26
f -26/-26/-26 -21/-21/-21 -28/-28/-28
f -21/-21/-21 -20/-20/-20 -28/-28/-28
f -28/-28/-28 -20/-20/-20 -29/-29/-29
f -20/-20/-20 -19/-19/-19 -29/-29/-29
f -16/-16/-16 -17/-17/-17 -18/-18/-18
f -15/-15/-15 -16/-16/-16 -18/-18/-18
f -16/-16/-16 -14/-14/-14 -17/-17/-17
f -14/-14/-14 -13/-13/-13 -17/-17/-17
f -14/-14/-14 -16/-16/-16 -12/-12/-12
f -11/-11/-11 -14/-14/-14 -12/-12/-12
f -17/-17/-17 -13/-13/-13 -10/-10/-10
f -9/-9/-9 -17/-17/-17 -10/-10/-10
f -6/-6/-6 -7/-7/-7 -8/-8/-8
f -5/-5/-5 -6/-6/-6 -8/-8/-8
f -2/-2/-2 -3/-3/-3 -4/-4/-4
f -1/-1/-1 -2/-2/-2 -4/-4/-4

