# Mesh "drug" exported with Unity Assets Bundle Extractor; 20 vertices, 30 indices, 48 bytes per vertex
g drug
# SubMesh 0
# Vertices
v -0.314011 -0.066499 0.001818
vt 0.243055 0.475187
vn -0.000000 0.000000 1.000000
v -0.314011 0.066499 0.001818
vt 0.242979 0.562578
vn -0.000000 0.000000 1.000000
v 0.314011 0.066499 0.001818
vt 0.492854 0.562542
vn -0.000000 0.000000 1.000000
v 0.314011 -0.066499 0.001818
vt 0.492792 0.475333
vn -0.000000 0.000000 1.000000
v -0.314011 0.066499 0.001818
vt 0.489513 0.480752
vn -0.000000 1.000000 0.000000
v -0.314011 0.066499 -0.001818
vt 0.489513 0.480243
vn -0.000000 1.000000 0.000000
v 0.314011 0.066499 -0.001818
vt 0.349184 0.480243
vn -0.000000 1.000000 0.000000
v 0.314011 0.066499 0.001818
vt 0.349183 0.480752
vn -0.000000 1.000000 0.000000
v -0.314011 -0.066499 -0.001818
vt 0.489513 0.479205
vn -0.000000 -1.000000 0.000000
v -0.314011 -0.066499 0.001818
vt 0.489513 0.478697
vn -0.000000 -1.000000 0.000000
v 0.314011 -0.066499 0.001818
vt 0.349183 0.478696
vn -0.000000 -1.000000 0.000000
v 0.314011 -0.066499 -0.001818
vt 0.349183 0.479205
vn -0.000000 -1.000000 0.000000
v 0.314011 -0.066499 0.001818
vt 0.297905 0.481392
vn 1.000000 0.000000 0.000000
v 0.314011 0.066499 0.001818
vt 0.346874 0.481392
vn 1.000000 0.000000 0.000000
v 0.314011 0.066499 -0.001818
vt 0.346874 0.480884
vn 1.000000 0.000000 0.000000
v 0.314011 -0.066499 -0.001818
vt 0.297905 0.480884
vn 1.000000 0.000000 0.000000
v -0.314011 -0.066499 -0.001818
vt 0.297905 0.479846
vn -1.000000 0.000000 0.000000
v -0.314011 0.066499 -0.001818
vt 0.346874 0.479846
vn -1.000000 0.000000 0.000000
v -0.314011 0.066499 0.001818
vt 0.346874 0.479337
vn -1.000000 0.000000 0.000000
v -0.314011 -0.066499 0.001818
vt 0.297905 0.479337
vn -1.000000 0.000000 0.000000
# Faces (1 to 20)
f -18/-18/-18 -19/-19/-19 -20/-20/-20
f -17/-17/-17 -18/-18/-18 -20/-20/-20
f -14/-14/-14 -15/-15/-15 -16/-16/-16
f -13/-13/-13 -14/-14/-14 -16/-16/-16
f -10/-10/-10 -11/-11/-11 -12/-12/-12
f -9/-9/-9 -10/-10/-10 -12/-12/-12
f -6/-6/-6 -7/-7/-7 -8/-8/-8
f -5/-5/-5 -6/-6/-6 -8/-8/-8
f -2/-2/-2 -3/-3/-3 -4/-4/-4
f -1/-1/-1 -2/-2/-2 -4/-4/-4

