# Mesh "ElevatorInDoor2" exported with Unity Assets Bundle Extractor; 48 vertices, 84 indices, 48 bytes per vertex
g ElevatorInDoor2
# SubMesh 0
# Vertices
v -0.007728 -0.200374 0.051666
vt 1.734464 0.931407
vn -0.000000 0.000000 1.000000
v -0.007728 0.200374 0.051666
vt 1.734464 0.551131
vn -0.000000 0.000000 1.000000
v 0.007728 0.200374 0.051666
vt 1.749130 0.551131
vn -0.000000 0.000000 1.000000
v 0.007728 -0.200374 0.051666
vt 1.749130 0.931407
vn -0.000000 0.000000 1.000000
v 0.007028 -0.199674 -0.051666
vt 1.874430 0.980878
vn 1.000000 0.000000 0.000000
v 0.007028 -0.199674 0.048817
vt 1.771379 0.980878
vn 1.000000 0.000000 0.000000
v 0.007028 0.199674 0.048817
vt 1.771379 0.571324
vn 1.000000 0.000000 0.000000
v 0.007028 0.199674 -0.051666
vt 1.874430 0.571324
vn 1.000000 0.000000 0.000000
v 0.007028 -0.199674 -0.051666
vt 1.874430 0.980878
vn 0.707106 0.000000 -0.707107
v 0.007028 0.199674 -0.051666
vt 1.874430 0.571324
vn 0.707106 0.000000 -0.707107
v -0.007028 0.199674 -0.051666
vt 1.888845 0.571324
vn -0.000000 0.000000 -1.000000
v -0.007028 -0.199674 -0.051666
vt 1.888845 0.980878
vn -0.000000 0.000000 -1.000000
v 0.007028 -0.199674 -0.051666
vt 1.888845 0.995293
vn -0.000000 -1.000000 0.000000
v -0.007028 -0.199674 -0.051666
vt 1.888845 0.980878
vn -0.000000 -1.000000 0.000000
v -0.007028 -0.199674 0.048817
vt 1.991896 0.980878
vn -0.000000 -1.000000 0.000000
v 0.007028 -0.199674 0.048817
vt 1.991896 0.995293
vn -0.000000 -1.000000 0.000000
v -0.007028 0.199674 -0.051666
vt 1.888845 0.571324
vn -1.000000 0.000000 0.000000
v -0.007028 0.199674 0.048817
vt 1.991896 0.571324
vn -1.000000 0.000000 0.000000
v -0.007028 -0.199674 0.048817
vt 1.991896 0.980878
vn -1.000000 0.000000 0.000000
v -0.007028 -0.199674 -0.051666
vt 1.888845 0.980878
vn -1.000000 0.000000 0.000000
v 0.007028 0.199674 -0.051666
vt 1.888845 0.556910
vn -0.000003 1.000000 0.000000
v 0.007028 0.199674 0.048817
vt 1.991896 0.556909
vn -0.000000 1.000000 0.000000
v -0.007028 0.199674 0.048817
vt 1.991896 0.571324
vn -0.000000 1.000000 0.000000
v -0.007028 0.199674 -0.051666
vt 1.888845 0.571324
vn -0.000003 1.000000 0.000000
v 0.007728 -0.200374 0.048817
vt 1.751833 0.931407
vn 1.000000 0.000000 0.000000
v 0.007728 -0.200374 0.051666
vt 1.749130 0.931407
vn 1.000000 0.000000 0.000000
v 0.007728 0.200374 0.051666
vt 1.749130 0.551131
vn 1.000000 0.000000 0.000000
v 0.007728 0.200374 0.048817
vt 1.751833 0.551131
vn 1.000000 0.000000 0.000000
v -0.007728 -0.200374 0.048817
vt 1.943703 0.872767
vn -0.000000 -1.000000 0.000000
v -0.007728 -0.200374 0.051666
vt 1.950783 0.872767
vn -0.000000 -1.000000 0.000000
v 0.007728 -0.200374 0.051666
vt 1.950783 0.834354
vn -0.000000 -1.000000 0.000000
v 0.007728 -0.200374 0.048817
vt 1.943703 0.834354
vn -0.000000 -1.000000 0.000000
v -0.007728 0.200374 0.048817
vt 1.731761 0.551131
vn -1.000000 0.000000 0.000000
v -0.007728 0.200374 0.051666
vt 1.734464 0.551131
vn -1.000000 0.000000 0.000000
v -0.007728 -0.200374 0.051666
vt 1.734464 0.931407
vn -1.000000 0.000000 0.000000
v -0.007728 -0.200374 0.048817
vt 1.731761 0.931407
vn -1.000000 0.000000 0.000000
v 0.007728 0.200374 0.048817
vt 1.965268 0.834354
vn -0.000000 1.000000 0.000000
v 0.007728 0.200374 0.051666
vt 1.958188 0.834354
vn -0.000003 1.000000 0.000000
v -0.007728 0.200374 0.051666
vt 1.958188 0.872767
vn -0.000003 1.000000 0.000000
v -0.007728 0.200374 0.048817
vt 1.965268 0.872767
vn -0.000000 1.000000 0.000000
v 0.007028 -0.199674 0.048817
vt 1.752498 0.930743
vn -0.000002 0.000000 -1.000000
v 0.007728 -0.200374 0.048817
vt 1.751833 0.931407
vn -0.000002 0.000000 -1.000000
v 0.007728 0.200374 0.048817
vt 1.751833 0.551131
vn -0.000002 0.000000 -1.000000
v 0.007028 0.199674 0.048817
vt 1.752498 0.551795
vn -0.000002 0.000000 -1.000000
v -0.007028 -0.199674 0.048817
vt 1.765835 0.930743
vn 0.000003 0.000000 -1.000000
v -0.007728 -0.200374 0.048817
vt 1.766499 0.931407
vn 0.000003 0.000000 -1.000000
v -0.007028 0.199674 0.048817
vt 1.765835 0.551795
vn 0.000003 0.000000 -1.000000
v -0.007728 0.200374 0.048817
vt 1.766499 0.551131
vn 0.000003 0.000000 -1.000000
# Faces (1 to 48)
f -46/-46/-46 -47/-47/-47 -48/-48/-48
f -45/-45/-45 -46/-46/-46 -48/-48/-48
f -42/-42/-42 -43/-43/-43 -44/-44/-44
f -41/-41/-41 -42/-42/-42 -44/-44/-44
f -38/-38/-38 -39/-39/-39 -40/-40/-40
f -37/-37/-37 -38/-38/-38 -40/-40/-40
f -34/-34/-34 -35/-35/-35 -36/-36/-36
f -33/-33/-33 -34/-34/-34 -36/-36/-36
f -30/-30/-30 -31/-31/-31 -32/-32/-32
f -29/-29/-29 -30/-30/-30 -32/-32/-32
f -26/-26/-26 -27/-27/-27 -28/-28/-28
f -25/-25/-25 -26/-26/-26 -28/-28/-28
f -22/-22/-22 -23/-23/-23 -24/-24/-24
f -21/-21/-21 -22/-22/-22 -24/-24/-24
f -18/-18/-18 -19/-19/-19 -20/-20/-20
f -17/-17/-17 -18/-18/-18 -20/-20/-20
f -14/-14/-14 -15/-15/-15 -16/-16/-16
f -13/-13/-13 -14/-14/-14 -16/-16/-16
f -10/-10/-10 -11/-11/-11 -12/-12/-12
f -9/-9/-9 -10/-10/-10 -12/-12/-12
f -6/-6/-6 -7/-7/-7 -8/-8/-8
f -5/-5/-5 -6/-6/-6 -8/-8/-8
f -8/-8/-8 -7/-7/-7 -4/-4/-4
f -7/-7/-7 -3/-3/-3 -4/-4/-4
f -4/-4/-4 -3/-3/-3 -2/-2/-2
f -3/-3/-3 -1/-1/-1 -2/-2/-2
f -1/-1/-1 -6/-6/-6 -5/-5/-5
f -2/-2/-2 -1/-1/-1 -5/-5/-5

