# Mesh "Floor_standing_1" exported with Unity Assets Bundle Extractor; 96 vertices, 144 indices, 56 bytes per vertex
g Floor_standing_1
# SubMesh 0
# Vertices
v -0.509906 0.134721 0.030954
vt 0.980906 0.262160
vn -0.000000 0.841017 0.541009
v -0.509906 0.173575 -0.029446
vt 0.980906 0.251342
vn -0.000000 0.841017 0.541009
v 0.509906 0.173575 -0.029446
vt 0.696969 0.251342
vn -0.000000 0.841017 0.541009
v 0.509906 0.134721 0.030954
vt 0.696969 0.262160
vn -0.000000 0.841017 0.541009
v -0.509906 0.170351 -0.030954
vt 0.980907 0.279874
vn -0.000000 -0.841018 -0.541007
v -0.509906 0.131497 0.029446
vt 0.980906 0.263057
vn -0.000000 -0.841018 -0.541007
v 0.509906 0.131497 0.029446
vt 0.696969 0.263057
vn -0.000000 -0.841018 -0.541007
v 0.509906 0.170351 -0.030954
vt 0.696969 0.279874
vn -0.000000 -0.841018 -0.541007
v -0.509906 0.131497 0.029446
vt 0.980906 0.263057
vn -0.000000 -0.423696 0.905804
v -0.509906 0.134721 0.030954
vt 0.980906 0.262160
vn -0.000000 -0.423696 0.905804
v 0.509906 0.134721 0.030954
vt 0.696969 0.262160
vn -0.000000 -0.423696 0.905804
v 0.509906 0.131497 0.029446
vt 0.696969 0.263057
vn -0.000000 -0.423696 0.905804
v -0.509906 0.083886 0.030954
vt 0.980906 -0.737840
vn -0.000000 0.841017 0.541009
v -0.509906 0.122740 -0.029446
vt 0.980906 -0.748658
vn -0.000000 0.841017 0.541009
v 0.509906 0.122740 -0.029446
vt 0.696969 -0.748658
vn -0.000000 0.841017 0.541009
v 0.509906 0.083886 0.030954
vt 0.696969 -0.737840
vn -0.000000 0.841017 0.541009
v -0.509906 0.119516 -0.030954
vt 0.980907 -0.720126
vn -0.000000 -0.841018 -0.541007
v -0.509906 0.080662 0.029446
vt 0.980906 -0.736943
vn -0.000000 -0.841018 -0.541007
v 0.509906 0.080662 0.029446
vt 0.696969 -0.736943
vn -0.000000 -0.841018 -0.541007
v 0.509906 0.119516 -0.030954
vt 0.696969 -0.720126
vn -0.000000 -0.841018 -0.541007
v -0.509906 0.080662 0.029446
vt 0.980906 -0.736943
vn -0.000000 -0.423696 0.905804
v -0.509906 0.083886 0.030954
vt 0.980906 -0.737840
vn -0.000000 -0.423696 0.905804
v 0.509906 0.083886 0.030954
vt 0.696969 -0.737840
vn -0.000000 -0.423696 0.905804
v 0.509906 0.080662 0.029446
vt 0.696969 -0.736943
vn -0.000000 -0.423696 0.905804
v -0.509906 0.032174 0.030954
vt 0.980906 -0.737840
vn -0.000000 0.841017 0.541009
v -0.509906 0.071028 -0.029446
vt 0.980906 -0.748658
vn -0.000000 0.841017 0.541009
v 0.509906 0.071028 -0.029446
vt 0.696969 -0.748658
vn -0.000000 0.841017 0.541009
v 0.509906 0.032174 0.030954
vt 0.696969 -0.737840
vn -0.000000 0.841017 0.541009
v -0.509906 0.067805 -0.030954
vt 0.980907 -0.720126
vn -0.000000 -0.841018 -0.541007
v -0.509906 0.028950 0.029446
vt 0.980906 -0.736943
vn -0.000000 -0.841018 -0.541007
v 0.509906 0.028950 0.029446
vt 0.696969 -0.736943
vn -0.000000 -0.841018 -0.541007
v 0.509906 0.067805 -0.030954
vt 0.696969 -0.720126
vn -0.000000 -0.841018 -0.541007
v -0.509906 0.028950 0.029446
vt 0.980906 -0.736943
vn -0.000000 -0.423696 0.905804
v -0.509906 0.032174 0.030954
vt 0.980906 -0.737840
vn -0.000000 -0.423696 0.905804
v 0.509906 0.032174 0.030954
vt 0.696969 -0.737840
vn -0.000000 -0.423696 0.905804
v 0.509906 0.028950 0.029446
vt 0.696969 -0.736943
vn -0.000000 -0.423696 0.905804
v -0.509906 -0.018661 0.030954
vt 0.980906 -0.737840
vn -0.000000 0.841017 0.541009
v -0.509906 0.020193 -0.029446
vt 0.980906 -0.748658
vn -0.000000 0.841017 0.541009
v 0.509906 0.020193 -0.029446
vt 0.696969 -0.748658
vn -0.000000 0.841017 0.541009
v 0.509906 -0.018661 0.030954
vt 0.696969 -0.737840
vn -0.000000 0.841017 0.541009
v -0.509906 0.016970 -0.030954
vt 0.980907 -0.720126
vn -0.000000 -0.841018 -0.541007
v -0.509906 -0.021885 0.029446
vt 0.980906 -0.736943
vn -0.000000 -0.841018 -0.541007
v 0.509906 -0.021885 0.029446
vt 0.696969 -0.736943
vn -0.000000 -0.841018 -0.541007
v 0.509906 0.016970 -0.030954
vt 0.696969 -0.720126
vn -0.000000 -0.841018 -0.541007
v -0.509906 -0.021885 0.029446
vt 0.980906 -0.736943
vn -0.000000 -0.423696 0.905804
v -0.509906 -0.018661 0.030954
vt 0.980906 -0.737840
vn -0.000000 -0.423696 0.905804
v 0.509906 -0.018661 0.030954
vt 0.696969 -0.737840
vn -0.000000 -0.423696 0.905804
v 0.509906 -0.021885 0.029446
vt 0.696969 -0.736943
vn -0.000000 -0.423696 0.905804
v -0.509906 -0.068619 0.030954
vt 0.980906 -0.737840
vn -0.000000 0.841017 0.541009
v -0.509906 -0.029765 -0.029446
vt 0.980906 -0.748658
vn -0.000000 0.841017 0.541009
v 0.509906 -0.029765 -0.029446
vt 0.696969 -0.748658
vn -0.000000 0.841017 0.541009
v 0.509906 -0.068619 0.030954
vt 0.696969 -0.737840
vn -0.000000 0.841017 0.541009
v -0.509906 -0.032989 -0.030954
vt 0.980907 -0.720126
vn -0.000000 -0.841018 -0.541007
v -0.509906 -0.071843 0.029446
vt 0.980906 -0.736943
vn -0.000000 -0.841018 -0.541007
v 0.509906 -0.071843 0.029446
vt 0.696969 -0.736943
vn -0.000000 -0.841018 -0.541007
v 0.509906 -0.032989 -0.030954
vt 0.696969 -0.720126
vn -0.000000 -0.841018 -0.541007
v -0.509906 -0.071843 0.029446
vt 0.980906 -0.736943
vn -0.000000 -0.423696 0.905804
v -0.509906 -0.068619 0.030954
vt 0.980906 -0.737840
vn -0.000000 -0.423696 0.905804
v 0.509906 -0.068619 0.030954
vt 0.696969 -0.737840
vn -0.000000 -0.423696 0.905804
v 0.509906 -0.071843 0.029446
vt 0.696969 -0.736943
vn -0.000000 -0.423696 0.905804
v -0.509906 -0.118578 0.030954
vt 0.980906 -0.737840
vn -0.000000 0.841017 0.541009
v -0.509906 -0.079724 -0.029446
vt 0.980906 -0.748658
vn -0.000000 0.841017 0.541009
v 0.509906 -0.079724 -0.029446
vt 0.696969 -0.748658
vn -0.000000 0.841017 0.541009
v 0.509906 -0.118578 0.030954
vt 0.696969 -0.737840
vn -0.000000 0.841017 0.541009
v -0.509906 -0.082948 -0.030954
vt 0.980907 -0.720126
vn -0.000000 -0.841018 -0.541007
v -0.509906 -0.121802 0.029446
vt 0.980906 -0.736943
vn -0.000000 -0.841018 -0.541007
v 0.509906 -0.121802 0.029446
vt 0.696969 -0.736943
vn -0.000000 -0.841018 -0.541007
v 0.509906 -0.082948 -0.030954
vt 0.696969 -0.720126
vn -0.000000 -0.841018 -0.541007
v -0.509906 -0.121802 0.029446
vt 0.980906 -0.736943
vn -0.000000 -0.423696 0.905804
v -0.509906 -0.118578 0.030954
vt 0.980906 -0.737840
vn -0.000000 -0.423696 0.905804
v 0.509906 -0.118578 0.030954
vt 0.696969 -0.737840
vn -0.000000 -0.423696 0.905804
v 0.509906 -0.121802 0.029446
vt 0.696969 -0.736943
vn -0.000000 -0.423696 0.905804
v -0.509906 -0.168536 0.030954
vt 0.980906 -0.737840
vn -0.000000 0.841017 0.541009
v -0.509906 -0.129682 -0.029446
vt 0.980906 -0.748658
vn -0.000000 0.841017 0.541009
v 0.509906 -0.129682 -0.029446
vt 0.696969 -0.748658
vn -0.000000 0.841017 0.541009
v 0.509906 -0.168536 0.030954
vt 0.696969 -0.737840
vn -0.000000 0.841017 0.541009
v -0.509906 -0.132906 -0.030954
vt 0.980907 -0.720126
vn -0.000000 -0.841018 -0.541007
v -0.509906 -0.171760 0.029446
vt 0.980906 -0.736943
vn -0.000000 -0.841018 -0.541007
v 0.509906 -0.171760 0.029446
vt 0.696969 -0.736943
vn -0.000000 -0.841018 -0.541007
v 0.509906 -0.132906 -0.030954
vt 0.696969 -0.720126
vn -0.000000 -0.841018 -0.541007
v -0.509906 -0.171760 0.029446
vt 0.980906 -0.736943
vn -0.000000 -0.423696 0.905804
v -0.509906 -0.168536 0.030954
vt 0.980906 -0.737840
vn -0.000000 -0.423696 0.905804
v 0.509906 -0.168536 0.030954
vt 0.696969 -0.737840
vn -0.000000 -0.423696 0.905804
v 0.509906 -0.171760 0.029446
vt 0.696969 -0.736943
vn -0.000000 -0.423696 0.905804
v -0.003568 -0.196442 0.021597
vt 0.812192 0.474649
vn -0.000000 0.000000 1.000000
v -0.003568 0.196442 0.021597
vt 0.812192 0.428136
vn -0.000000 0.000000 1.000000
v 0.000502 0.196442 0.021597
vt 0.763273 0.428136
vn -0.000000 0.000000 1.000000
v 0.000502 -0.196442 0.021597
vt 0.763273 0.474649
vn -0.000000 0.000000 1.000000
v 0.000502 -0.196442 0.021597
vt 0.716760 0.428136
vn 1.000000 0.000000 0.000000
v 0.000502 0.196442 0.021597
vt 0.763273 0.428136
vn 1.000000 0.000000 0.000000
v 0.000502 0.196442 -0.030803
vt 0.763273 0.379217
vn 1.000000 0.000000 0.000000
v 0.000502 -0.196442 -0.030803
vt 0.716760 0.379217
vn 1.000000 0.000000 0.000000
v -0.003568 -0.196442 -0.030803
vt 0.858705 0.379217
vn -1.000000 0.000000 0.000000
v -0.003568 0.196442 -0.030803
vt 0.812192 0.379217
vn -1.000000 0.000000 0.000000
v -0.003568 0.196442 0.021597
vt 0.812192 0.428136
vn -1.000000 0.000000 0.000000
v -0.003568 -0.196442 0.021597
vt 0.858705 0.428136
vn -1.000000 0.000000 0.000000
# Faces (1 to 96)
f -94/-94/-94 -95/-95/-95 -96/-96/-96
f -93/-93/-93 -94/-94/-94 -96/-96/-96
f -90/-90/-90 -91/-91/-91 -92/-92/-92
f -89/-89/-89 -90/-90/-90 -92/-92/-92
f -86/-86/-86 -87/-87/-87 -88/-88/-88
f -85/-85/-85 -86/-86/-86 -88/-88/-88
f -82/-82/-82 -83/-83/-83 -84/-84/-84
f -81/-81/-81 -82/-82/-82 -84/-84/-84
f -78/-78/-78 -79/-79/-79 -80/-80/-80
f -77/-77/-77 -78/-78/-78 -80/-80/-80
f -74/-74/-74 -75/-75/-75 -76/-76/-76
f -73/-73/-73 -74/-74/-74 -76/-76/-76
f -70/-70/-70 -71/-71/-71 -72/-72/-72
f -69/-69/-69 -70/-70/-70 -72/-72/-72
f -66/-66/-66 -67/-67/-67 -68/-68/-68
f -65/-65/-65 -66/-66/-66 -68/-68/-68
f -62/-62/-62 -63/-63/-63 -64/-64/-64
f -61/-61/-61 -62/-62/-62 -64/-64/-64
f -58/-58/-58 -59/-59/-59 -60/-60/-60
f -57/-57/-57 -58/-58/-58 -60/-60/-60
f -54/-54/-54 -55/-55/-55 -56/-56/-56
f -53/-53/-53 -54/-54/-54 -56/-56/-56
f -50/-50/-50 -51/-51/-51 -52/-52/-52
f -49/-49/-49 -50/-50/-50 -52/-52/-52
f -46/-46/-46 -47/-47/-47 -48/-48/-48
f -45/-45/-45 -46/-46/-46 -48/-48/-48
f -42/-42/-42 -43/-43/-43 -44/-44/-44
f -41/-41/-41 -42/-42/-42 -44/-44/-44
f -38/-38/-38 -39/-39/-39 -40/-40/-40
f -37/-37/-37 -38/-38/-38 -40/-40/-40
f -34/-34/-34 -35/-35/-35 -36/-36/-36
f -33/-33/-33 -34/-34/-34 -36/-36/-36
f -30/-30/-30 -31/-31/-31 -32/-32/-32
f -29/-29/-29 -30/-30/-30 -32/-32/-32
f -26/-26/-26 -27/-27/-27 -28/-28/-28
f -25/-25/-25 -26/-26/-26 -28/-28/-28
f -22/-22/-22 -23/-23/-23 -24/-24/-24
f -21/-21/-21 -22/-22/-22 -24/-24/-24
f -18/-18/-18 -19/-19/-19 -20/-20/-20
f -17/-17/-17 -18/-18/-18 -20/-20/-20
f -14/-14/-14 -15/-15/-15 -16/-16/-16
f -13/-13/-13 -14/-14/-14 -16/-16/-16
f -10/-10/-10 -11/-11/-11 -12/-12/-12
f -9/-9/-9 -10/-10/-10 -12/-12/-12
f -6/-6/-6 -7/-7/-7 -8/-8/-8
f -5/-5/-5 -6/-6/-6 -8/-8/-8
f -2/-2/-2 -3/-3/-3 -4/-4/-4
f -1/-1/-1 -2/-2/-2 -4/-4/-4

