# Mesh "Frame5" exported with Unity Assets Bundle Extractor; 152 vertices, 312 indices, 56 bytes per vertex
g Frame5
# SubMesh 0
# Vertices
v -0.051263 0.557198 1.202587
vt 0.027982 0.944586
vn -0.000000 0.000000 -1.000000
v -0.051263 -0.550734 1.202587
vt 0.343734 0.944757
vn -0.000000 0.000000 -1.000000
v 0.051263 -0.550734 1.202587
vt 0.343744 0.918587
vn -0.000000 0.000000 -1.000000
v 0.051263 0.557198 1.202587
vt 0.027978 0.918407
vn -0.000000 0.000000 -1.000000
v -0.051263 -0.550734 1.202587
vt 0.343734 0.944757
vn -1.000000 0.000000 0.000000
v -0.051263 0.557198 1.202587
vt 0.027982 0.944586
vn -1.000000 0.000000 0.000000
v -0.051263 0.588247 1.236930
vt 0.019130 0.953349
vn -1.000000 0.000000 0.000000
v -0.051263 -0.588247 1.236930
vt 0.354418 0.953529
vn -1.000000 0.000000 0.000000
v -0.051263 -0.588247 1.236930
vt 0.354418 0.953529
vn -0.000000 0.000000 1.000000
v -0.051263 0.588247 1.236930
vt 0.019130 0.953349
vn -0.000000 0.000000 1.000000
v 0.051263 0.588247 1.236930
vt 0.019111 0.979527
vn -0.000000 0.000000 1.000000
v 0.051263 -0.588247 1.236930
vt 0.354416 0.979707
vn -0.000000 0.000000 1.000000
v 0.051263 -0.588247 1.236930
vt 0.354416 0.979707
vn 1.000000 0.000000 0.000000
v 0.051263 0.588247 1.236930
vt 0.019111 0.979527
vn 1.000000 0.000000 0.000000
v 0.051263 0.557198 1.202587
vt 0.027955 0.988300
vn 1.000000 0.000000 0.000000
v 0.051263 -0.550734 1.202587
vt 0.343720 0.988468
vn 1.000000 0.000000 0.000000
v -0.051263 0.588247 1.236930
vt 0.986136 0.861615
vn -0.000000 1.000000 0.000000
v -0.051263 0.588247 -1.236930
vt 0.354400 0.861837
vn -0.000000 1.000000 0.000000
v 0.051263 0.588247 -1.236930
vt 0.354407 0.888020
vn -0.000000 1.000000 0.000000
v 0.051263 0.588247 1.236930
vt 0.986144 0.887792
vn -0.000000 1.000000 0.000000
v 0.051263 0.588247 1.236930
vt 0.986144 0.887792
vn 1.000000 0.000000 0.000000
v 0.051263 0.588247 -1.236930
vt 0.354407 0.888020
vn 1.000000 0.000000 0.000000
v 0.051263 0.557198 -1.184019
vt 0.367922 0.896866
vn 1.000000 0.000000 0.000000
v 0.051263 0.557198 1.202587
vt 0.977377 0.896646
vn 1.000000 0.000000 0.000000
v 0.051263 0.557198 1.202587
vt 0.977355 0.826590
vn -0.000000 -1.000000 0.000000
v 0.051263 0.557198 -1.184019
vt 0.367903 0.826800
vn -0.000000 -1.000000 0.000000
v -0.051263 0.557198 -1.184019
vt 0.367909 0.852980
vn -0.000000 -1.000000 0.000000
v -0.051263 0.557198 1.202587
vt 0.977364 0.852767
vn -0.000000 -1.000000 0.000000
v -0.051263 0.557198 1.202587
vt 0.977364 0.852767
vn -1.000000 0.000000 0.000000
v -0.051263 0.557198 -1.184019
vt 0.367909 0.852980
vn -1.000000 0.000000 0.000000
v -0.051263 0.588247 -1.236930
vt 0.354400 0.861837
vn -1.000000 0.000000 0.000000
v -0.051263 0.588247 1.236930
vt 0.986136 0.861615
vn -1.000000 0.000000 0.000000
v -0.051263 -0.550734 1.202587
vt 0.363189 0.942832
vn -0.000000 1.000000 0.000000
v -0.051263 -0.550734 -1.184019
vt 0.972634 0.942676
vn -0.000000 1.000000 0.000000
v 0.051263 -0.550734 -1.184019
vt 0.972637 0.916502
vn -0.000000 1.000000 0.000000
v 0.051263 -0.550734 1.202587
vt 0.363189 0.916635
vn -0.000000 1.000000 0.000000
v 0.051263 -0.550734 1.202587
vt 0.363195 0.990404
vn 1.000000 0.000000 0.000000
v 0.051263 -0.550734 -1.184019
vt 0.972643 0.990237
vn 1.000000 0.000000 0.000000
v 0.051263 -0.588247 -1.236930
vt 0.986154 0.979538
vn 1.000000 0.000000 0.000000
v 0.051263 -0.588247 1.236930
vt 0.354420 0.979707
vn 1.000000 0.000000 0.000000
v 0.051263 -0.588247 1.236930
vt 0.354420 0.979707
vn -0.000000 -1.000000 0.000000
v 0.051263 -0.588247 -1.236930
vt 0.986154 0.979538
vn -0.000000 -1.000000 0.000000
v -0.051263 -0.588247 -1.236930
vt 0.986153 0.953365
vn -0.000000 -1.000000 0.000000
v -0.051263 -0.588247 1.236930
vt 0.354418 0.953529
vn -0.000000 -1.000000 0.000000
v -0.051263 -0.588247 1.236930
vt 0.354418 0.953529
vn -1.000000 0.000000 0.000000
v -0.051263 -0.588247 -1.236930
vt 0.986153 0.953365
vn -1.000000 0.000000 0.000000
v -0.051263 -0.550734 -1.184019
vt 0.972634 0.942676
vn -1.000000 0.000000 0.000000
v -0.051263 -0.550734 1.202587
vt 0.363189 0.942832
vn -1.000000 0.000000 0.000000
v -0.051263 0.557198 -1.184019
vt 0.345563 0.848327
vn -1.000000 0.000000 0.000000
v -0.051263 -0.550734 -1.184019
vt 0.029886 0.847988
vn -1.000000 0.000000 0.000000
v -0.051263 -0.588247 -1.236930
vt 0.019169 0.861479
vn -1.000000 0.000000 0.000000
v -0.051263 0.588247 -1.236930
vt 0.354407 0.861841
vn -1.000000 0.000000 0.000000
v -0.051263 0.588247 -1.236930
vt 0.354407 0.861841
vn -0.000000 0.000000 -1.000000
v -0.051263 -0.588247 -1.236930
vt 0.019169 0.861479
vn -0.000000 0.000000 -1.000000
v 0.051263 -0.588247 -1.236930
vt 0.019149 0.887660
vn -0.000000 0.000000 -1.000000
v 0.051263 0.588247 -1.236930
vt 0.354384 0.888017
vn -0.000000 0.000000 -1.000000
v 0.051263 0.588247 -1.236930
vt 0.354384 0.888017
vn 1.000000 0.000000 0.000000
v 0.051263 -0.588247 -1.236930
vt 0.019149 0.887660
vn 1.000000 0.000000 0.000000
v 0.051263 -0.550734 -1.184019
vt 0.029843 0.901176
vn 1.000000 0.000000 0.000000
v 0.051263 0.557198 -1.184019
vt 0.345505 0.901511
vn 1.000000 0.000000 0.000000
v 0.051263 0.557198 -1.184019
vt 0.345564 0.822170
vn -0.000000 0.000000 1.000000
v 0.051263 -0.550734 -1.184019
vt 0.029901 0.821814
vn -0.000000 0.000000 1.000000
v -0.051263 -0.550734 -1.184019
vt 0.029886 0.847988
vn -0.000000 0.000000 1.000000
v -0.051263 0.557198 -1.184019
vt 0.345563 0.848327
vn -0.000000 0.000000 1.000000
v 0.008905 -0.550734 1.202587
vt 0.606228 0.706316
vn 1.000000 0.000008 0.000000
v 0.008905 -0.522747 1.172475
vt 0.613933 0.698891
vn 1.000000 0.000008 0.000000
v 0.008905 -0.522747 0.435980
vt 0.613932 0.517288
vn 1.000000 0.000008 0.000000
v 0.008905 -0.550734 0.407934
vt 0.606228 0.510373
vn 1.000000 0.000008 0.000000
v 0.008905 0.529211 0.435980
vt 0.903518 0.517289
vn 1.000000 0.000000 0.000000
v 0.008905 0.557198 0.407934
vt 0.911223 0.510373
vn 1.000000 0.000000 0.000000
v 0.008905 0.529211 1.172475
vt 0.903518 0.698891
vn 1.000000 -0.000010 0.000000
v 0.008905 0.557198 1.202587
vt 0.911223 0.706316
vn 1.000000 -0.000010 0.000000
v 0.008905 -0.522747 0.379887
vt 0.613933 0.503457
vn 1.000000 0.000013 0.000000
v 0.008905 -0.522747 -0.356608
vt 0.613933 0.321855
vn 1.000000 0.000013 0.000000
v 0.008905 -0.550734 -0.387010
vt 0.606228 0.314358
vn 1.000000 0.000013 0.000000
v 0.008905 0.529211 -0.356608
vt 0.903518 0.321854
vn 1.000000 0.000000 0.000000
v 0.008905 0.557198 -0.387010
vt 0.911223 0.314358
vn 1.000000 0.000000 0.000000
v 0.008905 0.529211 0.379887
vt 0.903518 0.503457
vn 1.000000 0.000002 0.000000
v 0.008905 -0.522747 -0.417413
vt 0.613932 0.306862
vn 1.000000 0.000046 0.000000
v 0.008905 -0.522747 -1.153908
vt 0.613933 0.125259
vn 1.000000 0.000046 0.000000
v 0.008905 -0.550734 -1.184019
vt 0.606229 0.117834
vn 1.000000 0.000046 0.000000
v 0.008905 0.529211 -1.153908
vt 0.903518 0.125259
vn 1.000000 0.000000 0.000000
v 0.008905 0.557198 -1.184019
vt 0.911223 0.117834
vn 1.000000 0.000000 0.000000
v 0.008905 0.529211 -0.417413
vt 0.903518 0.306861
vn 1.000000 -0.000052 0.000000
v -0.026193 -0.550734 0.407934
vt 0.910890 0.510126
vn -1.000000 -0.000012 0.000000
v -0.026193 -0.522747 0.435980
vt 0.903185 0.517041
vn -1.000000 -0.000012 0.000000
v -0.026193 -0.522747 1.172475
vt 0.903185 0.698644
vn -1.000000 -0.000012 0.000000
v -0.026193 -0.550734 1.202587
vt 0.910890 0.706069
vn -1.000000 -0.000012 0.000000
v -0.026193 0.529211 1.172475
vt 0.613599 0.698644
vn -1.000000 0.000000 0.000000
v -0.026193 0.557198 1.202587
vt 0.605895 0.706069
vn -1.000000 0.000000 0.000000
v -0.026193 0.529211 0.435980
vt 0.613599 0.517041
vn -1.000000 0.000006 0.000000
v -0.026193 0.557198 0.407934
vt 0.605895 0.510126
vn -1.000000 0.000006 0.000000
v -0.026193 0.529211 0.379887
vt 0.613599 0.503210
vn -1.000000 0.000000 0.000000
v -0.026193 -0.522747 0.379887
vt 0.903185 0.503210
vn -1.000000 -0.000010 0.000000
v -0.026193 -0.550734 -0.387010
vt 0.910889 0.314111
vn -1.000000 -0.000010 0.000000
v -0.026193 -0.522747 -0.356608
vt 0.903185 0.321607
vn -1.000000 -0.000010 0.000000
v -0.026193 0.529211 -0.356608
vt 0.613599 0.321607
vn -1.000000 -0.000013 0.000000
v -0.026193 0.557198 -0.387010
vt 0.605895 0.314111
vn -1.000000 -0.000013 0.000000
v -0.026193 0.529211 -0.417413
vt 0.613599 0.306614
vn -1.000000 0.000000 0.000000
v -0.026193 -0.522747 -0.417413
vt 0.903185 0.306614
vn -1.000000 -0.000019 0.000000
v -0.026193 -0.550734 -1.184019
vt 0.910890 0.117587
vn -1.000000 -0.000019 0.000000
v -0.026193 -0.522747 -1.153908
vt 0.903185 0.125012
vn -1.000000 -0.000019 0.000000
v -0.026193 0.529211 -1.153908
vt 0.613599 0.125012
vn -1.000000 0.000027 0.000000
v -0.026193 0.557198 -1.184019
vt 0.605895 0.117587
vn -1.000000 0.000027 0.000000
v -0.026193 -0.522747 1.172475
vt 0.620742 0.630739
vn -0.000000 0.000000 -1.000000
v 0.008905 -0.522747 1.172475
vt 0.620747 0.639040
vn -0.000000 0.000000 -1.000000
v 0.008905 0.529211 1.172475
vt 0.898543 0.638865
vn -0.000000 0.000000 -1.000000
v -0.026193 0.529211 1.172475
vt 0.898541 0.630564
vn -0.000000 0.000000 -1.000000
v -0.026193 0.529211 1.172475
vt 0.642249 0.458536
vn -0.000000 -1.000000 0.000000
v 0.008905 0.529211 1.172475
vt 0.642252 0.469754
vn -0.000000 -1.000000 0.000000
v 0.008905 0.529211 0.435980
vt 0.877654 0.469754
vn -0.000000 -1.000000 0.000000
v -0.026193 0.529211 0.435980
vt 0.877654 0.458536
vn -0.000000 -1.000000 0.000000
v -0.026193 0.529211 0.435980
vt 0.620742 0.615726
vn -0.000000 0.000000 1.000000
v 0.008905 0.529211 0.435980
vt 0.620746 0.624028
vn -0.000000 0.000000 1.000000
v 0.008905 -0.522747 0.435980
vt 0.898543 0.623890
vn -0.000000 0.000000 1.000000
v -0.026193 -0.522747 0.435980
vt 0.898541 0.615588
vn -0.000000 0.000000 1.000000
v -0.026193 -0.522747 0.435980
vt 0.642249 0.438300
vn -0.000000 1.000000 0.000000
v 0.008905 -0.522747 0.435980
vt 0.642252 0.449517
vn -0.000000 1.000000 0.000000
v 0.008905 -0.522747 1.172475
vt 0.877654 0.449517
vn -0.000000 1.000000 0.000000
v -0.026193 -0.522747 1.172475
vt 0.877654 0.438300
vn -0.000000 1.000000 0.000000
v -0.026193 -0.522747 0.379887
vt 0.620743 0.600739
vn -0.000000 0.000000 -1.000000
v 0.008905 -0.522747 0.379887
vt 0.620746 0.609041
vn -0.000000 0.000000 -1.000000
v 0.008905 0.529211 0.379887
vt 0.898543 0.608914
vn -0.000000 0.000000 -1.000000
v -0.026193 0.529211 0.379887
vt 0.898541 0.600612
vn -0.000000 0.000000 -1.000000
v -0.026193 0.529211 0.379887
vt 0.642249 0.418064
vn -0.000000 -1.000000 0.000000
v 0.008905 0.529211 0.379887
vt 0.642252 0.429282
vn -0.000000 -1.000000 0.000000
v 0.008905 0.529211 -0.356608
vt 0.877654 0.429282
vn -0.000000 -1.000000 0.000000
v -0.026193 0.529211 -0.356608
vt 0.877654 0.418064
vn -0.000000 -1.000000 0.000000
v -0.026193 0.529211 -0.356608
vt 0.620748 0.585436
vn -0.000000 0.000000 1.000000
v 0.008905 0.529211 -0.356608
vt 0.620742 0.593738
vn -0.000000 0.000000 1.000000
v 0.008905 -0.522747 -0.356608
vt 0.898541 0.593939
vn -0.000000 0.000000 1.000000
v -0.026193 -0.522747 -0.356608
vt 0.898544 0.585637
vn -0.000000 0.000000 1.000000
v -0.026193 -0.522747 -0.356608
vt 0.642253 0.397828
vn -0.000000 1.000000 0.000000
v 0.008905 -0.522747 -0.356608
vt 0.642249 0.409046
vn -0.000000 1.000000 0.000000
v 0.008905 -0.522747 0.379887
vt 0.877654 0.409046
vn -0.000000 1.000000 0.000000
v -0.026193 -0.522747 0.379887
vt 0.877654 0.397828
vn -0.000000 1.000000 0.000000
v -0.026193 -0.522747 -0.417413
vt 0.620752 0.570202
vn -0.000000 0.000000 -1.000000
v 0.008905 -0.522747 -0.417413
vt 0.620738 0.578504
vn -0.000000 0.000000 -1.000000
v 0.008905 0.529211 -0.417413
vt 0.898538 0.578963
vn -0.000000 0.000000 -1.000000
v -0.026193 0.529211 -0.417413
vt 0.898546 0.570661
vn -0.000000 0.000000 -1.000000
v -0.026193 0.529211 -0.417413
vt 0.642255 0.377591
vn -0.000000 -1.000000 0.000000
v 0.008905 0.529211 -0.417413
vt 0.642246 0.388810
vn -0.000000 -1.000000 0.000000
v 0.008905 0.529211 -1.153908
vt 0.877653 0.388809
vn -0.000000 -1.000000 0.000000
v -0.026193 0.529211 -1.153908
vt 0.877653 0.377592
vn -0.000000 -1.000000 0.000000
v -0.026193 0.529211 -1.153908
vt 0.620745 0.555658
vn -0.000000 0.000000 1.000000
v 0.008905 0.529211 -1.153908
vt 0.620744 0.563959
vn -0.000000 0.000000 1.000000
v 0.008905 -0.522747 -1.153908
vt 0.898542 0.563987
vn -0.000000 0.000000 1.000000
v -0.026193 -0.522747 -1.153908
vt 0.898542 0.555685
vn -0.000000 0.000000 1.000000
v -0.026193 -0.522747 -1.153908
vt 0.642251 0.357356
vn -0.000000 1.000000 0.000000
v 0.008905 -0.522747 -1.153908
vt 0.642250 0.368574
vn -0.000000 1.000000 0.000000
v 0.008905 -0.522747 -0.417413
vt 0.877654 0.368573
vn -0.000000 1.000000 0.000000
v -0.026193 -0.522747 -0.417413
vt 0.877654 0.357356
vn -0.000000 1.000000 0.000000
# Faces (1 to 152)
f -150/-150/-150 -151/-151/-151 -152/-152/-152
f -149/-149/-149 -150/-150/-150 -152/-152/-152
f -146/-146/-146 -147/-147/-147 -148/-148/-148
f -145/-145/-145 -146/-146/-146 -148/-148/-148
f -142/-142/-142 -143/-143/-143 -144/-144/-144
f -141/-141/-141 -142/-142/-142 -144/-144/-144
f -138/-138/-138 -139/-139/-139 -140/-140/-140
f -137/-137/-137 -138/-138/-138 -140/-140/-140
f -134/-134/-134 -135/-135/-135 -136/-136/-136
f -133/-133/-133 -134/-134/-134 -136/-136/-136
f -130/-130/-130 -131/-131/-131 -132/-132/-132
f -129/-129/-129 -130/-130/-130 -132/-132/-132
f -126/-126/-126 -127/-127/-127 -128/-128/-128
f -125/-125/-125 -126/-126/-126 -128/-128/-128
f -122/-122/-122 -123/-123/-123 -124/-124/-124
f -121/-121/-121 -122/-122/-122 -124/-124/-124
f -118/-118/-118 -119/-119/-119 -120/-120/-120
f -117/-117/-117 -118/-118/-118 -120/-120/-120
f -114/-114/-114 -115/-115/-115 -116/-116/-116
f -113/-113/-113 -114/-114/-114 -116/-116/-116
f -110/-110/-110 -111/-111/-111 -112/-112/-112
f -109/-109/-109 -110/-110/-110 -112/-112/-112
f -106/-106/-106 -107/-107/-107 -108/-108/-108
f -105/-105/-105 -106/-106/-106 -108/-108/-108
f -102/-102/-102 -103/-103/-103 -104/-104/-104
f -101/-101/-101 -102/-102/-102 -104/-104/-104
f -98/-98/-98 -99/-99/-99 -100/-100/-100
f -97/-97/-97 -98/-98/-98 -100/-100/-100
f -94/-94/-94 -95/-95/-95 -96/-96/-96
f -93/-93/-93 -94/-94/-94 -96/-96/-96
f -90/-90/-90 -91/-91/-91 -92/-92/-92
f -89/-89/-89 -90/-90/-90 -92/-92/-92
f -86/-86/-86 -87/-87/-87 -88/-88/-88
f -85/-85/-85 -86/-86/-86 -88/-88/-88
f -84/-84/-84 -86/-86/-86 -85/-85/-85
f -83/-83/-83 -84/-84/-84 -85/-85/-85
f -82/-82/-82 -84/-84/-84 -83/-83/-83
f -81/-81/-81 -82/-82/-82 -83/-83/-83
f -87/-87/-87 -82/-82/-82 -81/-81/-81
f -88/-88/-88 -87/-87/-87 -81/-81/-81
f -85/-85/-85 -80/-80/-80 -83/-83/-83
f -79/-79/-79 -80/-80/-80 -85/-85/-85
f -78/-78/-78 -79/-79/-79 -85/-85/-85
f -77/-77/-77 -79/-79/-79 -78/-78/-78
f -76/-76/-76 -77/-77/-77 -78/-78/-78
f -75/-75/-75 -77/-77/-77 -76/-76/-76
f -83/-83/-83 -75/-75/-75 -76/-76/-76
f -80/-80/-80 -75/-75/-75 -83/-83/-83
f -78/-78/-78 -74/-74/-74 -76/-76/-76
f -73/-73/-73 -74/-74/-74 -78/-78/-78
f -72/-72/-72 -73/-73/-73 -78/-78/-78
f -71/-71/-71 -73/-73/-73 -72/-72/-72
f -70/-70/-70 -71/-71/-71 -72/-72/-72
f -69/-69/-69 -71/-71/-71 -70/-70/-70
f -76/-76/-76 -69/-69/-69 -70/-70/-70
f -74/-74/-74 -69/-69/-69 -76/-76/-76
f -66/-66/-66 -67/-67/-67 -68/-68/-68
f -65/-65/-65 -66/-66/-66 -68/-68/-68
f -64/-64/-64 -66/-66/-66 -65/-65/-65
f -63/-63/-63 -64/-64/-64 -65/-65/-65
f -62/-62/-62 -64/-64/-64 -63/-63/-63
f -61/-61/-61 -62/-62/-62 -63/-63/-63
f -67/-67/-67 -62/-62/-62 -61/-61/-61
f -68/-68/-68 -67/-67/-67 -61/-61/-61
f -61/-61/-61 -60/-60/-60 -68/-68/-68
f -60/-60/-60 -59/-59/-59 -68/-68/-68
f -68/-68/-68 -59/-59/-59 -58/-58/-58
f -59/-59/-59 -57/-57/-57 -58/-58/-58
f -56/-56/-56 -60/-60/-60 -61/-61/-61
f -55/-55/-55 -56/-56/-56 -61/-61/-61
f -57/-57/-57 -56/-56/-56 -55/-55/-55
f -58/-58/-58 -57/-57/-57 -55/-55/-55
f -55/-55/-55 -54/-54/-54 -58/-58/-58
f -54/-54/-54 -53/-53/-53 -58/-58/-58
f -58/-58/-58 -53/-53/-53 -52/-52/-52
f -53/-53/-53 -51/-51/-51 -52/-52/-52
f -50/-50/-50 -54/-54/-54 -55/-55/-55
f -49/-49/-49 -50/-50/-50 -55/-55/-55
f -51/-51/-51 -50/-50/-50 -49/-49/-49
f -52/-52/-52 -51/-51/-51 -49/-49/-49
f -46/-46/-46 -47/-47/-47 -48/-48/-48
f -45/-45/-45 -46/-46/-46 -48/-48/-48
f -42/-42/-42 -43/-43/-43 -44/-44/-44
f -41/-41/-41 -42/-42/-42 -44/-44/-44
f -38/-38/-38 -39/-39/-39 -40/-40/-40
f -37/-37/-37 -38/-38/-38 -40/-40/-40
f -34/-34/-34 -35/-35/-35 -36/-36/-36
f -33/-33/-33 -34/-34/-34 -36/-36/-36
f -30/-30/-30 -31/-31/-31 -32/-32/-32
f -29/-29/-29 -30/-30/-30 -32/-32/-32
f -26/-26/-26 -27/-27/-27 -28/-28/-28
f -25/-25/-25 -26/-26/-26 -28/-28/-28
f -22/-22/-22 -23/-23/-23 -24/-24/-24
f -21/-21/-21 -22/-22/-22 -24/-24/-24
f -18/-18/-18 -19/-19/-19 -20/-20/-20
f -17/-17/-17 -18/-18/-18 -20/-20/-20
f -14/-14/-14 -15/-15/-15 -16/-16/-16
f -13/-13/-13 -14/-14/-14 -16/-16/-16
f -10/-10/-10 -11/-11/-11 -12/-12/-12
f -9/-9/-9 -10/-10/-10 -12/-12/-12
f -6/-6/-6 -7/-7/-7 -8/-8/-8
f -5/-5/-5 -6/-6/-6 -8/-8/-8
f -2/-2/-2 -3/-3/-3 -4/-4/-4
f -1/-1/-1 -2/-2/-2 -4/-4/-4

