# Mesh "Geen_Board001" exported with Unity Assets Bundle Extractor; 48 vertices, 84 indices, 56 bytes per vertex
g Geen_Board001
# SubMesh 0
# Vertices
v 0.877832 0.012558 -0.458893
vt 0.950381 0.482125
vn -0.000000 0.000000 -1.000000
v -0.877832 -0.012558 -0.458893
vt 0.017324 0.495473
vn -0.000000 0.000000 -1.000000
v 0.877832 -0.012558 -0.458893
vt 0.950381 0.495473
vn -0.000000 0.000000 -1.000000
v -0.877832 0.012558 -0.458893
vt 0.017324 0.482125
vn -0.000000 0.000000 -1.000000
v 0.877832 0.012558 0.458893
vt 0.950382 0.996583
vn -0.000000 0.000000 1.000000
v -0.877832 -0.012558 0.458893
vt 0.017324 0.983236
vn -0.000000 0.000000 1.000000
v -0.877832 0.012558 0.458893
vt 0.017324 0.996584
vn -0.000000 0.000000 1.000000
v 0.877832 -0.012558 0.458893
vt 0.950382 0.983236
vn -0.000000 0.000000 1.000000
v 0.853217 0.005985 0.435073
vt 0.935485 0.966761
vn -0.000000 -1.000000 0.000000
v -0.853216 0.005985 -0.435073
vt 0.031437 0.508044
vn -0.000000 -1.000000 0.000000
v -0.853216 0.005985 0.435073
vt 0.031437 0.966761
vn -0.000000 -1.000000 0.000000
v 0.853217 0.005985 -0.435073
vt 0.935485 0.508044
vn -0.000000 -1.000000 0.000000
v 0.877832 0.012558 0.458893
vt 0.963729 0.983236
vn 1.000000 0.000000 0.000000
v 0.877832 -0.012558 -0.458893
vt 0.950381 0.495473
vn 1.000000 0.000000 0.000000
v 0.877832 -0.012558 0.458893
vt 0.950382 0.983236
vn 1.000000 0.000000 0.000000
v 0.877832 0.012558 -0.458893
vt 0.963729 0.495472
vn 1.000000 0.000000 0.000000
v -0.877832 -0.012558 0.458893
vt 0.017324 0.983236
vn -1.000000 0.000000 0.000000
v -0.877832 0.012558 -0.458893
vt 0.003976 0.495473
vn -1.000000 0.000000 0.000000
v -0.877832 0.012558 0.458893
vt 0.003976 0.983236
vn -1.000000 0.000000 0.000000
v -0.877832 -0.012558 -0.458893
vt 0.017324 0.495473
vn -1.000000 0.000000 0.000000
v 0.862538 -0.012087 -0.443979
vt 0.942253 0.503399
vn -0.015299 -0.999757 0.015856
v -0.877832 -0.012558 -0.458893
vt 0.017324 0.495473
vn 0.015627 -0.999757 0.015520
v -0.862538 -0.012087 -0.443979
vt 0.025452 0.503399
vn 0.015299 -0.999757 0.015856
v 0.877832 -0.012558 -0.458893
vt 0.950381 0.495473
vn -0.015627 -0.999757 0.015520
v 0.862538 -0.012087 0.443979
vt 0.942253 0.975309
vn -0.015299 -0.999757 -0.015856
v 0.877832 -0.012558 0.458893
vt 0.950382 0.983236
vn -0.015627 -0.999757 -0.015520
v -0.862538 -0.012087 0.443979
vt 0.025452 0.975309
vn 0.015299 -0.999757 -0.015856
v -0.877832 -0.012558 0.458893
vt 0.017324 0.983236
vn 0.015627 -0.999757 -0.015520
v -0.862538 -0.012087 -0.443979
vt 0.025452 0.503399
vn -0.000000 -0.442041 0.896995
v 0.853217 0.005985 -0.435073
vt 0.935485 0.508044
vn -0.000000 -0.442041 0.896995
v 0.862538 -0.012087 -0.443979
vt 0.942253 0.503399
vn -0.000000 -0.442041 0.896995
v -0.853216 0.005985 -0.435073
vt 0.031437 0.508044
vn -0.000000 -0.442041 0.896995
v 0.862538 -0.012087 -0.443979
vt 0.942253 0.503399
vn -0.888747 -0.458398 0.000000
v 0.853217 0.005985 0.435073
vt 0.935485 0.966761
vn -0.888747 -0.458398 0.000000
v 0.862538 -0.012087 0.443979
vt 0.942253 0.975309
vn -0.888747 -0.458398 0.000000
v 0.853217 0.005985 -0.435073
vt 0.935485 0.508044
vn -0.888747 -0.458398 0.000000
v 0.862538 -0.012087 0.443979
vt 0.942253 0.975309
vn -0.000000 -0.442038 -0.896996
v -0.853216 0.005985 0.435073
vt 0.031437 0.966761
vn -0.000000 -0.442038 -0.896996
v -0.862538 -0.012087 0.443979
vt 0.025452 0.975309
vn -0.000000 -0.442038 -0.896996
v 0.853217 0.005985 0.435073
vt 0.935485 0.966761
vn -0.000000 -0.442038 -0.896996
v -0.853216 0.005985 -0.435073
vt 0.031437 0.508044
vn 0.888747 -0.458398 0.000000
v -0.862538 -0.012087 0.443979
vt 0.025452 0.975309
vn 0.888747 -0.458398 0.000000
v -0.853216 0.005985 0.435073
vt 0.031437 0.966761
vn 0.888747 -0.458398 0.000000
v -0.862538 -0.012087 -0.443979
vt 0.025452 0.503399
vn 0.888747 -0.458398 0.000000
v -0.877832 0.012558 0.458893
vt 0.921915 0.482125
vn -0.000000 1.000000 0.000000
v 0.877832 0.012558 -0.458893
vt 0.003976 0.002265
vn -0.000000 1.000000 0.000000
v 0.877832 0.012558 0.458893
vt 0.003976 0.482125
vn -0.000000 1.000000 0.000000
v -0.877832 0.012558 -0.458893
vt 0.921915 0.002265
vn -0.000000 1.000000 0.000000
# Faces (1 to 48)
f -46/-46/-46 -47/-47/-47 -48/-48/-48
f -45/-45/-45 -48/-48/-48 -47/-47/-47
f -42/-42/-42 -43/-43/-43 -44/-44/-44
f -41/-41/-41 -44/-44/-44 -43/-43/-43
f -38/-38/-38 -39/-39/-39 -40/-40/-40
f -37/-37/-37 -40/-40/-40 -39/-39/-39
f -34/-34/-34 -35/-35/-35 -36/-36/-36
f -33/-33/-33 -36/-36/-36 -35/-35/-35
f -30/-30/-30 -31/-31/-31 -32/-32/-32
f -29/-29/-29 -32/-32/-32 -31/-31/-31
f -26/-26/-26 -27/-27/-27 -28/-28/-28
f -25/-25/-25 -28/-28/-28 -27/-27/-27
f -28/-28/-28 -25/-25/-25 -24/-24/-24
f -23/-23/-23 -24/-24/-24 -25/-25/-25
f -24/-24/-24 -23/-23/-23 -22/-22/-22
f -21/-21/-21 -22/-22/-22 -23/-23/-23
f -22/-22/-22 -21/-21/-21 -26/-26/-26
f -27/-27/-27 -26/-26/-26 -21/-21/-21
f -18/-18/-18 -19/-19/-19 -20/-20/-20
f -17/-17/-17 -20/-20/-20 -19/-19/-19
f -14/-14/-14 -15/-15/-15 -16/-16/-16
f -13/-13/-13 -16/-16/-16 -15/-15/-15
f -10/-10/-10 -11/-11/-11 -12/-12/-12
f -9/-9/-9 -12/-12/-12 -11/-11/-11
f -6/-6/-6 -7/-7/-7 -8/-8/-8
f -5/-5/-5 -8/-8/-8 -7/-7/-7
f -2/-2/-2 -3/-3/-3 -4/-4/-4
f -1/-1/-1 -4/-4/-4 -3/-3/-3

