# Mesh "group2" exported with Unity Assets Bundle Extractor; 68 vertices, 282 indices, 56 bytes per vertex
g group2
# SubMesh 0
# Vertices
v -0.000424 -0.010482 0.034604
vt 0.489226 0.030688
vn 0.998863 -0.002256 0.047629
v -0.000260 -0.010482 0.028053
vt 0.489182 0.093206
vn 0.999982 -0.005503 0.002259
v -0.000424 -0.017819 0.028053
vt 0.559185 0.093223
vn 0.999090 -0.042647 0.000997
v -0.000406 -0.016349 0.033292
vt 0.545182 0.043257
vn 0.999080 -0.027654 0.032769
v -0.000260 -0.010482 -0.028053
vt 0.489122 0.628170
vn 0.999982 -0.005503 -0.002259
v -0.000424 -0.017819 -0.028053
vt 0.559072 0.628209
vn 0.999090 -0.042647 -0.000997
v -0.000406 -0.016349 -0.033292
vt 0.545029 0.678133
vn 0.999080 -0.027654 -0.032769
v -0.000424 -0.010482 -0.034604
vt 0.489108 0.690643
vn 0.998863 -0.002256 -0.047629
v -0.000260 0.010482 -0.028053
vt 0.289293 0.628171
vn 0.999971 0.007301 -0.002226
v -0.000260 0.010482 0.028053
vt 0.289232 0.093205
vn 0.999971 0.007301 0.002226
v -0.000477 0.017819 -0.028053
vt 0.219320 0.628214
vn 0.999098 0.042463 -0.000781
v -0.000477 0.017819 0.028053
vt 0.219210 0.093218
vn 0.999098 0.042463 0.000781
v -0.000424 0.010482 0.034604
vt 0.289189 0.030689
vn 0.998897 0.003145 0.046845
v -0.000433 0.016349 0.033292
vt 0.233229 0.043247
vn 0.999167 0.027727 0.029936
v -0.000424 0.010482 -0.034604
vt 0.289306 0.690642
vn 0.998897 0.003145 -0.046845
v -0.000433 0.016349 -0.033292
vt 0.233383 0.678143
vn 0.999167 0.027727 -0.029936
v -0.000706 -0.020963 -0.037412
vt 0.589053 0.717463
vn 0.998344 -0.040891 -0.040470
v -0.000706 -0.010482 -0.037412
vt 0.489110 0.717549
vn 0.995639 -0.001793 -0.093272
v -0.000706 0.010482 -0.037412
vt 0.289302 0.717546
vn 0.995781 0.002207 -0.091739
v -0.000706 0.020963 -0.028053
vt 0.189266 0.628234
vn 0.997453 0.071331 -0.000479
v -0.000706 0.020963 -0.037412
vt 0.189361 0.717461
vn 0.998641 0.036804 -0.036908
v -0.000706 0.020963 0.028053
vt 0.189137 0.093218
vn 0.997453 0.071331 0.000479
v -0.000706 0.020963 0.037412
vt 0.189142 0.003944
vn 0.998641 0.036804 0.036908
v -0.000706 0.010482 0.037412
vt 0.289155 0.003760
vn 0.995781 0.002208 0.091739
v -0.000706 -0.010482 0.037412
vt 0.489257 0.003756
vn 0.995639 -0.001793 0.093271
v -0.000706 -0.020963 0.037412
vt 0.589272 0.003941
vn 0.998344 -0.040892 0.040470
v -0.000706 -0.020963 0.028053
vt 0.589302 0.093220
vn 0.996231 -0.086740 0.000864
v -0.000706 -0.020963 -0.028053
vt 0.589175 0.628232
vn 0.996231 -0.086740 -0.000864
v -0.000988 0.010482 0.034604
vt 0.897932 0.030556
vn -0.998863 0.002256 0.047629
v -0.001153 0.010482 0.028053
vt 0.897888 0.093074
vn -0.999982 0.005503 0.002259
v -0.000988 0.017819 0.028053
vt 0.967891 0.093091
vn -0.999090 0.042647 0.000997
v -0.001006 0.016349 0.033292
vt 0.953888 0.043125
vn -0.999080 0.027654 0.032769
v -0.001153 0.010482 -0.028053
vt 0.897828 0.628038
vn -0.999982 0.005503 -0.002259
v -0.000988 0.017819 -0.028053
vt 0.967778 0.628077
vn -0.999090 0.042647 -0.000997
v -0.001006 0.016349 -0.033292
vt 0.953735 0.678001
vn -0.999080 0.027654 -0.032769
v -0.000988 0.010482 -0.034604
vt 0.897815 0.690511
vn -0.998863 0.002256 -0.047629
v -0.001153 -0.010482 -0.028053
vt 0.697999 0.628039
vn -0.999971 -0.007301 -0.002226
v -0.001153 -0.010482 0.028053
vt 0.697938 0.093073
vn -0.999971 -0.007301 0.002226
v -0.000936 -0.017819 -0.028053
vt 0.628026 0.628083
vn -0.999098 -0.042463 -0.000781
v -0.000936 -0.017819 0.028053
vt 0.627916 0.093086
vn -0.999098 -0.042463 0.000781
v -0.000988 -0.010482 0.034604
vt 0.697896 0.030558
vn -0.998897 -0.003145 0.046845
v -0.000980 -0.016349 0.033292
vt 0.641936 0.043115
vn -0.999167 -0.027727 0.029936
v -0.000988 -0.010482 -0.034604
vt 0.698013 0.690510
vn -0.998897 -0.003145 -0.046845
v -0.000980 -0.016349 -0.033292
vt 0.642089 0.678011
vn -0.999167 -0.027727 -0.029936
v -0.000706 0.020963 -0.037412
vt 0.997759 0.717332
vn -0.998344 0.040892 -0.040470
v -0.000706 0.010482 -0.037412
vt 0.897816 0.717417
vn -0.995639 0.001793 -0.093272
v -0.000706 -0.010482 -0.037412
vt 0.698008 0.717414
vn -0.995781 -0.002207 -0.091739
v -0.000706 -0.020963 -0.028053
vt 0.597972 0.628102
vn -0.997453 -0.071331 -0.000479
v -0.000706 -0.020963 -0.037412
vt 0.598068 0.717329
vn -0.998641 -0.036804 -0.036908
v -0.000706 -0.020963 0.028053
vt 0.597844 0.093086
vn -0.997453 -0.071331 0.000479
v -0.000706 -0.020963 0.037412
vt 0.597848 0.003812
vn -0.998641 -0.036804 0.036908
v -0.000706 -0.010482 0.037412
vt 0.697861 0.003628
vn -0.995781 -0.002208 0.091739
v -0.000706 0.010482 0.037412
vt 0.897963 0.003624
vn -0.995639 0.001793 0.093271
v -0.000706 0.020963 0.037412
vt 0.997978 0.003809
vn -0.998344 0.040892 0.040470
v -0.000706 0.020963 0.028053
vt 0.998008 0.093088
vn -0.996231 0.086740 0.000864
v -0.000706 0.020963 -0.028053
vt 0.997881 0.628100
vn -0.996231 0.086740 -0.000864
v -0.000366 0.018303 -0.036220
vt 0.156803 0.009488
vn 0.999300 0.037415 -0.000082
v -0.000284 0.016367 -0.034380
vt 0.139559 0.028406
vn 0.997865 0.065312 -0.000075
v -0.000283 0.016446 0.034601
vt 0.140267 0.737374
vn 0.997862 0.065357 -0.000075
v -0.000359 0.018303 0.036379
vt 0.156803 0.755654
vn 0.999300 0.037409 -0.000082
v 0.001125 0.001397 -0.003691
vt 0.006263 0.343821
vn 0.995634 0.093347 -0.000073
v 0.001122 0.001397 0.004146
vt 0.006263 0.424366
vn 0.995634 0.093347 -0.000073
v -0.000429 0.020093 -0.036808
vt 0.172734 0.003449
vn 0.988523 0.151069 -0.000080
v -0.000423 0.020093 0.036967
vt 0.172734 0.761693
vn 0.988524 0.151065 -0.000080
v -0.000709 0.020963 -0.036995
vt 0.180487 0.001524
vn 0.952039 0.305978 -0.000072
v -0.000704 0.020963 0.037154
vt 0.180487 0.763617
vn 0.952039 0.305978 -0.000072
v 0.001150 0.000917 0.001299
vt 0.001992 0.395106
vn 0.998333 0.057707 0.000525
v 0.001153 0.000917 -0.000844
vt 0.001992 0.373081
vn 0.998333 0.057707 0.000525
# Faces (1 to 68)
f -66/-66/-66 -67/-67/-67 -68/-68/-68
f -65/-65/-65 -66/-66/-66 -68/-68/-68
f -67/-67/-67 -66/-66/-66 -64/-64/-64
f -66/-66/-66 -63/-63/-63 -64/-64/-64
f -63/-63/-63 -62/-62/-62 -64/-64/-64
f -62/-62/-62 -61/-61/-61 -64/-64/-64
f -67/-67/-67 -64/-64/-64 -60/-60/-60
f -64/-64/-64 -61/-61/-61 -60/-60/-60
f -59/-59/-59 -67/-67/-67 -60/-60/-60
f -59/-59/-59 -60/-60/-60 -58/-58/-58
f -57/-57/-57 -59/-59/-59 -58/-58/-58
f -56/-56/-56 -59/-59/-59 -57/-57/-57
f -67/-67/-67 -59/-59/-59 -56/-56/-56
f -68/-68/-68 -67/-67/-67 -56/-56/-56
f -55/-55/-55 -56/-56/-56 -57/-57/-57
f -58/-58/-58 -60/-60/-60 -54/-54/-54
f -61/-61/-61 -54/-54/-54 -60/-60/-60
f -53/-53/-53 -58/-58/-58 -54/-54/-54
f -62/-62/-62 -52/-52/-52 -61/-61/-61
f -62/-62/-62 -63/-63/-63 -52/-52/-52
f -52/-52/-52 -51/-51/-51 -61/-61/-61
f -50/-50/-50 -54/-54/-54 -61/-61/-61
f -51/-51/-51 -50/-50/-50 -61/-61/-61
f -58/-58/-58 -53/-53/-53 -49/-49/-49
f -53/-53/-53 -48/-48/-48 -49/-49/-49
f -54/-54/-54 -50/-50/-50 -48/-48/-48
f -53/-53/-53 -54/-54/-54 -48/-48/-48
f -58/-58/-58 -49/-49/-49 -47/-47/-47
f -57/-57/-57 -58/-58/-58 -47/-47/-47
f -56/-56/-56 -55/-55/-55 -46/-46/-46
f -57/-57/-57 -47/-47/-47 -46/-46/-46
f -55/-55/-55 -57/-57/-57 -46/-46/-46
f -45/-45/-45 -56/-56/-56 -46/-46/-46
f -56/-56/-56 -45/-45/-45 -44/-44/-44
f -68/-68/-68 -56/-56/-56 -44/-44/-44
f -65/-65/-65 -68/-68/-68 -44/-44/-44
f -43/-43/-43 -65/-65/-65 -44/-44/-44
f -43/-43/-43 -42/-42/-42 -65/-65/-65
f -42/-42/-42 -66/-66/-66 -65/-65/-65
f -66/-66/-66 -42/-42/-42 -63/-63/-63
f -42/-42/-42 -41/-41/-41 -63/-63/-63
f -63/-63/-63 -41/-41/-41 -52/-52/-52
f -38/-38/-38 -39/-39/-39 -40/-40/-40
f -37/-37/-37 -38/-38/-38 -40/-40/-40
f -39/-39/-39 -38/-38/-38 -36/-36/-36
f -38/-38/-38 -35/-35/-35 -36/-36/-36
f -35/-35/-35 -34/-34/-34 -36/-36/-36
f -34/-34/-34 -33/-33/-33 -36/-36/-36
f -39/-39/-39 -36/-36/-36 -32/-32/-32
f -36/-36/-36 -33/-33/-33 -32/-32/-32
f -31/-31/-31 -39/-39/-39 -32/-32/-32
f -31/-31/-31 -32/-32/-32 -30/-30/-30
f -29/-29/-29 -31/-31/-31 -30/-30/-30
f -28/-28/-28 -31/-31/-31 -29/-29/-29
f -39/-39/-39 -31/-31/-31 -28/-28/-28
f -40/-40/-40 -39/-39/-39 -28/-28/-28
f -27/-27/-27 -28/-28/-28 -29/-29/-29
f -30/-30/-30 -32/-32/-32 -26/-26/-26
f -33/-33/-33 -26/-26/-26 -32/-32/-32
f -25/-25/-25 -30/-30/-30 -26/-26/-26
f -34/-34/-34 -24/-24/-24 -33/-33/-33
f -34/-34/-34 -35/-35/-35 -24/-24/-24
f -24/-24/-24 -23/-23/-23 -33/-33/-33
f -22/-22/-22 -26/-26/-26 -33/-33/-33
f -23/-23/-23 -22/-22/-22 -33/-33/-33
f -30/-30/-30 -25/-25/-25 -21/-21/-21
f -29/-29/-29 -30/-30/-30 -21/-21/-21
f -25/-25/-25 -20/-20/-20 -21/-21/-21
f -26/-26/-26 -22/-22/-22 -20/-20/-20
f -25/-25/-25 -26/-26/-26 -20/-20/-20
f -19/-19/-19 -29/-29/-29 -21/-21/-21
f -28/-28/-28 -27/-27/-27 -18/-18/-18
f -29/-29/-29 -19/-19/-19 -18/-18/-18
f -27/-27/-27 -29/-29/-29 -18/-18/-18
f -17/-17/-17 -28/-28/-28 -18/-18/-18
f -40/-40/-40 -28/-28/-28 -17/-17/-17
f -16/-16/-16 -40/-40/-40 -17/-17/-17
f -37/-37/-37 -40/-40/-40 -16/-16/-16
f -15/-15/-15 -37/-37/-37 -16/-16/-16
f -15/-15/-15 -14/-14/-14 -37/-37/-37
f -14/-14/-14 -38/-38/-38 -37/-37/-37
f -38/-38/-38 -14/-14/-14 -35/-35/-35
f -14/-14/-14 -13/-13/-13 -35/-35/-35
f -35/-35/-35 -13/-13/-13 -24/-24/-24
f -10/-10/-10 -11/-11/-11 -12/-12/-12
f -9/-9/-9 -10/-10/-10 -12/-12/-12
f -8/-8/-8 -11/-11/-11 -10/-10/-10
f -7/-7/-7 -8/-8/-8 -10/-10/-10
f -9/-9/-9 -12/-12/-12 -6/-6/-6
f -5/-5/-5 -9/-9/-9 -6/-6/-6
f -6/-6/-6 -4/-4/-4 -5/-5/-5
f -4/-4/-4 -3/-3/-3 -5/-5/-5
f -7/-7/-7 -2/-2/-2 -8/-8/-8
f -2/-2/-2 -1/-1/-1 -8/-8/-8

