# Mesh "Indicator_3" exported with Unity Assets Bundle Extractor; 48 vertices, 132 indices, 48 bytes per vertex
g Indicator_3
# SubMesh 0
# Vertices
v -0.000000 -0.004348 -0.001582
vt 0.250000 0.036413
vn -1.000000 0.000000 0.000000
v -0.000000 -0.004103 -0.002637
vt 0.083333 0.093750
vn -1.000000 0.000000 0.000000
v -0.000000 -0.002648 -0.001614
vt 0.247549 0.163402
vn -1.000000 0.000000 0.000000
v -0.000000 -0.002228 -0.002655
vt 0.081971 0.225839
vn -1.000000 0.000000 0.000000
v -0.000000 -0.002049 -0.003165
vt 0.005430 0.240590
vn -1.000000 0.000000 0.000000
v -0.000000 -0.003894 -0.003165
vt 0.000000 0.093397
vn -1.000000 0.000000 0.000000
v -0.000000 -0.004444 -0.000528
vt 0.427876 0.020939
vn -1.000000 0.000000 0.000000
v -0.000000 -0.002776 -0.000585
vt 0.412094 0.156044
vn -1.000000 0.000000 0.000000
v -0.000000 -0.004390 0.000528
vt 0.583333 0.034216
vn -1.000000 0.000000 0.000000
v -0.000000 -0.002603 0.000455
vt 0.622147 0.164869
vn -1.000000 0.000000 0.000000
v -0.000000 -0.003890 0.001984
vt 0.771088 0.083333
vn -1.000000 0.000000 0.000000
v -0.000000 -0.003319 0.002627
vt 0.915111 0.126383
vn -1.000000 0.000000 0.000000
v -0.000000 -0.002639 0.003006
vt 0.945827 0.202732
vn -1.000000 0.000000 0.000000
v -0.000000 -0.002219 0.000846
vt 0.691745 0.250000
vn -1.000000 0.000000 0.000000
v -0.000000 -0.002219 0.003118
vt 0.954652 0.250000
vn -1.000000 0.000000 0.000000
v -0.000000 -0.001618 0.001012
vt 0.704938 0.315019
vn -1.000000 0.000000 0.000000
v -0.000000 -0.001673 0.003165
vt 0.972220 0.311962
vn -1.000000 0.000000 0.000000
v -0.000000 -0.001107 0.000932
vt 0.698604 0.375000
vn -1.000000 0.000000 0.000000
v -0.000000 -0.001107 0.003094
vt 0.952686 0.375000
vn -1.000000 0.000000 0.000000
v -0.000000 -0.000701 0.000503
vt 0.637668 0.447290
vn -1.000000 0.000000 0.000000
v -0.000000 -0.000688 0.002923
vt 0.939233 0.422037
vn -1.000000 0.000000 0.000000
v -0.000000 -0.000318 0.002638
vt 0.916667 0.463724
vn -1.000000 0.000000 0.000000
v -0.000000 0.000293 0.001526
vt 0.741026 0.532335
vn -1.000000 0.000000 0.000000
v -0.000000 0.001262 0.000528
vt 0.583333 0.600279
vn -1.000000 0.000000 0.000000
v -0.000000 0.001675 0.002845
vt 0.872193 0.687500
vn -1.000000 0.000000 0.000000
v -0.000000 0.001210 0.002629
vt 0.916667 0.634836
vn -1.000000 0.000000 0.000000
v -0.000000 0.001674 0.000786
vt 0.623977 0.702552
vn -1.000000 0.000000 0.000000
v -0.000000 0.002536 0.000528
vt 0.583333 0.798382
vn -1.000000 0.000000 0.000000
v -0.000000 0.003898 0.002122
vt 0.778413 0.895833
vn -1.000000 0.000000 0.000000
v -0.000000 0.003392 0.002638
vt 0.916667 0.846524
vn -1.000000 0.000000 0.000000
v -0.000000 0.002788 0.002900
vt 0.956812 0.812500
vn -1.000000 0.000000 0.000000
v -0.000000 0.002310 0.002951
vt 0.964706 0.758977
vn -1.000000 0.000000 0.000000
v -0.000000 0.004421 0.000528
vt 0.583333 0.966736
vn -1.000000 0.000000 0.000000
v -0.000000 0.004443 -0.000528
vt 0.437215 0.978748
vn -1.000000 0.000000 0.000000
v -0.000000 0.002795 -0.000524
vt 0.417314 0.814026
vn -1.000000 0.000000 0.000000
v -0.000000 0.004174 0.001583
vt 0.750000 0.968199
vn -1.000000 0.000000 0.000000
v -0.000000 -0.000585 -0.000001
vt 0.500000 0.458055
vn -1.000000 0.000000 0.000000
v -0.000000 0.001023 0.000000
vt 0.500000 0.593792
vn -1.000000 0.000000 0.000000
v -0.000000 -0.000549 -0.001298
vt 0.295023 0.437716
vn -1.000000 0.000000 0.000000
v -0.000000 0.000952 -0.001298
vt 0.295023 0.606394
vn -1.000000 0.000000 0.000000
v -0.000000 0.002200 -0.002637
vt 0.087427 0.779591
vn -1.000000 0.000000 0.000000
v -0.000000 0.004019 -0.002637
vt 0.083333 0.944289
vn -1.000000 0.000000 0.000000
v -0.000000 0.004308 -0.001582
vt 0.250000 0.960582
vn -1.000000 0.000000 0.000000
v -0.000000 0.002628 -0.001582
vt 0.250000 0.803648
vn -1.000000 0.000000 0.000000
v -0.000000 0.003903 -0.002919
vt 0.038914 0.938050
vn -1.000000 0.000000 0.000000
v -0.000000 0.002081 -0.002919
vt 0.043590 0.765242
vn -1.000000 0.000000 0.000000
v -0.000000 0.002795 -0.000524
vt 0.369187 0.812500
vn -1.000000 0.000000 0.000000
v -0.000000 0.004443 -0.000528
vt 0.437215 0.978748
vn -1.000000 0.000000 0.000000
# Faces (1 to 48)
f -46/-46/-46 -47/-47/-47 -48/-48/-48
f -46/-46/-46 -45/-45/-45 -47/-47/-47
f -47/-47/-47 -45/-45/-45 -44/-44/-44
f -43/-43/-43 -47/-47/-47 -44/-44/-44
f -48/-48/-48 -42/-42/-42 -46/-46/-46
f -42/-42/-42 -41/-41/-41 -46/-46/-46
f -42/-42/-42 -40/-40/-40 -41/-41/-41
f -40/-40/-40 -39/-39/-39 -41/-41/-41
f -39/-39/-39 -40/-40/-40 -38/-38/-38
f -38/-38/-38 -37/-37/-37 -39/-39/-39
f -37/-37/-37 -36/-36/-36 -39/-39/-39
f -39/-39/-39 -36/-36/-36 -35/-35/-35
f -36/-36/-36 -34/-34/-34 -35/-35/-35
f -35/-35/-35 -34/-34/-34 -33/-33/-33
f -34/-34/-34 -32/-32/-32 -33/-33/-33
f -33/-33/-33 -32/-32/-32 -31/-31/-31
f -32/-32/-32 -30/-30/-30 -31/-31/-31
f -31/-31/-31 -30/-30/-30 -29/-29/-29
f -30/-30/-30 -28/-28/-28 -29/-29/-29
f -28/-28/-28 -27/-27/-27 -29/-29/-29
f -27/-27/-27 -26/-26/-26 -29/-29/-29
f -26/-26/-26 -25/-25/-25 -29/-29/-29
f -26/-26/-26 -24/-24/-24 -25/-25/-25
f -23/-23/-23 -24/-24/-24 -26/-26/-26
f -24/-24/-24 -22/-22/-22 -25/-25/-25
f -22/-22/-22 -24/-24/-24 -21/-21/-21
f -24/-24/-24 -20/-20/-20 -21/-21/-21
f -19/-19/-19 -20/-20/-20 -24/-24/-24
f -18/-18/-18 -19/-19/-19 -24/-24/-24
f -17/-17/-17 -18/-18/-18 -24/-24/-24
f -20/-20/-20 -16/-16/-16 -21/-21/-21
f -21/-21/-21 -16/-16/-16 -15/-15/-15
f -14/-14/-14 -21/-21/-21 -15/-15/-15
f -13/-13/-13 -16/-16/-16 -20/-20/-20
f -25/-25/-25 -11/-11/-11 -12/-12/-12
f -29/-29/-29 -25/-25/-25 -12/-12/-12
f -10/-10/-10 -12/-12/-12 -11/-11/-11
f -9/-9/-9 -10/-10/-10 -11/-11/-11
f -6/-6/-6 -7/-7/-7 -8/-8/-8
f -5/-5/-5 -6/-6/-6 -8/-8/-8
f -8/-8/-8 -7/-7/-7 -4/-4/-4
f -3/-3/-3 -8/-8/-8 -4/-4/-4
f -5/-5/-5 -2/-2/-2 -6/-6/-6
f -2/-2/-2 -1/-1/-1 -6/-6/-6

