# Mesh "Indicator_6" exported with Unity Assets Bundle Extractor; 70 vertices, 210 indices, 48 bytes per vertex
g Indicator_6
# SubMesh 0
# Vertices
v 0.000000 0.004729 0.002802
vt 0.889279 0.937500
vn -1.000000 0.000000 0.000000
v 0.000000 0.003132 0.001803
vt 0.750000 0.819778
vn -1.000000 0.000000 0.000000
v 0.000000 0.004803 0.002401
vt 0.833333 0.991035
vn -1.000000 0.000000 0.000000
v -0.000000 0.003058 0.002153
vt 0.798712 0.812500
vn -1.000000 0.000000 0.000000
v 0.000000 0.002850 0.002802
vt 0.859329 0.815937
vn -1.000000 0.000000 0.000000
v 0.000000 0.004868 0.001802
vt 0.750000 0.997533
vn -1.000000 0.000000 0.000000
v 0.000000 0.003176 0.001214
vt 0.668131 0.824110
vn -1.000000 0.000000 0.000000
v 0.000000 0.004887 0.001193
vt 0.665233 0.999999
vn -1.000000 0.000000 0.000000
v 0.000000 0.004862 0.000605
vt 0.583333 0.997541
vn -1.000000 0.000000 0.000000
v 0.000000 0.003116 0.000605
vt 0.583333 0.818588
vn -1.000000 0.000000 0.000000
v 0.000000 0.004781 0.000006
vt 0.500000 0.989084
vn -1.000000 0.000000 0.000000
v 0.000000 0.003055 0.000355
vt 0.548496 0.812500
vn -1.000000 0.000000 0.000000
v -0.000000 0.004628 -0.000593
vt 0.416667 0.973252
vn -1.000000 0.000000 0.000000
v 0.000000 0.002922 0.000006
vt 0.500000 0.798868
vn -1.000000 0.000000 0.000000
v 0.000000 0.004331 -0.001290
vt 0.319552 0.942856
vn -1.000000 0.000000 0.000000
v 0.000000 0.002459 -0.000605
vt 0.414942 0.751442
vn -1.000000 0.000000 0.000000
v 0.000000 0.004020 -0.001790
vt 0.250000 0.911116
vn -1.000000 0.000000 0.000000
v 0.000000 0.003570 -0.002297
vt 0.179386 0.865156
vn -1.000000 0.000000 0.000000
v 0.000000 0.001834 -0.000988
vt 0.361717 0.687500
vn -1.000000 0.000000 0.000000
v 0.000000 0.003055 -0.002709
vt 0.121838 0.812500
vn -1.000000 0.000000 0.000000
v 0.000000 0.002507 -0.003013
vt 0.079048 0.756654
vn -1.000000 0.000000 0.000000
v 0.000000 0.001831 -0.003272
vt 0.042715 0.687500
vn -1.000000 0.000000 0.000000
v 0.000000 0.001048 -0.001193
vt 0.331429 0.595127
vn -1.000000 0.000000 0.000000
v 0.000000 0.001222 -0.003428
vt 0.021410 0.625000
vn -1.000000 0.000000 0.000000
v -0.000000 0.000612 -0.003529
vt 0.008264 0.562500
vn -1.000000 0.000000 0.000000
v 0.000000 0.000002 -0.003583
vt 0.001559 0.500000
vn -1.000000 0.000000 0.000000
v 0.000000 -0.000554 -0.003594
vt 0.000041 0.443221
vn -1.000000 0.000000 0.000000
v 0.000000 -0.001221 -0.003561
vt 0.003801 0.375000
vn -1.000000 0.000000 0.000000
v 0.000000 -0.001832 -0.003481
vt 0.014492 0.312500
vn -1.000000 0.000000 0.000000
v 0.000000 -0.003165 -0.003047
vt 0.075412 0.176322
vn -1.000000 0.000000 0.000000
v -0.000000 -0.002443 -0.003338
vt 0.034573 0.250000
vn -1.000000 0.000000 0.000000
v 0.000000 -0.003666 -0.002732
vt 0.119072 0.125000
vn -1.000000 0.000000 0.000000
v 0.000000 -0.004043 -0.002389
vt 0.166667 0.086315
vn -1.000000 0.000000 0.000000
v 0.000000 -0.000737 -0.001237
vt 0.326375 0.424495
vn -1.000000 0.000000 0.000000
v 0.000000 -0.004371 -0.001946
vt 0.228236 0.052602
vn -1.000000 0.000000 0.000000
v 0.000000 -0.001220 -0.001237
vt 0.326695 0.375000
vn -1.000000 0.000000 0.000000
v 0.000000 -0.001812 -0.001190
vt 0.333765 0.314566
vn -1.000000 0.000000 0.000000
v 0.000000 -0.002443 -0.001019
vt 0.357262 0.250000
vn -1.000000 0.000000 0.000000
v 0.000000 -0.003054 -0.000602
vt 0.415391 0.187500
vn -1.000000 0.000000 0.000000
v 0.000000 -0.003062 -0.000593
vt 0.416667 0.186738
vn -1.000000 0.000000 0.000000
v 0.000000 -0.004715 -0.001191
vt 0.333333 0.017632
vn -1.000000 0.000000 0.000000
v 0.000000 -0.004843 -0.000593
vt 0.416667 0.004564
vn -1.000000 0.000000 0.000000
v 0.000000 -0.003288 0.000033
vt 0.503733 0.163561
vn -1.000000 0.000000 0.000000
v 0.000000 -0.004887 0.000051
vt 0.506314 0.000040
vn -1.000000 0.000000 0.000000
v 0.000000 -0.004860 0.000605
vt 0.583333 0.002682
vn -1.000000 0.000000 0.000000
v 0.000000 -0.003033 0.000727
vt 0.600304 0.189661
vn -1.000000 0.000000 0.000000
v 0.000000 -0.004748 0.001202
vt 0.666667 0.013739
vn -1.000000 0.000000 0.000000
v 0.000000 -0.004322 0.002149
vt 0.798680 0.057375
vn -1.000000 0.000000 0.000000
v 0.000000 -0.003596 0.002950
vt 0.909428 0.132250
vn -1.000000 0.000000 0.000000
v 0.000000 -0.002294 0.001165
vt 0.661373 0.265186
vn -1.000000 0.000000 0.000000
v 0.000000 -0.003056 0.003272
vt 0.953920 0.187500
vn -1.000000 0.000000 0.000000
v -0.000000 -0.002444 0.003486
vt 0.983909 0.250000
vn -1.000000 0.000000 0.000000
v -0.000000 -0.001717 0.001236
vt 0.671075 0.324219
vn -1.000000 0.000000 0.000000
v -0.000000 -0.001832 0.003584
vt 0.998006 0.312500
vn -1.000000 0.000000 0.000000
v 0.000000 -0.001355 0.003594
vt 0.999622 0.361281
vn -1.000000 0.000000 0.000000
v 0.000000 -0.000611 0.003517
vt 0.989839 0.437500
vn -1.000000 0.000000 0.000000
v 0.000000 -0.000661 0.001157
vt 0.668220 0.375000
vn -1.000000 0.000000 0.000000
v -0.000000 0.000000 0.003337
vt 0.964067 0.500000
vn -1.000000 0.000000 0.000000
v 0.000000 0.000585 0.003007
vt 0.916667 0.559079
vn -1.000000 0.000000 0.000000
v 0.000000 0.000618 0.002980
vt 0.913040 0.562500
vn -1.000000 0.000000 0.000000
v 0.000000 0.001420 0.001802
vt 0.750000 0.645025
vn -1.000000 0.000000 0.000000
v 0.000000 0.001181 0.002330
vt 0.823354 0.620614
vn -1.000000 0.000000 0.000000
v 0.000000 -0.000235 0.000824
vt 0.583333 0.475020
vn -1.000000 0.000000 0.000000
v 0.000000 0.001560 0.001204
vt 0.666667 0.658980
vn -1.000000 0.000000 0.000000
v -0.000000 0.001581 0.000702
vt 0.596821 0.661398
vn -1.000000 0.000000 0.000000
v 0.000000 -0.000063 0.000158
vt 0.488065 0.492743
vn -1.000000 0.000000 0.000000
v 0.000000 0.001478 0.000006
vt 0.500000 0.651195
vn -1.000000 0.000000 0.000000
v 0.000000 0.001243 -0.000638
vt 0.410269 0.627193
vn -1.000000 0.000000 0.000000
v -0.000000 -0.000102 -0.000368
vt 0.416667 0.489203
vn -1.000000 0.000000 0.000000
v 0.000000 -0.000282 -0.001011
vt 0.330551 0.471085
vn -1.000000 0.000000 0.000000
# Faces (1 to 70)
f -68/-68/-68 -69/-69/-69 -70/-70/-70
f -67/-67/-67 -70/-70/-70 -69/-69/-69
f -66/-66/-66 -70/-70/-70 -67/-67/-67
f -68/-68/-68 -65/-65/-65 -69/-69/-69
f -69/-69/-69 -65/-65/-65 -64/-64/-64
f -65/-65/-65 -63/-63/-63 -64/-64/-64
f -63/-63/-63 -62/-62/-62 -64/-64/-64
f -62/-62/-62 -61/-61/-61 -64/-64/-64
f -62/-62/-62 -60/-60/-60 -61/-61/-61
f -60/-60/-60 -59/-59/-59 -61/-61/-61
f -60/-60/-60 -58/-58/-58 -59/-59/-59
f -58/-58/-58 -57/-57/-57 -59/-59/-59
f -56/-56/-56 -57/-57/-57 -58/-58/-58
f -57/-57/-57 -56/-56/-56 -55/-55/-55
f -56/-56/-56 -54/-54/-54 -55/-55/-55
f -53/-53/-53 -55/-55/-55 -54/-54/-54
f -55/-55/-55 -53/-53/-53 -52/-52/-52
f -53/-53/-53 -51/-51/-51 -52/-52/-52
f -50/-50/-50 -52/-52/-52 -51/-51/-51
f -50/-50/-50 -49/-49/-49 -52/-52/-52
f -49/-49/-49 -48/-48/-48 -52/-52/-52
f -48/-48/-48 -49/-49/-49 -47/-47/-47
f -46/-46/-46 -48/-48/-48 -47/-47/-47
f -48/-48/-48 -46/-46/-46 -45/-45/-45
f -44/-44/-44 -48/-48/-48 -45/-45/-45
f -48/-48/-48 -44/-44/-44 -43/-43/-43
f -42/-42/-42 -48/-48/-48 -43/-43/-43
f -48/-48/-48 -42/-42/-42 -41/-41/-41
f -41/-41/-41 -42/-42/-42 -40/-40/-40
f -39/-39/-39 -48/-48/-48 -41/-41/-41
f -39/-39/-39 -38/-38/-38 -48/-48/-48
f -38/-38/-38 -37/-37/-37 -48/-48/-48
f -38/-38/-38 -36/-36/-36 -37/-37/-37
f -36/-36/-36 -35/-35/-35 -37/-37/-37
f -36/-36/-36 -34/-34/-34 -35/-35/-35
f -36/-36/-36 -33/-33/-33 -34/-34/-34
f -36/-36/-36 -32/-32/-32 -33/-33/-33
f -32/-32/-32 -36/-36/-36 -31/-31/-31
f -36/-36/-36 -30/-30/-30 -31/-31/-31
f -30/-30/-30 -29/-29/-29 -31/-31/-31
f -29/-29/-29 -28/-28/-28 -31/-31/-31
f -29/-29/-29 -27/-27/-27 -28/-28/-28
f -27/-27/-27 -26/-26/-26 -28/-28/-28
f -28/-28/-28 -26/-26/-26 -25/-25/-25
f -26/-26/-26 -24/-24/-24 -25/-25/-25
f -23/-23/-23 -25/-25/-25 -24/-24/-24
f -23/-23/-23 -22/-22/-22 -25/-25/-25
f -22/-22/-22 -21/-21/-21 -25/-25/-25
f -22/-22/-22 -20/-20/-20 -21/-21/-21
f -20/-20/-20 -19/-19/-19 -21/-21/-21
f -21/-21/-21 -19/-19/-19 -18/-18/-18
f -19/-19/-19 -17/-17/-17 -18/-18/-18
f -16/-16/-16 -18/-18/-18 -17/-17/-17
f -18/-18/-18 -16/-16/-16 -15/-15/-15
f -14/-14/-14 -18/-18/-18 -15/-15/-15
f -15/-15/-15 -13/-13/-13 -14/-14/-14
f -13/-13/-13 -12/-12/-12 -14/-14/-14
f -11/-11/-11 -14/-14/-14 -12/-12/-12
f -11/-11/-11 -10/-10/-10 -14/-14/-14
f -10/-10/-10 -11/-11/-11 -9/-9/-9
f -10/-10/-10 -8/-8/-8 -14/-14/-14
f -7/-7/-7 -8/-8/-8 -10/-10/-10
f -7/-7/-7 -6/-6/-6 -8/-8/-8
f -6/-6/-6 -5/-5/-5 -8/-8/-8
f -4/-4/-4 -5/-5/-5 -6/-6/-6
f -4/-4/-4 -3/-3/-3 -5/-5/-5
f -3/-3/-3 -2/-2/-2 -5/-5/-5
f -3/-3/-3 -48/-48/-48 -2/-2/-2
f -48/-48/-48 -1/-1/-1 -2/-2/-2
f -48/-48/-48 -37/-37/-37 -1/-1/-1

