# Mesh "Indicator_2" exported with Unity Assets Bundle Extractor; 30 vertices, 78 indices, 48 bytes per vertex
g Indicator_2
# SubMesh 0
# Vertices
v -0.000000 0.002748 0.002611
vt 0.916667 0.815458
vn -1.000000 0.000000 0.000000
v -0.000000 0.001636 0.002716
vt 0.882895 0.690176
vn -1.000000 0.000000 0.000000
v -0.000000 0.003578 0.002089
vt 0.833333 0.910889
vn -1.000000 0.000000 0.000000
v -0.000000 0.001636 0.000603
vt 0.672405 0.683509
vn -1.000000 0.000000 0.000000
v -0.000000 0.000684 0.002564
vt 0.871487 0.569612
vn -1.000000 0.000000 0.000000
v -0.000000 0.000684 0.000469
vt 0.662387 0.570310
vn -1.000000 0.000000 0.000000
v -0.000000 -0.000906 0.001566
vt 0.750000 0.395174
vn -1.000000 0.000000 0.000000
v -0.000000 -0.001914 0.000522
vt 0.583333 0.279223
vn -1.000000 0.000000 0.000000
v -0.000000 -0.002719 -0.000486
vt 0.422479 0.186704
vn -1.000000 0.000000 0.000000
v -0.000000 -0.000629 -0.000519
vt 0.416667 0.427511
vn -1.000000 0.000000 0.000000
v -0.000000 -0.001646 -0.001565
vt 0.250000 0.310382
vn -1.000000 0.000000 0.000000
v -0.000000 -0.000253 0.002088
vt 0.833333 0.470310
vn -1.000000 0.000000 0.000000
v -0.000000 0.003955 0.001567
vt 0.750000 0.954224
vn -1.000000 0.000000 0.000000
v -0.000000 0.004289 0.000522
vt 0.583333 0.992688
vn -1.000000 0.000000 0.000000
v -0.000000 0.002150 0.000527
vt 0.583333 0.726412
vn -1.000000 0.000000 0.000000
v -0.000000 0.004343 -0.000000
vt 0.500000 0.999021
vn -1.000000 0.000000 0.000000
v -0.000000 0.002565 -0.000000
vt 0.500000 0.794442
vn -1.000000 0.000000 0.000000
v -0.000000 0.002703 -0.001044
vt 0.333333 0.810286
vn -1.000000 0.000000 0.000000
v -0.000000 0.004309 -0.001045
vt 0.333333 0.994636
vn -1.000000 0.000000 0.000000
v -0.000000 0.002361 -0.002087
vt 0.166667 0.771390
vn -1.000000 0.000000 0.000000
v -0.000000 0.004119 -0.002091
vt 0.166667 0.972308
vn -1.000000 0.000000 0.000000
v -0.000000 0.003820 -0.002927
vt 0.032907 0.938735
vn -1.000000 0.000000 0.000000
v -0.000000 0.001959 -0.002927
vt 0.046161 0.724638
vn -1.000000 0.000000 0.000000
v -0.000000 -0.002712 -0.002685
vt 0.160736 0.190954
vn -1.000000 0.000000 0.000000
v -0.000000 -0.004343 -0.003133
vt 0.416667 0.000000
vn -1.000000 0.000000 0.000000
v -0.000000 -0.002733 0.003133
vt 1.000000 0.185112
vn -1.000000 0.000000 0.000000
v -0.000000 -0.004343 0.003133
vt 1.000000 0.000000
vn -1.000000 0.000000 0.000000
v -0.000000 -0.002951 -0.003133
vt 0.000000 0.160079
vn -1.000000 0.000000 0.000000
v -0.000000 -0.002712 -0.002685
vt 0.160736 0.190954
vn -1.000000 0.000000 0.000000
v -0.000000 -0.004343 -0.003133
vt 0.083333 0.000000
vn -0.000000 1.000000 0.000000
# Faces (1 to 30)
f -28/-28/-28 -29/-29/-29 -30/-30/-30
f -27/-27/-27 -29/-29/-29 -28/-28/-28
f -26/-26/-26 -29/-29/-29 -27/-27/-27
f -25/-25/-25 -26/-26/-26 -27/-27/-27
f -26/-26/-26 -25/-25/-25 -24/-24/-24
f -24/-24/-24 -25/-25/-25 -23/-23/-23
f -22/-22/-22 -23/-23/-23 -25/-25/-25
f -21/-21/-21 -22/-22/-22 -25/-25/-25
f -20/-20/-20 -22/-22/-22 -21/-21/-21
f -19/-19/-19 -26/-26/-26 -24/-24/-24
f -18/-18/-18 -27/-27/-27 -28/-28/-28
f -18/-18/-18 -17/-17/-17 -27/-27/-27
f -17/-17/-17 -16/-16/-16 -27/-27/-27
f -17/-17/-17 -15/-15/-15 -16/-16/-16
f -15/-15/-15 -14/-14/-14 -16/-16/-16
f -14/-14/-14 -15/-15/-15 -13/-13/-13
f -15/-15/-15 -12/-12/-12 -13/-13/-13
f -11/-11/-11 -13/-13/-13 -12/-12/-12
f -10/-10/-10 -11/-11/-11 -12/-12/-12
f -11/-11/-11 -10/-10/-10 -9/-9/-9
f -8/-8/-8 -11/-11/-11 -9/-9/-9
f -20/-20/-20 -7/-7/-7 -22/-22/-22
f -6/-6/-6 -22/-22/-22 -7/-7/-7
f -5/-5/-5 -22/-22/-22 -6/-6/-6
f -4/-4/-4 -5/-5/-5 -6/-6/-6
f -1/-1/-1 -2/-2/-2 -3/-3/-3

