# Mesh "keep_silence" exported with Unity Assets Bundle Extractor; 20 vertices, 30 indices, 48 bytes per vertex
g keep_silence
# SubMesh 0
# Vertices
v -0.301039 -0.106380 0.001947
vt 0.763121 0.246298
vn -0.000000 0.000000 1.000000
v -0.301039 0.106380 0.001947
vt 0.763054 0.383090
vn -0.000000 0.000000 1.000000
v 0.301039 0.106380 0.001947
vt 0.991370 0.383063
vn -0.000000 0.000000 1.000000
v 0.301039 -0.106380 0.001947
vt 0.991559 0.246404
vn -0.000000 0.000000 1.000000
v -0.301039 0.106380 0.001947
vt 0.988442 0.382614
vn -0.000000 1.000000 0.000000
v -0.301039 0.106380 -0.001947
vt 0.988442 0.382295
vn -0.000000 1.000000 0.000000
v 0.301039 0.106380 -0.001947
vt 0.905913 0.382295
vn -0.000000 1.000000 0.000000
v 0.301039 0.106380 0.001947
vt 0.905913 0.382614
vn -0.000000 1.000000 0.000000
v -0.301039 -0.106380 -0.001947
vt 0.988442 0.381644
vn -0.000000 -1.000000 0.000000
v -0.301039 -0.106380 0.001947
vt 0.988442 0.381325
vn -0.000000 -1.000000 0.000000
v 0.301039 -0.106380 0.001947
vt 0.905913 0.381325
vn -0.000000 -1.000000 0.000000
v 0.301039 -0.106380 -0.001947
vt 0.905913 0.381644
vn -0.000000 -1.000000 0.000000
v 0.301039 -0.106380 0.001947
vt 0.873742 0.382590
vn 1.000000 0.000000 0.000000
v 0.301039 0.106380 0.001947
vt 0.904464 0.382590
vn 1.000000 0.000000 0.000000
v 0.301039 0.106380 -0.001947
vt 0.904464 0.382271
vn 1.000000 0.000000 0.000000
v 0.301039 -0.106380 -0.001947
vt 0.873742 0.382271
vn 1.000000 0.000000 0.000000
v -0.301039 -0.106380 -0.001947
vt 0.873742 0.381620
vn -1.000000 0.000000 0.000000
v -0.301039 0.106380 -0.001947
vt 0.904464 0.381620
vn -1.000000 0.000000 0.000000
v -0.301039 0.106380 0.001947
vt 0.904464 0.381301
vn -1.000000 0.000000 0.000000
v -0.301039 -0.106380 0.001947
vt 0.873742 0.381301
vn -1.000000 0.000000 0.000000
# Faces (1 to 20)
f -18/-18/-18 -19/-19/-19 -20/-20/-20
f -17/-17/-17 -18/-18/-18 -20/-20/-20
f -14/-14/-14 -15/-15/-15 -16/-16/-16
f -13/-13/-13 -14/-14/-14 -16/-16/-16
f -10/-10/-10 -11/-11/-11 -12/-12/-12
f -9/-9/-9 -10/-10/-10 -12/-12/-12
f -6/-6/-6 -7/-7/-7 -8/-8/-8
f -5/-5/-5 -6/-6/-6 -8/-8/-8
f -2/-2/-2 -3/-3/-3 -4/-4/-4
f -1/-1/-1 -2/-2/-2 -4/-4/-4

