# Mesh "Keyboard" exported with Unity Assets Bundle Extractor; 32 vertices, 60 indices, 56 bytes per vertex
g Keyboard
# SubMesh 0
# Vertices
v -0.067069 -0.021934 0.290518
vt 0.254752 0.848548
vn -0.136176 -0.990042 0.035665
v -0.075671 0.001878 0.297485
vt 0.263954 0.853054
vn 0.011587 0.009885 0.999884
v 0.128622 -0.009790 0.297485
vt 0.268231 0.770353
vn 0.009978 -0.017983 0.999789
v 0.125609 -0.021934 0.290518
vt 0.263213 0.771031
vn 0.080847 -0.996124 0.034657
v 0.125609 0.000903 0.290518
vt 0.272401 0.772150
vn 0.177084 0.983687 0.031650
v -0.067069 0.021934 0.290518
vt 0.272401 0.850358
vn -0.014695 0.999426 0.030520
v -0.067069 0.021934 0.290518
vt 0.272401 0.850358
vn -0.014695 0.999426 0.030520
v -0.067069 0.021934 -0.290518
vt 0.507546 0.850243
vn -0.014695 0.999426 -0.030520
v 0.125609 0.000903 -0.290518
vt 0.507546 0.772266
vn 0.177084 0.983687 -0.031650
v 0.125609 0.000903 0.290518
vt 0.272401 0.772150
vn 0.177084 0.983687 0.031650
v -0.075671 0.001878 -0.297485
vt 0.517182 0.864514
vn 0.011587 0.009885 -0.999884
v -0.067069 -0.021934 -0.290518
vt 0.507546 0.867996
vn -0.136176 -0.990042 -0.035665
v 0.125609 -0.021934 -0.290518
vt 0.507545 0.945973
vn 0.080847 -0.996124 -0.034657
v 0.128622 -0.009790 -0.297485
vt 0.512460 0.947192
vn 0.009978 -0.017983 -0.999788
v -0.067069 0.021934 -0.290518
vt 0.525298 0.867996
vn -0.014695 0.999426 -0.030520
v 0.125609 0.000903 -0.290518
vt 0.516788 0.945973
vn 0.177084 0.983687 -0.031650
v -0.067069 -0.021934 -0.290518
vt 0.507546 0.867996
vn -0.136176 -0.990042 -0.035665
v -0.067069 -0.021934 0.290518
vt 0.272401 0.867996
vn -0.136176 -0.990042 0.035665
v 0.125609 -0.021934 0.290518
vt 0.272401 0.945973
vn 0.080847 -0.996124 0.034657
v 0.125609 -0.021934 -0.290518
vt 0.507545 0.945973
vn 0.080847 -0.996124 -0.034657
v 0.125609 -0.021934 0.290518
vt 0.272401 0.945973
vn 0.080847 -0.996124 0.034657
v 0.128622 -0.009790 0.297485
vt 0.269581 0.950887
vn 0.999978 -0.006614 0.000000
v 0.128622 -0.009790 -0.297485
vt 0.510365 0.950887
vn 0.999978 -0.006614 0.000000
v 0.125609 -0.021934 -0.290518
vt 0.507545 0.945973
vn 0.080847 -0.996124 -0.034657
v 0.125609 0.000903 -0.290518
vt 0.507545 0.955215
vn 0.177084 0.983687 -0.031650
v 0.125609 0.000903 0.290518
vt 0.272401 0.955215
vn 0.177084 0.983687 0.031650
v -0.067069 -0.021934 -0.290518
vt 0.507546 0.867996
vn -0.136176 -0.990042 -0.035665
v -0.075671 0.001878 -0.297485
vt 0.510365 0.858359
vn -0.999981 -0.006184 0.000000
v -0.075671 0.001878 0.297485
vt 0.269581 0.858359
vn -0.999981 -0.006184 0.000000
v -0.067069 -0.021934 0.290518
vt 0.272401 0.867996
vn -0.136176 -0.990042 0.035665
v -0.067069 0.021934 0.290518
vt 0.272401 0.850358
vn -0.014695 0.999426 0.030520
v -0.067069 0.021934 -0.290518
vt 0.507546 0.850243
vn -0.014695 0.999426 -0.030520
# Faces (1 to 32)
f -30/-30/-30 -31/-31/-31 -32/-32/-32
f -29/-29/-29 -30/-30/-30 -32/-32/-32
f -30/-30/-30 -28/-28/-28 -31/-31/-31
f -28/-28/-28 -27/-27/-27 -31/-31/-31
f -24/-24/-24 -25/-25/-25 -26/-26/-26
f -23/-23/-23 -24/-24/-24 -26/-26/-26
f -20/-20/-20 -21/-21/-21 -22/-22/-22
f -19/-19/-19 -20/-20/-20 -22/-22/-22
f -19/-19/-19 -22/-22/-22 -18/-18/-18
f -17/-17/-17 -19/-19/-19 -18/-18/-18
f -14/-14/-14 -15/-15/-15 -16/-16/-16
f -13/-13/-13 -14/-14/-14 -16/-16/-16
f -10/-10/-10 -11/-11/-11 -12/-12/-12
f -9/-9/-9 -10/-10/-10 -12/-12/-12
f -10/-10/-10 -8/-8/-8 -11/-11/-11
f -8/-8/-8 -7/-7/-7 -11/-11/-11
f -4/-4/-4 -5/-5/-5 -6/-6/-6
f -3/-3/-3 -4/-4/-4 -6/-6/-6
f -4/-4/-4 -2/-2/-2 -5/-5/-5
f -2/-2/-2 -1/-1/-1 -5/-5/-5

