# Mesh "Label" exported with Unity Assets Bundle Extractor; 24 vertices, 36 indices, 56 bytes per vertex
g Label
# SubMesh 0
# Vertices
v -0.279545 -0.279545 -0.007065
vt 0.010220 0.747487
vn -0.000000 0.000000 -1.000000
v 0.279545 -0.279545 -0.007065
vt 0.491295 0.747487
vn -0.000000 0.000000 -1.000000
v 0.279545 0.279545 -0.007065
vt 0.491295 0.266411
vn -0.000000 0.000000 -1.000000
v -0.279545 0.279545 -0.007065
vt 0.010220 0.266411
vn -0.000000 0.000000 -1.000000
v -0.279545 0.279545 -0.007065
vt 0.522281 0.919680
vn -0.000000 1.000000 0.000000
v 0.279545 0.279545 -0.007065
vt 0.026113 0.919681
vn -0.000000 1.000000 0.000000
v 0.279545 0.279545 0.007065
vt 0.026113 0.932221
vn -0.000000 1.000000 0.000000
v -0.279545 0.279545 0.007065
vt 0.522281 0.932221
vn -0.000000 1.000000 0.000000
v -0.279545 0.279545 0.007065
vt 0.510113 0.749933
vn -0.000000 0.000000 1.000000
v 0.279545 0.279545 0.007065
vt 0.991188 0.749933
vn -0.000000 0.000000 1.000000
v 0.279545 -0.279545 0.007065
vt 0.991188 0.268857
vn -0.000000 0.000000 1.000000
v -0.279545 -0.279545 0.007065
vt 0.510113 0.268857
vn -0.000000 0.000000 1.000000
v -0.279545 -0.279545 0.007065
vt 0.520134 0.939645
vn -0.000000 -1.000000 0.000000
v 0.279545 -0.279545 0.007065
vt 0.023966 0.939645
vn -0.000000 -1.000000 0.000000
v 0.279545 -0.279545 -0.007065
vt 0.023966 0.952186
vn -0.000000 -1.000000 0.000000
v -0.279545 -0.279545 -0.007065
vt 0.520134 0.952186
vn -0.000000 -1.000000 0.000000
v 0.279545 -0.279545 -0.007065
vt 0.023966 0.957842
vn 1.000000 0.000000 0.000000
v 0.279545 -0.279545 0.007065
vt 0.023966 0.970383
vn 1.000000 0.000000 0.000000
v 0.279545 0.279545 0.007065
vt 0.520134 0.970383
vn 1.000000 0.000000 0.000000
v 0.279545 0.279545 -0.007065
vt 0.520134 0.957842
vn 1.000000 0.000000 0.000000
v -0.279545 -0.279545 0.007065
vt 0.023966 0.976040
vn -1.000000 0.000000 0.000000
v -0.279545 -0.279545 -0.007065
vt 0.023966 0.988581
vn -1.000000 0.000000 0.000000
v -0.279545 0.279545 -0.007065
vt 0.520134 0.988581
vn -1.000000 0.000000 0.000000
v -0.279545 0.279545 0.007065
vt 0.520134 0.976040
vn -1.000000 0.000000 0.000000
# Faces (1 to 24)
f -22/-22/-22 -23/-23/-23 -24/-24/-24
f -21/-21/-21 -22/-22/-22 -24/-24/-24
f -18/-18/-18 -19/-19/-19 -20/-20/-20
f -17/-17/-17 -18/-18/-18 -20/-20/-20
f -14/-14/-14 -15/-15/-15 -16/-16/-16
f -13/-13/-13 -14/-14/-14 -16/-16/-16
f -10/-10/-10 -11/-11/-11 -12/-12/-12
f -9/-9/-9 -10/-10/-10 -12/-12/-12
f -6/-6/-6 -7/-7/-7 -8/-8/-8
f -5/-5/-5 -6/-6/-6 -8/-8/-8
f -2/-2/-2 -3/-3/-3 -4/-4/-4
f -1/-1/-1 -2/-2/-2 -4/-4/-4

