# Mesh "leaflet_box_leaflet_box" exported with Unity Assets Bundle Extractor; 202 vertices, 396 indices, 56 bytes per vertex
g leaflet_box_leaflet_box
# SubMesh 0
# Vertices
v -0.092855 -0.214252 -0.061310
vt 0.388780 0.000000
vn -0.000000 0.000000 1.000000
v -0.092855 0.195222 -0.061310
vt 0.375000 0.237376
vn -0.000000 0.000000 1.000000
v -0.000007 0.195222 -0.061310
vt 0.500278 0.237376
vn -0.000000 0.000000 1.000000
v 0.092438 -0.214252 -0.061310
vt 0.611497 0.000000
vn -0.000000 0.000000 1.000000
v 0.092430 0.195222 -0.061310
vt 0.625000 0.237376
vn -0.000000 0.000000 1.000000
v 0.086936 0.209527 -0.061310
vt 0.625000 0.250000
vn -0.000000 0.000000 1.000000
v -0.087361 0.209527 -0.061310
vt 0.375000 0.250000
vn -0.000000 0.000000 1.000000
v -0.072428 0.216998 -0.061310
vt 0.402561 0.250000
vn -0.000000 0.000000 1.000000
v 0.072415 0.216998 -0.061310
vt 0.597994 0.250000
vn -0.000000 0.000000 1.000000
v -0.087361 0.209527 -0.061310
vt 0.375000 0.250000
vn -0.447471 0.894298 0.000000
v -0.087361 0.209527 -0.065187
vt 0.375000 0.500000
vn -0.447471 0.894298 0.000000
v -0.072428 0.216998 -0.065187
vt 0.402561 0.500000
vn -0.046713 0.998908 0.000000
v -0.072428 0.216998 -0.061310
vt 0.402561 0.250000
vn -0.046713 0.998908 0.000000
v 0.072415 0.216998 -0.061310
vt 0.597994 0.250000
vn 0.046833 0.998903 0.000000
v 0.072415 0.216998 -0.065187
vt 0.597994 0.500000
vn 0.046833 0.998903 0.000000
v 0.086936 0.209527 -0.061310
vt 0.625000 0.250000
vn 0.933518 0.358532 0.000000
v 0.086936 0.209527 -0.065187
vt 0.625000 0.500000
vn 0.933518 0.358532 0.000000
v -0.092855 0.195222 -0.065187
vt 0.375000 0.512624
vn -0.000000 0.000000 -1.000000
v -0.092855 -0.214252 -0.065187
vt 0.388780 0.750000
vn -0.000000 0.000000 -1.000000
v -0.000007 0.195222 -0.065187
vt 0.500278 0.512624
vn -0.000000 0.000000 -1.000000
v -0.087361 0.209527 -0.065187
vt 0.375000 0.500000
vn -0.000000 0.000000 -1.000000
v 0.092430 -0.214252 -0.065187
vt 0.611497 0.750000
vn -0.000000 0.000000 -1.000000
v 0.092430 0.195222 -0.065187
vt 0.625000 0.512624
vn -0.000000 0.000000 -1.000000
v -0.072428 0.216998 -0.065187
vt 0.402561 0.500000
vn -0.000000 0.000000 -1.000000
v 0.072415 0.216998 -0.065187
vt 0.597994 0.500000
vn -0.000000 0.000000 -1.000000
v 0.086936 0.209527 -0.065187
vt 0.625000 0.500000
vn -0.000000 0.000000 -1.000000
v 0.092438 -0.214252 -0.061310
vt 0.611497 0.000000
vn -0.000000 -1.000000 0.000000
v 0.092430 0.195222 -0.061310
vt 0.625000 0.237376
vn 0.999916 0.012963 0.000000
v 0.092430 0.195222 -0.065187
vt 0.875000 0.237376
vn 0.999916 0.012963 0.000000
v 0.092430 -0.214252 -0.065187
vt 0.875000 0.000000
vn -0.000000 -1.000000 0.000000
v 0.086936 0.209527 -0.065187
vt 0.875000 0.250000
vn 0.933518 0.358532 0.000000
v 0.086936 0.209527 -0.061310
vt 0.625000 0.250000
vn 0.933518 0.358532 0.000000
v -0.092855 -0.214252 -0.065187
vt 0.125000 0.000000
vn -0.000000 -1.000000 0.000000
v -0.092855 0.195222 -0.065187
vt 0.125000 0.237376
vn -0.999916 0.012963 0.000000
v -0.092855 0.195222 -0.061310
vt 0.375000 0.237376
vn -0.999916 0.012963 0.000000
v -0.092855 -0.214252 -0.061310
vt 0.388780 0.000000
vn -0.000000 -1.000000 0.000000
v -0.087361 0.209527 -0.061310
vt 0.375000 0.250000
vn -0.447471 0.894298 0.000000
v -0.087361 0.209527 -0.065187
vt 0.125000 0.250000
vn -0.447471 0.894298 0.000000
v -0.092855 -0.214252 -0.061310
vt 0.388780 1.000000
vn -0.000000 -1.000000 0.000000
v 0.092438 -0.214252 -0.061310
vt 0.611497 1.000000
vn -0.000000 -1.000000 0.000000
v 0.092430 -0.214252 -0.065187
vt 0.611497 0.750000
vn -0.000000 -1.000000 0.000000
v -0.092855 -0.214252 -0.065187
vt 0.388780 0.750000
vn -0.000000 -1.000000 0.000000
v -0.092609 -0.216998 -0.091750
vt 0.375000 0.000000
vn -0.000000 -1.000000 0.000000
v -0.092609 -0.216998 0.091576
vt 0.375000 0.250000
vn -0.000000 -1.000000 0.000000
v 0.092855 -0.216998 0.091576
vt 0.625000 0.250000
vn -0.000000 -1.000000 0.000000
v 0.092855 -0.216998 -0.091750
vt 0.625000 0.000000
vn -0.000000 -1.000000 0.000000
v -0.092609 -0.216998 0.091576
vt 0.375000 0.250000
vn -0.000000 0.000000 1.000000
v -0.092609 -0.213121 0.091576
vt 0.375000 0.500000
vn -0.000000 0.000000 1.000000
v 0.092855 -0.213121 0.091576
vt 0.625000 0.500000
vn -0.000000 0.000000 1.000000
v 0.092855 -0.216998 0.091576
vt 0.625000 0.250000
vn -0.000000 0.000000 1.000000
v -0.092609 -0.213121 0.091576
vt 0.375000 0.500000
vn -0.000000 1.000000 0.000000
v -0.092609 -0.213121 -0.091750
vt 0.375000 0.750000
vn -0.000000 1.000000 0.000000
v 0.092855 -0.213121 -0.091750
vt 0.625000 0.750000
vn -0.000000 1.000000 0.000000
v 0.092855 -0.213121 0.091576
vt 0.625000 0.500000
vn -0.000000 1.000000 0.000000
v -0.092609 -0.213121 -0.091750
vt 0.375000 0.750000
vn -0.000000 0.000000 -1.000000
v -0.092609 -0.216998 -0.091750
vt 0.375000 1.000000
vn -0.000000 0.000000 -1.000000
v 0.092855 -0.216998 -0.091750
vt 0.625000 1.000000
vn -0.000000 0.000000 -1.000000
v 0.092855 -0.213121 -0.091750
vt 0.625000 0.750000
vn -0.000000 0.000000 -1.000000
v 0.092855 -0.216998 -0.091750
vt 0.625000 0.000000
vn 1.000000 0.000000 0.000000
v 0.092855 -0.216998 0.091576
vt 0.625000 0.250000
vn 1.000000 0.000000 0.000000
v 0.092855 -0.213121 0.091576
vt 0.875000 0.250000
vn 1.000000 0.000000 0.000000
v 0.092855 -0.213121 -0.091750
vt 0.875000 0.000000
vn 1.000000 0.000000 0.000000
v -0.092609 -0.213121 -0.091750
vt 0.125000 0.000000
vn -1.000000 0.000000 0.000000
v -0.092609 -0.213121 0.091576
vt 0.125000 0.250000
vn -1.000000 0.000000 0.000000
v -0.092609 -0.216998 0.091576
vt 0.375000 0.250000
vn -1.000000 0.000000 0.000000
v -0.092609 -0.216998 -0.091750
vt 0.375000 0.000000
vn -1.000000 0.000000 0.000000
v -0.088713 -0.214252 0.091750
vt 0.375000 0.000000
vn -0.000000 0.000000 1.000000
v -0.088713 -0.029648 0.091750
vt 0.375000 0.250000
vn -0.000000 0.000000 1.000000
v 0.089095 -0.029648 0.091750
vt 0.625000 0.250000
vn -0.000000 0.000000 1.000000
v 0.089095 -0.214252 0.091750
vt 0.625000 0.000000
vn -0.000000 0.000000 1.000000
v -0.088713 -0.029648 0.091750
vt 0.375000 0.250000
vn -0.000000 1.000000 0.000000
v -0.088713 -0.029648 0.087872
vt 0.375000 0.500000
vn -0.000000 1.000000 0.000000
v 0.089095 -0.029648 0.087872
vt 0.625000 0.500000
vn -0.000000 1.000000 0.000000
v 0.089095 -0.029648 0.091750
vt 0.625000 0.250000
vn -0.000000 1.000000 0.000000
v -0.088713 -0.029648 0.087872
vt 0.375000 0.500000
vn -0.000000 0.000000 -1.000000
v -0.088713 -0.214252 0.087872
vt 0.375000 0.750000
vn -0.000000 0.000000 -1.000000
v 0.089095 -0.214252 0.087872
vt 0.625000 0.750000
vn -0.000000 0.000000 -1.000000
v 0.089095 -0.029648 0.087872
vt 0.625000 0.500000
vn -0.000000 0.000000 -1.000000
v -0.088713 -0.214252 0.087872
vt 0.375000 0.750000
vn -0.000000 -1.000000 0.000000
v -0.088713 -0.214252 0.091750
vt 0.375000 1.000000
vn -0.000000 -1.000000 0.000000
v 0.089095 -0.214252 0.091750
vt 0.625000 1.000000
vn -0.000000 -1.000000 0.000000
v 0.089095 -0.214252 0.087872
vt 0.625000 0.750000
vn -0.000000 -1.000000 0.000000
v 0.089095 -0.214252 0.091750
vt 0.625000 0.000000
vn 1.000000 0.000000 0.000000
v 0.089095 -0.029648 0.091750
vt 0.625000 0.250000
vn 1.000000 0.000000 0.000000
v 0.089095 -0.029648 0.087872
vt 0.875000 0.250000
vn 1.000000 0.000000 0.000000
v 0.089095 -0.214252 0.087872
vt 0.875000 0.000000
vn 1.000000 0.000000 0.000000
v -0.088713 -0.214252 0.087872
vt 0.125000 0.000000
vn -1.000000 0.000000 0.000000
v -0.088713 -0.029648 0.087872
vt 0.125000 0.250000
vn -1.000000 0.000000 0.000000
v -0.088713 -0.029648 0.091750
vt 0.375000 0.250000
vn -1.000000 0.000000 0.000000
v -0.088713 -0.214252 0.091750
vt 0.375000 0.000000
vn -1.000000 0.000000 0.000000
v -0.088713 -0.214252 0.014162
vt 0.375000 0.000000
vn -0.000000 0.000000 1.000000
v -0.088713 0.065839 0.014162
vt 0.375000 0.250000
vn -0.000000 0.000000 1.000000
v 0.088584 0.065839 0.014162
vt 0.625000 0.250000
vn -0.000000 0.000000 1.000000
v 0.088584 -0.214252 0.014162
vt 0.625000 0.000000
vn -0.000000 0.000000 1.000000
v -0.088713 0.065839 0.014162
vt 0.375000 0.250000
vn -0.000000 1.000000 0.000000
v -0.088713 0.065839 0.010285
vt 0.375000 0.500000
vn -0.000000 1.000000 0.000000
v 0.088584 0.065839 0.010285
vt 0.625000 0.500000
vn -0.000000 1.000000 0.000000
v 0.088584 0.065839 0.014162
vt 0.625000 0.250000
vn -0.000000 1.000000 0.000000
v -0.088713 0.065839 0.010285
vt 0.375000 0.500000
vn -0.000000 0.000000 -1.000000
v -0.088713 -0.214252 0.010285
vt 0.375000 0.750000
vn -0.000000 0.000000 -1.000000
v 0.088584 -0.214252 0.010285
vt 0.625000 0.750000
vn -0.000000 0.000000 -1.000000
v 0.088584 0.065839 0.010285
vt 0.625000 0.500000
vn -0.000000 0.000000 -1.000000
v -0.088713 -0.214252 0.010285
vt 0.375000 0.750000
vn -0.000000 -1.000000 0.000000
v -0.088713 -0.214252 0.014162
vt 0.375000 1.000000
vn -0.000000 -1.000000 0.000000
v 0.088584 -0.214252 0.014162
vt 0.625000 1.000000
vn -0.000000 -1.000000 0.000000
v 0.088584 -0.214252 0.010285
vt 0.625000 0.750000
vn -0.000000 -1.000000 0.000000
v 0.088584 -0.214252 0.014162
vt 0.625000 0.000000
vn 1.000000 0.000000 0.000000
v 0.088584 0.065839 0.014162
vt 0.625000 0.250000
vn 1.000000 0.000000 0.000000
v 0.088584 0.065839 0.010285
vt 0.875000 0.250000
vn 1.000000 0.000000 0.000000
v 0.088584 -0.214252 0.010285
vt 0.875000 0.000000
vn 1.000000 0.000000 0.000000
v -0.088713 -0.214252 0.010285
vt 0.125000 0.000000
vn -1.000000 0.000000 0.000000
v -0.088713 0.065839 0.010285
vt 0.125000 0.250000
vn -1.000000 0.000000 0.000000
v -0.088713 0.065839 0.014162
vt 0.375000 0.250000
vn -1.000000 0.000000 0.000000
v -0.088713 -0.214252 0.014162
vt 0.375000 0.000000
vn -1.000000 0.000000 0.000000
v 0.092426 -0.030785 0.091681
vt 0.375000 0.163757
vn 1.000000 0.000003 0.000123
v 0.092446 -0.214252 -0.061192
vt 0.625000 0.081878
vn 1.000000 0.000000 0.000127
v 0.092426 -0.214252 0.091681
vt 0.375000 0.000000
vn 1.000000 0.000000 0.000127
v 0.092426 -0.009534 0.089586
vt 0.375000 0.202225
vn 1.000000 0.000011 0.000114
v 0.092426 0.028405 0.070666
vt 0.375000 0.250000
vn 1.000000 0.000050 0.000056
v 0.092426 0.064326 0.039046
vt 0.438386 0.250000
vn 1.000000 0.000050 0.000056
v 0.092426 0.087724 0.003619
vt 0.501414 0.250000
vn 1.000000 0.000059 0.000024
v 0.092426 0.102506 -0.033653
vt 0.567734 0.250000
vn 1.000000 0.000060 0.000013
v 0.092426 0.108383 -0.061192
vt 0.625000 0.250000
vn 1.000000 0.000060 0.000013
v 0.092426 0.028405 0.070666
vt 0.375000 0.250000
vn -0.000000 0.660729 0.750625
v 0.088549 0.028405 0.070666
vt 0.375000 0.500000
vn -0.000000 0.660729 0.750625
v 0.088549 0.064326 0.039046
vt 0.438386 0.500000
vn -0.000000 0.748949 0.662628
v 0.092426 0.064326 0.039046
vt 0.438386 0.250000
vn -0.000000 0.748949 0.662628
v 0.088549 0.087724 0.003619
vt 0.501414 0.500000
vn -0.000000 0.885337 0.464950
v 0.092426 0.087724 0.003619
vt 0.501414 0.250000
vn -0.000000 0.885337 0.464950
v 0.088549 0.102506 -0.033653
vt 0.567734 0.500000
vn -0.000000 0.952767 0.303704
v 0.092426 0.102506 -0.033653
vt 0.567734 0.250000
vn -0.000000 0.952767 0.303704
v 0.088549 0.108383 -0.061192
vt 0.625000 0.500000
vn -0.000000 0.977974 0.208727
v 0.092426 0.108383 -0.061192
vt 0.625000 0.250000
vn -0.000000 0.977974 0.208727
v 0.088549 -0.214252 0.091681
vt 0.375000 0.750000
vn -1.000000 0.000000 -0.000127
v 0.088568 -0.214252 -0.061192
vt 0.625000 0.668122
vn -1.000000 -0.000000 -0.000127
v 0.088549 -0.030785 0.091681
vt 0.375000 0.586243
vn -1.000000 -0.000004 -0.000123
v 0.088549 -0.009534 0.089586
vt 0.375000 0.547775
vn -1.000000 -0.000038 -0.000077
v 0.088549 0.028405 0.070666
vt 0.375000 0.500000
vn -1.000000 -0.000038 -0.000077
v 0.088549 0.064326 0.039046
vt 0.438386 0.500000
vn -1.000000 -0.000056 -0.000037
v 0.088549 0.087724 0.003619
vt 0.501414 0.500000
vn -1.000000 -0.000059 -0.000024
v 0.088549 0.102506 -0.033653
vt 0.567734 0.500000
vn -1.000000 -0.000060 -0.000013
v 0.088549 0.108383 -0.061192
vt 0.625000 0.500000
vn -1.000000 -0.000060 -0.000013
v 0.092426 -0.214252 0.091681
vt 0.375000 1.000000
vn 0.000000 -1.000000 0.000000
v 0.092446 -0.214252 -0.061192
vt 0.625000 1.000000
vn 0.000000 -1.000000 0.000000
v 0.088568 -0.214252 -0.061192
vt 0.625000 0.668122
vn 0.000000 -1.000000 0.000000
v 0.088549 -0.214252 0.091681
vt 0.375000 0.750000
vn 0.000000 -1.000000 0.000000
v 0.088549 -0.214252 0.091681
vt 0.125000 0.000000
vn 0.000000 -1.000000 0.000000
v 0.088549 -0.030785 0.091681
vt 0.125000 0.163757
vn -0.000000 0.010228 0.999948
v 0.092426 -0.030785 0.091681
vt 0.375000 0.163757
vn -0.000000 0.010228 0.999948
v 0.092426 -0.214252 0.091681
vt 0.375000 0.000000
vn 0.000000 -1.000000 0.000000
v 0.092426 -0.009534 0.089586
vt 0.375000 0.202225
vn -0.000000 0.334572 0.942370
v 0.088549 -0.009534 0.089586
vt 0.125000 0.202225
vn -0.000000 0.334572 0.942370
v 0.092426 0.028405 0.070666
vt 0.375000 0.250000
vn -0.000000 0.660729 0.750625
v 0.088549 0.028405 0.070666
vt 0.125000 0.250000
vn -0.000000 0.660729 0.750625
v 0.092426 0.108383 -0.061192
vt 0.625000 0.250000
vn -0.000000 0.000000 -1.000000
v 0.088549 0.108383 -0.061192
vt 0.875000 0.250000
vn -0.000000 0.000000 -1.000000
v 0.088568 -0.214252 -0.061192
vt 0.875000 0.081878
vn -0.000000 0.000000 -1.000000
v 0.092446 -0.214252 -0.061192
vt 0.625000 0.081878
vn -0.000000 0.000000 -1.000000
v -0.088486 -0.030785 0.091681
vt 0.375000 0.163757
vn 1.000000 0.000004 0.000123
v -0.088467 -0.214252 -0.061192
vt 0.625000 0.081878
vn 1.000000 0.000000 0.000127
v -0.088486 -0.214252 0.091681
vt 0.375000 0.000000
vn 1.000000 0.000000 0.000127
v -0.088486 -0.009534 0.089586
vt 0.375000 0.202225
vn 1.000000 0.000012 0.000114
v -0.088486 0.028405 0.070666
vt 0.375000 0.250000
vn 1.000000 0.000050 0.000056
v -0.088486 0.064326 0.039046
vt 0.438386 0.250000
vn 1.000000 0.000050 0.000056
v -0.088486 0.087724 0.003619
vt 0.501414 0.250000
vn 1.000000 0.000059 0.000024
v -0.088486 0.102506 -0.033653
vt 0.567734 0.250000
vn 1.000000 0.000060 0.000013
v -0.088486 0.108383 -0.061192
vt 0.625000 0.250000
vn 1.000000 0.000060 0.000013
v -0.088486 0.028405 0.070666
vt 0.375000 0.250000
vn -0.000000 0.660729 0.750625
v -0.092364 0.028405 0.070666
vt 0.375000 0.500000
vn -0.000000 0.660729 0.750625
v -0.092364 0.064326 0.039046
vt 0.438386 0.500000
vn -0.000000 0.748949 0.662628
v -0.088486 0.064326 0.039046
vt 0.438386 0.250000
vn -0.000000 0.748949 0.662628
v -0.092364 0.087724 0.003619
vt 0.501414 0.500000
vn -0.000000 0.885337 0.464950
v -0.088486 0.087724 0.003619
vt 0.501414 0.250000
vn -0.000000 0.885337 0.464950
v -0.092364 0.102506 -0.033653
vt 0.567734 0.500000
vn -0.000000 0.952767 0.303704
v -0.088486 0.102506 -0.033653
vt 0.567734 0.250000
vn -0.000000 0.952767 0.303704
v -0.092364 0.108383 -0.061192
vt 0.625000 0.500000
vn -0.000000 0.977974 0.208727
v -0.088486 0.108383 -0.061192
vt 0.625000 0.250000
vn -0.000000 0.977974 0.208727
v -0.092364 -0.214252 0.091681
vt 0.375000 0.750000
vn -1.000000 0.000000 -0.000127
v -0.092344 -0.214252 -0.061192
vt 0.625000 0.668122
vn -1.000000 0.000000 -0.000127
v -0.092364 -0.030785 0.091681
vt 0.375000 0.586243
vn -1.000000 -0.000003 -0.000123
v -0.092364 -0.009534 0.089586
vt 0.375000 0.547775
vn -1.000000 -0.000038 -0.000077
v -0.092364 0.028405 0.070666
vt 0.375000 0.500000
vn -1.000000 -0.000038 -0.000077
v -0.092364 0.064326 0.039046
vt 0.438386 0.500000
vn -1.000000 -0.000056 -0.000037
v -0.092364 0.087724 0.003619
vt 0.501414 0.500000
vn -1.000000 -0.000059 -0.000024
v -0.092364 0.102506 -0.033653
vt 0.567734 0.500000
vn -1.000000 -0.000060 -0.000013
v -0.092364 0.108383 -0.061192
vt 0.625000 0.500000
vn -1.000000 -0.000060 -0.000013
v -0.088486 -0.214252 0.091681
vt 0.375000 1.000000
vn 0.000000 -1.000000 0.000000
v -0.088467 -0.214252 -0.061192
vt 0.625000 1.000000
vn 0.000000 -1.000000 0.000000
v -0.092344 -0.214252 -0.061192
vt 0.625000 0.668122
vn 0.000000 -1.000000 0.000000
v -0.092364 -0.214252 0.091681
vt 0.375000 0.750000
vn 0.000000 -1.000000 0.000000
v -0.092364 -0.214252 0.091681
vt 0.125000 0.000000
vn 0.000000 -1.000000 0.000000
v -0.092364 -0.030785 0.091681
vt 0.125000 0.163757
vn -0.000000 0.010228 0.999948
v -0.088486 -0.030785 0.091681
vt 0.375000 0.163757
vn -0.000000 0.010228 0.999948
v -0.088486 -0.214252 0.091681
vt 0.375000 0.000000
vn 0.000000 -1.000000 0.000000
v -0.088486 -0.009534 0.089586
vt 0.375000 0.202225
vn -0.000000 0.334572 0.942370
v -0.092364 -0.009534 0.089586
vt 0.125000 0.202225
vn -0.000000 0.334572 0.942370
v -0.088486 0.028405 0.070666
vt 0.375000 0.250000
vn -0.000000 0.660729 0.750625
v -0.092364 0.028405 0.070666
vt 0.125000 0.250000
vn -0.000000 0.660729 0.750625
v -0.088486 0.108383 -0.061192
vt 0.625000 0.250000
vn -0.000000 0.000000 -1.000000
v -0.092364 0.108383 -0.061192
vt 0.875000 0.250000
vn -0.000000 0.000000 -1.000000
v -0.092344 -0.214252 -0.061192
vt 0.875000 0.081878
vn -0.000000 0.000000 -1.000000
v -0.088467 -0.214252 -0.061192
vt 0.625000 0.081878
vn -0.000000 0.000000 -1.000000
# Faces (1 to 202)
f -200/-200/-200 -201/-201/-201 -202/-202/-202
f -202/-202/-202 -199/-199/-199 -200/-200/-200
f -199/-199/-199 -198/-198/-198 -200/-200/-200
f -200/-200/-200 -198/-198/-198 -197/-197/-197
f -200/-200/-200 -196/-196/-196 -201/-201/-201
f -200/-200/-200 -195/-195/-195 -196/-196/-196
f -200/-200/-200 -194/-194/-194 -195/-195/-195
f -200/-200/-200 -197/-197/-197 -194/-194/-194
f -191/-191/-191 -192/-192/-192 -193/-193/-193
f -190/-190/-190 -191/-191/-191 -193/-193/-193
f -190/-190/-190 -189/-189/-189 -191/-191/-191
f -189/-189/-189 -188/-188/-188 -191/-191/-191
f -189/-189/-189 -187/-187/-187 -188/-188/-188
f -187/-187/-187 -186/-186/-186 -188/-188/-188
f -183/-183/-183 -184/-184/-184 -185/-185/-185
f -183/-183/-183 -185/-185/-185 -182/-182/-182
f -183/-183/-183 -181/-181/-181 -184/-184/-184
f -183/-183/-183 -180/-180/-180 -181/-181/-181
f -179/-179/-179 -183/-183/-183 -182/-182/-182
f -178/-178/-178 -183/-183/-183 -179/-179/-179
f -178/-178/-178 -177/-177/-177 -183/-183/-183
f -177/-177/-177 -180/-180/-180 -183/-183/-183
f -174/-174/-174 -175/-175/-175 -176/-176/-176
f -173/-173/-173 -174/-174/-174 -176/-176/-176
f -174/-174/-174 -172/-172/-172 -175/-175/-175
f -172/-172/-172 -171/-171/-171 -175/-175/-175
f -168/-168/-168 -169/-169/-169 -170/-170/-170
f -167/-167/-167 -168/-168/-168 -170/-170/-170
f -168/-168/-168 -166/-166/-166 -169/-169/-169
f -166/-166/-166 -165/-165/-165 -169/-169/-169
f -162/-162/-162 -163/-163/-163 -164/-164/-164
f -161/-161/-161 -162/-162/-162 -164/-164/-164
f -158/-158/-158 -159/-159/-159 -160/-160/-160
f -157/-157/-157 -158/-158/-158 -160/-160/-160
f -154/-154/-154 -155/-155/-155 -156/-156/-156
f -153/-153/-153 -154/-154/-154 -156/-156/-156
f -150/-150/-150 -151/-151/-151 -152/-152/-152
f -149/-149/-149 -150/-150/-150 -152/-152/-152
f -146/-146/-146 -147/-147/-147 -148/-148/-148
f -145/-145/-145 -146/-146/-146 -148/-148/-148
f -142/-142/-142 -143/-143/-143 -144/-144/-144
f -141/-141/-141 -142/-142/-142 -144/-144/-144
f -138/-138/-138 -139/-139/-139 -140/-140/-140
f -137/-137/-137 -138/-138/-138 -140/-140/-140
f -134/-134/-134 -135/-135/-135 -136/-136/-136
f -133/-133/-133 -134/-134/-134 -136/-136/-136
f -130/-130/-130 -131/-131/-131 -132/-132/-132
f -129/-129/-129 -130/-130/-130 -132/-132/-132
f -126/-126/-126 -127/-127/-127 -128/-128/-128
f -125/-125/-125 -126/-126/-126 -128/-128/-128
f -122/-122/-122 -123/-123/-123 -124/-124/-124
f -121/-121/-121 -122/-122/-122 -124/-124/-124
f -118/-118/-118 -119/-119/-119 -120/-120/-120
f -117/-117/-117 -118/-118/-118 -120/-120/-120
f -114/-114/-114 -115/-115/-115 -116/-116/-116
f -113/-113/-113 -114/-114/-114 -116/-116/-116
f -110/-110/-110 -111/-111/-111 -112/-112/-112
f -109/-109/-109 -110/-110/-110 -112/-112/-112
f -106/-106/-106 -107/-107/-107 -108/-108/-108
f -105/-105/-105 -106/-106/-106 -108/-108/-108
f -102/-102/-102 -103/-103/-103 -104/-104/-104
f -101/-101/-101 -102/-102/-102 -104/-104/-104
f -98/-98/-98 -99/-99/-99 -100/-100/-100
f -97/-97/-97 -98/-98/-98 -100/-100/-100
f -94/-94/-94 -95/-95/-95 -96/-96/-96
f -93/-93/-93 -94/-94/-94 -96/-96/-96
f -90/-90/-90 -91/-91/-91 -92/-92/-92
f -89/-89/-89 -90/-90/-90 -92/-92/-92
f -86/-86/-86 -87/-87/-87 -88/-88/-88
f -85/-85/-85 -88/-88/-88 -87/-87/-87
f -84/-84/-84 -85/-85/-85 -87/-87/-87
f -83/-83/-83 -84/-84/-84 -87/-87/-87
f -83/-83/-83 -87/-87/-87 -82/-82/-82
f -87/-87/-87 -81/-81/-81 -82/-82/-82
f -87/-87/-87 -80/-80/-80 -81/-81/-81
f -77/-77/-77 -78/-78/-78 -79/-79/-79
f -76/-76/-76 -77/-77/-77 -79/-79/-79
f -75/-75/-75 -77/-77/-77 -76/-76/-76
f -74/-74/-74 -75/-75/-75 -76/-76/-76
f -73/-73/-73 -75/-75/-75 -74/-74/-74
f -72/-72/-72 -73/-73/-73 -74/-74/-74
f -71/-71/-71 -73/-73/-73 -72/-72/-72
f -70/-70/-70 -71/-71/-71 -72/-72/-72
f -67/-67/-67 -68/-68/-68 -69/-69/-69
f -67/-67/-67 -66/-66/-66 -68/-68/-68
f -66/-66/-66 -65/-65/-65 -68/-68/-68
f -65/-65/-65 -64/-64/-64 -68/-68/-68
f -64/-64/-64 -63/-63/-63 -68/-68/-68
f -63/-63/-63 -62/-62/-62 -68/-68/-68
f -62/-62/-62 -61/-61/-61 -68/-68/-68
f -58/-58/-58 -59/-59/-59 -60/-60/-60
f -57/-57/-57 -58/-58/-58 -60/-60/-60
f -54/-54/-54 -55/-55/-55 -56/-56/-56
f -53/-53/-53 -54/-54/-54 -56/-56/-56
f -54/-54/-54 -52/-52/-52 -55/-55/-55
f -52/-52/-52 -51/-51/-51 -55/-55/-55
f -52/-52/-52 -50/-50/-50 -51/-51/-51
f -50/-50/-50 -49/-49/-49 -51/-51/-51
f -46/-46/-46 -47/-47/-47 -48/-48/-48
f -45/-45/-45 -46/-46/-46 -48/-48/-48
f -42/-42/-42 -43/-43/-43 -44/-44/-44
f -41/-41/-41 -44/-44/-44 -43/-43/-43
f -40/-40/-40 -41/-41/-41 -43/-43/-43
f -39/-39/-39 -40/-40/-40 -43/-43/-43
f -39/-39/-39 -43/-43/-43 -38/-38/-38
f -43/-43/-43 -37/-37/-37 -38/-38/-38
f -43/-43/-43 -36/-36/-36 -37/-37/-37
f -33/-33/-33 -34/-34/-34 -35/-35/-35
f -32/-32/-32 -33/-33/-33 -35/-35/-35
f -31/-31/-31 -33/-33/-33 -32/-32/-32
f -30/-30/-30 -31/-31/-31 -32/-32/-32
f -29/-29/-29 -31/-31/-31 -30/-30/-30
f -28/-28/-28 -29/-29/-29 -30/-30/-30
f -27/-27/-27 -29/-29/-29 -28/-28/-28
f -26/-26/-26 -27/-27/-27 -28/-28/-28
f -23/-23/-23 -24/-24/-24 -25/-25/-25
f -23/-23/-23 -22/-22/-22 -24/-24/-24
f -22/-22/-22 -21/-21/-21 -24/-24/-24
f -21/-21/-21 -20/-20/-20 -24/-24/-24
f -20/-20/-20 -19/-19/-19 -24/-24/-24
f -19/-19/-19 -18/-18/-18 -24/-24/-24
f -18/-18/-18 -17/-17/-17 -24/-24/-24
f -14/-14/-14 -15/-15/-15 -16/-16/-16
f -13/-13/-13 -14/-14/-14 -16/-16/-16
f -10/-10/-10 -11/-11/-11 -12/-12/-12
f -9/-9/-9 -10/-10/-10 -12/-12/-12
f -10/-10/-10 -8/-8/-8 -11/-11/-11
f -8/-8/-8 -7/-7/-7 -11/-11/-11
f -8/-8/-8 -6/-6/-6 -7/-7/-7
f -6/-6/-6 -5/-5/-5 -7/-7/-7
f -2/-2/-2 -3/-3/-3 -4/-4/-4
f -1/-1/-1 -2/-2/-2 -4/-4/-4

