# Mesh "Mesh1_Model" exported with Unity Assets Bundle Extractor; 144 vertices, 276 indices, 48 bytes per vertex
g Mesh1_Model
# SubMesh 0
# Vertices
v 0.084931 0.000000 -0.492734
vt -3.343750 19.399000
vn -0.000000 -1.000000 0.000000
v -0.045492 0.000000 -0.497926
vt 1.791010 19.603399
vn -0.000000 -1.000000 0.000000
v -0.172814 0.000000 -0.469186
vt 6.803710 18.471901
vn -0.000000 -1.000000 0.000000
v 0.209566 0.000000 -0.453963
vt -8.250640 17.872499
vn -0.000000 -1.000000 0.000000
v -0.288360 0.000000 -0.408471
vt 11.352800 16.081499
vn -0.000000 -1.000000 0.000000
v 0.319920 0.000000 -0.384254
vt -12.595300 15.128100
vn -0.000000 -1.000000 0.000000
v -0.384254 0.000000 -0.319920
vt 15.128100 12.595300
vn -0.000000 -1.000000 0.000000
v 0.408471 0.000000 -0.288360
vt -16.081499 11.352800
vn -0.000000 -1.000000 0.000000
v -0.453963 0.000000 -0.209566
vt 17.872499 8.250640
vn -0.000000 -1.000000 0.000000
v 0.469186 0.000000 -0.172814
vt -18.471901 6.803710
vn -0.000000 -1.000000 0.000000
v -0.492734 0.000000 -0.084931
vt 19.399000 3.343750
vn -0.000000 -1.000000 0.000000
v 0.497926 0.000000 -0.045492
vt -19.603399 1.791010
vn -0.000000 -1.000000 0.000000
v -0.497926 0.000000 0.045492
vt 19.603399 -1.791010
vn -0.000000 -1.000000 0.000000
v 0.492734 0.000000 0.084931
vt -19.399000 -3.343750
vn -0.000000 -1.000000 0.000000
v -0.469186 0.000000 0.172814
vt 18.471901 -6.803710
vn -0.000000 -1.000000 0.000000
v 0.453963 0.000000 0.209566
vt -17.872499 -8.250640
vn -0.000000 -1.000000 0.000000
v -0.408471 0.000000 0.288360
vt 16.081499 -11.352800
vn -0.000000 -1.000000 0.000000
v 0.384254 0.000000 0.319920
vt -15.128100 -12.595300
vn -0.000000 -1.000000 0.000000
v -0.319920 0.000000 0.384254
vt 12.595300 -15.128100
vn -0.000000 -1.000000 0.000000
v 0.288360 0.000000 0.408471
vt -11.352800 -16.081499
vn -0.000000 -1.000000 0.000000
v -0.209566 0.000000 0.453963
vt 8.250640 -17.872499
vn -0.000000 -1.000000 0.000000
v 0.172814 0.000000 0.469186
vt -6.803710 -18.471901
vn -0.000000 -1.000000 0.000000
v -0.084931 0.000000 0.492734
vt 3.343750 -19.399000
vn -0.000000 -1.000000 0.000000
v 0.045492 0.000000 0.497926
vt -1.791010 -19.603399
vn -0.000000 -1.000000 0.000000
v 0.453963 0.000000 0.209566
vt -2.569410 -8.654070
vn 0.812403 0.446486 0.375036
v 0.000922 1.000000 0.000426
vt -0.005221 35.270401
vn 0.812403 0.446486 0.375036
v 0.001001 1.000000 0.000173
vt 0.005221 35.270401
vn 0.881787 0.446486 0.151991
v 0.492734 0.000000 0.084931
vt 2.569410 -8.654070
vn 0.881787 0.446486 0.151991
v 0.492734 0.000000 0.084931
vt -2.569410 -8.654070
vn 0.881787 0.446486 0.151991
v 0.001001 1.000000 0.000173
vt -0.005221 35.270401
vn 0.881787 0.446486 0.151991
v 0.001012 1.000000 -0.000092
vt 0.005221 35.270401
vn 0.891079 0.446486 -0.081411
v 0.497926 0.000000 -0.045492
vt 2.569410 -8.654070
vn 0.891079 0.446486 -0.081411
v 0.001012 1.000000 -0.000092
vt -0.005221 35.270401
vn 0.891079 0.446486 -0.081411
v 0.000953 1.000000 -0.000351
vt 0.005221 35.270401
vn 0.839646 0.446486 -0.309265
v 0.469186 0.000000 -0.172814
vt 2.569410 -8.654070
vn 0.839646 0.446486 -0.309265
v 0.497926 0.000000 -0.045492
vt -2.569410 -8.654070
vn 0.891079 0.446486 -0.081411
v 0.000953 1.000000 -0.000351
vt -0.005221 35.270401
vn 0.839646 0.446486 -0.309265
v 0.000830 1.000000 -0.000586
vt 0.005221 35.270401
vn 0.730992 0.446486 -0.516044
v 0.408471 0.000000 -0.288360
vt 2.569410 -8.654070
vn 0.730992 0.446486 -0.516044
v 0.469186 0.000000 -0.172814
vt -2.569410 -8.654070
vn 0.839646 0.446486 -0.309265
v 0.000830 1.000000 -0.000586
vt -0.005221 35.270401
vn 0.730992 0.446486 -0.516044
v 0.000650 1.000000 -0.000781
vt 0.005221 35.270401
vn 0.572522 0.446486 -0.687654
v 0.319920 0.000000 -0.384254
vt 2.569410 -8.654070
vn 0.572522 0.446486 -0.687654
v 0.408471 0.000000 -0.288360
vt -2.569410 -8.654070
vn 0.730992 0.446486 -0.516044
v 0.000650 1.000000 -0.000781
vt -0.005221 35.270401
vn 0.572522 0.446486 -0.687654
v 0.000426 1.000000 -0.000922
vt 0.005221 35.270401
vn 0.375036 0.446486 -0.812403
v 0.209566 0.000000 -0.453963
vt 2.569410 -8.654070
vn 0.375036 0.446486 -0.812403
v 0.319920 0.000000 -0.384254
vt -2.569410 -8.654070
vn 0.572522 0.446486 -0.687654
v 0.000426 1.000000 -0.000922
vt -0.005221 35.270401
vn 0.375036 0.446486 -0.812403
v 0.000173 1.000000 -0.001001
vt 0.005221 35.270401
vn 0.151991 0.446486 -0.881787
v 0.084931 0.000000 -0.492734
vt 2.569410 -8.654070
vn 0.151991 0.446486 -0.881787
v 0.209566 0.000000 -0.453963
vt -2.569410 -8.654070
vn 0.375036 0.446486 -0.812403
v 0.000173 1.000000 -0.001001
vt -0.005221 35.270401
vn 0.151991 0.446486 -0.881787
v -0.000092 1.000000 -0.001012
vt 0.005221 35.270401
vn -0.081411 0.446486 -0.891079
v -0.045492 0.000000 -0.497926
vt 2.569410 -8.654070
vn -0.081411 0.446486 -0.891079
v 0.084931 0.000000 -0.492734
vt -2.569410 -8.654070
vn 0.151991 0.446486 -0.881787
v -0.000092 1.000000 -0.001012
vt -0.005221 35.270401
vn -0.081411 0.446486 -0.891079
v -0.000351 1.000000 -0.000953
vt 0.005221 35.270401
vn -0.309265 0.446486 -0.839646
v -0.172814 0.000000 -0.469186
vt 2.569410 -8.654070
vn -0.309265 0.446486 -0.839646
v -0.045492 0.000000 -0.497926
vt -2.569410 -8.654070
vn -0.081411 0.446486 -0.891079
v -0.000351 1.000000 -0.000953
vt -0.005221 35.270401
vn -0.309265 0.446486 -0.839646
v -0.000586 1.000000 -0.000830
vt 0.005221 35.270401
vn -0.516044 0.446486 -0.730992
v -0.288360 0.000000 -0.408471
vt 2.569410 -8.654070
vn -0.516044 0.446486 -0.730992
v -0.172814 0.000000 -0.469186
vt -2.569410 -8.654070
vn -0.309265 0.446486 -0.839646
v -0.000586 1.000000 -0.000830
vt -0.005221 35.270401
vn -0.516044 0.446486 -0.730992
v -0.000781 1.000000 -0.000650
vt 0.005221 35.270401
vn -0.687654 0.446486 -0.572522
v -0.384254 0.000000 -0.319920
vt 2.569410 -8.654070
vn -0.687654 0.446486 -0.572522
v -0.288360 0.000000 -0.408471
vt -2.569410 -8.654070
vn -0.516044 0.446486 -0.730992
v -0.000781 1.000000 -0.000650
vt -0.005221 35.270401
vn -0.687654 0.446486 -0.572522
v -0.000922 1.000000 -0.000426
vt 0.005221 35.270401
vn -0.812403 0.446486 -0.375036
v -0.453963 0.000000 -0.209566
vt 2.569410 -8.654070
vn -0.812403 0.446486 -0.375036
v -0.384254 0.000000 -0.319920
vt -2.569410 -8.654070
vn -0.687654 0.446486 -0.572522
v -0.000922 1.000000 -0.000426
vt -0.005221 35.270401
vn -0.812403 0.446486 -0.375036
v -0.001001 1.000000 -0.000173
vt 0.005221 35.270401
vn -0.881787 0.446486 -0.151991
v -0.492734 0.000000 -0.084931
vt 2.569410 -8.654070
vn -0.881787 0.446486 -0.151991
v -0.453963 0.000000 -0.209566
vt -2.569410 -8.654070
vn -0.812403 0.446486 -0.375036
v -0.001001 1.000000 -0.000173
vt -0.005221 35.270401
vn -0.881787 0.446486 -0.151991
v -0.001012 1.000000 0.000092
vt 0.005221 35.270401
vn -0.891079 0.446486 0.081411
v -0.497926 0.000000 0.045492
vt 2.569410 -8.654070
vn -0.891079 0.446486 0.081411
v -0.492734 0.000000 -0.084931
vt -2.569410 -8.654070
vn -0.881787 0.446486 -0.151991
v -0.497926 0.000000 0.045492
vt -2.569410 -8.654070
vn -0.891079 0.446486 0.081411
v -0.001012 1.000000 0.000092
vt -0.005221 35.270401
vn -0.891079 0.446486 0.081411
v -0.000953 1.000000 0.000351
vt 0.005221 35.270401
vn -0.839646 0.446486 0.309265
v -0.469186 0.000000 0.172814
vt 2.569410 -8.654070
vn -0.839646 0.446486 0.309265
v -0.469186 0.000000 0.172814
vt -2.569410 -8.654070
vn -0.839646 0.446486 0.309265
v -0.000953 1.000000 0.000351
vt -0.005221 35.270401
vn -0.839646 0.446486 0.309265
v -0.000830 1.000000 0.000586
vt 0.005221 35.270401
vn -0.730992 0.446486 0.516044
v -0.408471 0.000000 0.288360
vt 2.569410 -8.654070
vn -0.730992 0.446486 0.516044
v -0.408471 0.000000 0.288360
vt -2.569410 -8.654070
vn -0.730992 0.446486 0.516044
v -0.000830 1.000000 0.000586
vt -0.005221 35.270401
vn -0.730992 0.446486 0.516044
v -0.000650 1.000000 0.000781
vt 0.005221 35.270401
vn -0.572522 0.446486 0.687654
v -0.319920 0.000000 0.384254
vt 2.569410 -8.654070
vn -0.572522 0.446486 0.687654
v -0.319920 0.000000 0.384254
vt -2.569410 -8.654070
vn -0.572522 0.446486 0.687654
v -0.000650 1.000000 0.000781
vt -0.005221 35.270401
vn -0.572522 0.446486 0.687654
v -0.000426 1.000000 0.000922
vt 0.005221 35.270401
vn -0.375036 0.446486 0.812403
v -0.209566 0.000000 0.453963
vt 2.569410 -8.654070
vn -0.375036 0.446486 0.812403
v -0.209566 0.000000 0.453963
vt -2.569410 -8.654070
vn -0.375036 0.446486 0.812403
v -0.000426 1.000000 0.000922
vt -0.005221 35.270401
vn -0.375036 0.446486 0.812403
v -0.000173 1.000000 0.001001
vt 0.005221 35.270401
vn -0.151991 0.446486 0.881787
v -0.084931 0.000000 0.492734
vt 2.569410 -8.654070
vn -0.151991 0.446486 0.881787
v -0.084931 0.000000 0.492734
vt -2.569410 -8.654070
vn -0.151991 0.446486 0.881787
v -0.000173 1.000000 0.001001
vt -0.005221 35.270401
vn -0.151991 0.446486 0.881787
v 0.000092 1.000000 0.001012
vt 0.005221 35.270401
vn 0.081411 0.446486 0.891079
v 0.045492 0.000000 0.497926
vt 2.569410 -8.654070
vn 0.081411 0.446486 0.891079
v 0.045492 0.000000 0.497926
vt -2.569410 -8.654070
vn 0.081411 0.446486 0.891079
v 0.000092 1.000000 0.001012
vt -0.005221 35.270401
vn 0.081411 0.446486 0.891079
v 0.000351 1.000000 0.000953
vt 0.005221 35.270401
vn 0.309265 0.446486 0.839646
v 0.172814 0.000000 0.469186
vt 2.569410 -8.654070
vn 0.309265 0.446486 0.839646
v 0.172814 0.000000 0.469186
vt -2.569410 -8.654070
vn 0.309265 0.446486 0.839646
v 0.000351 1.000000 0.000953
vt -0.005221 35.270401
vn 0.309265 0.446486 0.839646
v 0.000586 1.000000 0.000830
vt 0.005221 35.270401
vn 0.516044 0.446486 0.730992
v 0.288360 0.000000 0.408471
vt 2.569410 -8.654070
vn 0.516044 0.446486 0.730992
v 0.288360 0.000000 0.408471
vt -2.569410 -8.654070
vn 0.516044 0.446486 0.730992
v 0.000586 1.000000 0.000830
vt -0.005221 35.270401
vn 0.516044 0.446486 0.730992
v 0.000781 1.000000 0.000650
vt 0.005221 35.270401
vn 0.687654 0.446486 0.572522
v 0.384254 0.000000 0.319920
vt 2.569410 -8.654070
vn 0.687654 0.446486 0.572522
v 0.384254 0.000000 0.319920
vt -2.569410 -8.654070
vn 0.687654 0.446486 0.572522
v 0.000781 1.000000 0.000650
vt -0.005221 35.270401
vn 0.687654 0.446486 0.572522
v 0.000922 1.000000 0.000426
vt 0.005221 35.270401
vn 0.812403 0.446486 0.375036
v 0.453963 0.000000 0.209566
vt 2.569410 -8.654070
vn 0.812403 0.446486 0.375036
v -0.000351 1.000000 -0.000953
vt -0.013824 0.037531
vn -0.000000 1.000000 0.000000
v -0.000092 1.000000 -0.001012
vt -0.003639 0.039830
vn -0.000000 1.000000 0.000000
v 0.000173 1.000000 -0.001001
vt 0.006794 0.039415
vn -0.000000 1.000000 0.000000
v 0.000426 1.000000 -0.000922
vt 0.016764 0.036313
vn -0.000000 1.000000 0.000000
v -0.000586 1.000000 -0.000830
vt -0.023067 0.032674
vn -0.000000 1.000000 0.000000
v 0.000650 1.000000 -0.000781
vt 0.025591 0.030737
vn -0.000000 1.000000 0.000000
v -0.000781 1.000000 -0.000650
vt -0.030737 0.025591
vn -0.000000 1.000000 0.000000
v 0.000830 1.000000 -0.000586
vt 0.032674 0.023067
vn -0.000000 1.000000 0.000000
v -0.000922 1.000000 -0.000426
vt -0.036313 0.016764
vn -0.000000 1.000000 0.000000
v 0.000953 1.000000 -0.000351
vt 0.037531 0.013824
vn -0.000000 1.000000 0.000000
v -0.001001 1.000000 -0.000173
vt -0.039415 0.006794
vn -0.000000 1.000000 0.000000
v 0.001012 1.000000 -0.000092
vt 0.039830 0.003639
vn -0.000000 1.000000 0.000000
v -0.001012 1.000000 0.000092
vt -0.039830 -0.003639
vn -0.000000 1.000000 0.000000
v 0.001001 1.000000 0.000173
vt 0.039415 -0.006794
vn -0.000000 1.000000 0.000000
v -0.000953 1.000000 0.000351
vt -0.037531 -0.013824
vn -0.000000 1.000000 0.000000
v 0.000922 1.000000 0.000426
vt 0.036313 -0.016764
vn -0.000000 1.000000 0.000000
v -0.000830 1.000000 0.000586
vt -0.032674 -0.023067
vn -0.000000 1.000000 0.000000
v 0.000781 1.000000 0.000650
vt 0.030737 -0.025591
vn -0.000000 1.000000 0.000000
v -0.000650 1.000000 0.000781
vt -0.025591 -0.030737
vn -0.000000 1.000000 0.000000
v 0.000586 1.000000 0.000830
vt 0.023067 -0.032674
vn -0.000000 1.000000 0.000000
v -0.000426 1.000000 0.000922
vt -0.016764 -0.036313
vn -0.000000 1.000000 0.000000
v 0.000351 1.000000 0.000953
vt 0.013824 -0.037531
vn -0.000000 1.000000 0.000000
v -0.000173 1.000000 0.001001
vt -0.006794 -0.039415
vn -0.000000 1.000000 0.000000
v 0.000092 1.000000 0.001012
vt 0.003639 -0.039830
vn -0.000000 1.000000 0.000000
# Faces (1 to 144)
f -142/-142/-142 -143/-143/-143 -144/-144/-144
f -144/-144/-144 -141/-141/-141 -142/-142/-142
f -141/-141/-141 -140/-140/-140 -142/-142/-142
f -141/-141/-141 -139/-139/-139 -140/-140/-140
f -139/-139/-139 -138/-138/-138 -140/-140/-140
f -139/-139/-139 -137/-137/-137 -138/-138/-138
f -137/-137/-137 -136/-136/-136 -138/-138/-138
f -137/-137/-137 -135/-135/-135 -136/-136/-136
f -135/-135/-135 -134/-134/-134 -136/-136/-136
f -135/-135/-135 -133/-133/-133 -134/-134/-134
f -133/-133/-133 -132/-132/-132 -134/-134/-134
f -133/-133/-133 -131/-131/-131 -132/-132/-132
f -131/-131/-131 -130/-130/-130 -132/-132/-132
f -131/-131/-131 -129/-129/-129 -130/-130/-130
f -129/-129/-129 -128/-128/-128 -130/-130/-130
f -129/-129/-129 -127/-127/-127 -128/-128/-128
f -127/-127/-127 -126/-126/-126 -128/-128/-128
f -127/-127/-127 -125/-125/-125 -126/-126/-126
f -125/-125/-125 -124/-124/-124 -126/-126/-126
f -125/-125/-125 -123/-123/-123 -124/-124/-124
f -123/-123/-123 -122/-122/-122 -124/-124/-124
f -123/-123/-123 -121/-121/-121 -122/-122/-122
f -118/-118/-118 -119/-119/-119 -120/-120/-120
f -117/-117/-117 -118/-118/-118 -120/-120/-120
f -114/-114/-114 -115/-115/-115 -116/-116/-116
f -113/-113/-113 -114/-114/-114 -116/-116/-116
f -110/-110/-110 -111/-111/-111 -112/-112/-112
f -109/-109/-109 -110/-110/-110 -112/-112/-112
f -106/-106/-106 -107/-107/-107 -108/-108/-108
f -105/-105/-105 -106/-106/-106 -108/-108/-108
f -102/-102/-102 -103/-103/-103 -104/-104/-104
f -101/-101/-101 -102/-102/-102 -104/-104/-104
f -98/-98/-98 -99/-99/-99 -100/-100/-100
f -97/-97/-97 -98/-98/-98 -100/-100/-100
f -94/-94/-94 -95/-95/-95 -96/-96/-96
f -93/-93/-93 -94/-94/-94 -96/-96/-96
f -90/-90/-90 -91/-91/-91 -92/-92/-92
f -89/-89/-89 -90/-90/-90 -92/-92/-92
f -86/-86/-86 -87/-87/-87 -88/-88/-88
f -85/-85/-85 -86/-86/-86 -88/-88/-88
f -82/-82/-82 -83/-83/-83 -84/-84/-84
f -81/-81/-81 -82/-82/-82 -84/-84/-84
f -78/-78/-78 -79/-79/-79 -80/-80/-80
f -77/-77/-77 -78/-78/-78 -80/-80/-80
f -74/-74/-74 -75/-75/-75 -76/-76/-76
f -73/-73/-73 -74/-74/-74 -76/-76/-76
f -70/-70/-70 -71/-71/-71 -72/-72/-72
f -69/-69/-69 -70/-70/-70 -72/-72/-72
f -66/-66/-66 -67/-67/-67 -68/-68/-68
f -65/-65/-65 -66/-66/-66 -68/-68/-68
f -62/-62/-62 -63/-63/-63 -64/-64/-64
f -61/-61/-61 -62/-62/-62 -64/-64/-64
f -58/-58/-58 -59/-59/-59 -60/-60/-60
f -57/-57/-57 -58/-58/-58 -60/-60/-60
f -54/-54/-54 -55/-55/-55 -56/-56/-56
f -53/-53/-53 -54/-54/-54 -56/-56/-56
f -50/-50/-50 -51/-51/-51 -52/-52/-52
f -49/-49/-49 -50/-50/-50 -52/-52/-52
f -46/-46/-46 -47/-47/-47 -48/-48/-48
f -45/-45/-45 -46/-46/-46 -48/-48/-48
f -42/-42/-42 -43/-43/-43 -44/-44/-44
f -41/-41/-41 -42/-42/-42 -44/-44/-44
f -38/-38/-38 -39/-39/-39 -40/-40/-40
f -37/-37/-37 -38/-38/-38 -40/-40/-40
f -34/-34/-34 -35/-35/-35 -36/-36/-36
f -33/-33/-33 -34/-34/-34 -36/-36/-36
f -30/-30/-30 -31/-31/-31 -32/-32/-32
f -29/-29/-29 -30/-30/-30 -32/-32/-32
f -26/-26/-26 -27/-27/-27 -28/-28/-28
f -25/-25/-25 -26/-26/-26 -28/-28/-28
f -22/-22/-22 -23/-23/-23 -24/-24/-24
f -24/-24/-24 -21/-21/-21 -22/-22/-22
f -24/-24/-24 -20/-20/-20 -21/-21/-21
f -20/-20/-20 -19/-19/-19 -21/-21/-21
f -20/-20/-20 -18/-18/-18 -19/-19/-19
f -18/-18/-18 -17/-17/-17 -19/-19/-19
f -18/-18/-18 -16/-16/-16 -17/-17/-17
f -16/-16/-16 -15/-15/-15 -17/-17/-17
f -16/-16/-16 -14/-14/-14 -15/-15/-15
f -14/-14/-14 -13/-13/-13 -15/-15/-15
f -14/-14/-14 -12/-12/-12 -13/-13/-13
f -12/-12/-12 -11/-11/-11 -13/-13/-13
f -12/-12/-12 -10/-10/-10 -11/-11/-11
f -10/-10/-10 -9/-9/-9 -11/-11/-11
f -10/-10/-10 -8/-8/-8 -9/-9/-9
f -8/-8/-8 -7/-7/-7 -9/-9/-9
f -8/-8/-8 -6/-6/-6 -7/-7/-7
f -6/-6/-6 -5/-5/-5 -7/-7/-7
f -6/-6/-6 -4/-4/-4 -5/-5/-5
f -4/-4/-4 -3/-3/-3 -5/-5/-5
f -4/-4/-4 -2/-2/-2 -3/-3/-3
f -2/-2/-2 -1/-1/-1 -3/-3/-3

