# Mesh "Mirror_High" exported with Unity Assets Bundle Extractor; 168 vertices, 324 indices, 56 bytes per vertex
g Mirror_High
# SubMesh 0
# Vertices
v -8365.891602 218.973907 873.858337
vt 0.998008 0.323742
vn -1.000000 0.000000 0.000000
v -8365.891602 218.973907 911.118530
vt 0.998008 0.218652
vn -1.000000 0.000000 0.000000
v -8365.891602 161.039215 911.118530
vt 0.834599 0.218643
vn -1.000000 0.000000 0.000000
v -8365.891602 161.039215 873.858337
vt 0.834607 0.323742
vn -1.000000 0.000000 0.000000
v -8365.891602 161.039215 930.450989
vt 0.834618 0.164134
vn -0.998947 0.000000 0.045869
v -8365.891602 218.973907 930.450989
vt 0.997997 0.164126
vn -0.998947 0.000000 0.045869
v -8365.891602 132.071869 911.118530
vt 0.752913 0.218652
vn -1.000000 0.000000 0.000000
v -8365.891602 132.071869 873.858337
vt 0.752906 0.323742
vn -1.000000 0.000000 0.000000
v -8365.003906 218.973907 950.292419
vt 0.247100 0.220072
vn 1.000000 0.000000 0.000000
v -8365.003906 218.973907 930.960022
vt 0.247087 0.165546
vn 1.000000 0.000000 0.000000
v -8365.003906 161.039215 930.960022
vt 0.083711 0.165554
vn 1.000000 0.000000 0.000000
v -8365.003906 161.039215 950.292419
vt 0.083691 0.220064
vn 1.000000 0.000000 0.000000
v -8365.003906 218.973907 987.552734
vt 0.247100 0.325162
vn 1.000000 0.000000 0.000000
v -8365.003906 161.039215 987.552734
vt 0.083698 0.325162
vn 1.000000 0.000000 0.000000
v -8365.003906 132.071869 950.292419
vt 0.002005 0.220072
vn 1.000000 0.000000 0.000000
v -8365.003906 132.071869 987.552734
vt 0.001998 0.325162
vn 1.000000 0.000000 0.000000
v -8365.003906 218.973907 911.118530
vt 0.998003 0.107097
vn 1.000000 0.000000 0.000000
v -8365.003906 218.973907 873.858337
vt 0.997998 0.002009
vn 1.000000 0.000000 0.000000
v -8365.003906 161.039215 873.858337
vt 0.834600 0.002017
vn 1.000000 0.000000 0.000000
v -8365.003906 161.039215 911.118530
vt 0.834605 0.107105
vn 1.000000 0.000000 0.000000
v -8365.003906 132.071869 873.858337
vt 0.752901 0.002021
vn 1.000000 0.000000 0.000000
v -8365.003906 132.071869 911.118530
vt 0.752906 0.107109
vn 1.000000 0.000000 0.000000
v -8365.003906 218.973907 930.450989
vt 0.997996 0.161622
vn 1.000000 0.000000 0.000000
v -8365.003906 161.039215 930.450989
vt 0.834619 0.161630
vn 1.000000 0.000000 0.000000
v -8365.891602 218.973907 930.960022
vt 0.247086 0.163042
vn -0.998947 0.000000 -0.045869
v -8365.891602 218.973907 950.292419
vt 0.247095 0.108517
vn -1.000000 0.000000 0.000000
v -8365.891602 161.039215 950.292419
vt 0.083697 0.108526
vn -1.000000 0.000000 0.000000
v -8365.891602 161.039215 930.960022
vt 0.083712 0.163050
vn -0.998947 0.000000 -0.045869
v -8365.891602 161.039215 987.552734
vt 0.083691 0.003437
vn -1.000000 0.000000 0.000000
v -8365.891602 218.973907 987.552734
vt 0.247090 0.003428
vn -1.000000 0.000000 0.000000
v -8365.891602 132.071869 987.552734
vt 0.001992 0.003441
vn -1.000000 0.000000 0.000000
v -8365.891602 132.071869 950.292419
vt 0.001998 0.108530
vn -1.000000 0.000000 0.000000
v -8365.003906 218.973907 930.450989
vt 0.997996 0.161622
vn -0.000000 0.000000 1.000000
v -8365.003906 161.039215 930.450989
vt 0.834619 0.161630
vn -0.000000 0.000000 1.000000
v -8365.891602 161.039215 930.450989
vt 0.834618 0.164134
vn -0.998947 0.000000 0.045869
v -8365.891602 218.973907 930.450989
vt 0.997997 0.164126
vn -0.998947 0.000000 0.045869
v -8365.003906 161.039215 930.960022
vt 0.083711 0.165554
vn -0.000000 0.000000 -1.000000
v -8365.003906 218.973907 930.960022
vt 0.247087 0.165546
vn -0.000000 0.000000 -1.000000
v -8365.891602 218.973907 930.960022
vt 0.247086 0.163042
vn -0.998947 0.000000 -0.045869
v -8365.891602 161.039215 930.960022
vt 0.083712 0.163050
vn -0.998947 0.000000 -0.045869
v -8365.003906 161.039215 950.292419
vt 0.083691 0.220064
vn -0.000000 -1.000000 0.000000
v -8365.003906 161.039215 930.960022
vt 0.083711 0.165554
vn -0.000000 -1.000000 0.000000
v -8365.891602 161.039215 930.960022
vt 0.081195 0.165562
vn -0.000000 -1.000000 0.000000
v -8365.891602 161.039215 950.292419
vt 0.081196 0.220055
vn -0.000000 -1.000000 0.000000
v -8365.891602 161.039215 911.118530
vt 0.834599 0.218643
vn -0.000000 -1.000000 0.000000
v -8365.891602 161.039215 930.450989
vt 0.834618 0.164134
vn -0.000000 -1.000000 0.000000
v -8365.003906 161.039215 930.450989
vt 0.832103 0.164142
vn -0.000000 -1.000000 0.000000
v -8365.003906 161.039215 911.118530
vt 0.832096 0.218635
vn -0.000000 -1.000000 0.000000
v -8365.003906 161.039215 911.118530
vt 0.834592 0.216148
vn -0.000000 0.000000 1.000000
v -8365.003906 132.071869 911.118530
vt 0.752921 0.216148
vn -0.000000 0.000000 1.000000
v -8365.891602 132.071869 911.118530
vt 0.752913 0.218652
vn -0.000000 0.000000 1.000000
v -8365.891602 161.039215 911.118530
vt 0.834599 0.218643
vn -0.000000 0.000000 1.000000
v -8365.003906 132.071869 950.292419
vt 0.002005 0.220072
vn -0.000000 0.000000 -1.000000
v -8365.003906 161.039215 950.292419
vt 0.083691 0.220064
vn -0.000000 0.000000 -1.000000
v -8365.891602 161.039215 950.292419
vt 0.083683 0.217561
vn -0.000000 0.000000 -1.000000
v -8365.891602 132.071869 950.292419
vt 0.002013 0.217568
vn -0.000000 0.000000 -1.000000
v -8365.891602 218.973907 757.602844
vt 0.998005 0.654483
vn -1.000000 0.000000 0.000000
v -8365.891602 218.973907 794.863037
vt 0.998005 0.549393
vn -1.000000 0.000000 0.000000
v -8365.891602 161.039215 794.863037
vt 0.834597 0.549385
vn -1.000000 0.000000 0.000000
v -8365.891602 161.039215 757.602844
vt 0.834605 0.654483
vn -1.000000 0.000000 0.000000
v -8365.891602 161.039215 814.195496
vt 0.834614 0.494876
vn -0.998947 0.000000 0.045869
v -8365.891602 218.973907 814.195496
vt 0.997996 0.494867
vn -0.998947 0.000000 0.045869
v -8365.891602 132.071869 794.863037
vt 0.752911 0.549393
vn -1.000000 0.000000 0.000000
v -8365.891602 132.071869 757.602844
vt 0.752904 0.654483
vn -1.000000 0.000000 0.000000
v -8365.003906 218.973907 834.036926
vt 0.498732 0.218570
vn 1.000000 0.000000 0.000000
v -8365.003906 218.973907 814.704529
vt 0.498719 0.164044
vn 1.000000 0.000000 0.000000
v -8365.003906 161.039215 814.704529
vt 0.335344 0.164053
vn 1.000000 0.000000 0.000000
v -8365.003906 161.039215 834.036926
vt 0.335321 0.218562
vn 1.000000 0.000000 0.000000
v -8365.003906 218.973907 871.297241
vt 0.498732 0.323661
vn 1.000000 0.000000 0.000000
v -8365.003906 161.039215 871.297241
vt 0.335330 0.323661
vn 1.000000 0.000000 0.000000
v -8365.003906 132.071869 834.036926
vt 0.253639 0.218570
vn 1.000000 0.000000 0.000000
v -8365.003906 132.071869 871.297241
vt 0.253629 0.323661
vn 1.000000 0.000000 0.000000
v -8365.003906 218.973907 794.863037
vt 0.998002 0.437840
vn 1.000000 0.000000 0.000000
v -8365.003906 218.973907 757.602844
vt 0.997998 0.332752
vn 1.000000 0.000000 0.000000
v -8365.003906 161.039215 757.602844
vt 0.834600 0.332758
vn 1.000000 0.000000 0.000000
v -8365.003906 161.039215 794.863037
vt 0.834604 0.437846
vn 1.000000 0.000000 0.000000
v -8365.003906 132.071869 757.602844
vt 0.752901 0.332761
vn 1.000000 0.000000 0.000000
v -8365.003906 132.071869 794.863037
vt 0.752905 0.437849
vn 1.000000 0.000000 0.000000
v -8365.003906 218.973907 814.195496
vt 0.997995 0.492364
vn 1.000000 0.000000 0.000000
v -8365.003906 161.039215 814.195496
vt 0.834615 0.492371
vn 1.000000 0.000000 0.000000
v -8365.891602 218.973907 814.704529
vt 0.498718 0.161541
vn -0.998947 0.000000 -0.045869
v -8365.891602 218.973907 834.036926
vt 0.498728 0.107016
vn -1.000000 0.000000 0.000000
v -8365.891602 161.039215 834.036926
vt 0.335329 0.107024
vn -1.000000 0.000000 0.000000
v -8365.891602 161.039215 814.704529
vt 0.335345 0.161549
vn -0.998947 0.000000 -0.045869
v -8365.891602 161.039215 871.297241
vt 0.335324 0.001935
vn -1.000000 0.000000 0.000000
v -8365.891602 218.973907 871.297241
vt 0.498723 0.001928
vn -1.000000 0.000000 0.000000
v -8365.891602 132.071869 871.297241
vt 0.253625 0.001939
vn -1.000000 0.000000 0.000000
v -8365.891602 132.071869 834.036926
vt 0.253630 0.107028
vn -1.000000 0.000000 0.000000
v -8365.003906 218.973907 814.195496
vt 0.997995 0.492364
vn -0.000000 0.000000 1.000000
v -8365.003906 161.039215 814.195496
vt 0.834615 0.492371
vn -0.000000 0.000000 1.000000
v -8365.891602 161.039215 814.195496
vt 0.834614 0.494876
vn -0.998947 0.000000 0.045869
v -8365.891602 218.973907 814.195496
vt 0.997996 0.494867
vn -0.998947 0.000000 0.045869
v -8365.003906 161.039215 814.704529
vt 0.335344 0.164053
vn -0.000000 0.000000 -1.000000
v -8365.003906 218.973907 814.704529
vt 0.498719 0.164044
vn -0.000000 0.000000 -1.000000
v -8365.891602 218.973907 814.704529
vt 0.498718 0.161541
vn -0.998947 0.000000 -0.045869
v -8365.891602 161.039215 814.704529
vt 0.335345 0.161549
vn -0.998947 0.000000 -0.045869
v -8365.003906 161.039215 834.036926
vt 0.335321 0.218562
vn -0.000000 -1.000000 0.000000
v -8365.003906 161.039215 814.704529
vt 0.335344 0.164053
vn -0.000000 -1.000000 0.000000
v -8365.891602 161.039215 814.704529
vt 0.332828 0.164061
vn -0.000000 -1.000000 0.000000
v -8365.891602 161.039215 834.036926
vt 0.332827 0.218554
vn -0.000000 -1.000000 0.000000
v -8365.891602 161.039215 794.863037
vt 0.834597 0.549385
vn -0.000000 -1.000000 0.000000
v -8365.891602 161.039215 814.195496
vt 0.834614 0.494876
vn -0.000000 -1.000000 0.000000
v -8365.003906 161.039215 814.195496
vt 0.832103 0.494884
vn -0.000000 -1.000000 0.000000
v -8365.003906 161.039215 794.863037
vt 0.832101 0.549377
vn -0.000000 -1.000000 0.000000
v -8365.003906 161.039215 794.863037
vt 0.834590 0.546882
vn -0.000000 0.000000 1.000000
v -8365.003906 132.071869 794.863037
vt 0.752918 0.546890
vn -0.000000 0.000000 1.000000
v -8365.891602 132.071869 794.863037
vt 0.752911 0.549393
vn -0.000000 0.000000 1.000000
v -8365.891602 161.039215 794.863037
vt 0.834597 0.549385
vn -0.000000 0.000000 1.000000
v -8365.003906 132.071869 834.036926
vt 0.253639 0.218570
vn -0.000000 0.000000 -1.000000
v -8365.003906 161.039215 834.036926
vt 0.335321 0.218562
vn -0.000000 0.000000 -1.000000
v -8365.891602 161.039215 834.036926
vt 0.335311 0.216059
vn -0.000000 0.000000 -1.000000
v -8365.891602 132.071869 834.036926
vt 0.253649 0.216067
vn -0.000000 0.000000 -1.000000
v -8365.891602 218.973907 643.130798
vt 0.748370 0.323744
vn -1.000000 0.000000 0.000000
v -8365.891602 218.973907 680.390991
vt 0.748370 0.218654
vn -1.000000 0.000000 0.000000
v -8365.891602 161.039215 680.390991
vt 0.584963 0.218645
vn -1.000000 0.000000 0.000000
v -8365.891602 161.039215 643.130798
vt 0.584969 0.323744
vn -1.000000 0.000000 0.000000
v -8365.891602 161.039215 699.723450
vt 0.584983 0.164136
vn -0.998947 0.000000 0.045869
v -8365.891602 218.973907 699.723450
vt 0.748357 0.164127
vn -0.998947 0.000000 0.045869
v -8365.891602 132.071869 680.390991
vt 0.503274 0.218654
vn -1.000000 0.000000 0.000000
v -8365.891602 132.071869 643.130798
vt 0.503268 0.323744
vn -1.000000 0.000000 0.000000
v -8365.003906 218.973907 719.564880
vt 0.498727 0.547342
vn 1.000000 0.000000 0.000000
v -8365.003906 218.973907 700.232483
vt 0.498721 0.492817
vn 1.000000 0.000000 0.000000
v -8365.003906 161.039215 700.232483
vt 0.335340 0.492810
vn 1.000000 0.000000 0.000000
v -8365.003906 161.039215 719.564880
vt 0.335329 0.547334
vn 1.000000 0.000000 0.000000
v -8365.003906 218.973907 756.825195
vt 0.498722 0.652430
vn 1.000000 0.000000 0.000000
v -8365.003906 161.039215 756.825195
vt 0.335324 0.652423
vn 1.000000 0.000000 0.000000
v -8365.003906 132.071869 719.564880
vt 0.253630 0.547331
vn 1.000000 0.000000 0.000000
v -8365.003906 132.071869 756.825195
vt 0.253625 0.652419
vn 1.000000 0.000000 0.000000
v -8365.003906 218.973907 680.390991
vt 0.748366 0.107098
vn 1.000000 0.000000 0.000000
v -8365.003906 218.973907 643.130798
vt 0.748360 0.002010
vn 1.000000 0.000000 0.000000
v -8365.003906 161.039215 643.130798
vt 0.584962 0.002019
vn 1.000000 0.000000 0.000000
v -8365.003906 161.039215 680.390991
vt 0.584967 0.107107
vn 1.000000 0.000000 0.000000
v -8365.003906 132.071869 643.130798
vt 0.503263 0.002024
vn 1.000000 0.000000 0.000000
v -8365.003906 132.071869 680.390991
vt 0.503268 0.107112
vn 1.000000 0.000000 0.000000
v -8365.003906 218.973907 699.723450
vt 0.748356 0.161624
vn 1.000000 0.000000 0.000000
v -8365.003906 161.039215 699.723450
vt 0.584983 0.161632
vn 1.000000 0.000000 0.000000
v -8365.891602 218.973907 700.232483
vt 0.498722 0.490314
vn -0.998947 0.000000 -0.045869
v -8365.891602 218.973907 719.564880
vt 0.498731 0.435788
vn -1.000000 0.000000 0.000000
v -8365.891602 161.039215 719.564880
vt 0.335323 0.435796
vn -1.000000 0.000000 0.000000
v -8365.891602 161.039215 700.232483
vt 0.335339 0.490306
vn -0.998947 0.000000 -0.045869
v -8365.891602 161.039215 756.825195
vt 0.335330 0.330698
vn -1.000000 0.000000 0.000000
v -8365.891602 218.973907 756.825195
vt 0.498731 0.330698
vn -1.000000 0.000000 0.000000
v -8365.891602 132.071869 756.825195
vt 0.253630 0.330698
vn -1.000000 0.000000 0.000000
v -8365.891602 132.071869 719.564880
vt 0.253637 0.435788
vn -1.000000 0.000000 0.000000
v -8365.003906 218.973907 699.723450
vt 0.748356 0.161624
vn -0.000000 0.000000 1.000000
v -8365.003906 161.039215 699.723450
vt 0.584983 0.161632
vn -0.000000 0.000000 1.000000
v -8365.891602 161.039215 699.723450
vt 0.584983 0.164136
vn -0.998947 0.000000 0.045869
v -8365.891602 218.973907 699.723450
vt 0.748357 0.164127
vn -0.998947 0.000000 0.045869
v -8365.003906 161.039215 700.232483
vt 0.335340 0.492810
vn -0.000000 0.000000 -1.000000
v -8365.003906 218.973907 700.232483
vt 0.498721 0.492817
vn -0.000000 0.000000 -1.000000
v -8365.891602 218.973907 700.232483
vt 0.498722 0.490314
vn -0.998947 0.000000 -0.045869
v -8365.891602 161.039215 700.232483
vt 0.335339 0.490306
vn -0.998947 0.000000 -0.045869
v -8365.003906 161.039215 719.564880
vt 0.332821 0.435804
vn -0.000000 -1.000000 0.000000
v -8365.003906 161.039215 700.232483
vt 0.332827 0.490298
vn -0.000000 -1.000000 0.000000
v -8365.891602 161.039215 700.232483
vt 0.335339 0.490306
vn -0.000000 -1.000000 0.000000
v -8365.891602 161.039215 719.564880
vt 0.335323 0.435796
vn -0.000000 -1.000000 0.000000
v -8365.891602 161.039215 680.390991
vt 0.584963 0.218645
vn -0.000000 -1.000000 0.000000
v -8365.891602 161.039215 699.723450
vt 0.584983 0.164136
vn -0.000000 -1.000000 0.000000
v -8365.003906 161.039215 699.723450
vt 0.582466 0.164143
vn -0.000000 -1.000000 0.000000
v -8365.003906 161.039215 680.390991
vt 0.582465 0.218638
vn -0.000000 -1.000000 0.000000
v -8365.003906 161.039215 680.390991
vt 0.584957 0.216141
vn -0.000000 0.000000 1.000000
v -8365.003906 132.071869 680.390991
vt 0.503279 0.216151
vn -0.000000 0.000000 1.000000
v -8365.891602 132.071869 680.390991
vt 0.503274 0.218654
vn -0.000000 0.000000 1.000000
v -8365.891602 161.039215 680.390991
vt 0.584963 0.218645
vn -0.000000 0.000000 1.000000
v -8365.003906 132.071869 719.564880
vt 0.253645 0.438292
vn -0.000000 0.000000 -1.000000
v -8365.003906 161.039215 719.564880
vt 0.335315 0.438291
vn -0.000000 0.000000 -1.000000
v -8365.891602 161.039215 719.564880
vt 0.335323 0.435796
vn -0.000000 0.000000 -1.000000
v -8365.891602 132.071869 719.564880
vt 0.253637 0.435788
vn -0.000000 0.000000 -1.000000
# Faces (1 to 168)
f -166/-166/-166 -167/-167/-167 -168/-168/-168
f -165/-165/-165 -166/-166/-166 -168/-168/-168
f -166/-166/-166 -164/-164/-164 -167/-167/-167
f -164/-164/-164 -163/-163/-163 -167/-167/-167
f -162/-162/-162 -166/-166/-166 -165/-165/-165
f -161/-161/-161 -162/-162/-162 -165/-165/-165
f -158/-158/-158 -159/-159/-159 -160/-160/-160
f -157/-157/-157 -158/-158/-158 -160/-160/-160
f -157/-157/-157 -160/-160/-160 -156/-156/-156
f -155/-155/-155 -157/-157/-157 -156/-156/-156
f -157/-157/-157 -155/-155/-155 -154/-154/-154
f -155/-155/-155 -153/-153/-153 -154/-154/-154
f -150/-150/-150 -151/-151/-151 -152/-152/-152
f -149/-149/-149 -150/-150/-150 -152/-152/-152
f -150/-150/-150 -149/-149/-149 -148/-148/-148
f -149/-149/-149 -147/-147/-147 -148/-148/-148
f -149/-149/-149 -152/-152/-152 -146/-146/-146
f -145/-145/-145 -149/-149/-149 -146/-146/-146
f -142/-142/-142 -143/-143/-143 -144/-144/-144
f -141/-141/-141 -142/-142/-142 -144/-144/-144
f -142/-142/-142 -140/-140/-140 -143/-143/-143
f -140/-140/-140 -139/-139/-139 -143/-143/-143
f -138/-138/-138 -140/-140/-140 -142/-142/-142
f -137/-137/-137 -138/-138/-138 -142/-142/-142
f -134/-134/-134 -135/-135/-135 -136/-136/-136
f -133/-133/-133 -134/-134/-134 -136/-136/-136
f -130/-130/-130 -131/-131/-131 -132/-132/-132
f -129/-129/-129 -130/-130/-130 -132/-132/-132
f -126/-126/-126 -127/-127/-127 -128/-128/-128
f -125/-125/-125 -126/-126/-126 -128/-128/-128
f -122/-122/-122 -123/-123/-123 -124/-124/-124
f -121/-121/-121 -122/-122/-122 -124/-124/-124
f -118/-118/-118 -119/-119/-119 -120/-120/-120
f -117/-117/-117 -118/-118/-118 -120/-120/-120
f -114/-114/-114 -115/-115/-115 -116/-116/-116
f -113/-113/-113 -114/-114/-114 -116/-116/-116
f -110/-110/-110 -111/-111/-111 -112/-112/-112
f -109/-109/-109 -110/-110/-110 -112/-112/-112
f -110/-110/-110 -108/-108/-108 -111/-111/-111
f -108/-108/-108 -107/-107/-107 -111/-111/-111
f -106/-106/-106 -110/-110/-110 -109/-109/-109
f -105/-105/-105 -106/-106/-106 -109/-109/-109
f -102/-102/-102 -103/-103/-103 -104/-104/-104
f -101/-101/-101 -102/-102/-102 -104/-104/-104
f -101/-101/-101 -104/-104/-104 -100/-100/-100
f -99/-99/-99 -101/-101/-101 -100/-100/-100
f -101/-101/-101 -99/-99/-99 -98/-98/-98
f -99/-99/-99 -97/-97/-97 -98/-98/-98
f -94/-94/-94 -95/-95/-95 -96/-96/-96
f -93/-93/-93 -94/-94/-94 -96/-96/-96
f -94/-94/-94 -93/-93/-93 -92/-92/-92
f -93/-93/-93 -91/-91/-91 -92/-92/-92
f -93/-93/-93 -96/-96/-96 -90/-90/-90
f -89/-89/-89 -93/-93/-93 -90/-90/-90
f -86/-86/-86 -87/-87/-87 -88/-88/-88
f -85/-85/-85 -86/-86/-86 -88/-88/-88
f -86/-86/-86 -84/-84/-84 -87/-87/-87
f -84/-84/-84 -83/-83/-83 -87/-87/-87
f -82/-82/-82 -84/-84/-84 -86/-86/-86
f -81/-81/-81 -82/-82/-82 -86/-86/-86
f -78/-78/-78 -79/-79/-79 -80/-80/-80
f -77/-77/-77 -78/-78/-78 -80/-80/-80
f -74/-74/-74 -75/-75/-75 -76/-76/-76
f -73/-73/-73 -74/-74/-74 -76/-76/-76
f -70/-70/-70 -71/-71/-71 -72/-72/-72
f -69/-69/-69 -70/-70/-70 -72/-72/-72
f -66/-66/-66 -67/-67/-67 -68/-68/-68
f -65/-65/-65 -66/-66/-66 -68/-68/-68
f -62/-62/-62 -63/-63/-63 -64/-64/-64
f -61/-61/-61 -62/-62/-62 -64/-64/-64
f -58/-58/-58 -59/-59/-59 -60/-60/-60
f -57/-57/-57 -58/-58/-58 -60/-60/-60
f -54/-54/-54 -55/-55/-55 -56/-56/-56
f -53/-53/-53 -54/-54/-54 -56/-56/-56
f -54/-54/-54 -52/-52/-52 -55/-55/-55
f -52/-52/-52 -51/-51/-51 -55/-55/-55
f -50/-50/-50 -54/-54/-54 -53/-53/-53
f -49/-49/-49 -50/-50/-50 -53/-53/-53
f -46/-46/-46 -47/-47/-47 -48/-48/-48
f -45/-45/-45 -46/-46/-46 -48/-48/-48
f -45/-45/-45 -48/-48/-48 -44/-44/-44
f -43/-43/-43 -45/-45/-45 -44/-44/-44
f -45/-45/-45 -43/-43/-43 -42/-42/-42
f -43/-43/-43 -41/-41/-41 -42/-42/-42
f -38/-38/-38 -39/-39/-39 -40/-40/-40
f -37/-37/-37 -38/-38/-38 -40/-40/-40
f -38/-38/-38 -37/-37/-37 -36/-36/-36
f -37/-37/-37 -35/-35/-35 -36/-36/-36
f -37/-37/-37 -40/-40/-40 -34/-34/-34
f -33/-33/-33 -37/-37/-37 -34/-34/-34
f -30/-30/-30 -31/-31/-31 -32/-32/-32
f -29/-29/-29 -30/-30/-30 -32/-32/-32
f -30/-30/-30 -28/-28/-28 -31/-31/-31
f -28/-28/-28 -27/-27/-27 -31/-31/-31
f -26/-26/-26 -28/-28/-28 -30/-30/-30
f -25/-25/-25 -26/-26/-26 -30/-30/-30
f -22/-22/-22 -23/-23/-23 -24/-24/-24
f -21/-21/-21 -22/-22/-22 -24/-24/-24
f -18/-18/-18 -19/-19/-19 -20/-20/-20
f -17/-17/-17 -18/-18/-18 -20/-20/-20
f -14/-14/-14 -15/-15/-15 -16/-16/-16
f -13/-13/-13 -14/-14/-14 -16/-16/-16
f -10/-10/-10 -11/-11/-11 -12/-12/-12
f -9/-9/-9 -10/-10/-10 -12/-12/-12
f -6/-6/-6 -7/-7/-7 -8/-8/-8
f -5/-5/-5 -6/-6/-6 -8/-8/-8
f -2/-2/-2 -3/-3/-3 -4/-4/-4
f -1/-1/-1 -2/-2/-2 -4/-4/-4

