# Mesh "mod_2X2_Ceiling_8" exported with Unity Assets Bundle Extractor; 4 vertices, 6 indices, 56 bytes per vertex
g mod_2X2_Ceiling_8
# SubMesh 0
# Vertices
v -0.250000 0.000000 -0.250000
vt 0.500000 0.500000
vn -0.000000 1.000000 0.000000
v 0.250000 0.000000 -0.250000
vt 0.998008 0.500000
vn -0.000000 1.000000 0.000000
v 0.250000 0.000000 0.250000
vt 0.998008 0.001992
vn -0.000000 1.000000 0.000000
v -0.250000 0.000000 0.250000
vt 0.500000 0.001992
vn -0.000000 1.000000 0.000000
# Faces (1 to 4)
f -2/-2/-2 -3/-3/-3 -4/-4/-4
f -1/-1/-1 -2/-2/-2 -4/-4/-4

