# Mesh "Neon_light" exported with Unity Assets Bundle Extractor; 207 vertices, 402 indices, 56 bytes per vertex
g Neon_light
# SubMesh 0
# Vertices
v -0.120000 0.002199 0.005000
vt 0.555657 0.996801
vn -0.000000 1.000000 0.000000
v -0.120000 0.002199 -0.005000
vt 0.555655 0.958906
vn -0.000000 1.000000 0.000000
v -0.113264 0.002199 -0.005000
vt 0.530129 0.958908
vn -0.000000 1.000000 0.000000
v -0.113264 0.002199 0.005000
vt 0.530131 0.996803
vn -0.000000 1.000000 0.000000
v 0.113264 0.002199 0.005000
vt 0.530128 0.011537
vn -0.000000 1.000000 0.000000
v 0.113264 0.002199 -0.005000
vt 0.530128 0.049432
vn -0.000000 1.000000 0.000000
v 0.120000 0.002199 -0.005000
vt 0.555655 0.049432
vn -0.000000 1.000000 0.000000
v 0.120000 0.002199 0.005000
vt 0.555655 0.011537
vn -0.000000 1.000000 0.000000
v -0.113264 0.001199 0.005000
vt 0.521549 0.933379
vn -0.000000 1.000000 0.000000
v -0.113264 0.001199 -0.005000
vt 0.559444 0.933379
vn -0.000000 1.000000 0.000000
v 0.113264 0.001199 -0.005000
vt 0.559444 0.074958
vn -0.000000 1.000000 0.000000
v 0.113264 0.001199 0.005000
vt 0.521549 0.074958
vn -0.000000 1.000000 0.000000
v -0.120000 -0.005742 -0.005000
vt 0.585747 0.958905
vn -0.000000 0.000000 -1.000000
v 0.120000 -0.005742 -0.005000
vt 0.585747 0.049432
vn -0.000000 0.000000 -1.000000
v 0.113264 0.001199 -0.005000
vt 0.559444 0.074958
vn -0.000000 0.000000 -1.000000
v -0.113264 0.001199 -0.005000
vt 0.559444 0.933379
vn -0.000000 0.000000 -1.000000
v -0.120000 0.002199 -0.005000
vt 0.555655 0.958906
vn -0.000000 0.000000 -1.000000
v -0.113264 0.002199 -0.005000
vt 0.555655 0.933379
vn -0.000000 0.000000 -1.000000
v 0.113264 0.002199 -0.005000
vt 0.555655 0.074958
vn -0.000000 0.000000 -1.000000
v 0.120000 0.002199 -0.005000
vt 0.555655 0.049432
vn -0.000000 0.000000 -1.000000
v -0.120000 -0.005742 0.005000
vt 0.623642 0.958905
vn -0.000000 -1.000000 0.000000
v 0.120000 -0.005742 0.005000
vt 0.623642 0.049432
vn -0.000000 -1.000000 0.000000
v 0.120000 -0.005742 -0.005000
vt 0.585747 0.049432
vn -0.000000 -1.000000 0.000000
v -0.120000 -0.005742 -0.005000
vt 0.585747 0.958905
vn -0.000000 -1.000000 0.000000
v -0.113264 0.001199 0.005000
vt 0.521549 0.933379
vn -0.000000 0.000000 1.000000
v 0.113264 0.001199 0.005000
vt 0.521549 0.074958
vn -0.000000 0.000000 1.000000
v 0.120000 -0.005742 0.005000
vt 0.495247 0.049432
vn -0.000000 0.000000 1.000000
v -0.120000 -0.005742 0.005000
vt 0.495247 0.958905
vn -0.000000 0.000000 1.000000
v -0.113264 0.002199 0.005000
vt 0.525339 0.933379
vn -0.000000 0.000000 1.000000
v -0.120000 0.002199 0.005000
vt 0.525339 0.958905
vn -0.000000 0.000000 1.000000
v 0.120000 0.002199 0.005000
vt 0.525339 0.049432
vn -0.000000 0.000000 1.000000
v 0.113264 0.002199 0.005000
vt 0.525339 0.074958
vn -0.000000 0.000000 1.000000
v -0.113264 0.001199 0.005000
vt 0.526341 0.996803
vn 1.000000 0.000000 0.000000
v -0.113264 0.002199 0.005000
vt 0.530131 0.996803
vn 1.000000 0.000000 0.000000
v -0.113264 0.002199 -0.005000
vt 0.530129 0.958908
vn 1.000000 0.000000 0.000000
v -0.113264 0.001199 -0.005000
vt 0.526340 0.958908
vn 1.000000 0.000000 0.000000
v -0.120000 -0.005742 -0.005000
vt 0.585747 0.958905
vn -1.000000 0.000000 0.000000
v -0.120000 0.002199 -0.005000
vt 0.555655 0.958906
vn -1.000000 0.000000 0.000000
v -0.120000 0.002199 0.005000
vt 0.555657 0.996801
vn -1.000000 0.000000 0.000000
v -0.120000 -0.005742 0.005000
vt 0.585749 0.996799
vn -1.000000 0.000000 0.000000
v 0.120000 -0.005742 0.005000
vt 0.585747 0.011537
vn 1.000000 0.000000 0.000000
v 0.120000 0.002199 0.005000
vt 0.555655 0.011537
vn 1.000000 0.000000 0.000000
v 0.120000 0.002199 -0.005000
vt 0.555655 0.049432
vn 1.000000 0.000000 0.000000
v 0.120000 -0.005742 -0.005000
vt 0.585747 0.049432
vn 1.000000 0.000000 0.000000
v 0.113264 0.001199 -0.005000
vt 0.526339 0.049432
vn -1.000000 0.000000 0.000000
v 0.113264 0.002199 -0.005000
vt 0.530128 0.049432
vn -1.000000 0.000000 0.000000
v 0.113264 0.002199 0.005000
vt 0.530128 0.011537
vn -1.000000 0.000000 0.000000
v 0.113264 0.001199 0.005000
vt 0.526339 0.011537
vn -1.000000 0.000000 0.000000
v -0.119581 0.001836 0.004605
vt 0.057758 0.523572
vn -0.000000 0.000000 1.000000
v -0.119581 0.010318 0.004605
vt 0.214397 0.523323
vn -0.000000 0.125099 0.992144
v -0.114221 0.010318 0.004605
vt 0.214387 0.424277
vn -0.000000 0.125099 0.992144
v -0.114221 0.001836 0.004605
vt 0.057550 0.424461
vn -0.000000 0.000000 1.000000
v -0.119581 0.010318 0.004605
vt 0.046351 0.140338
vn -0.000000 0.125099 0.992144
v -0.119581 0.011465 0.003391
vt 0.076241 0.140338
vn -0.000000 0.818908 0.573925
v -0.114221 0.011465 0.003391
vt 0.076241 0.044442
vn -0.000000 0.818908 0.573925
v -0.114221 0.010318 0.004605
vt 0.046351 0.044442
vn -0.000000 0.125099 0.992144
v -0.119581 0.010318 -0.004605
vt 0.213837 0.155017
vn -0.000000 0.125099 -0.992144
v -0.119581 0.001836 -0.004605
vt 0.057265 0.155330
vn -0.000000 0.000000 -1.000000
v -0.114221 0.001836 -0.004605
vt 0.057468 0.254267
vn -0.000000 0.000000 -1.000000
v -0.114221 0.010318 -0.004605
vt 0.214106 0.253998
vn -0.000000 0.125099 -0.992144
v -0.114221 0.001836 0.004605
vt 0.057550 0.424461
vn 1.000000 -0.000001 0.000000
v -0.114221 0.010318 0.004605
vt 0.214387 0.424277
vn 1.000000 0.000000 0.000000
v -0.114221 0.011465 0.003391
vt 0.235587 0.401799
vn 1.000000 -0.000001 0.000000
v -0.114221 0.001836 -0.004605
vt 0.057468 0.254267
vn 1.000000 -0.000001 0.000000
v -0.114221 0.011465 -0.003391
vt 0.235374 0.276399
vn 1.000000 -0.000001 0.000000
v -0.114221 0.010318 -0.004605
vt 0.214106 0.253998
vn 1.000000 0.000000 0.000000
v -0.114221 0.012667 -0.001253
vt 0.257670 0.315895
vn 1.000000 0.000009 0.000000
v -0.114221 0.012667 0.001253
vt 0.257746 0.362261
vn 1.000000 0.000009 0.000000
v -0.119581 0.001836 0.004605
vt 0.057758 0.523572
vn -1.000000 -0.000001 0.000000
v -0.119581 0.011465 0.003391
vt 0.235607 0.545699
vn -1.000000 -0.000001 0.000000
v -0.119581 0.010318 0.004605
vt 0.214397 0.523323
vn -1.000000 0.000000 0.000000
v -0.119581 0.001836 -0.004605
vt 0.058162 0.693685
vn -1.000000 -0.000001 0.000000
v -0.119581 0.011465 -0.003391
vt 0.235876 0.670855
vn -1.000000 -0.000001 0.000000
v -0.119581 0.010318 -0.004605
vt 0.214739 0.693326
vn -1.000000 0.000000 0.000000
v -0.119581 0.012667 0.001253
vt 0.257847 0.585069
vn -1.000000 0.000000 0.000000
v -0.119581 0.012667 -0.001253
vt 0.257965 0.631314
vn -1.000000 0.000000 0.000000
v -0.119581 0.011465 -0.003391
vt 0.208824 0.140338
vn -0.000000 0.818908 -0.573924
v -0.119581 0.010318 -0.004605
vt 0.238713 0.140338
vn -0.000000 0.125099 -0.992144
v -0.114221 0.010318 -0.004605
vt 0.238713 0.044442
vn -0.000000 0.125099 -0.992144
v -0.114221 0.011465 -0.003391
vt 0.208824 0.044442
vn -0.000000 0.818908 -0.573924
v -0.119581 0.012667 0.001253
vt 0.120110 0.140338
vn -0.000000 0.968135 0.250431
v -0.119581 0.012667 -0.001253
vt 0.164955 0.140338
vn -0.000000 0.968135 -0.250430
v -0.114221 0.012667 -0.001253
vt 0.164955 0.044442
vn -0.000000 0.968135 -0.250430
v -0.114221 0.012667 0.001253
vt 0.120110 0.044442
vn -0.000000 0.968135 0.250431
v -0.119581 0.011465 0.003391
vt 0.076241 0.140338
vn -0.000000 0.818908 0.573925
v -0.114221 0.011465 0.003391
vt 0.076241 0.044442
vn -0.000000 0.818908 0.573925
v -0.114221 0.011465 -0.003391
vt 0.208824 0.044442
vn -0.000000 0.818908 -0.573924
v -0.119581 0.011465 -0.003391
vt 0.208824 0.140338
vn -0.000000 0.818908 -0.573924
v 0.119581 0.001836 0.004605
vt 0.281383 0.426126
vn -0.000000 0.000000 1.000000
v 0.114221 0.001836 0.004605
vt 0.281311 0.525059
vn -0.000000 0.000000 1.000000
v 0.114221 0.010318 0.004605
vt 0.437766 0.525245
vn -0.000000 0.125099 0.992144
v 0.119581 0.010318 0.004605
vt 0.437912 0.426365
vn -0.000000 0.125099 0.992144
v 0.119581 0.010318 0.004605
vt 0.255424 0.046251
vn -0.000000 0.125099 0.992144
v 0.114221 0.010318 0.004605
vt 0.255424 0.142147
vn -0.000000 0.125099 0.992144
v 0.114221 0.011465 0.003391
vt 0.285314 0.142147
vn -0.000000 0.818908 0.573924
v 0.119581 0.011465 0.003391
vt 0.285313 0.046251
vn -0.000000 0.818908 0.573924
v 0.119581 0.010318 -0.004605
vt 0.438143 0.256366
vn -0.000000 0.125099 -0.992144
v 0.114221 0.010318 -0.004605
vt 0.438374 0.157483
vn -0.000000 0.125099 -0.992144
v 0.114221 0.001836 -0.004605
vt 0.281865 0.157071
vn -0.000000 0.000000 -1.000000
v 0.119581 0.001836 -0.004605
vt 0.281592 0.256058
vn -0.000000 0.000000 -1.000000
v 0.114221 0.001836 0.004605
vt 0.281311 0.525059
vn -1.000000 0.000000 0.000000
v 0.114221 0.011465 0.003391
vt 0.458915 0.547666
vn -1.000000 0.000000 0.000000
v 0.114221 0.010318 0.004605
vt 0.437766 0.525245
vn -1.000000 0.000000 0.000000
v 0.114221 0.001836 -0.004605
vt 0.281111 0.694981
vn -1.000000 0.000000 0.000000
v 0.114221 0.011465 -0.003391
vt 0.458778 0.672747
vn -1.000000 0.000000 0.000000
v 0.114221 0.010318 -0.004605
vt 0.437586 0.695132
vn -1.000000 0.000000 0.000000
v 0.114221 0.012667 -0.001253
vt 0.480986 0.633348
vn -1.000000 0.000009 0.000000
v 0.114221 0.012667 0.001253
vt 0.481027 0.587109
vn -1.000000 0.000009 0.000000
v 0.119581 0.001836 0.004605
vt 0.281383 0.426126
vn 1.000000 0.000001 0.000000
v 0.119581 0.010318 0.004605
vt 0.437912 0.426365
vn 1.000000 0.000000 0.000000
v 0.119581 0.011465 0.003391
vt 0.459133 0.404003
vn 1.000000 0.000001 0.000000
v 0.119581 0.001836 -0.004605
vt 0.281592 0.256058
vn 1.000000 0.000001 0.000000
v 0.119581 0.011465 -0.003391
vt 0.459288 0.278798
vn 1.000000 0.000001 0.000000
v 0.119581 0.010318 -0.004605
vt 0.438143 0.256366
vn 1.000000 0.000000 0.000000
v 0.119581 0.012667 0.001253
vt 0.481354 0.364562
vn 1.000000 -0.000017 0.000000
v 0.119581 0.012667 -0.001253
vt 0.481416 0.318292
vn 1.000000 -0.000017 0.000000
v 0.119581 0.011465 -0.003391
vt 0.417896 0.046251
vn -0.000000 0.818908 -0.573924
v 0.114221 0.011465 -0.003391
vt 0.417896 0.142147
vn -0.000000 0.818908 -0.573924
v 0.114221 0.010318 -0.004605
vt 0.447786 0.142147
vn -0.000000 0.125099 -0.992144
v 0.119581 0.010318 -0.004605
vt 0.447786 0.046251
vn -0.000000 0.125099 -0.992144
v 0.119581 0.012667 0.001253
vt 0.329182 0.046251
vn -0.000000 0.968135 0.250430
v 0.114221 0.012667 0.001253
vt 0.329182 0.142147
vn -0.000000 0.968135 0.250430
v 0.114221 0.012667 -0.001253
vt 0.374028 0.142147
vn -0.000000 0.968135 -0.250430
v 0.119581 0.012667 -0.001253
vt 0.374028 0.046251
vn -0.000000 0.968135 -0.250430
v 0.119581 0.011465 0.003391
vt 0.285313 0.046251
vn -0.000000 0.818908 0.573924
v 0.114221 0.011465 0.003391
vt 0.285314 0.142147
vn -0.000000 0.818908 0.573924
v 0.114221 0.011465 -0.003391
vt 0.417896 0.142147
vn -0.000000 0.818908 -0.573924
v 0.119581 0.011465 -0.003391
vt 0.417896 0.046251
vn -0.000000 0.818908 -0.573924
v 0.114588 0.008462 -0.002757
vt 0.760008 0.001992
vn -0.000000 0.500001 -0.866025
v 0.110671 0.008462 -0.002757
vt 0.760008 0.019011
vn -0.000000 0.500000 -0.866025
v 0.110671 0.005279 -0.002757
vt 0.803464 0.019011
vn -0.000000 -0.500000 -0.866025
v 0.114588 0.005279 -0.002757
vt 0.803464 0.001992
vn -0.000000 -0.500000 -0.866025
v -0.110699 0.005279 -0.002757
vt 0.803464 0.980989
vn -0.000000 -0.500000 -0.866025
v -0.110699 0.008462 -0.002757
vt 0.760008 0.980989
vn -0.000000 0.500000 -0.866025
v -0.114615 0.005279 -0.002757
vt 0.803464 0.998008
vn -0.000000 -0.499999 -0.866026
v -0.114615 0.008462 -0.002757
vt 0.760008 0.998008
vn -0.000000 0.500000 -0.866026
v 0.114588 0.005279 -0.002757
vt 0.803464 0.001992
vn -0.000000 -0.500000 -0.866025
v 0.110671 0.005279 -0.002757
vt 0.803464 0.019011
vn -0.000000 -0.500000 -0.866025
v 0.110671 0.003687 -0.000000
vt 0.841097 0.019011
vn -0.000000 -1.000000 -0.000000
v 0.114588 0.003687 -0.000000
vt 0.841097 0.001992
vn -0.000000 -1.000000 -0.000000
v -0.110699 0.003687 -0.000000
vt 0.841097 0.980989
vn -0.000000 -1.000000 -0.000000
v -0.110699 0.005279 -0.002757
vt 0.803464 0.980989
vn -0.000000 -0.500000 -0.866025
v -0.114615 0.003687 -0.000000
vt 0.841097 0.998008
vn -0.000000 -1.000000 -0.000000
v -0.114615 0.005279 -0.002757
vt 0.803464 0.998008
vn -0.000000 -0.499999 -0.866026
v 0.114588 0.003687 -0.000000
vt 0.841097 0.001992
vn -0.000000 -1.000000 -0.000000
v 0.110671 0.003687 -0.000000
vt 0.841097 0.019011
vn -0.000000 -1.000000 -0.000000
v 0.110671 0.005279 0.002757
vt 0.878731 0.019011
vn -0.000000 -0.500000 0.866025
v 0.114588 0.005279 0.002757
vt 0.878731 0.001992
vn -0.000000 -0.500001 0.866025
v -0.110699 0.005279 0.002757
vt 0.878731 0.980989
vn -0.000000 -0.500000 0.866025
v -0.110699 0.003687 -0.000000
vt 0.841097 0.980989
vn -0.000000 -1.000000 -0.000000
v -0.114615 0.005279 0.002757
vt 0.878731 0.998008
vn -0.000000 -0.500000 0.866026
v -0.114615 0.003687 -0.000000
vt 0.841097 0.998008
vn -0.000000 -1.000000 -0.000000
v 0.114588 0.005279 0.002757
vt 0.641285 0.001992
vn -0.000000 -0.500001 0.866025
v 0.110671 0.005279 0.002757
vt 0.641285 0.019011
vn -0.000000 -0.500000 0.866025
v 0.110671 0.008462 0.002757
vt 0.684741 0.019011
vn -0.000000 0.500000 0.866025
v 0.114588 0.008462 0.002757
vt 0.684741 0.001992
vn -0.000000 0.500000 0.866026
v -0.110699 0.008462 0.002757
vt 0.684741 0.980989
vn -0.000000 0.500000 0.866025
v -0.110699 0.005279 0.002757
vt 0.641285 0.980989
vn -0.000000 -0.500000 0.866025
v -0.114615 0.008462 0.002757
vt 0.684741 0.998008
vn -0.000000 0.500000 0.866025
v -0.114615 0.005279 0.002757
vt 0.641285 0.998008
vn -0.000000 -0.500000 0.866026
v 0.114588 0.008462 0.002757
vt 0.684741 0.001992
vn -0.000000 0.500000 0.866026
v 0.110671 0.008462 0.002757
vt 0.684741 0.019011
vn -0.000000 0.500000 0.866025
v 0.110671 0.010054 0.000000
vt 0.722374 0.019011
vn -0.000000 1.000000 0.000000
v 0.114588 0.010054 0.000000
vt 0.722374 0.001992
vn -0.000000 1.000000 0.000000
v -0.110699 0.010054 0.000000
vt 0.722374 0.980989
vn -0.000000 1.000000 0.000000
v -0.110699 0.008462 0.002757
vt 0.684741 0.980989
vn -0.000000 0.500000 0.866025
v -0.114615 0.010054 0.000000
vt 0.722374 0.998008
vn -0.000000 1.000000 0.000000
v -0.114615 0.008462 0.002757
vt 0.684741 0.998008
vn -0.000000 0.500000 0.866025
v 0.114588 0.010054 0.000000
vt 0.722374 0.001992
vn -0.000000 1.000000 0.000000
v 0.110671 0.010054 0.000000
vt 0.722374 0.019011
vn -0.000000 1.000000 0.000000
v 0.110671 0.008462 -0.002757
vt 0.760008 0.019011
vn -0.000000 0.500000 -0.866025
v 0.114588 0.008462 -0.002757
vt 0.760008 0.001992
vn -0.000000 0.500001 -0.866025
v -0.110699 0.008462 -0.002757
vt 0.760008 0.980989
vn -0.000000 0.500000 -0.866025
v -0.110699 0.010054 0.000000
vt 0.722374 0.980989
vn -0.000000 1.000000 0.000000
v -0.114615 0.008462 -0.002757
vt 0.760008 0.998008
vn -0.000000 0.500000 -0.866026
v -0.114615 0.010054 0.000000
vt 0.722374 0.998008
vn -0.000000 1.000000 0.000000
v 0.105444 -0.004492 -0.004671
vt 0.020329 0.728103
vn 0.499999 -0.866026 0.000000
v 0.105444 -0.004492 -0.007507
vt 0.020330 0.830677
vn 0.499999 -0.866026 0.000000
v 0.103350 -0.004492 -0.007507
vt 0.096103 0.830679
vn -0.499999 -0.866026 0.000000
v 0.103350 -0.004492 -0.004671
vt 0.096108 0.728102
vn -0.499999 -0.866026 0.000000
v 0.103350 -0.004492 -0.004671
vt 0.096108 0.728102
vn -0.499999 -0.866026 0.000000
v 0.103350 -0.004492 -0.007507
vt 0.096103 0.830679
vn -0.499999 -0.866026 0.000000
v 0.102302 -0.002678 -0.007507
vt 0.171884 0.830679
vn -1.000000 0.000000 0.000000
v 0.102302 -0.002678 -0.004671
vt 0.171881 0.728101
vn -1.000000 0.000000 0.000000
v 0.102302 -0.002678 -0.004671
vt 0.171881 0.728101
vn -1.000000 0.000000 0.000000
v 0.102302 -0.002678 -0.007507
vt 0.171884 0.830679
vn -1.000000 0.000000 0.000000
v 0.103350 -0.000864 -0.007507
vt 0.247660 0.830673
vn -0.499999 0.866026 0.000000
v 0.103350 -0.000864 -0.004671
vt 0.247664 0.728105
vn -0.500000 0.866026 0.000000
v 0.103350 -0.000864 -0.004671
vt 0.247664 0.728105
vn -0.500000 0.866026 0.000000
v 0.103350 -0.000864 -0.007507
vt 0.247660 0.830673
vn -0.499999 0.866026 0.000000
v 0.105444 -0.000864 -0.007507
vt 0.323438 0.830682
vn 0.499999 0.866026 0.000000
v 0.105444 -0.000864 -0.004671
vt 0.323428 0.728099
vn 0.499999 0.866026 0.000000
v 0.105444 -0.000864 -0.004671
vt 0.323428 0.728099
vn 0.499999 0.866026 0.000000
v 0.105444 -0.000864 -0.007507
vt 0.323438 0.830682
vn 0.499999 0.866026 0.000000
v 0.106491 -0.002678 -0.007507
vt 0.399203 0.830674
vn 1.000000 0.000000 0.000000
v 0.106491 -0.002678 -0.004671
vt 0.399212 0.728107
vn 1.000000 0.000000 0.000000
v 0.106491 -0.002678 -0.004671
vt 0.399212 0.728107
vn 1.000000 0.000000 0.000000
v 0.106491 -0.002678 -0.007507
vt 0.399203 0.830674
vn 1.000000 0.000000 0.000000
v 0.105444 -0.004492 -0.007507
vt 0.474985 0.830678
vn 0.499999 -0.866026 0.000000
v 0.105444 -0.004492 -0.004671
vt 0.474985 0.728102
vn 0.499999 -0.866026 0.000000
v 0.105444 -0.004492 -0.007507
vt 0.440915 0.989344
vn -0.000000 0.000000 -1.000000
v 0.104397 -0.002678 -0.007507
vt 0.401742 0.921494
vn -0.000000 0.000000 -1.000000
v 0.103350 -0.004492 -0.007507
vt 0.362568 0.989344
vn -0.000000 0.000000 -1.000000
v 0.102302 -0.002678 -0.007507
vt 0.323395 0.921494
vn 0.000000 0.000000 -1.000000
v 0.103350 -0.000864 -0.007507
vt 0.362568 0.853644
vn 0.000000 0.000000 -1.000000
v 0.105444 -0.000864 -0.007507
vt 0.440915 0.853644
vn -0.000000 0.000000 -1.000000
v 0.106491 -0.002678 -0.007507
vt 0.480088 0.921494
vn -0.000000 0.000000 -1.000000
# Faces (1 to 207)
f -205/-205/-205 -206/-206/-206 -207/-207/-207
f -204/-204/-204 -205/-205/-205 -207/-207/-207
f -201/-201/-201 -202/-202/-202 -203/-203/-203
f -200/-200/-200 -201/-201/-201 -203/-203/-203
f -197/-197/-197 -198/-198/-198 -199/-199/-199
f -196/-196/-196 -197/-197/-197 -199/-199/-199
f -193/-193/-193 -194/-194/-194 -195/-195/-195
f -192/-192/-192 -193/-193/-193 -195/-195/-195
f -195/-195/-195 -191/-191/-191 -192/-192/-192
f -191/-191/-191 -190/-190/-190 -192/-192/-192
f -193/-193/-193 -189/-189/-189 -194/-194/-194
f -189/-189/-189 -188/-188/-188 -194/-194/-194
f -185/-185/-185 -186/-186/-186 -187/-187/-187
f -184/-184/-184 -185/-185/-185 -187/-187/-187
f -181/-181/-181 -182/-182/-182 -183/-183/-183
f -180/-180/-180 -181/-181/-181 -183/-183/-183
f -183/-183/-183 -179/-179/-179 -180/-180/-180
f -179/-179/-179 -178/-178/-178 -180/-180/-180
f -181/-181/-181 -177/-177/-177 -182/-182/-182
f -177/-177/-177 -176/-176/-176 -182/-182/-182
f -173/-173/-173 -174/-174/-174 -175/-175/-175
f -172/-172/-172 -173/-173/-173 -175/-175/-175
f -169/-169/-169 -170/-170/-170 -171/-171/-171
f -168/-168/-168 -169/-169/-169 -171/-171/-171
f -165/-165/-165 -166/-166/-166 -167/-167/-167
f -164/-164/-164 -165/-165/-165 -167/-167/-167
f -161/-161/-161 -162/-162/-162 -163/-163/-163
f -160/-160/-160 -161/-161/-161 -163/-163/-163
f -157/-157/-157 -158/-158/-158 -159/-159/-159
f -156/-156/-156 -157/-157/-157 -159/-159/-159
f -153/-153/-153 -154/-154/-154 -155/-155/-155
f -152/-152/-152 -153/-153/-153 -155/-155/-155
f -149/-149/-149 -150/-150/-150 -151/-151/-151
f -148/-148/-148 -149/-149/-149 -151/-151/-151
f -145/-145/-145 -146/-146/-146 -147/-147/-147
f -147/-147/-147 -144/-144/-144 -145/-145/-145
f -144/-144/-144 -143/-143/-143 -145/-145/-145
f -144/-144/-144 -142/-142/-142 -143/-143/-143
f -143/-143/-143 -141/-141/-141 -145/-145/-145
f -141/-141/-141 -140/-140/-140 -145/-145/-145
f -137/-137/-137 -138/-138/-138 -139/-139/-139
f -139/-139/-139 -138/-138/-138 -136/-136/-136
f -138/-138/-138 -135/-135/-135 -136/-136/-136
f -135/-135/-135 -134/-134/-134 -136/-136/-136
f -138/-138/-138 -133/-133/-133 -135/-135/-135
f -133/-133/-133 -132/-132/-132 -135/-135/-135
f -129/-129/-129 -130/-130/-130 -131/-131/-131
f -128/-128/-128 -129/-129/-129 -131/-131/-131
f -125/-125/-125 -126/-126/-126 -127/-127/-127
f -124/-124/-124 -125/-125/-125 -127/-127/-127
f -124/-124/-124 -127/-127/-127 -123/-123/-123
f -122/-122/-122 -124/-124/-124 -123/-123/-123
f -126/-126/-126 -125/-125/-125 -121/-121/-121
f -120/-120/-120 -126/-126/-126 -121/-121/-121
f -117/-117/-117 -118/-118/-118 -119/-119/-119
f -116/-116/-116 -117/-117/-117 -119/-119/-119
f -113/-113/-113 -114/-114/-114 -115/-115/-115
f -112/-112/-112 -113/-113/-113 -115/-115/-115
f -109/-109/-109 -110/-110/-110 -111/-111/-111
f -108/-108/-108 -109/-109/-109 -111/-111/-111
f -105/-105/-105 -106/-106/-106 -107/-107/-107
f -104/-104/-104 -107/-107/-107 -106/-106/-106
f -103/-103/-103 -104/-104/-104 -106/-106/-106
f -102/-102/-102 -104/-104/-104 -103/-103/-103
f -101/-101/-101 -103/-103/-103 -106/-106/-106
f -100/-100/-100 -101/-101/-101 -106/-106/-106
f -97/-97/-97 -98/-98/-98 -99/-99/-99
f -97/-97/-97 -99/-99/-99 -96/-96/-96
f -95/-95/-95 -97/-97/-97 -96/-96/-96
f -94/-94/-94 -95/-95/-95 -96/-96/-96
f -93/-93/-93 -97/-97/-97 -95/-95/-95
f -92/-92/-92 -93/-93/-93 -95/-95/-95
f -89/-89/-89 -90/-90/-90 -91/-91/-91
f -88/-88/-88 -89/-89/-89 -91/-91/-91
f -85/-85/-85 -86/-86/-86 -87/-87/-87
f -84/-84/-84 -85/-85/-85 -87/-87/-87
f -87/-87/-87 -86/-86/-86 -83/-83/-83
f -86/-86/-86 -82/-82/-82 -83/-83/-83
f -85/-85/-85 -84/-84/-84 -81/-81/-81
f -84/-84/-84 -80/-80/-80 -81/-81/-81
f -77/-77/-77 -78/-78/-78 -79/-79/-79
f -76/-76/-76 -77/-77/-77 -79/-79/-79
f -77/-77/-77 -75/-75/-75 -78/-78/-78
f -75/-75/-75 -74/-74/-74 -78/-78/-78
f -75/-75/-75 -73/-73/-73 -74/-74/-74
f -73/-73/-73 -72/-72/-72 -74/-74/-74
f -69/-69/-69 -70/-70/-70 -71/-71/-71
f -68/-68/-68 -69/-69/-69 -71/-71/-71
f -69/-69/-69 -67/-67/-67 -70/-70/-70
f -67/-67/-67 -66/-66/-66 -70/-70/-70
f -67/-67/-67 -65/-65/-65 -66/-66/-66
f -65/-65/-65 -64/-64/-64 -66/-66/-66
f -61/-61/-61 -62/-62/-62 -63/-63/-63
f -60/-60/-60 -61/-61/-61 -63/-63/-63
f -61/-61/-61 -59/-59/-59 -62/-62/-62
f -59/-59/-59 -58/-58/-58 -62/-62/-62
f -59/-59/-59 -57/-57/-57 -58/-58/-58
f -57/-57/-57 -56/-56/-56 -58/-58/-58
f -53/-53/-53 -54/-54/-54 -55/-55/-55
f -52/-52/-52 -53/-53/-53 -55/-55/-55
f -53/-53/-53 -51/-51/-51 -54/-54/-54
f -51/-51/-51 -50/-50/-50 -54/-54/-54
f -51/-51/-51 -49/-49/-49 -50/-50/-50
f -49/-49/-49 -48/-48/-48 -50/-50/-50
f -45/-45/-45 -46/-46/-46 -47/-47/-47
f -44/-44/-44 -45/-45/-45 -47/-47/-47
f -45/-45/-45 -43/-43/-43 -46/-46/-46
f -43/-43/-43 -42/-42/-42 -46/-46/-46
f -43/-43/-43 -41/-41/-41 -42/-42/-42
f -41/-41/-41 -40/-40/-40 -42/-42/-42
f -37/-37/-37 -38/-38/-38 -39/-39/-39
f -36/-36/-36 -37/-37/-37 -39/-39/-39
f -37/-37/-37 -35/-35/-35 -38/-38/-38
f -35/-35/-35 -34/-34/-34 -38/-38/-38
f -35/-35/-35 -33/-33/-33 -34/-34/-34
f -33/-33/-33 -32/-32/-32 -34/-34/-34
f -29/-29/-29 -30/-30/-30 -31/-31/-31
f -28/-28/-28 -29/-29/-29 -31/-31/-31
f -25/-25/-25 -26/-26/-26 -27/-27/-27
f -24/-24/-24 -25/-25/-25 -27/-27/-27
f -21/-21/-21 -22/-22/-22 -23/-23/-23
f -20/-20/-20 -21/-21/-21 -23/-23/-23
f -17/-17/-17 -18/-18/-18 -19/-19/-19
f -16/-16/-16 -17/-17/-17 -19/-19/-19
f -13/-13/-13 -14/-14/-14 -15/-15/-15
f -12/-12/-12 -13/-13/-13 -15/-15/-15
f -9/-9/-9 -10/-10/-10 -11/-11/-11
f -8/-8/-8 -9/-9/-9 -11/-11/-11
f -5/-5/-5 -6/-6/-6 -7/-7/-7
f -4/-4/-4 -6/-6/-6 -5/-5/-5
f -3/-3/-3 -6/-6/-6 -4/-4/-4
f -2/-2/-2 -6/-6/-6 -3/-3/-3
f -1/-1/-1 -6/-6/-6 -2/-2/-2
f -7/-7/-7 -6/-6/-6 -1/-1/-1

