# Mesh "no_smoking" exported with Unity Assets Bundle Extractor; 20 vertices, 30 indices, 48 bytes per vertex
g no_smoking
# SubMesh 0
# Vertices
v -0.133413 -0.201130 0.001818
vt 0.904053 0.740085
vn -0.000000 0.000000 1.000000
v -0.133413 0.201130 0.001818
vt 0.903976 0.993257
vn -0.000000 0.000000 1.000000
v 0.133413 0.201130 0.001818
vt 0.998709 0.993220
vn -0.000000 0.000000 1.000000
v 0.133413 -0.201130 0.001818
vt 0.998647 0.740231
vn -0.000000 0.000000 1.000000
v -0.133413 0.201130 0.001818
vt 0.992930 0.821955
vn -0.000000 1.000000 0.000000
v -0.133413 0.201130 -0.001818
vt 0.992488 0.821955
vn -0.000000 1.000000 0.000000
v 0.133413 0.201130 -0.001818
vt 0.992488 0.936238
vn -0.000000 1.000000 0.000000
v 0.133413 0.201130 0.001818
vt 0.992930 0.936238
vn -0.000000 1.000000 0.000000
v -0.133413 -0.201130 -0.001818
vt 0.991586 0.821955
vn -0.000000 -1.000000 0.000000
v -0.133413 -0.201130 0.001818
vt 0.991144 0.821955
vn -0.000000 -1.000000 0.000000
v 0.133413 -0.201130 0.001818
vt 0.991144 0.936238
vn -0.000000 -1.000000 0.000000
v 0.133413 -0.201130 -0.001818
vt 0.991586 0.936238
vn -0.000000 -1.000000 0.000000
v 0.133413 -0.201130 0.001818
vt 0.993487 0.980788
vn 1.000000 0.000000 0.000000
v 0.133413 0.201130 0.001818
vt 0.993486 0.938244
vn 1.000000 0.000000 0.000000
v 0.133413 0.201130 -0.001818
vt 0.993045 0.938244
vn 1.000000 0.000000 0.000000
v 0.133413 -0.201130 -0.001818
vt 0.993045 0.980788
vn 1.000000 0.000000 0.000000
v -0.133413 -0.201130 -0.001818
vt 0.992143 0.980788
vn -1.000000 0.000000 0.000000
v -0.133413 0.201130 -0.001818
vt 0.992143 0.938244
vn -1.000000 0.000000 0.000000
v -0.133413 0.201130 0.001818
vt 0.991701 0.938245
vn -1.000000 0.000000 0.000000
v -0.133413 -0.201130 0.001818
vt 0.991701 0.980788
vn -1.000000 0.000000 0.000000
# Faces (1 to 20)
f -18/-18/-18 -19/-19/-19 -20/-20/-20
f -17/-17/-17 -18/-18/-18 -20/-20/-20
f -14/-14/-14 -15/-15/-15 -16/-16/-16
f -13/-13/-13 -14/-14/-14 -16/-16/-16
f -10/-10/-10 -11/-11/-11 -12/-12/-12
f -9/-9/-9 -10/-10/-10 -12/-12/-12
f -6/-6/-6 -7/-7/-7 -8/-8/-8
f -5/-5/-5 -6/-6/-6 -8/-8/-8
f -2/-2/-2 -3/-3/-3 -4/-4/-4
f -1/-1/-1 -2/-2/-2 -4/-4/-4

