# Mesh "Number_4" exported with Unity Assets Bundle Extractor; 14 vertices, 42 indices, 48 bytes per vertex
g Number_4
# SubMesh 0
# Vertices
v -0.000000 -0.000603 0.000927
vt 0.000000 0.235097
vn -1.000000 0.000000 0.000000
v -0.000000 -0.000603 0.000621
vt 0.165160 0.235097
vn -1.000000 0.000000 0.000000
v -0.000000 -0.000194 0.000621
vt 0.165160 0.414601
vn -1.000000 0.000000 0.000000
v -0.000000 -0.000194 0.000927
vt 0.000000 0.414601
vn -1.000000 0.000000 0.000000
v 0.000000 -0.000194 0.000071
vt 0.461791 0.414601
vn -1.000000 0.000000 0.000000
v 0.000000 -0.000603 0.000071
vt 0.461791 0.235097
vn -1.000000 0.000000 0.000000
v -0.000000 -0.000603 -0.000927
vt 1.000000 0.235097
vn -1.000000 0.000000 0.000000
v -0.000000 -0.000194 -0.000504
vt 0.771569 0.414601
vn -1.000000 0.000000 0.000000
v -0.000000 -0.001138 0.000621
vt 0.165160 0.000000
vn -1.000000 0.000000 0.000000
v 0.000000 -0.001138 0.000071
vt 0.461791 0.000000
vn -1.000000 0.000000 0.000000
v 0.000000 0.000578 0.000071
vt 0.461791 0.754186
vn -1.000000 0.000000 0.000000
v -0.000000 0.001138 0.000621
vt 0.165160 1.000000
vn -1.000000 0.000000 0.000000
v -0.000000 0.001138 0.000053
vt 0.471652 1.000000
vn -1.000000 0.000000 0.000000
v -0.000000 -0.000179 -0.000927
vt 1.000000 0.421299
vn -1.000000 0.000000 0.000000
# Faces (1 to 14)
f -12/-12/-12 -13/-13/-13 -14/-14/-14
f -11/-11/-11 -12/-12/-12 -14/-14/-14
f -12/-12/-12 -10/-10/-10 -13/-13/-13
f -10/-10/-10 -9/-9/-9 -13/-13/-13
f -9/-9/-9 -10/-10/-10 -8/-8/-8
f -10/-10/-10 -7/-7/-7 -8/-8/-8
f -13/-13/-13 -9/-9/-9 -6/-6/-6
f -9/-9/-9 -5/-5/-5 -6/-6/-6
f -4/-4/-4 -10/-10/-10 -12/-12/-12
f -3/-3/-3 -4/-4/-4 -12/-12/-12
f -3/-3/-3 -2/-2/-2 -4/-4/-4
f -4/-4/-4 -2/-2/-2 -1/-1/-1
f -7/-7/-7 -4/-4/-4 -1/-1/-1
f -7/-7/-7 -1/-1/-1 -8/-8/-8

