# Mesh "Number_Open" exported with Unity Assets Bundle Extractor; 12 vertices, 24 indices, 48 bytes per vertex
g Number_Open
# SubMesh 0
# Vertices
v -0.000000 0.000972 -0.000072
vt 1.000000 1.000000
vn -1.000000 0.000000 0.000000
v -0.000000 0.000555 -0.000072
vt 1.000000 0.785381
vn -1.000000 0.000000 0.000000
v -0.000000 -0.000001 -0.000834
vt 0.300796 0.499611
vn -1.000000 0.000000 0.000000
v -0.000000 0.000000 -0.001266
vt 0.000000 0.500000
vn -1.000000 0.000000 0.000000
v -0.000000 -0.000972 -0.000072
vt 1.000000 0.000000
vn -1.000000 0.000000 0.000000
v -0.000000 -0.000554 -0.000072
vt 1.000000 0.214619
vn -1.000000 0.000000 0.000000
v -0.000000 -0.000972 0.000072
vt 1.000000 1.000000
vn -1.000000 0.000000 0.000000
v -0.000000 -0.000555 0.000072
vt 1.000000 0.785381
vn -1.000000 0.000000 0.000000
v -0.000000 0.000001 0.000834
vt 0.300796 0.499611
vn -1.000000 0.000000 0.000000
v -0.000000 -0.000000 0.001266
vt 0.000000 0.500000
vn -1.000000 0.000000 0.000000
v -0.000000 0.000972 0.000072
vt 1.000000 0.000000
vn -1.000000 0.000000 0.000000
v -0.000000 0.000555 0.000072
vt 1.000000 0.214619
vn -1.000000 0.000000 0.000000
# Faces (1 to 12)
f -10/-10/-10 -11/-11/-11 -12/-12/-12
f -9/-9/-9 -10/-10/-10 -12/-12/-12
f -9/-9/-9 -8/-8/-8 -10/-10/-10
f -8/-8/-8 -7/-7/-7 -10/-10/-10
f -4/-4/-4 -5/-5/-5 -6/-6/-6
f -3/-3/-3 -4/-4/-4 -6/-6/-6
f -3/-3/-3 -2/-2/-2 -4/-4/-4
f -2/-2/-2 -1/-1/-1 -4/-4/-4

