# Mesh "Number_7" exported with Unity Assets Bundle Extractor; 7 vertices, 15 indices, 48 bytes per vertex
g Number_7
# SubMesh 0
# Vertices
v -0.000000 0.000779 0.000273
vt 0.648402 0.811283
vn -1.000000 0.000000 0.000000
v 0.000000 0.000779 -0.000919
vt 0.055556 0.811688
vn -1.000000 0.000000 0.000000
v 0.000000 0.001250 -0.000919
vt 0.000000 1.000000
vn -1.000000 0.000000 0.000000
v 0.000000 0.001250 0.000919
vt 1.000000 1.000000
vn -1.000000 0.000000 0.000000
v 0.000000 0.000753 0.000919
vt 1.000000 0.801209
vn -1.000000 0.000000 0.000000
v 0.000000 -0.001250 -0.000145
vt 0.421005 0.000000
vn -1.000000 0.000000 0.000000
v -0.000000 -0.001250 -0.000844
vt 0.041096 0.000000
vn -1.000000 0.000000 0.000000
# Faces (1 to 7)
f -5/-5/-5 -6/-6/-6 -7/-7/-7
f -4/-4/-4 -5/-5/-5 -7/-7/-7
f -3/-3/-3 -4/-4/-4 -7/-7/-7
f -2/-2/-2 -3/-3/-3 -7/-7/-7
f -1/-1/-1 -2/-2/-2 -7/-7/-7

