# Mesh "Number_Close" exported with Unity Assets Bundle Extractor; 16 vertices, 30 indices, 48 bytes per vertex
g Number_Close
# SubMesh 0
# Vertices
v 0.000027 -0.000938 -0.001499
vt 1.000000 1.000000
vn -1.000000 0.000000 0.000000
v 0.000027 -0.000521 -0.001499
vt 1.000000 0.785381
vn -1.000000 0.000000 0.000000
v 0.000027 0.000035 -0.000738
vt 0.300796 0.499611
vn -1.000000 0.000000 0.000000
v 0.000027 0.000034 -0.000305
vt 0.000000 0.500000
vn -1.000000 0.000000 0.000000
v 0.000027 0.001006 -0.001499
vt 1.000000 0.000000
vn -1.000000 0.000000 0.000000
v 0.000027 0.000589 -0.001499
vt 1.000000 0.214619
vn -1.000000 0.000000 0.000000
v 0.000029 0.001472 0.000225
vt 1.000000 1.000000
vn -1.000000 0.000000 0.000000
v 0.000029 -0.001472 0.000225
vt 1.000000 0.000000
vn -1.000000 0.000000 0.000000
v 0.000029 -0.001472 -0.000200
vt 0.000000 0.000000
vn -1.000000 0.000000 0.000000
v 0.000029 0.001472 -0.000200
vt 0.000000 1.000000
vn -1.000000 0.000000 0.000000
v 0.000027 0.001006 0.001499
vt 1.000000 1.000000
vn -1.000000 0.000000 0.000000
v 0.000027 0.000589 0.001499
vt 1.000000 0.785381
vn -1.000000 0.000000 0.000000
v 0.000027 0.000033 0.000738
vt 0.300796 0.499611
vn -1.000000 0.000000 0.000000
v 0.000027 0.000034 0.000305
vt 0.000000 0.500000
vn -1.000000 0.000000 0.000000
v 0.000027 -0.000937 0.001499
vt 1.000000 0.000000
vn -1.000000 0.000000 0.000000
v 0.000027 -0.000520 0.001499
vt 1.000000 0.214619
vn -1.000000 0.000000 0.000000
# Faces (1 to 16)
f -14/-14/-14 -15/-15/-15 -16/-16/-16
f -13/-13/-13 -14/-14/-14 -16/-16/-16
f -13/-13/-13 -12/-12/-12 -14/-14/-14
f -12/-12/-12 -11/-11/-11 -14/-14/-14
f -8/-8/-8 -9/-9/-9 -10/-10/-10
f -7/-7/-7 -8/-8/-8 -10/-10/-10
f -4/-4/-4 -5/-5/-5 -6/-6/-6
f -3/-3/-3 -4/-4/-4 -6/-6/-6
f -3/-3/-3 -2/-2/-2 -4/-4/-4
f -2/-2/-2 -1/-1/-1 -4/-4/-4

