# Mesh "office_desk" exported with Unity Assets Bundle Extractor; 217 vertices, 354 indices, 56 bytes per vertex
g office_desk
# SubMesh 0
# Vertices
v -0.302013 0.264572 -1.039958
vt 0.974099 0.676837
vn -0.000000 0.000000 -1.000000
v -0.286374 0.264572 -1.039958
vt 0.974100 0.673286
vn -0.000000 0.000000 -1.000000
v -0.286374 0.462839 -1.039958
vt 0.929065 0.673283
vn -0.000000 0.000000 -1.000000
v -0.302013 0.462839 -1.039958
vt 0.929064 0.676836
vn -0.000000 0.000000 -1.000000
v -0.286374 0.264572 -1.039958
vt 0.974112 0.963786
vn 1.000000 0.000000 0.000000
v -0.286374 0.264572 -0.416125
vt 0.974100 0.822085
vn 1.000000 0.000000 0.000000
v -0.286374 0.462839 -0.416125
vt 0.929065 0.822091
vn 1.000000 0.000000 0.000000
v -0.286374 0.462839 -1.039958
vt 0.929077 0.963790
vn 1.000000 0.000000 0.000000
v -0.286374 0.264572 -0.416125
vt 0.974100 0.822085
vn -0.000000 0.000000 1.000000
v -0.302013 0.264572 -0.416125
vt 0.974099 0.818534
vn -0.000000 0.000000 1.000000
v -0.302013 0.462839 -0.416125
vt 0.929064 0.818538
vn -0.000000 0.000000 1.000000
v -0.286374 0.462839 -0.416125
vt 0.929065 0.822091
vn -0.000000 0.000000 1.000000
v -0.302013 0.264572 -0.416125
vt 0.974099 0.818534
vn -1.000000 0.000000 0.000000
v -0.302013 0.264572 -1.039958
vt 0.974099 0.676837
vn -1.000000 0.000000 0.000000
v -0.302013 0.462839 -1.039958
vt 0.929064 0.676836
vn -1.000000 0.000000 0.000000
v -0.302013 0.462839 -0.416125
vt 0.929064 0.818538
vn -1.000000 0.000000 0.000000
v -0.302013 0.462839 -1.039958
vt 0.929064 0.676836
vn -0.000000 1.000000 0.000000
v -0.286374 0.462839 -1.039958
vt 0.925512 0.676836
vn -0.000000 1.000000 0.000000
v -0.286374 0.462839 -0.416125
vt 0.925512 0.818536
vn -0.000000 1.000000 0.000000
v -0.302013 0.462839 -0.416125
vt 0.929064 0.818538
vn -0.000000 1.000000 0.000000
v 0.495834 0.510017 1.136105
vt 0.177998 0.706755
vn 1.000000 0.000000 0.000000
v 0.495834 0.543735 1.136105
vt 0.173805 0.706755
vn 1.000000 0.000000 0.000000
v 0.495834 0.543735 -1.136104
vt 0.173805 0.989274
vn 1.000000 0.000000 0.000000
v 0.495834 0.510017 -1.136104
vt 0.177998 0.989274
vn 1.000000 0.000000 0.000000
v -0.512731 0.543735 1.136105
vt 0.307591 0.706754
vn -1.000000 0.000000 0.000000
v -0.512731 0.510017 1.136105
vt 0.303399 0.706754
vn -1.000000 0.000000 0.000000
v -0.512731 0.510017 -1.136104
vt 0.303399 0.989273
vn -1.000000 0.000000 0.000000
v -0.512731 0.543735 -1.136104
vt 0.307592 0.989274
vn -1.000000 0.000000 0.000000
v -0.512731 0.510017 1.136105
vt 0.303399 0.706754
vn -0.000000 -1.000000 0.000000
v 0.495834 0.510017 1.136105
vt 0.177998 0.706755
vn -0.000000 -1.000000 0.000000
v 0.495834 0.510017 -1.136104
vt 0.177998 0.989274
vn -0.000000 -1.000000 0.000000
v -0.512731 0.510017 -1.136104
vt 0.303399 0.989273
vn -0.000000 -1.000000 0.000000
v 0.495834 0.510017 -1.136104
vt 0.177998 0.989274
vn -0.000000 0.000000 -1.000000
v 0.495834 0.543735 -1.136104
vt 0.177998 0.993466
vn -0.000000 0.000000 -1.000000
v -0.512731 0.543735 -1.136104
vt 0.303400 0.993466
vn -0.000000 0.000000 -1.000000
v -0.512731 0.510017 -1.136104
vt 0.303399 0.989273
vn -0.000000 0.000000 -1.000000
v -0.512731 0.510017 1.136105
vt 0.303399 0.706754
vn -0.000000 0.000000 1.000000
v -0.512731 0.543735 1.136105
vt 0.303399 0.702562
vn -0.000000 0.000000 1.000000
v 0.495834 0.543735 1.136105
vt 0.177997 0.702562
vn -0.000000 0.000000 1.000000
v 0.495834 0.510017 1.136105
vt 0.177998 0.706755
vn -0.000000 0.000000 1.000000
v 0.495834 -0.560262 1.072333
vt 0.330232 0.773953
vn 1.000000 0.000000 0.000000
v 0.495834 -0.560262 1.098435
vt 0.330232 0.779391
vn 1.000000 0.000000 0.000000
v 0.495834 0.515456 1.098435
vt 0.554348 0.779391
vn 1.000000 0.000000 0.000000
v 0.495834 0.515456 1.072333
vt 0.554348 0.773953
vn 1.000000 0.000000 0.000000
v 0.495834 -0.560262 1.098435
vt 0.330232 0.779391
vn -0.000000 0.000000 1.000000
v -0.512731 -0.560262 1.098435
vt 0.330232 0.989517
vn -0.000000 0.000000 1.000000
v -0.512731 0.515456 1.098435
vt 0.554348 0.989517
vn -0.000000 0.000000 1.000000
v 0.495834 0.515456 1.098435
vt 0.554348 0.779391
vn -0.000000 0.000000 1.000000
v -0.512731 -0.560262 1.098435
vt 0.330232 0.989517
vn -1.000000 0.000000 0.000000
v -0.512731 -0.560263 1.072333
vt 0.330232 0.994955
vn -1.000000 0.000000 0.000000
v -0.512731 0.515456 1.072333
vt 0.554348 0.994955
vn -1.000000 0.000000 0.000000
v -0.512731 0.515456 1.098435
vt 0.554348 0.989517
vn -1.000000 0.000000 0.000000
v -0.512731 -0.560263 1.072333
vt 0.330232 0.563828
vn -0.000000 0.000000 -1.000000
v 0.495834 -0.560262 1.072333
vt 0.330232 0.773953
vn -0.000000 0.000000 -1.000000
v 0.495834 0.515456 1.072333
vt 0.554348 0.773953
vn -0.000000 0.000000 -1.000000
v -0.512731 0.515456 1.072333
vt 0.554348 0.563828
vn -0.000000 0.000000 -1.000000
v 0.495834 0.515456 1.072333
vt 0.559786 0.779391
vn -0.000000 1.000000 0.000000
v 0.495834 0.515456 1.098435
vt 0.554348 0.779391
vn -0.000000 1.000000 0.000000
v -0.512731 0.515456 1.098435
vt 0.554348 0.989517
vn -0.000000 1.000000 0.000000
v -0.512731 0.515456 1.072333
vt 0.559786 0.989517
vn -0.000000 1.000000 0.000000
v 0.495834 -0.560262 1.072333
vt 0.330232 0.773953
vn -0.000000 -1.000000 0.000000
v -0.512731 -0.560263 1.072333
vt 0.330232 0.563828
vn -0.000000 -1.000000 0.000000
v -0.512731 -0.560262 1.098435
vt 0.324794 0.563828
vn -0.000000 -1.000000 0.000000
v 0.495834 -0.560262 1.098435
vt 0.324794 0.773953
vn -0.000000 -1.000000 0.000000
v 0.495834 0.541425 1.165295
vt 0.888963 0.991240
vn 0.518502 -0.855077 0.000000
v 0.504320 0.546571 1.173902
vt 0.889780 0.992608
vn 0.923942 -0.382534 0.000000
v 0.504320 0.546571 -1.173902
vt 0.889780 0.619356
vn 0.923942 -0.382534 0.000000
v 0.495834 0.541425 -1.165296
vt 0.888963 0.620724
vn 0.518502 -0.855077 0.000000
v 0.495834 0.560262 1.165295
vt 0.565287 0.991240
vn -0.000000 1.000000 0.000000
v -0.512731 0.560262 1.165295
vt 0.725627 0.991240
vn -0.000000 1.000000 0.000000
v -0.512731 0.560262 -1.165296
vt 0.725627 0.620724
vn -0.000000 1.000000 0.000000
v 0.495834 0.560262 -1.165296
vt 0.565287 0.620724
vn -0.000000 1.000000 0.000000
v -0.521216 0.546571 1.173902
vt 0.727804 0.992608
vn -0.923944 -0.382529 0.000000
v -0.512731 0.541425 1.165295
vt 0.728622 0.991240
vn -0.518503 -0.855076 0.000000
v -0.512731 0.541425 -1.165296
vt 0.728622 0.620724
vn -0.518503 -0.855076 0.000000
v -0.521216 0.546571 -1.173902
vt 0.727804 0.619356
vn -0.923943 -0.382531 0.000000
v -0.512731 0.541425 1.165295
vt 0.728622 0.991240
vn -0.000000 -1.000000 0.000000
v 0.495834 0.541425 1.165295
vt 0.888963 0.991240
vn -0.000000 -1.000000 0.000000
v 0.495834 0.541425 -1.165296
vt 0.888963 0.620724
vn -0.000000 -1.000000 0.000000
v -0.512731 0.541425 -1.165296
vt 0.728622 0.620724
vn -0.000000 -1.000000 0.000000
v 0.495834 0.541425 -1.165296
vt 0.888963 0.620724
vn -0.000000 -0.858288 -0.513168
v 0.504320 0.546571 -1.173902
vt 0.890311 0.619356
vn -0.000000 -0.389456 -0.921045
v -0.521216 0.546571 -1.173902
vt 0.727273 0.619356
vn -0.000000 -0.389456 -0.921045
v -0.512731 0.541425 -1.165296
vt 0.728622 0.620724
vn -0.000000 -0.858288 -0.513168
v -0.512731 0.541425 1.165295
vt 0.728622 0.991240
vn -0.000000 -0.858287 0.513170
v -0.521216 0.546571 1.173902
vt 0.727273 0.992608
vn -0.000000 -0.389464 0.921042
v 0.504320 0.546571 1.173902
vt 0.890311 0.992608
vn -0.000000 -0.389463 0.921042
v 0.495834 0.541425 1.165295
vt 0.888963 0.991240
vn -0.000000 -0.858287 0.513170
v 0.504320 0.554909 1.173902
vt 0.891106 0.992608
vn 0.924672 0.380765 0.000000
v 0.495834 0.560262 1.165295
vt 0.891957 0.991240
vn 0.533598 0.845738 0.000000
v 0.495834 0.560262 -1.165296
vt 0.891957 0.620725
vn 0.533598 0.845738 0.000000
v 0.504320 0.554909 -1.173902
vt 0.891106 0.619356
vn 0.924672 0.380765 0.000000
v -0.521216 0.554909 1.173902
vt 0.726976 0.992608
vn -0.000000 0.387589 0.921832
v -0.512731 0.560262 1.165295
vt 0.725627 0.991240
vn -0.000000 0.849104 0.528225
v 0.495834 0.560262 1.165295
vt 0.565287 0.991240
vn -0.000000 0.849104 0.528225
v 0.504320 0.554909 1.173902
vt 0.563938 0.992608
vn -0.000000 0.387588 0.921833
v -0.512731 0.560262 1.165295
vt 0.725627 0.991240
vn -0.533599 0.845737 0.000000
v -0.521216 0.554909 1.173902
vt 0.726478 0.992608
vn -0.924674 0.380760 0.000000
v -0.521216 0.554909 -1.173902
vt 0.726478 0.619356
vn -0.924675 0.380758 0.000000
v -0.512731 0.560262 -1.165296
vt 0.725627 0.620724
vn -0.533599 0.845737 0.000000
v 0.504320 0.554909 -1.173902
vt 0.563938 0.619356
vn -0.000000 0.387600 -0.921828
v 0.495834 0.560262 -1.165296
vt 0.565287 0.620724
vn -0.000000 0.849105 -0.528224
v -0.512731 0.560262 -1.165296
vt 0.725627 0.620724
vn -0.000000 0.849105 -0.528224
v -0.521216 0.554909 -1.173902
vt 0.726976 0.619356
vn -0.000000 0.387600 -0.921828
v 0.504320 0.546571 1.173902
vt 0.889780 0.992608
vn 0.923942 -0.382534 0.000000
v 0.504320 0.554909 1.173902
vt 0.891106 0.992608
vn 0.924672 0.380765 0.000000
v 0.504320 0.554909 -1.173902
vt 0.891106 0.619356
vn 0.924672 0.380765 0.000000
v 0.504320 0.546571 -1.173902
vt 0.889780 0.619356
vn 0.923942 -0.382534 0.000000
v -0.521216 0.546571 1.173902
vt 0.727273 0.992608
vn -0.000000 -0.389464 0.921042
v -0.521216 0.554909 1.173902
vt 0.727273 0.993933
vn -0.000000 0.387589 0.921832
v 0.504320 0.554909 1.173902
vt 0.890311 0.993934
vn -0.000000 0.387588 0.921833
v 0.504320 0.546571 1.173902
vt 0.890311 0.992608
vn -0.000000 -0.389463 0.921042
v -0.521216 0.554909 1.173902
vt 0.726478 0.992608
vn -0.924674 0.380760 0.000000
v -0.521216 0.546571 1.173902
vt 0.727804 0.992608
vn -0.923944 -0.382529 0.000000
v -0.521216 0.546571 -1.173902
vt 0.727804 0.619356
vn -0.923943 -0.382531 0.000000
v -0.521216 0.554909 -1.173902
vt 0.726478 0.619356
vn -0.924675 0.380758 0.000000
v 0.504320 0.546571 -1.173902
vt 0.563938 0.618031
vn -0.000000 -0.389456 -0.921045
v 0.504320 0.554909 -1.173902
vt 0.563938 0.619356
vn -0.000000 0.387600 -0.921828
v -0.521216 0.554909 -1.173902
vt 0.726976 0.619356
vn -0.000000 0.387600 -0.921828
v -0.521216 0.546571 -1.173902
vt 0.726976 0.618031
vn -0.000000 -0.389456 -0.921045
v 0.493990 -0.560262 -1.096216
vt 0.776896 0.611892
vn 1.000000 0.000000 0.000000
v 0.493990 -0.560262 -1.070114
vt 0.782334 0.611892
vn 1.000000 0.000000 0.000000
v 0.493990 0.515456 -1.070114
vt 0.782334 0.387775
vn 1.000000 0.000000 0.000000
v 0.493990 0.515456 -1.096216
vt 0.776896 0.387776
vn 1.000000 0.000000 0.000000
v 0.493990 -0.560262 -1.070114
vt 0.782334 0.611892
vn -0.000000 0.000000 1.000000
v -0.512731 -0.560262 -1.070114
vt 0.992076 0.611892
vn -0.000000 0.000000 1.000000
v -0.512731 0.515456 -1.070114
vt 0.992076 0.387776
vn -0.000000 0.000000 1.000000
v 0.493990 0.515456 -1.070114
vt 0.782334 0.387775
vn -0.000000 0.000000 1.000000
v -0.512731 -0.560262 -1.070114
vt 0.561716 0.611892
vn -1.000000 0.000000 0.000000
v -0.512731 -0.560263 -1.096216
vt 0.567155 0.611892
vn -1.000000 0.000000 0.000000
v -0.512731 0.515456 -1.096216
vt 0.567155 0.387776
vn -1.000000 0.000000 0.000000
v -0.512731 0.515456 -1.070114
vt 0.561716 0.387776
vn -1.000000 0.000000 0.000000
v -0.512731 -0.560263 -1.096216
vt 0.567155 0.611892
vn -0.000000 0.000000 -1.000000
v 0.493990 -0.560262 -1.096216
vt 0.776896 0.611892
vn -0.000000 0.000000 -1.000000
v 0.493990 0.515456 -1.096216
vt 0.776896 0.387776
vn -0.000000 0.000000 -1.000000
v -0.512731 0.515456 -1.096216
vt 0.567155 0.387776
vn -0.000000 0.000000 -1.000000
v 0.493990 0.515456 -1.096216
vt 0.776896 0.387776
vn -0.000000 1.000000 0.000000
v 0.493990 0.515456 -1.070114
vt 0.776896 0.382338
vn -0.000000 1.000000 0.000000
v -0.512731 0.515456 -1.070114
vt 0.567154 0.382337
vn -0.000000 1.000000 0.000000
v -0.512731 0.515456 -1.096216
vt 0.567155 0.387776
vn -0.000000 1.000000 0.000000
v 0.493990 -0.560262 -1.096216
vt 0.782334 0.617331
vn -0.000000 -1.000000 0.000000
v -0.512731 -0.560263 -1.096216
vt 0.992076 0.617330
vn -0.000000 -1.000000 0.000000
v -0.512731 -0.560262 -1.070114
vt 0.992076 0.611892
vn -0.000000 -1.000000 0.000000
v 0.493990 -0.560262 -1.070114
vt 0.782334 0.611892
vn -0.000000 -1.000000 0.000000
v 0.482110 0.263610 -0.413821
vt 0.053430 0.353221
vn 1.000000 0.000000 0.000000
v 0.482110 0.525570 -0.389605
vt 0.049810 0.392386
vn 1.000000 0.000000 0.000000
v 0.482110 0.482418 -0.413821
vt 0.053430 0.385935
vn 1.000000 0.000000 0.000000
v 0.482110 0.237428 -0.413821
vt 0.053430 0.349307
vn 1.000000 0.000000 0.000000
v 0.482110 -0.468417 -0.389605
vt 0.049810 0.243777
vn 1.000000 0.000000 -0.000004
v 0.482110 -0.441919 -0.413821
vt 0.053430 0.247738
vn 1.000000 0.000000 0.000000
v 0.482110 -0.468417 -1.079757
vt 0.152994 0.243777
vn 1.000000 0.000000 0.000000
v 0.482110 -0.441919 -1.043716
vt 0.147605 0.247738
vn 1.000000 0.000000 0.000000
v 0.482110 0.237428 -1.043716
vt 0.147605 0.349307
vn 1.000000 0.000000 0.000000
v 0.482110 0.263610 -1.043716
vt 0.147605 0.353221
vn 1.000000 0.000000 0.000000
v 0.482110 0.482418 -1.043716
vt 0.147605 0.385935
vn 1.000000 0.000000 0.000000
v 0.482110 0.525570 -1.079757
vt 0.152994 0.392386
vn 1.000000 0.000000 0.000000
v -0.499007 -0.468417 -1.079757
vt 0.299679 0.243776
vn -0.000000 0.000000 -1.000000
v 0.482110 -0.468417 -1.079757
vt 0.152994 0.243777
vn -0.000000 0.000000 -1.000000
v 0.482110 0.525570 -1.079757
vt 0.152994 0.392386
vn -0.000000 0.000000 -1.000000
v -0.499007 0.525570 -1.079757
vt 0.299679 0.392386
vn -0.000000 0.000000 -1.000000
v -0.499007 -0.468417 -0.389605
vt 0.402863 0.243777
vn -1.000000 0.000000 0.000000
v -0.499007 0.052069 -0.728769
vt 0.352155 0.321594
vn -1.000000 0.000000 0.000000
v -0.499007 0.525570 -0.389605
vt 0.402863 0.392385
vn -1.000000 0.000000 0.000000
v -0.499007 0.525570 -1.079757
vt 0.299679 0.392386
vn -1.000000 0.000000 0.000000
v -0.499007 -0.468417 -1.079757
vt 0.299679 0.243776
vn -1.000000 0.000000 0.000000
v -0.499007 -0.468417 -0.389605
vt 0.402863 0.243777
vn -0.000000 0.000000 1.000000
v -0.499007 0.525570 -0.389605
vt 0.402863 0.392385
vn -0.000000 0.000000 1.000000
v 0.482110 0.525570 -0.389605
vt 0.549548 0.392388
vn -0.000000 0.000000 1.000000
v 0.482110 -0.468417 -0.389605
vt 0.549549 0.243777
vn -0.000000 0.000000 1.000000
v -0.468600 -0.441919 -1.043716
vt 0.008892 0.641060
vn 1.000000 0.000000 0.000000
v -0.468601 -0.441919 -0.413821
vt 0.103067 0.641060
vn 1.000000 0.000000 0.000000
v -0.468601 0.237428 -0.413821
vt 0.103068 0.539492
vn 1.000000 0.000000 0.000000
v -0.468600 0.237428 -1.043716
vt 0.008893 0.539491
vn 1.000000 0.000000 0.000000
v -0.468600 0.263610 -1.043716
vt 0.429217 0.096902
vn 1.000000 0.000000 0.000000
v -0.468601 0.263610 -0.413821
vt 0.523391 0.096900
vn 1.000000 0.000000 0.000000
v -0.468601 0.482418 -0.413821
vt 0.523390 0.064184
vn 1.000000 0.000000 0.000000
v -0.468600 0.482418 -1.043716
vt 0.429214 0.064190
vn 1.000000 0.000000 0.000000
v 0.482110 0.525570 -1.079757
vt 0.549544 0.495574
vn -0.000000 1.000000 0.000000
v 0.482110 0.525570 -0.389605
vt 0.549548 0.392388
vn -0.000000 1.000000 0.000000
v -0.499007 0.525570 -0.389605
vt 0.402863 0.392385
vn -0.000000 1.000000 0.000000
v -0.499007 0.525570 -1.079757
vt 0.402859 0.495568
vn -0.000000 1.000000 0.000000
v 0.482110 -0.441919 -1.043716
vt 0.298811 0.397352
vn -0.000000 0.000000 1.000000
v -0.468600 -0.441919 -1.043716
vt 0.298811 0.539492
vn -0.000000 0.000000 1.000000
v -0.468600 0.237428 -1.043716
vt 0.400379 0.539492
vn -0.000000 0.000000 1.000000
v 0.482110 0.237428 -1.043716
vt 0.400380 0.397352
vn -0.000000 0.000000 1.000000
v 0.482110 0.237428 -1.043716
vt 0.008893 0.397352
vn -0.000000 -1.000000 0.000000
v -0.468600 0.237428 -1.043716
vt 0.008893 0.539491
vn -0.000000 -1.000000 0.000000
v -0.468601 0.237428 -0.413821
vt 0.103068 0.539492
vn -0.000000 -1.000000 0.000000
v 0.482110 0.237428 -0.413821
vt 0.103068 0.397352
vn -0.000000 -1.000000 0.000000
v 0.482110 0.237428 -0.413821
vt 0.103068 0.397352
vn -0.000000 0.000000 -1.000000
v -0.468601 0.237428 -0.413821
vt 0.103068 0.539492
vn -0.000000 0.000000 -1.000000
v -0.468601 -0.441919 -0.413821
vt 0.204636 0.539492
vn -0.000000 0.000000 -1.000000
v 0.482110 -0.441919 -0.413821
vt 0.204636 0.397352
vn -0.000000 0.000000 -1.000000
v 0.482110 -0.441919 -0.413821
vt 0.204636 0.397352
vn -0.000000 1.000000 0.000000
v -0.468601 -0.441919 -0.413821
vt 0.204636 0.539492
vn -0.000000 1.000000 0.000000
v -0.468600 -0.441919 -1.043716
vt 0.298811 0.539492
vn -0.000000 1.000000 0.000000
v 0.482110 -0.441919 -1.043716
vt 0.298811 0.397352
vn -0.000000 1.000000 0.000000
v 0.482110 0.263610 -1.043716
vt 0.429217 0.239041
vn -0.000000 0.000000 1.000000
v -0.468600 0.263610 -1.043716
vt 0.429217 0.096902
vn -0.000000 0.000000 1.000000
v -0.468600 0.482418 -1.043716
vt 0.396503 0.096902
vn -0.000000 0.000000 1.000000
v 0.482110 0.482418 -1.043716
vt 0.396503 0.239041
vn -0.000000 0.000000 1.000000
v 0.482110 0.482418 -1.043716
vt 0.396503 0.239041
vn -0.000000 -1.000000 0.000000
v -0.468600 0.482418 -1.043716
vt 0.396503 0.096902
vn -0.000000 -1.000000 0.000000
v -0.468601 0.482418 -0.413821
vt 0.302328 0.096902
vn -0.000000 -1.000000 0.000000
v 0.482110 0.482418 -0.413821
vt 0.302329 0.239042
vn -0.000000 -1.000000 0.000000
v 0.482110 0.482418 -0.413821
vt 0.556105 0.239040
vn -0.000000 0.000000 -1.000000
v -0.468601 0.482418 -0.413821
vt 0.556105 0.096900
vn -0.000000 0.000000 -1.000000
v -0.468601 0.263610 -0.413821
vt 0.523391 0.096900
vn -0.000000 0.000000 -1.000000
v 0.482110 0.263610 -0.413821
vt 0.523391 0.239040
vn -0.000000 0.000000 -1.000000
v 0.482110 0.263610 -0.413821
vt 0.523391 0.239040
vn -0.000000 1.000000 0.000000
v -0.468601 0.263610 -0.413821
vt 0.523391 0.096900
vn -0.000000 1.000000 0.000000
v -0.468600 0.263610 -1.043716
vt 0.429217 0.096902
vn -0.000000 1.000000 0.000000
v 0.482110 0.263610 -1.043716
vt 0.429217 0.239041
vn -0.000000 1.000000 0.000000
v -0.499007 -0.468417 -1.079757
vt 0.299679 0.243776
vn -0.000000 -1.000000 0.000000
v -0.499007 -0.468417 -0.389605
vt 0.299678 0.140592
vn -0.000000 -1.000000 0.000000
v 0.482110 -0.468417 -0.389605
vt 0.152993 0.140593
vn -0.000000 -1.000000 0.000000
v 0.482110 -0.468417 -1.079757
vt 0.152994 0.243777
vn -0.000000 -1.000000 0.000000
# Faces (1 to 217)
f -215/-215/-215 -216/-216/-216 -217/-217/-217
f -214/-214/-214 -215/-215/-215 -217/-217/-217
f -211/-211/-211 -212/-212/-212 -213/-213/-213
f -210/-210/-210 -211/-211/-211 -213/-213/-213
f -207/-207/-207 -208/-208/-208 -209/-209/-209
f -206/-206/-206 -207/-207/-207 -209/-209/-209
f -203/-203/-203 -204/-204/-204 -205/-205/-205
f -202/-202/-202 -203/-203/-203 -205/-205/-205
f -199/-199/-199 -200/-200/-200 -201/-201/-201
f -198/-198/-198 -199/-199/-199 -201/-201/-201
f -195/-195/-195 -196/-196/-196 -197/-197/-197
f -194/-194/-194 -195/-195/-195 -197/-197/-197
f -191/-191/-191 -192/-192/-192 -193/-193/-193
f -190/-190/-190 -191/-191/-191 -193/-193/-193
f -187/-187/-187 -188/-188/-188 -189/-189/-189
f -186/-186/-186 -187/-187/-187 -189/-189/-189
f -183/-183/-183 -184/-184/-184 -185/-185/-185
f -182/-182/-182 -183/-183/-183 -185/-185/-185
f -179/-179/-179 -180/-180/-180 -181/-181/-181
f -178/-178/-178 -179/-179/-179 -181/-181/-181
f -175/-175/-175 -176/-176/-176 -177/-177/-177
f -174/-174/-174 -175/-175/-175 -177/-177/-177
f -171/-171/-171 -172/-172/-172 -173/-173/-173
f -170/-170/-170 -171/-171/-171 -173/-173/-173
f -167/-167/-167 -168/-168/-168 -169/-169/-169
f -166/-166/-166 -167/-167/-167 -169/-169/-169
f -163/-163/-163 -164/-164/-164 -165/-165/-165
f -162/-162/-162 -163/-163/-163 -165/-165/-165
f -159/-159/-159 -160/-160/-160 -161/-161/-161
f -158/-158/-158 -159/-159/-159 -161/-161/-161
f -155/-155/-155 -156/-156/-156 -157/-157/-157
f -154/-154/-154 -155/-155/-155 -157/-157/-157
f -151/-151/-151 -152/-152/-152 -153/-153/-153
f -150/-150/-150 -151/-151/-151 -153/-153/-153
f -147/-147/-147 -148/-148/-148 -149/-149/-149
f -146/-146/-146 -147/-147/-147 -149/-149/-149
f -143/-143/-143 -144/-144/-144 -145/-145/-145
f -142/-142/-142 -143/-143/-143 -145/-145/-145
f -139/-139/-139 -140/-140/-140 -141/-141/-141
f -138/-138/-138 -139/-139/-139 -141/-141/-141
f -135/-135/-135 -136/-136/-136 -137/-137/-137
f -134/-134/-134 -135/-135/-135 -137/-137/-137
f -131/-131/-131 -132/-132/-132 -133/-133/-133
f -130/-130/-130 -131/-131/-131 -133/-133/-133
f -127/-127/-127 -128/-128/-128 -129/-129/-129
f -126/-126/-126 -127/-127/-127 -129/-129/-129
f -123/-123/-123 -124/-124/-124 -125/-125/-125
f -122/-122/-122 -123/-123/-123 -125/-125/-125
f -119/-119/-119 -120/-120/-120 -121/-121/-121
f -118/-118/-118 -119/-119/-119 -121/-121/-121
f -115/-115/-115 -116/-116/-116 -117/-117/-117
f -114/-114/-114 -115/-115/-115 -117/-117/-117
f -111/-111/-111 -112/-112/-112 -113/-113/-113
f -110/-110/-110 -111/-111/-111 -113/-113/-113
f -107/-107/-107 -108/-108/-108 -109/-109/-109
f -106/-106/-106 -107/-107/-107 -109/-109/-109
f -103/-103/-103 -104/-104/-104 -105/-105/-105
f -102/-102/-102 -103/-103/-103 -105/-105/-105
f -99/-99/-99 -100/-100/-100 -101/-101/-101
f -98/-98/-98 -99/-99/-99 -101/-101/-101
f -95/-95/-95 -96/-96/-96 -97/-97/-97
f -94/-94/-94 -95/-95/-95 -97/-97/-97
f -91/-91/-91 -92/-92/-92 -93/-93/-93
f -90/-90/-90 -91/-91/-91 -93/-93/-93
f -87/-87/-87 -88/-88/-88 -89/-89/-89
f -86/-86/-86 -87/-87/-87 -89/-89/-89
f -83/-83/-83 -84/-84/-84 -85/-85/-85
f -82/-82/-82 -83/-83/-83 -85/-85/-85
f -79/-79/-79 -80/-80/-80 -81/-81/-81
f -78/-78/-78 -79/-79/-79 -81/-81/-81
f -75/-75/-75 -76/-76/-76 -77/-77/-77
f -74/-74/-74 -75/-75/-75 -77/-77/-77
f -71/-71/-71 -72/-72/-72 -73/-73/-73
f -73/-73/-73 -72/-72/-72 -70/-70/-70
f -72/-72/-72 -69/-69/-69 -70/-70/-70
f -70/-70/-70 -69/-69/-69 -68/-68/-68
f -68/-68/-68 -69/-69/-69 -67/-67/-67
f -66/-66/-66 -68/-68/-68 -67/-67/-67
f -73/-73/-73 -70/-70/-70 -65/-65/-65
f -65/-65/-65 -66/-66/-66 -67/-67/-67
f -64/-64/-64 -73/-73/-73 -65/-65/-65
f -64/-64/-64 -65/-65/-65 -67/-67/-67
f -72/-72/-72 -71/-71/-71 -63/-63/-63
f -62/-62/-62 -72/-72/-72 -63/-63/-63
f -62/-62/-62 -64/-64/-64 -67/-67/-67
f -63/-63/-63 -64/-64/-64 -62/-62/-62
f -59/-59/-59 -60/-60/-60 -61/-61/-61
f -58/-58/-58 -59/-59/-59 -61/-61/-61
f -55/-55/-55 -56/-56/-56 -57/-57/-57
f -55/-55/-55 -54/-54/-54 -56/-56/-56
f -56/-56/-56 -53/-53/-53 -57/-57/-57
f -54/-54/-54 -53/-53/-53 -56/-56/-56
f -50/-50/-50 -51/-51/-51 -52/-52/-52
f -49/-49/-49 -50/-50/-50 -52/-52/-52
f -46/-46/-46 -47/-47/-47 -48/-48/-48
f -45/-45/-45 -46/-46/-46 -48/-48/-48
f -42/-42/-42 -43/-43/-43 -44/-44/-44
f -41/-41/-41 -42/-42/-42 -44/-44/-44
f -38/-38/-38 -39/-39/-39 -40/-40/-40
f -37/-37/-37 -38/-38/-38 -40/-40/-40
f -34/-34/-34 -35/-35/-35 -36/-36/-36
f -33/-33/-33 -34/-34/-34 -36/-36/-36
f -30/-30/-30 -31/-31/-31 -32/-32/-32
f -29/-29/-29 -30/-30/-30 -32/-32/-32
f -26/-26/-26 -27/-27/-27 -28/-28/-28
f -25/-25/-25 -26/-26/-26 -28/-28/-28
f -22/-22/-22 -23/-23/-23 -24/-24/-24
f -21/-21/-21 -22/-22/-22 -24/-24/-24
f -18/-18/-18 -19/-19/-19 -20/-20/-20
f -17/-17/-17 -18/-18/-18 -20/-20/-20
f -14/-14/-14 -15/-15/-15 -16/-16/-16
f -13/-13/-13 -14/-14/-14 -16/-16/-16
f -10/-10/-10 -11/-11/-11 -12/-12/-12
f -9/-9/-9 -10/-10/-10 -12/-12/-12
f -6/-6/-6 -7/-7/-7 -8/-8/-8
f -5/-5/-5 -6/-6/-6 -8/-8/-8
f -2/-2/-2 -3/-3/-3 -4/-4/-4
f -1/-1/-1 -2/-2/-2 -4/-4/-4

