# Mesh "paper_number_9_3" exported with Unity Assets Bundle Extractor; 24 vertices, 36 indices, 48 bytes per vertex
g paper_number_9_3
# SubMesh 0
# Vertices
v 0.034118 0.046756 0.000002
vt 0.983699 1.000000
vn -0.000000 0.000000 1.000000
v 0.034118 -0.046756 0.000002
vt 0.983699 0.000000
vn -0.000000 0.000000 1.000000
v -0.034118 -0.046756 0.000002
vt 0.499902 0.000000
vn -0.000000 0.000000 1.000000
v -0.034118 0.046756 0.000002
vt 0.499902 1.000000
vn -0.000000 0.000000 1.000000
v -0.034118 0.046756 -0.000002
vt 0.503334 1.000000
vn -0.000000 0.000000 -1.000000
v -0.034118 -0.046756 -0.000002
vt 0.503334 0.000000
vn -0.000000 0.000000 -1.000000
v 0.034118 -0.046756 -0.000002
vt 0.016087 0.000000
vn -0.000000 0.000000 -1.000000
v 0.034118 0.046756 -0.000002
vt 0.016087 1.000000
vn -0.000000 0.000000 -1.000000
# Faces (1 to 8)
f -6/-6/-6 -7/-7/-7 -8/-8/-8
f -5/-5/-5 -6/-6/-6 -8/-8/-8
f -2/-2/-2 -3/-3/-3 -4/-4/-4
f -1/-1/-1 -2/-2/-2 -4/-4/-4

# SubMesh 1
# Vertices
v -0.034118 0.046756 0.000002
vt 1.004372 0.673270
vn -1.000000 0.000000 0.000000
v -0.034118 -0.046756 0.000002
vt 1.004372 0.366484
vn -1.000000 0.000000 0.000000
v -0.034118 -0.046756 -0.000002
vt 1.004398 0.366484
vn -1.000000 0.000000 0.000000
v -0.034118 0.046756 -0.000002
vt 1.004398 0.673270
vn -1.000000 0.000000 0.000000
v 0.034118 0.046756 -0.000002
vt 0.694821 0.982318
vn 1.000000 0.000000 0.000000
v 0.034118 -0.046756 -0.000002
vt 0.694821 0.675532
vn 1.000000 0.000000 0.000000
v 0.034118 -0.046756 0.000002
vt 0.694847 0.675532
vn 1.000000 0.000000 0.000000
v 0.034118 0.046756 0.000002
vt 0.694847 0.982318
vn 1.000000 0.000000 0.000000
v 0.034118 -0.046756 0.000002
vt 0.691319 0.675532
vn -0.000000 -1.000000 0.000000
v 0.034118 -0.046756 -0.000002
vt 0.691345 0.675532
vn -0.000000 -1.000000 0.000000
v -0.034118 -0.046756 -0.000002
vt 0.691345 0.982318
vn -0.000000 -1.000000 0.000000
v -0.034118 -0.046756 0.000002
vt 0.691319 0.982318
vn -0.000000 -1.000000 0.000000
v 0.034118 0.046756 -0.000002
vt 0.687817 0.675532
vn -0.000000 1.000000 0.000000
v 0.034118 0.046756 0.000002
vt 0.687843 0.675532
vn -0.000000 1.000000 0.000000
v -0.034118 0.046756 0.000002
vt 0.687843 0.982318
vn -0.000000 1.000000 0.000000
v -0.034118 0.046756 -0.000002
vt 0.687817 0.982318
vn -0.000000 1.000000 0.000000
# Faces (9 to 24)
f -14/-14/-14 -15/-15/-15 -16/-16/-16
f -13/-13/-13 -14/-14/-14 -16/-16/-16
f -10/-10/-10 -11/-11/-11 -12/-12/-12
f -9/-9/-9 -10/-10/-10 -12/-12/-12
f -6/-6/-6 -7/-7/-7 -8/-8/-8
f -5/-5/-5 -6/-6/-6 -8/-8/-8
f -2/-2/-2 -3/-3/-3 -4/-4/-4
f -1/-1/-1 -2/-2/-2 -4/-4/-4

