# Mesh "polySurface3" exported with Unity Assets Bundle Extractor; 116 vertices, 240 indices, 56 bytes per vertex
g polySurface3
# SubMesh 0
# Vertices
v -0.149861 0.017284 -0.095645
vt 0.911879 0.372976
vn -0.000000 0.587785 -0.809017
v 0.149861 0.017284 -0.095645
vt 0.911879 0.993328
vn -0.000000 0.587785 -0.809017
v 0.149861 0.018598 -0.093835
vt 0.916507 0.993328
vn -0.000000 0.951056 -0.309017
v -0.149861 0.018598 -0.093835
vt 0.916507 0.372976
vn -0.000000 0.951056 -0.309017
v -0.149861 0.015157 -0.096336
vt 0.907250 0.372977
vn -0.000000 0.000000 -1.000000
v 0.149861 0.015157 -0.096336
vt 0.907250 0.993328
vn -0.000000 0.000000 -1.000000
v 0.149861 0.018598 -0.091599
vt 0.921136 0.993328
vn -0.000000 0.951056 0.309019
v -0.149861 0.018598 -0.091599
vt 0.921136 0.372976
vn -0.000000 0.951056 0.309019
v -0.149861 0.013030 -0.095645
vt 0.902621 0.372977
vn -0.000000 -0.587786 -0.809017
v 0.149861 0.013030 -0.095645
vt 0.902621 0.993328
vn -0.000000 -0.587786 -0.809017
v 0.149861 0.015157 -0.096336
vt 0.907250 0.993328
vn -0.000000 0.000000 -1.000000
v -0.149861 0.015157 -0.096336
vt 0.907250 0.372977
vn -0.000000 0.000000 -1.000000
v -0.149861 0.011715 -0.093835
vt 0.897992 0.372977
vn -0.000000 -0.951057 -0.309017
v 0.149861 0.011715 -0.093835
vt 0.897992 0.993328
vn -0.000000 -0.951057 -0.309017
v -0.149861 0.011715 -0.091599
vt 0.893363 0.372977
vn -0.000000 -0.951057 0.309017
v 0.149861 0.011715 -0.091599
vt 0.893363 0.993328
vn -0.000000 -0.951057 0.309017
v 0.149861 0.011715 -0.093835
vt 0.897992 0.993328
vn -0.000000 -0.951057 -0.309017
v -0.149861 0.011715 -0.093835
vt 0.897992 0.372977
vn -0.000000 -0.951057 -0.309017
v -0.149861 0.013030 -0.089790
vt 0.888734 0.372976
vn -0.000000 -0.587786 0.809017
v 0.149861 0.013030 -0.089790
vt 0.888734 0.993328
vn -0.000000 -0.587786 0.809017
v -0.149861 0.015157 -0.089099
vt 0.884105 0.372976
vn -0.000000 0.000000 1.000000
v 0.149861 0.015157 -0.089099
vt 0.884105 0.993328
vn -0.000000 0.000000 1.000000
v -0.149861 0.017284 -0.089790
vt 0.879477 0.372976
vn -0.000000 0.587786 0.809017
v 0.149861 0.017284 -0.089790
vt 0.879477 0.993328
vn -0.000000 0.587786 0.809017
v 0.149861 0.015157 -0.089099
vt 0.884105 0.993328
vn -0.000000 0.000000 1.000000
v -0.149861 0.015157 -0.089099
vt 0.884105 0.372976
vn -0.000000 0.000000 1.000000
v -0.149861 0.018598 -0.091599
vt 0.921136 0.372976
vn -0.000000 0.951056 0.309019
v 0.149861 0.018598 -0.091599
vt 0.921136 0.993328
vn -0.000000 0.951056 0.309019
v 0.149861 0.017284 -0.089790
vt 0.925765 0.993328
vn -0.000000 0.587786 0.809017
v -0.149861 0.017284 -0.089790
vt 0.925765 0.372976
vn -0.000000 0.587786 0.809017
v -0.149861 0.016275 -0.061525
vt 0.858054 0.373102
vn -0.000000 0.309016 -0.951057
v 0.149861 0.016275 -0.061525
vt 0.858054 0.993203
vn -0.000000 0.309016 -0.951057
v 0.149861 0.018084 -0.060210
vt 0.862681 0.993203
vn -0.000000 0.809017 -0.587785
v -0.149861 0.018084 -0.060210
vt 0.862681 0.373102
vn -0.000000 0.809017 -0.587785
v -0.149861 0.014039 -0.061525
vt 0.853427 0.373102
vn -0.000000 -0.309018 -0.951056
v 0.149861 0.014039 -0.061525
vt 0.853427 0.993203
vn -0.000000 -0.309018 -0.951056
v 0.149861 0.018776 -0.058083
vt 0.867308 0.993203
vn -0.000000 1.000000 0.000000
v -0.149861 0.018776 -0.058083
vt 0.867308 0.373102
vn -0.000000 1.000000 0.000000
v -0.149861 0.012229 -0.060210
vt 0.848800 0.373102
vn -0.000000 -0.809017 -0.587786
v 0.149861 0.012229 -0.060210
vt 0.848800 0.993203
vn -0.000000 -0.809017 -0.587786
v 0.149861 0.014039 -0.061525
vt 0.853427 0.993203
vn -0.000000 -0.309018 -0.951056
v -0.149861 0.014039 -0.061525
vt 0.853427 0.373102
vn -0.000000 -0.309018 -0.951056
v -0.149861 0.011538 -0.058083
vt 0.844173 0.373102
vn -0.000000 -1.000000 0.000000
v 0.149861 0.011538 -0.058083
vt 0.844173 0.993203
vn -0.000000 -1.000000 0.000000
v -0.149861 0.012229 -0.055956
vt 0.839546 0.373102
vn -0.000000 -0.809017 0.587786
v 0.149861 0.012229 -0.055956
vt 0.839546 0.993203
vn -0.000000 -0.809017 0.587786
v 0.149861 0.011538 -0.058083
vt 0.844173 0.993203
vn -0.000000 -1.000000 0.000000
v -0.149861 0.011538 -0.058083
vt 0.844173 0.373102
vn -0.000000 -1.000000 0.000000
v -0.149861 0.014039 -0.054642
vt 0.834919 0.373102
vn -0.000000 -0.309017 0.951057
v 0.149861 0.014039 -0.054642
vt 0.834919 0.993203
vn -0.000000 -0.309017 0.951057
v -0.149861 0.016275 -0.054642
vt 0.830292 0.373102
vn -0.000000 0.309017 0.951057
v 0.149861 0.016275 -0.054642
vt 0.830292 0.993203
vn -0.000000 0.309017 0.951057
v -0.149861 0.018084 -0.055956
vt 0.871935 0.373102
vn -0.000000 0.809017 0.587785
v 0.149861 0.018084 -0.055956
vt 0.871935 0.993203
vn -0.000000 0.809017 0.587785
v 0.149861 0.016275 -0.054642
vt 0.876562 0.993203
vn -0.000000 0.309017 0.951057
v -0.149861 0.016275 -0.054642
vt 0.876562 0.373102
vn -0.000000 0.309017 0.951057
v -0.149861 0.018776 -0.058083
vt 0.867308 0.373102
vn -0.000000 1.000000 0.000000
v 0.149861 0.018776 -0.058083
vt 0.867308 0.993203
vn -0.000000 1.000000 0.000000
v -0.149861 0.017284 -0.026693
vt 0.786332 0.373042
vn -0.000000 0.587785 -0.809017
v 0.149861 0.017284 -0.026693
vt 0.786332 0.993262
vn -0.000000 0.587785 -0.809017
v 0.149861 0.018598 -0.024884
vt 0.790960 0.993262
vn -0.000000 0.951056 -0.309017
v -0.149861 0.018598 -0.024884
vt 0.790960 0.373042
vn -0.000000 0.951056 -0.309017
v -0.149861 0.015157 -0.027384
vt 0.781704 0.373042
vn -0.000000 0.000000 -1.000000
v 0.149861 0.015157 -0.027384
vt 0.781704 0.993262
vn -0.000000 0.000000 -1.000000
v 0.149861 0.018598 -0.022647
vt 0.795588 0.993262
vn -0.000000 0.951056 0.309019
v -0.149861 0.018598 -0.022647
vt 0.795588 0.373042
vn -0.000000 0.951056 0.309019
v -0.149861 0.013030 -0.026693
vt 0.777076 0.373042
vn -0.000000 -0.587785 -0.809017
v 0.149861 0.013030 -0.026693
vt 0.777076 0.993262
vn -0.000000 -0.587785 -0.809017
v 0.149861 0.015157 -0.027384
vt 0.781704 0.993262
vn -0.000000 0.000000 -1.000000
v -0.149861 0.015157 -0.027384
vt 0.781704 0.373042
vn -0.000000 0.000000 -1.000000
v -0.149861 0.011715 -0.024884
vt 0.818727 0.373042
vn -0.000000 -0.951057 -0.309017
v 0.149861 0.011715 -0.024884
vt 0.818727 0.993262
vn -0.000000 -0.951057 -0.309017
v 0.149861 0.013030 -0.026693
vt 0.823355 0.993262
vn -0.000000 -0.587785 -0.809017
v -0.149861 0.013030 -0.026693
vt 0.823355 0.373042
vn -0.000000 -0.587785 -0.809017
v -0.149861 0.011715 -0.022647
vt 0.814099 0.373042
vn -0.000000 -0.951057 0.309017
v 0.149861 0.011715 -0.022647
vt 0.814099 0.993262
vn -0.000000 -0.951057 0.309017
v 0.149861 0.011715 -0.024884
vt 0.818727 0.993262
vn -0.000000 -0.951057 -0.309017
v -0.149861 0.011715 -0.024884
vt 0.818727 0.373042
vn -0.000000 -0.951057 -0.309017
v -0.149861 0.013030 -0.020838
vt 0.809471 0.373042
vn -0.000000 -0.587785 0.809017
v 0.149861 0.013030 -0.020838
vt 0.809471 0.993262
vn -0.000000 -0.587785 0.809017
v -0.149861 0.015157 -0.020147
vt 0.804843 0.373042
vn -0.000000 0.000000 1.000000
v 0.149861 0.015157 -0.020147
vt 0.804843 0.993262
vn -0.000000 0.000000 1.000000
v -0.149861 0.017284 -0.020838
vt 0.800216 0.373042
vn -0.000000 0.587785 0.809017
v 0.149861 0.017284 -0.020838
vt 0.800216 0.993262
vn -0.000000 0.587785 0.809017
v 0.149861 0.015157 -0.020147
vt 0.804843 0.993262
vn -0.000000 0.000000 1.000000
v -0.149861 0.015157 -0.020147
vt 0.804843 0.373042
vn -0.000000 0.000000 1.000000
v -0.149861 0.018598 -0.022647
vt 0.795588 0.373042
vn -0.000000 0.951056 0.309019
v 0.149861 0.018598 -0.022647
vt 0.795588 0.993262
vn -0.000000 0.951056 0.309019
v -0.149861 0.016275 -0.132493
vt 0.959949 0.373102
vn -0.000000 0.309018 -0.951056
v 0.149861 0.016275 -0.132493
vt 0.959949 0.993203
vn -0.000000 0.309018 -0.951056
v 0.149861 0.018084 -0.131178
vt 0.964576 0.993203
vn -0.000000 0.809017 -0.587785
v -0.149861 0.018084 -0.131178
vt 0.964576 0.373102
vn -0.000000 0.809017 -0.587785
v -0.149861 0.014039 -0.132493
vt 0.955322 0.373102
vn -0.000000 -0.309018 -0.951056
v 0.149861 0.014039 -0.132493
vt 0.955322 0.993203
vn -0.000000 -0.309018 -0.951056
v 0.149861 0.018776 -0.129051
vt 0.969203 0.993203
vn -0.000000 1.000000 0.000000
v -0.149861 0.018776 -0.129051
vt 0.969203 0.373102
vn -0.000000 1.000000 0.000000
v -0.149861 0.012229 -0.131178
vt 0.950695 0.373102
vn -0.000000 -0.809017 -0.587785
v 0.149861 0.012229 -0.131178
vt 0.950695 0.993203
vn -0.000000 -0.809017 -0.587785
v 0.149861 0.014039 -0.132493
vt 0.955322 0.993203
vn -0.000000 -0.309018 -0.951056
v -0.149861 0.014039 -0.132493
vt 0.955322 0.373102
vn -0.000000 -0.309018 -0.951056
v -0.149861 0.011538 -0.129051
vt 0.946068 0.373102
vn -0.000000 -1.000000 0.000000
v 0.149861 0.011538 -0.129051
vt 0.946068 0.993203
vn -0.000000 -1.000000 0.000000
v -0.149861 0.012229 -0.126924
vt 0.941441 0.373102
vn -0.000000 -0.809017 0.587786
v 0.149861 0.012229 -0.126924
vt 0.941441 0.993203
vn -0.000000 -0.809017 0.587786
v 0.149861 0.011538 -0.129051
vt 0.946068 0.993203
vn -0.000000 -1.000000 0.000000
v -0.149861 0.011538 -0.129051
vt 0.946068 0.373102
vn -0.000000 -1.000000 0.000000
v -0.149861 0.014039 -0.125610
vt 0.936814 0.373102
vn -0.000000 -0.309017 0.951057
v 0.149861 0.014039 -0.125610
vt 0.936814 0.993203
vn -0.000000 -0.309017 0.951057
v -0.149861 0.016275 -0.125610
vt 0.932187 0.373102
vn -0.000000 0.309017 0.951057
v 0.149861 0.016275 -0.125610
vt 0.932187 0.993203
vn -0.000000 0.309017 0.951057
v -0.149861 0.018084 -0.126924
vt 0.973830 0.373102
vn -0.000000 0.809017 0.587785
v 0.149861 0.018084 -0.126924
vt 0.973830 0.993203
vn -0.000000 0.809017 0.587785
v 0.149861 0.016275 -0.125610
vt 0.978457 0.993203
vn -0.000000 0.309017 0.951057
v -0.149861 0.016275 -0.125610
vt 0.978457 0.373102
vn -0.000000 0.309017 0.951057
v -0.149861 0.018776 -0.129051
vt 0.969203 0.373102
vn -0.000000 1.000000 0.000000
v 0.149861 0.018776 -0.129051
vt 0.969203 0.993203
vn -0.000000 1.000000 0.000000
# Faces (1 to 116)
f -114/-114/-114 -115/-115/-115 -116/-116/-116
f -113/-113/-113 -114/-114/-114 -116/-116/-116
f -116/-116/-116 -115/-115/-115 -112/-112/-112
f -115/-115/-115 -111/-111/-111 -112/-112/-112
f -110/-110/-110 -114/-114/-114 -113/-113/-113
f -109/-109/-109 -110/-110/-110 -113/-113/-113
f -106/-106/-106 -107/-107/-107 -108/-108/-108
f -105/-105/-105 -106/-106/-106 -108/-108/-108
f -108/-108/-108 -107/-107/-107 -104/-104/-104
f -107/-107/-107 -103/-103/-103 -104/-104/-104
f -100/-100/-100 -101/-101/-101 -102/-102/-102
f -99/-99/-99 -100/-100/-100 -102/-102/-102
f -102/-102/-102 -101/-101/-101 -98/-98/-98
f -101/-101/-101 -97/-97/-97 -98/-98/-98
f -98/-98/-98 -97/-97/-97 -96/-96/-96
f -97/-97/-97 -95/-95/-95 -96/-96/-96
f -92/-92/-92 -93/-93/-93 -94/-94/-94
f -91/-91/-91 -92/-92/-92 -94/-94/-94
f -88/-88/-88 -89/-89/-89 -90/-90/-90
f -87/-87/-87 -88/-88/-88 -90/-90/-90
f -84/-84/-84 -85/-85/-85 -86/-86/-86
f -83/-83/-83 -84/-84/-84 -86/-86/-86
f -86/-86/-86 -85/-85/-85 -82/-82/-82
f -85/-85/-85 -81/-81/-81 -82/-82/-82
f -80/-80/-80 -84/-84/-84 -83/-83/-83
f -79/-79/-79 -80/-80/-80 -83/-83/-83
f -76/-76/-76 -77/-77/-77 -78/-78/-78
f -75/-75/-75 -76/-76/-76 -78/-78/-78
f -78/-78/-78 -77/-77/-77 -74/-74/-74
f -77/-77/-77 -73/-73/-73 -74/-74/-74
f -70/-70/-70 -71/-71/-71 -72/-72/-72
f -69/-69/-69 -70/-70/-70 -72/-72/-72
f -72/-72/-72 -71/-71/-71 -68/-68/-68
f -71/-71/-71 -67/-67/-67 -68/-68/-68
f -68/-68/-68 -67/-67/-67 -66/-66/-66
f -67/-67/-67 -65/-65/-65 -66/-66/-66
f -62/-62/-62 -63/-63/-63 -64/-64/-64
f -61/-61/-61 -62/-62/-62 -64/-64/-64
f -64/-64/-64 -63/-63/-63 -60/-60/-60
f -63/-63/-63 -59/-59/-59 -60/-60/-60
f -56/-56/-56 -57/-57/-57 -58/-58/-58
f -55/-55/-55 -56/-56/-56 -58/-58/-58
f -58/-58/-58 -57/-57/-57 -54/-54/-54
f -57/-57/-57 -53/-53/-53 -54/-54/-54
f -52/-52/-52 -56/-56/-56 -55/-55/-55
f -51/-51/-51 -52/-52/-52 -55/-55/-55
f -48/-48/-48 -49/-49/-49 -50/-50/-50
f -47/-47/-47 -48/-48/-48 -50/-50/-50
f -44/-44/-44 -45/-45/-45 -46/-46/-46
f -43/-43/-43 -44/-44/-44 -46/-46/-46
f -40/-40/-40 -41/-41/-41 -42/-42/-42
f -39/-39/-39 -40/-40/-40 -42/-42/-42
f -42/-42/-42 -41/-41/-41 -38/-38/-38
f -41/-41/-41 -37/-37/-37 -38/-38/-38
f -38/-38/-38 -37/-37/-37 -36/-36/-36
f -37/-37/-37 -35/-35/-35 -36/-36/-36
f -32/-32/-32 -33/-33/-33 -34/-34/-34
f -31/-31/-31 -32/-32/-32 -34/-34/-34
f -34/-34/-34 -33/-33/-33 -30/-30/-30
f -33/-33/-33 -29/-29/-29 -30/-30/-30
f -26/-26/-26 -27/-27/-27 -28/-28/-28
f -25/-25/-25 -26/-26/-26 -28/-28/-28
f -28/-28/-28 -27/-27/-27 -24/-24/-24
f -27/-27/-27 -23/-23/-23 -24/-24/-24
f -22/-22/-22 -26/-26/-26 -25/-25/-25
f -21/-21/-21 -22/-22/-22 -25/-25/-25
f -18/-18/-18 -19/-19/-19 -20/-20/-20
f -17/-17/-17 -18/-18/-18 -20/-20/-20
f -20/-20/-20 -19/-19/-19 -16/-16/-16
f -19/-19/-19 -15/-15/-15 -16/-16/-16
f -12/-12/-12 -13/-13/-13 -14/-14/-14
f -11/-11/-11 -12/-12/-12 -14/-14/-14
f -14/-14/-14 -13/-13/-13 -10/-10/-10
f -13/-13/-13 -9/-9/-9 -10/-10/-10
f -10/-10/-10 -9/-9/-9 -8/-8/-8
f -9/-9/-9 -7/-7/-7 -8/-8/-8
f -4/-4/-4 -5/-5/-5 -6/-6/-6
f -3/-3/-3 -4/-4/-4 -6/-6/-6
f -6/-6/-6 -5/-5/-5 -2/-2/-2
f -5/-5/-5 -1/-1/-1 -2/-2/-2

