# Mesh "Quad" exported with Unity Assets Bundle Extractor; 4 vertices, 6 indices, 48 bytes per vertex
g Quad
# SubMesh 0
# Vertices
v 0.500000 -0.500000 -0.000000
vt 0.000000 0.000000
vn -0.000000 0.000000 -1.000000
v -0.500000 0.500000 0.000000
vt 1.000000 1.000000
vn -0.000000 0.000000 -1.000000
v -0.500000 -0.500000 -0.000000
vt 1.000000 0.000000
vn -0.000000 0.000000 -1.000000
v 0.500000 0.500000 0.000000
vt 0.000000 1.000000
vn -0.000000 0.000000 -1.000000
# Faces (1 to 4)
f -2/-2/-2 -3/-3/-3 -4/-4/-4
f -1/-1/-1 -4/-4/-4 -3/-3/-3

