# Mesh "storage_room" exported with Unity Assets Bundle Extractor; 75 vertices, 180 indices, 56 bytes per vertex
g storage_room
# SubMesh 0
# Vertices
v -0.624808 -0.207416 0.005439
vt 0.033433 0.986218
vn 0.000873 -0.003300 0.999994
v -0.635194 -0.190479 0.005504
vt 0.046613 0.994300
vn 0.000873 -0.003300 0.999994
v 0.002404 -0.001530 0.005571
vt 0.193651 0.498129
vn 0.000873 -0.003300 0.999994
v -0.608674 -0.216611 0.005505
vt 0.026278 0.973663
vn -0.001698 0.004518 0.999988
v -0.581390 -0.220945 0.005571
vt 0.022905 0.952431
vn -0.000332 0.000882 1.000000
v 0.586199 -0.220945 0.005571
vt 0.022905 0.043828
vn 0.000331 0.000880 1.000000
v 0.610815 -0.216703 0.005506
vt 0.026206 0.024671
vn 0.001731 0.004593 0.999988
v 0.624808 -0.207416 0.005439
vt 0.033433 0.013782
vn 0.001731 0.004593 0.999988
v 0.635310 -0.190191 0.005505
vt 0.046837 0.005610
vn -0.000802 -0.003042 0.999995
v 0.639959 -0.169743 0.005571
vt 0.062750 0.001992
vn -0.000059 -0.000222 1.000000
v 0.639959 0.166682 0.005571
vt 0.324552 0.001992
vn -0.000057 0.000217 1.000000
v 0.636364 0.186135 0.005508
vt 0.339690 0.004789
vn -0.000958 0.003571 0.999993
v 0.625087 0.202474 0.005439
vt 0.352405 0.013566
vn -0.000958 0.003571 0.999993
v 0.609442 0.214386 0.005507
vt 0.361675 0.025740
vn 0.001586 -0.004162 0.999990
v 0.586199 0.220945 0.005571
vt 0.366779 0.043828
vn 0.000305 -0.000800 1.000000
v -0.581390 0.220945 0.005571
vt 0.366779 0.952431
vn -0.000318 -0.000835 1.000000
v -0.608309 0.213821 0.005503
vt 0.361235 0.973378
vn -0.001374 -0.003581 0.999993
v -0.625087 0.202474 0.005439
vt 0.352405 0.986435
vn -0.001374 -0.003581 0.999993
v -0.636367 0.186128 0.005508
vt 0.339684 0.995213
vn 0.000806 0.003076 0.999995
v -0.639959 0.166682 0.005571
vt 0.324552 0.998008
vn 0.000057 0.000217 1.000000
v -0.639959 -0.169743 0.005571
vt 0.062750 0.998008
vn 0.000059 -0.000224 1.000000
v -0.625087 0.202474 0.005439
vt 0.461374 0.320964
vn -0.560223 0.828342 0.000000
v -0.625087 0.202474 -0.005439
vt 0.452908 0.320964
vn -0.560223 0.828342 0.000000
v -0.608309 0.213821 -0.005503
vt 0.452859 0.329794
vn -0.388176 0.921585 0.000000
v -0.608309 0.213821 0.005503
vt 0.461423 0.329794
vn -0.388176 0.921585 0.000000
v -0.624808 -0.207416 -0.005439
vt 0.408925 0.963539
vn -0.495118 -0.868826 0.000000
v -0.624808 -0.207416 0.005439
vt 0.417390 0.963539
vn -0.495118 -0.868826 0.000000
v -0.608674 -0.216611 0.005505
vt 0.417442 0.950983
vn -0.296178 -0.955133 0.000000
v -0.608674 -0.216611 -0.005505
vt 0.408873 0.950983
vn -0.296178 -0.955133 0.000000
v -0.581390 -0.220945 0.005571
vt 0.417493 0.929751
vn -0.003601 -0.999994 0.000000
v -0.581390 -0.220945 -0.005571
vt 0.408822 0.929751
vn -0.003601 -0.999994 0.000000
v 0.586199 -0.220945 0.005571
vt 0.417493 0.021148
vn 0.003532 -0.999994 0.000000
v 0.586199 -0.220945 -0.005571
vt 0.408822 0.021148
vn 0.003532 -0.999994 0.000000
v 0.610815 -0.216703 0.005506
vt 0.417442 0.001992
vn 0.329154 -0.944276 0.000000
v 0.610815 -0.216703 -0.005506
vt 0.408873 0.001992
vn 0.329154 -0.944276 0.000000
v 0.624808 -0.207416 0.005439
vt 0.438247 0.009219
vn 0.853822 -0.520565 0.000000
v 0.635310 -0.190191 0.005505
vt 0.438196 0.022623
vn 0.928272 -0.371902 0.000000
v 0.635310 -0.190191 -0.005505
vt 0.446764 0.022623
vn 0.928272 -0.371902 0.000000
v 0.624808 -0.207416 -0.005439
vt 0.446713 0.009219
vn 0.853822 -0.520565 0.000000
v 0.639959 -0.169743 -0.005571
vt 0.446815 0.038536
vn 0.999916 -0.012929 0.000000
v 0.639959 -0.169743 0.005571
vt 0.438144 0.038536
vn 0.999916 -0.012929 0.000000
v 0.639959 0.166682 -0.005571
vt 0.446815 0.300338
vn 0.999950 0.010028 0.000000
v 0.639959 0.166682 0.005571
vt 0.438144 0.300338
vn 0.999950 0.010028 0.000000
v 0.636364 0.186135 -0.005508
vt 0.446766 0.315476
vn 0.924114 0.382116 0.000000
v 0.636364 0.186135 0.005508
vt 0.438193 0.315476
vn 0.924114 0.382116 0.000000
v 0.625087 0.202474 -0.005439
vt 0.446713 0.328191
vn 0.822989 0.568057 0.000000
v 0.625087 0.202474 0.005439
vt 0.438247 0.328191
vn 0.822989 0.568057 0.000000
v -0.624808 -0.207416 -0.005439
vt 0.452908 0.001992
vn -0.852485 -0.522751 0.000000
v -0.635194 -0.190479 -0.005504
vt 0.452858 0.015172
vn -0.928272 -0.371902 0.000000
v -0.635194 -0.190479 0.005504
vt 0.461424 0.015172
vn -0.928272 -0.371902 0.000000
v -0.624808 -0.207416 0.005439
vt 0.461374 0.001992
vn -0.852485 -0.522751 0.000000
v -0.639959 -0.169743 0.005571
vt 0.461476 0.031309
vn -0.999912 -0.013239 0.000000
v -0.639959 -0.169743 -0.005571
vt 0.452806 0.031309
vn -0.999912 -0.013239 0.000000
v -0.639959 0.166682 0.005571
vt 0.461476 0.293111
vn -0.999950 0.010019 0.000000
v -0.639959 0.166682 -0.005571
vt 0.452806 0.293111
vn -0.999950 0.010019 0.000000
v -0.636367 0.186128 0.005508
vt 0.461428 0.308243
vn -0.924115 0.382115 0.000000
v -0.636367 0.186128 -0.005508
vt 0.452854 0.308243
vn -0.924115 0.382115 0.000000
v -0.625087 0.202474 0.005439
vt 0.461374 0.320964
vn -0.823038 0.567986 0.000000
v -0.625087 0.202474 -0.005439
vt 0.452908 0.320964
vn -0.823038 0.567986 0.000000
v -0.581390 0.220945 -0.005571
vt 0.432154 0.928682
vn -0.005919 0.999982 0.000000
v 0.586199 0.220945 -0.005571
vt 0.432154 0.020079
vn 0.005468 0.999985 0.000000
v 0.586199 0.220945 0.005571
vt 0.423483 0.020079
vn 0.005468 0.999985 0.000000
v -0.581390 0.220945 0.005571
vt 0.423483 0.928682
vn -0.005919 0.999982 0.000000
v 0.609442 0.214386 0.005507
vt 0.423533 0.001992
vn 0.427700 0.903921 0.000000
v 0.609442 0.214386 -0.005507
vt 0.432104 0.001992
vn 0.427700 0.903921 0.000000
v -0.608309 0.213821 0.005503
vt 0.423536 0.949630
vn -0.388176 0.921585 0.000000
v -0.608309 0.213821 -0.005503
vt 0.432101 0.949630
vn -0.388176 0.921585 0.000000
v 0.609442 0.214386 -0.005507
vt 0.446765 0.337461
vn 0.427700 0.903921 0.000000
v 0.625087 0.202474 -0.005439
vt 0.446713 0.328191
vn 0.605786 0.795628 0.000000
v 0.625087 0.202474 0.005439
vt 0.438247 0.328191
vn 0.605786 0.795628 0.000000
v 0.609442 0.214386 0.005507
vt 0.438194 0.337461
vn 0.427700 0.903921 0.000000
v 0.610815 -0.216703 -0.005506
vt 0.446765 0.001992
vn 0.329154 -0.944276 0.000000
v 0.610815 -0.216703 0.005506
vt 0.438195 0.001992
vn 0.329154 -0.944276 0.000000
v 0.624808 -0.207416 0.005439
vt 0.438247 0.009219
vn 0.552984 -0.833192 0.000000
v 0.624808 -0.207416 -0.005439
vt 0.446713 0.009219
vn 0.552984 -0.833192 0.000000
# Faces (1 to 75)
f -73/-73/-73 -74/-74/-74 -75/-75/-75
f -72/-72/-72 -73/-73/-73 -75/-75/-75
f -72/-72/-72 -71/-71/-71 -73/-73/-73
f -71/-71/-71 -70/-70/-70 -73/-73/-73
f -70/-70/-70 -69/-69/-69 -73/-73/-73
f -69/-69/-69 -68/-68/-68 -73/-73/-73
f -68/-68/-68 -67/-67/-67 -73/-73/-73
f -67/-67/-67 -66/-66/-66 -73/-73/-73
f -66/-66/-66 -65/-65/-65 -73/-73/-73
f -73/-73/-73 -65/-65/-65 -64/-64/-64
f -73/-73/-73 -64/-64/-64 -63/-63/-63
f -73/-73/-73 -63/-63/-63 -62/-62/-62
f -73/-73/-73 -62/-62/-62 -61/-61/-61
f -73/-73/-73 -61/-61/-61 -60/-60/-60
f -73/-73/-73 -60/-60/-60 -59/-59/-59
f -73/-73/-73 -59/-59/-59 -58/-58/-58
f -73/-73/-73 -58/-58/-58 -57/-57/-57
f -73/-73/-73 -57/-57/-57 -56/-56/-56
f -73/-73/-73 -56/-56/-56 -55/-55/-55
f -73/-73/-73 -55/-55/-55 -74/-74/-74
f -52/-52/-52 -53/-53/-53 -54/-54/-54
f -51/-51/-51 -52/-52/-52 -54/-54/-54
f -48/-48/-48 -49/-49/-49 -50/-50/-50
f -47/-47/-47 -48/-48/-48 -50/-50/-50
f -46/-46/-46 -48/-48/-48 -47/-47/-47
f -45/-45/-45 -46/-46/-46 -47/-47/-47
f -44/-44/-44 -46/-46/-46 -45/-45/-45
f -43/-43/-43 -44/-44/-44 -45/-45/-45
f -42/-42/-42 -44/-44/-44 -43/-43/-43
f -41/-41/-41 -42/-42/-42 -43/-43/-43
f -38/-38/-38 -39/-39/-39 -40/-40/-40
f -37/-37/-37 -38/-38/-38 -40/-40/-40
f -38/-38/-38 -36/-36/-36 -39/-39/-39
f -36/-36/-36 -35/-35/-35 -39/-39/-39
f -36/-36/-36 -34/-34/-34 -35/-35/-35
f -34/-34/-34 -33/-33/-33 -35/-35/-35
f -34/-34/-34 -32/-32/-32 -33/-33/-33
f -32/-32/-32 -31/-31/-31 -33/-33/-33
f -32/-32/-32 -30/-30/-30 -31/-31/-31
f -30/-30/-30 -29/-29/-29 -31/-31/-31
f -26/-26/-26 -27/-27/-27 -28/-28/-28
f -25/-25/-25 -26/-26/-26 -28/-28/-28
f -26/-26/-26 -24/-24/-24 -27/-27/-27
f -24/-24/-24 -23/-23/-23 -27/-27/-27
f -24/-24/-24 -22/-22/-22 -23/-23/-23
f -22/-22/-22 -21/-21/-21 -23/-23/-23
f -22/-22/-22 -20/-20/-20 -21/-21/-21
f -20/-20/-20 -19/-19/-19 -21/-21/-21
f -20/-20/-20 -18/-18/-18 -19/-19/-19
f -18/-18/-18 -17/-17/-17 -19/-19/-19
f -14/-14/-14 -15/-15/-15 -16/-16/-16
f -13/-13/-13 -14/-14/-14 -16/-16/-16
f -14/-14/-14 -12/-12/-12 -15/-15/-15
f -12/-12/-12 -11/-11/-11 -15/-15/-15
f -13/-13/-13 -16/-16/-16 -10/-10/-10
f -16/-16/-16 -9/-9/-9 -10/-10/-10
f -6/-6/-6 -7/-7/-7 -8/-8/-8
f -5/-5/-5 -6/-6/-6 -8/-8/-8
f -2/-2/-2 -3/-3/-3 -4/-4/-4
f -1/-1/-1 -2/-2/-2 -4/-4/-4

