# Mesh "TV_Table_fixnew:screen" exported with Unity Assets Bundle Extractor; 99 vertices, 480 indices, 48 bytes per vertex
g TV_Table_fixnew:screen
# SubMesh 0
# Vertices
v -0.672621 0.562288 -0.038955
vt 0.125000 0.100000
vn 0.147326 0.000000 0.989088
v -0.672621 0.494268 -0.038955
vt 0.125000 0.000000
vn 0.147326 0.000000 0.989088
v -0.826039 0.494268 -0.016104
vt 0.000000 0.000000
vn 0.147326 0.000000 0.989088
v -0.826039 0.562288 -0.016104
vt 0.000000 0.100000
vn 0.147326 0.000000 0.989088
v -0.519204 0.494268 -0.057973
vt 0.250000 0.000000
vn 0.100648 0.000000 0.994922
v -0.519204 0.562288 -0.057973
vt 0.250000 0.100000
vn 0.100648 0.000000 0.994922
v -0.365786 0.494268 -0.070011
vt 0.375000 0.000000
vn 0.051511 0.000000 0.998672
v -0.365786 0.562288 -0.070011
vt 0.375000 0.100000
vn 0.051511 0.000000 0.998672
v -0.212368 0.494268 -0.073811
vt 0.500000 0.000000
vn -0.000000 0.000000 1.000000
v -0.212368 0.562288 -0.073811
vt 0.500000 0.100000
vn -0.000000 0.000000 1.000000
v -0.058950 0.494268 -0.070011
vt 0.625000 0.000000
vn -0.051511 0.000000 0.998672
v -0.058950 0.562288 -0.070011
vt 0.625000 0.100000
vn -0.051511 0.000000 0.998672
v 0.094467 0.494268 -0.057973
vt 0.750000 0.000000
vn -0.100648 0.000000 0.994922
v 0.094467 0.562288 -0.057973
vt 0.750000 0.100000
vn -0.100648 0.000000 0.994922
v 0.247885 0.494268 -0.038955
vt 0.875000 0.000000
vn -0.135183 0.000000 0.990821
v 0.247885 0.562288 -0.038955
vt 0.875000 0.100000
vn -0.135183 0.000000 0.990821
v 0.401303 0.494268 -0.016104
vt 1.000000 0.000000
vn -0.147326 0.000000 0.989088
v 0.401303 0.562288 -0.016104
vt 1.000000 0.100000
vn -0.147326 0.000000 0.989088
v -0.519204 0.630307 -0.057973
vt 0.250000 0.200000
vn 0.100648 0.000000 0.994922
v -0.672621 0.630307 -0.038955
vt 0.125000 0.200000
vn 0.135183 0.000000 0.990821
v -0.826039 0.630307 -0.016104
vt 0.000000 0.200000
vn 0.147326 0.000000 0.989088
v -0.365786 0.630307 -0.070011
vt 0.375000 0.200000
vn 0.051511 0.000000 0.998672
v -0.212368 0.630307 -0.073811
vt 0.500000 0.200000
vn -0.000000 0.000000 1.000000
v -0.058950 0.630307 -0.070011
vt 0.625000 0.200000
vn -0.051511 0.000000 0.998672
v 0.094467 0.630307 -0.057973
vt 0.750000 0.200000
vn -0.100648 0.000000 0.994922
v 0.247885 0.630307 -0.038955
vt 0.875000 0.200000
vn -0.135183 0.000000 0.990821
v 0.401303 0.630307 -0.016104
vt 1.000000 0.200000
vn -0.147326 0.000000 0.989088
v -0.672621 0.698327 -0.038955
vt 0.125000 0.300000
vn 0.135183 0.000000 0.990821
v -0.826039 0.698327 -0.016104
vt 0.000000 0.300000
vn 0.147326 0.000000 0.989088
v -0.519204 0.698327 -0.057973
vt 0.250000 0.300000
vn 0.100648 0.000000 0.994922
v -0.365786 0.698327 -0.070011
vt 0.375000 0.300000
vn 0.051511 0.000000 0.998672
v -0.212368 0.698327 -0.073811
vt 0.500000 0.300000
vn -0.000000 0.000000 1.000000
v -0.058950 0.698327 -0.070011
vt 0.625000 0.300000
vn -0.051511 0.000000 0.998672
v 0.094467 0.698327 -0.057973
vt 0.750000 0.300000
vn -0.100648 0.000000 0.994922
v 0.247885 0.698327 -0.038955
vt 0.875000 0.300000
vn -0.135183 0.000000 0.990821
v 0.401303 0.698327 -0.016104
vt 1.000000 0.300000
vn -0.147326 0.000000 0.989088
v -0.519204 0.766347 -0.057973
vt 0.250000 0.400000
vn 0.100648 0.000000 0.994922
v -0.672621 0.766347 -0.038955
vt 0.125000 0.400000
vn 0.135183 0.000000 0.990821
v -0.826039 0.766347 -0.016104
vt 0.000000 0.400000
vn 0.147326 0.000000 0.989088
v -0.365786 0.766347 -0.070011
vt 0.375000 0.400000
vn 0.051511 0.000000 0.998672
v -0.212368 0.766347 -0.073811
vt 0.500000 0.400000
vn -0.000000 0.000000 1.000000
v -0.058950 0.766347 -0.070011
vt 0.625000 0.400000
vn -0.051511 0.000000 0.998672
v 0.094467 0.766347 -0.057973
vt 0.750000 0.400000
vn -0.100648 0.000000 0.994922
v 0.247885 0.766347 -0.038955
vt 0.875000 0.400000
vn -0.135183 0.000000 0.990821
v 0.401303 0.766347 -0.016104
vt 1.000000 0.400000
vn -0.147326 0.000000 0.989088
v -0.672621 0.834366 -0.038955
vt 0.125000 0.500000
vn 0.135183 0.000000 0.990821
v -0.826039 0.834366 -0.016104
vt 0.000000 0.500000
vn 0.147326 0.000000 0.989088
v -0.519204 0.834366 -0.057973
vt 0.250000 0.500000
vn 0.100648 0.000000 0.994922
v -0.365786 0.834366 -0.070011
vt 0.375000 0.500000
vn 0.051511 0.000000 0.998672
v -0.212368 0.834366 -0.073811
vt 0.500000 0.500000
vn -0.000000 0.000000 1.000000
v -0.058950 0.834366 -0.070011
vt 0.625000 0.500000
vn -0.051511 0.000000 0.998672
v 0.094467 0.834366 -0.057973
vt 0.750000 0.500000
vn -0.100648 0.000000 0.994922
v 0.247885 0.834366 -0.038955
vt 0.875000 0.500000
vn -0.135183 0.000000 0.990821
v 0.401303 0.834366 -0.016104
vt 1.000000 0.500000
vn -0.147326 0.000000 0.989088
v -0.519204 0.902386 -0.057973
vt 0.250000 0.600000
vn 0.100648 0.000000 0.994922
v -0.672621 0.902386 -0.038955
vt 0.125000 0.600000
vn 0.135183 0.000000 0.990821
v -0.826039 0.902386 -0.016104
vt 0.000000 0.600000
vn 0.147326 0.000000 0.989088
v -0.365786 0.902386 -0.070011
vt 0.375000 0.600000
vn 0.051511 0.000000 0.998672
v -0.212368 0.902386 -0.073811
vt 0.500000 0.600000
vn -0.000000 0.000000 1.000000
v -0.058950 0.902386 -0.070011
vt 0.625000 0.600000
vn -0.051511 0.000000 0.998672
v 0.094467 0.902386 -0.057973
vt 0.750000 0.600000
vn -0.100648 0.000000 0.994922
v 0.247885 0.902386 -0.038955
vt 0.875000 0.600000
vn -0.135183 0.000000 0.990821
v 0.401303 0.902386 -0.016104
vt 1.000000 0.600000
vn -0.147326 0.000000 0.989088
v -0.672621 0.970406 -0.038955
vt 0.125000 0.700000
vn 0.135183 0.000000 0.990821
v -0.826039 0.970406 -0.016104
vt 0.000000 0.700000
vn 0.147326 0.000000 0.989088
v -0.519204 0.970406 -0.057973
vt 0.250000 0.700000
vn 0.100648 0.000000 0.994922
v -0.365786 0.970406 -0.070011
vt 0.375000 0.700000
vn 0.051511 0.000000 0.998672
v -0.212368 0.970406 -0.073811
vt 0.500000 0.700000
vn -0.000000 0.000000 1.000000
v -0.058950 0.970406 -0.070011
vt 0.625000 0.700000
vn -0.051511 0.000000 0.998672
v 0.094467 0.970406 -0.057973
vt 0.750000 0.700000
vn -0.100648 0.000000 0.994922
v 0.247885 0.970406 -0.038955
vt 0.875000 0.700000
vn -0.135183 0.000000 0.990821
v 0.401303 0.970406 -0.016104
vt 1.000000 0.700000
vn -0.147326 0.000000 0.989088
v -0.519204 1.038425 -0.057973
vt 0.250000 0.800000
vn 0.100648 0.000000 0.994922
v -0.672621 1.038425 -0.038955
vt 0.125000 0.800000
vn 0.135183 0.000000 0.990821
v -0.826039 1.038425 -0.016104
vt -0.000000 0.800000
vn 0.147326 0.000000 0.989088
v -0.365786 1.038425 -0.070011
vt 0.375000 0.800000
vn 0.051511 0.000000 0.998672
v -0.212368 1.038425 -0.073811
vt 0.500000 0.800000
vn -0.000000 0.000000 1.000000
v -0.058950 1.038425 -0.070011
vt 0.625000 0.800000
vn -0.051511 0.000000 0.998672
v 0.094467 1.038425 -0.057973
vt 0.750000 0.800000
vn -0.100648 0.000000 0.994922
v 0.247885 1.038425 -0.038955
vt 0.875000 0.800000
vn -0.135183 0.000000 0.990821
v 0.401303 1.038425 -0.016104
vt 1.000000 0.800000
vn -0.147326 0.000000 0.989088
v -0.826039 1.106445 -0.016104
vt 0.000000 0.900000
vn 0.147326 0.000000 0.989088
v -0.672621 1.106445 -0.038955
vt 0.125000 0.900000
vn 0.135183 0.000000 0.990821
v -0.519204 1.106445 -0.057973
vt 0.250000 0.900000
vn 0.100648 0.000000 0.994922
v -0.365786 1.106445 -0.070011
vt 0.375000 0.900000
vn 0.051511 0.000000 0.998672
v -0.212368 1.106445 -0.073811
vt 0.500000 0.900000
vn -0.000000 0.000000 1.000000
v -0.058950 1.106445 -0.070011
vt 0.625000 0.900000
vn -0.051511 0.000000 0.998672
v -0.212368 1.174464 -0.073811
vt 0.500000 1.000000
vn -0.000000 0.000000 1.000000
v -0.058950 1.174464 -0.070011
vt 0.625000 1.000000
vn -0.051511 0.000000 0.998672
v 0.094467 1.174464 -0.057973
vt 0.750000 1.000000
vn -0.100648 0.000000 0.994922
v 0.094467 1.106445 -0.057973
vt 0.750000 0.900000
vn -0.100648 0.000000 0.994922
v 0.247885 1.174464 -0.038955
vt 0.875000 1.000000
vn -0.135183 0.000000 0.990821
v 0.247885 1.106445 -0.038955
vt 0.875000 0.900000
vn -0.135183 0.000000 0.990821
v 0.401303 1.174464 -0.016104
vt 1.000000 1.000000
vn -0.147326 0.000000 0.989088
v 0.401303 1.106445 -0.016104
vt 1.000000 0.900000
vn -0.147326 0.000000 0.989088
v -0.365786 1.174464 -0.070011
vt 0.375000 1.000000
vn 0.051511 0.000000 0.998672
v -0.519204 1.174464 -0.057973
vt 0.250000 1.000000
vn 0.100648 0.000000 0.994922
v -0.672621 1.174464 -0.038955
vt 0.125000 1.000000
vn 0.135183 0.000000 0.990821
v -0.826039 1.174464 -0.016104
vt 0.000000 1.000000
vn 0.147326 0.000000 0.989088
# Faces (1 to 99)
f -97/-97/-97 -98/-98/-98 -99/-99/-99
f -96/-96/-96 -97/-97/-97 -99/-99/-99
f -98/-98/-98 -95/-95/-95 -99/-99/-99
f -95/-95/-95 -94/-94/-94 -99/-99/-99
f -95/-95/-95 -93/-93/-93 -94/-94/-94
f -93/-93/-93 -92/-92/-92 -94/-94/-94
f -93/-93/-93 -91/-91/-91 -92/-92/-92
f -91/-91/-91 -90/-90/-90 -92/-92/-92
f -91/-91/-91 -89/-89/-89 -90/-90/-90
f -89/-89/-89 -88/-88/-88 -90/-90/-90
f -89/-89/-89 -87/-87/-87 -88/-88/-88
f -87/-87/-87 -86/-86/-86 -88/-88/-88
f -87/-87/-87 -85/-85/-85 -86/-86/-86
f -85/-85/-85 -84/-84/-84 -86/-86/-86
f -85/-85/-85 -83/-83/-83 -84/-84/-84
f -83/-83/-83 -82/-82/-82 -84/-84/-84
f -94/-94/-94 -92/-92/-92 -81/-81/-81
f -94/-94/-94 -81/-81/-81 -80/-80/-80
f -99/-99/-99 -94/-94/-94 -80/-80/-80
f -96/-96/-96 -99/-99/-99 -80/-80/-80
f -79/-79/-79 -96/-96/-96 -80/-80/-80
f -92/-92/-92 -78/-78/-78 -81/-81/-81
f -92/-92/-92 -90/-90/-90 -78/-78/-78
f -90/-90/-90 -77/-77/-77 -78/-78/-78
f -90/-90/-90 -88/-88/-88 -77/-77/-77
f -88/-88/-88 -76/-76/-76 -77/-77/-77
f -88/-88/-88 -86/-86/-86 -76/-76/-76
f -86/-86/-86 -75/-75/-75 -76/-76/-76
f -86/-86/-86 -84/-84/-84 -75/-75/-75
f -84/-84/-84 -74/-74/-74 -75/-75/-75
f -84/-84/-84 -82/-82/-82 -74/-74/-74
f -82/-82/-82 -73/-73/-73 -74/-74/-74
f -79/-79/-79 -80/-80/-80 -72/-72/-72
f -71/-71/-71 -79/-79/-79 -72/-72/-72
f -80/-80/-80 -81/-81/-81 -72/-72/-72
f -81/-81/-81 -70/-70/-70 -72/-72/-72
f -81/-81/-81 -78/-78/-78 -70/-70/-70
f -78/-78/-78 -69/-69/-69 -70/-70/-70
f -78/-78/-78 -77/-77/-77 -69/-69/-69
f -77/-77/-77 -68/-68/-68 -69/-69/-69
f -77/-77/-77 -76/-76/-76 -68/-68/-68
f -76/-76/-76 -67/-67/-67 -68/-68/-68
f -76/-76/-76 -75/-75/-75 -67/-67/-67
f -75/-75/-75 -66/-66/-66 -67/-67/-67
f -75/-75/-75 -74/-74/-74 -66/-66/-66
f -74/-74/-74 -65/-65/-65 -66/-66/-66
f -74/-74/-74 -73/-73/-73 -65/-65/-65
f -73/-73/-73 -64/-64/-64 -65/-65/-65
f -70/-70/-70 -69/-69/-69 -63/-63/-63
f -70/-70/-70 -63/-63/-63 -62/-62/-62
f -72/-72/-72 -70/-70/-70 -62/-62/-62
f -71/-71/-71 -72/-72/-72 -62/-62/-62
f -61/-61/-61 -71/-71/-71 -62/-62/-62
f -69/-69/-69 -60/-60/-60 -63/-63/-63
f -69/-69/-69 -68/-68/-68 -60/-60/-60
f -68/-68/-68 -59/-59/-59 -60/-60/-60
f -68/-68/-68 -67/-67/-67 -59/-59/-59
f -67/-67/-67 -58/-58/-58 -59/-59/-59
f -67/-67/-67 -66/-66/-66 -58/-58/-58
f -66/-66/-66 -57/-57/-57 -58/-58/-58
f -66/-66/-66 -65/-65/-65 -57/-57/-57
f -65/-65/-65 -56/-56/-56 -57/-57/-57
f -65/-65/-65 -64/-64/-64 -56/-56/-56
f -64/-64/-64 -55/-55/-55 -56/-56/-56
f -61/-61/-61 -62/-62/-62 -54/-54/-54
f -53/-53/-53 -61/-61/-61 -54/-54/-54
f -62/-62/-62 -63/-63/-63 -54/-54/-54
f -63/-63/-63 -52/-52/-52 -54/-54/-54
f -63/-63/-63 -60/-60/-60 -52/-52/-52
f -60/-60/-60 -51/-51/-51 -52/-52/-52
f -60/-60/-60 -59/-59/-59 -51/-51/-51
f -59/-59/-59 -50/-50/-50 -51/-51/-51
f -59/-59/-59 -58/-58/-58 -50/-50/-50
f -58/-58/-58 -49/-49/-49 -50/-50/-50
f -58/-58/-58 -57/-57/-57 -49/-49/-49
f -57/-57/-57 -48/-48/-48 -49/-49/-49
f -57/-57/-57 -56/-56/-56 -48/-48/-48
f -56/-56/-56 -47/-47/-47 -48/-48/-48
f -56/-56/-56 -55/-55/-55 -47/-47/-47
f -55/-55/-55 -46/-46/-46 -47/-47/-47
f -52/-52/-52 -51/-51/-51 -45/-45/-45
f -52/-52/-52 -45/-45/-45 -44/-44/-44
f -54/-54/-54 -52/-52/-52 -44/-44/-44
f -53/-53/-53 -54/-54/-54 -44/-44/-44
f -43/-43/-43 -53/-53/-53 -44/-44/-44
f -51/-51/-51 -42/-42/-42 -45/-45/-45
f -51/-51/-51 -50/-50/-50 -42/-42/-42
f -50/-50/-50 -41/-41/-41 -42/-42/-42
f -50/-50/-50 -49/-49/-49 -41/-41/-41
f -49/-49/-49 -40/-40/-40 -41/-41/-41
f -49/-49/-49 -48/-48/-48 -40/-40/-40
f -48/-48/-48 -39/-39/-39 -40/-40/-40
f -48/-48/-48 -47/-47/-47 -39/-39/-39
f -47/-47/-47 -38/-38/-38 -39/-39/-39
f -47/-47/-47 -46/-46/-46 -38/-38/-38
f -46/-46/-46 -37/-37/-37 -38/-38/-38
f -43/-43/-43 -44/-44/-44 -36/-36/-36
f -35/-35/-35 -43/-43/-43 -36/-36/-36
f -44/-44/-44 -45/-45/-45 -36/-36/-36
f -45/-45/-45 -34/-34/-34 -36/-36/-36
f -45/-45/-45 -42/-42/-42 -34/-34/-34
f -42/-42/-42 -33/-33/-33 -34/-34/-34
f -42/-42/-42 -41/-41/-41 -33/-33/-33
f -41/-41/-41 -32/-32/-32 -33/-33/-33
f -41/-41/-41 -40/-40/-40 -32/-32/-32
f -40/-40/-40 -31/-31/-31 -32/-32/-32
f -40/-40/-40 -39/-39/-39 -31/-31/-31
f -39/-39/-39 -30/-30/-30 -31/-31/-31
f -39/-39/-39 -38/-38/-38 -30/-30/-30
f -38/-38/-38 -29/-29/-29 -30/-30/-30
f -38/-38/-38 -37/-37/-37 -29/-29/-29
f -37/-37/-37 -28/-28/-28 -29/-29/-29
f -34/-34/-34 -33/-33/-33 -27/-27/-27
f -34/-34/-34 -27/-27/-27 -26/-26/-26
f -36/-36/-36 -34/-34/-34 -26/-26/-26
f -35/-35/-35 -36/-36/-36 -26/-26/-26
f -25/-25/-25 -35/-35/-35 -26/-26/-26
f -33/-33/-33 -24/-24/-24 -27/-27/-27
f -33/-33/-33 -32/-32/-32 -24/-24/-24
f -32/-32/-32 -23/-23/-23 -24/-24/-24
f -32/-32/-32 -31/-31/-31 -23/-23/-23
f -31/-31/-31 -22/-22/-22 -23/-23/-23
f -31/-31/-31 -30/-30/-30 -22/-22/-22
f -30/-30/-30 -21/-21/-21 -22/-22/-22
f -30/-30/-30 -29/-29/-29 -21/-21/-21
f -29/-29/-29 -20/-20/-20 -21/-21/-21
f -29/-29/-29 -28/-28/-28 -20/-20/-20
f -28/-28/-28 -19/-19/-19 -20/-20/-20
f -25/-25/-25 -26/-26/-26 -18/-18/-18
f -26/-26/-26 -17/-17/-17 -18/-18/-18
f -26/-26/-26 -27/-27/-27 -17/-17/-17
f -27/-27/-27 -16/-16/-16 -17/-17/-17
f -27/-27/-27 -24/-24/-24 -16/-16/-16
f -24/-24/-24 -15/-15/-15 -16/-16/-16
f -24/-24/-24 -23/-23/-23 -15/-15/-15
f -23/-23/-23 -14/-14/-14 -15/-15/-15
f -14/-14/-14 -23/-23/-23 -13/-13/-13
f -12/-12/-12 -14/-14/-14 -13/-13/-13
f -15/-15/-15 -14/-14/-14 -12/-12/-12
f -11/-11/-11 -12/-12/-12 -13/-13/-13
f -11/-11/-11 -13/-13/-13 -10/-10/-10
f -13/-13/-13 -9/-9/-9 -10/-10/-10
f -10/-10/-10 -9/-9/-9 -8/-8/-8
f -9/-9/-9 -7/-7/-7 -8/-8/-8
f -8/-8/-8 -7/-7/-7 -6/-6/-6
f -7/-7/-7 -5/-5/-5 -6/-6/-6
f -23/-23/-23 -22/-22/-22 -13/-13/-13
f -21/-21/-21 -9/-9/-9 -13/-13/-13
f -22/-22/-22 -21/-21/-21 -13/-13/-13
f -20/-20/-20 -7/-7/-7 -9/-9/-9
f -21/-21/-21 -20/-20/-20 -9/-9/-9
f -7/-7/-7 -20/-20/-20 -5/-5/-5
f -20/-20/-20 -19/-19/-19 -5/-5/-5
f -4/-4/-4 -15/-15/-15 -12/-12/-12
f -16/-16/-16 -15/-15/-15 -4/-4/-4
f -3/-3/-3 -16/-16/-16 -4/-4/-4
f -17/-17/-17 -16/-16/-16 -3/-3/-3
f -2/-2/-2 -17/-17/-17 -3/-3/-3
f -18/-18/-18 -17/-17/-17 -2/-2/-2
f -1/-1/-1 -18/-18/-18 -2/-2/-2

