# Mesh "Upper_wall" exported with Unity Assets Bundle Extractor; 68 vertices, 144 indices, 56 bytes per vertex
g Upper_wall
# SubMesh 0
# Vertices
v -0.121082 -0.002781 -0.005944
vt 0.333873 0.526144
vn -0.000000 0.000000 1.000000
v -0.121082 0.079661 -0.005944
vt 0.083508 0.526143
vn -0.000000 0.000000 1.000000
v -0.006255 0.079661 -0.005944
vt 0.083508 0.874857
vn -0.000000 0.000000 1.000000
v -0.006255 -0.002781 -0.005944
vt 0.333873 0.874857
vn -0.000000 0.000000 1.000000
v -0.235909 -0.002781 -0.005944
vt 0.333873 0.177430
vn -0.000000 0.000000 1.000000
v -0.235909 0.079661 -0.005944
vt 0.083508 0.177430
vn -0.000000 0.000000 1.000000
v -0.235909 0.079661 -0.008286
vt 0.333515 0.177430
vn -0.000000 0.000000 -1.000000
v -0.235909 -0.002781 -0.008286
vt 0.083149 0.177431
vn -0.000000 0.000000 -1.000000
v -0.121082 -0.002781 -0.008286
vt 0.083149 0.526144
vn -0.000000 0.000000 -1.000000
v -0.121082 0.079661 -0.008286
vt 0.333515 0.526144
vn -0.000000 0.000000 -1.000000
v -0.006255 -0.002781 -0.008286
vt 0.083149 0.874857
vn -0.000000 0.000000 -1.000000
v -0.006255 0.079661 -0.008286
vt 0.333515 0.874857
vn -0.000000 0.000000 -1.000000
# Faces (1 to 12)
f -10/-10/-10 -11/-11/-11 -12/-12/-12
f -9/-9/-9 -10/-10/-10 -12/-12/-12
f -12/-12/-12 -11/-11/-11 -8/-8/-8
f -11/-11/-11 -7/-7/-7 -8/-8/-8
f -4/-4/-4 -5/-5/-5 -6/-6/-6
f -3/-3/-3 -4/-4/-4 -6/-6/-6
f -2/-2/-2 -4/-4/-4 -3/-3/-3
f -1/-1/-1 -2/-2/-2 -3/-3/-3

# SubMesh 1
# Vertices
v -0.235228 0.089843 0.000000
vt 0.516860 0.538639
vn -0.000000 1.000000 0.000000
v -0.240614 0.089843 0.000000
vt 0.516860 0.545455
vn -0.000000 1.000000 0.000000
v -0.240614 0.089843 -0.014559
vt 0.535284 0.545455
vn -0.000000 1.000000 0.000000
v -0.235228 0.089843 -0.014559
vt 0.535284 0.538639
vn -0.000000 1.000000 0.000000
v -0.006767 0.089843 0.000000
vt 0.516860 0.249513
vn -0.000000 1.000000 0.000000
v -0.006767 0.089843 -0.014559
vt 0.535284 0.249513
vn -0.000000 1.000000 0.000000
v -0.000000 0.089843 0.000000
vt 0.516860 0.240949
vn -0.000000 1.000000 0.000000
v -0.000000 0.089843 -0.014559
vt 0.535284 0.240949
vn -0.000000 1.000000 0.000000
v -0.240614 0.078576 0.000000
vt 0.549543 0.563880
vn -1.000000 -0.000000 0.000000
v -0.240614 0.000000 0.000000
vt 0.648984 0.563880
vn -1.000000 -0.000000 0.000000
v -0.240614 0.000000 -0.014559
vt 0.648984 0.545455
vn -1.000000 -0.000000 0.000000
v -0.240614 0.078576 -0.014559
vt 0.549543 0.545455
vn -1.000000 -0.000000 0.000000
v -0.240614 0.089843 0.000000
vt 0.535284 0.563880
vn -1.000000 0.000000 0.000000
v -0.240614 0.089843 -0.014559
vt 0.535284 0.545455
vn -1.000000 0.000000 0.000000
v -0.000000 0.078576 -0.014559
vt 0.549542 0.886810
vn 1.000000 0.000000 0.000000
v -0.000000 0.000000 -0.014559
vt 0.648983 0.886811
vn 1.000000 0.000000 0.000000
v -0.000000 0.000000 0.000000
vt 0.648983 0.868386
vn 1.000000 0.000000 0.000000
v -0.000000 0.078576 0.000000
vt 0.549542 0.868386
vn 1.000000 0.000000 0.000000
v -0.000000 0.089843 -0.014559
vt 0.535283 0.886810
vn 1.000000 -0.000001 0.000000
v -0.000000 0.089843 0.000000
vt 0.535283 0.868385
vn 1.000000 -0.000001 0.000000
v -0.240614 0.078576 -0.014559
vt 0.549543 0.545455
vn -0.000001 0.000000 -1.000000
v -0.240614 0.000000 -0.014559
vt 0.648984 0.545455
vn -0.000001 0.000000 -1.000000
v -0.235228 0.000000 -0.014559
vt 0.648984 0.538639
vn -0.000001 0.000000 -1.000000
v -0.235228 0.078576 -0.014559
vt 0.549544 0.538639
vn -0.000001 0.000000 -1.000000
v -0.235228 0.089843 -0.014559
vt 0.535284 0.538639
vn -0.000000 0.000000 -1.000000
v -0.006767 0.089843 -0.014559
vt 0.535284 0.249513
vn -0.000000 0.000000 -1.000000
v -0.006767 0.078576 -0.014559
vt 0.549544 0.249513
vn -0.000000 0.000000 -1.000000
v -0.000000 0.089843 -0.014559
vt 0.535284 0.240949
vn -0.000000 0.000000 -1.000000
v -0.000000 0.078576 -0.014559
vt 0.549543 0.240949
vn -0.000000 0.000000 -1.000000
v -0.000000 0.000000 -0.014559
vt 0.648984 0.240949
vn -0.000000 0.000000 -1.000000
v -0.006767 0.000000 -0.014559
vt 0.648984 0.249513
vn -0.000000 0.000000 -1.000000
v -0.240614 0.089843 -0.014559
vt 0.535284 0.545455
vn -0.000000 0.000000 -1.000000
v -0.235228 0.078576 0.000000
vt 0.549543 0.570696
vn -0.000000 0.000000 1.000000
v -0.240614 0.078576 0.000000
vt 0.549543 0.563880
vn -0.000000 0.000000 1.000000
v -0.240614 0.089843 0.000000
vt 0.535284 0.563880
vn -0.000000 0.000000 1.000000
v -0.235228 0.089843 0.000000
vt 0.535284 0.570696
vn -0.000000 0.000000 1.000000
v -0.240614 0.000000 0.000000
vt 0.648984 0.563880
vn -0.000000 0.000000 1.000000
v -0.235228 0.000000 0.000000
vt 0.648984 0.570697
vn -0.000000 0.000000 1.000000
v -0.006767 0.078576 0.000000
vt 0.549542 0.859823
vn -0.000000 0.000000 1.000000
v -0.006767 0.089843 0.000000
vt 0.535283 0.859823
vn -0.000000 0.000000 1.000000
v -0.000000 0.089843 0.000000
vt 0.535283 0.868386
vn -0.000000 0.000000 1.000000
v -0.000000 0.078576 0.000000
vt 0.549542 0.868386
vn -0.000000 0.000000 1.000000
v -0.006767 0.000000 0.000000
vt 0.648983 0.859823
vn -0.000000 0.000000 1.000000
v -0.000000 0.000000 0.000000
vt 0.648983 0.868386
vn -0.000000 0.000000 1.000000
v -0.235228 0.078576 0.000000
vt 0.549543 0.570696
vn -0.000000 -1.000000 0.000000
v -0.006767 0.078576 0.000000
vt 0.549542 0.859823
vn -0.000000 -1.000000 0.000000
v -0.006767 0.078576 -0.014559
vt 0.567967 0.859823
vn -0.000000 -1.000000 0.000000
v -0.235228 0.078576 -0.014559
vt 0.567968 0.570696
vn -0.000000 -1.000000 0.000000
v -0.235228 0.078576 -0.014559
vt 0.549544 0.538639
vn 1.000000 0.000000 0.000000
v -0.235228 0.000000 -0.014559
vt 0.648984 0.538639
vn 1.000000 0.000000 0.000000
v -0.235228 0.000000 0.000000
vt 0.648984 0.520214
vn 1.000000 0.000000 0.000000
v -0.235228 0.078576 0.000000
vt 0.549544 0.520214
vn 1.000000 0.000000 0.000000
v -0.006767 0.078576 0.000000
vt 0.549543 0.267937
vn -1.000000 0.000000 0.000000
v -0.006767 0.000000 0.000000
vt 0.648984 0.267937
vn -1.000000 0.000000 0.000000
v -0.006767 0.000000 -0.014559
vt 0.648984 0.249513
vn -1.000000 0.000000 0.000000
v -0.006767 0.078576 -0.014559
vt 0.549544 0.249513
vn -1.000000 0.000000 0.000000
# Faces (13 to 68)
f -54/-54/-54 -55/-55/-55 -56/-56/-56
f -53/-53/-53 -54/-54/-54 -56/-56/-56
f -53/-53/-53 -56/-56/-56 -52/-52/-52
f -51/-51/-51 -53/-53/-53 -52/-52/-52
f -51/-51/-51 -52/-52/-52 -50/-50/-50
f -49/-49/-49 -51/-51/-51 -50/-50/-50
f -46/-46/-46 -47/-47/-47 -48/-48/-48
f -45/-45/-45 -46/-46/-46 -48/-48/-48
f -45/-45/-45 -48/-48/-48 -44/-44/-44
f -43/-43/-43 -45/-45/-45 -44/-44/-44
f -40/-40/-40 -41/-41/-41 -42/-42/-42
f -39/-39/-39 -40/-40/-40 -42/-42/-42
f -39/-39/-39 -42/-42/-42 -38/-38/-38
f -37/-37/-37 -39/-39/-39 -38/-38/-38
f -34/-34/-34 -35/-35/-35 -36/-36/-36
f -33/-33/-33 -34/-34/-34 -36/-36/-36
f -32/-32/-32 -33/-33/-33 -36/-36/-36
f -33/-33/-33 -32/-32/-32 -31/-31/-31
f -30/-30/-30 -33/-33/-33 -31/-31/-31
f -31/-31/-31 -29/-29/-29 -30/-30/-30
f -29/-29/-29 -28/-28/-28 -30/-30/-30
f -28/-28/-28 -27/-27/-27 -30/-30/-30
f -27/-27/-27 -26/-26/-26 -30/-30/-30
f -25/-25/-25 -32/-32/-32 -36/-36/-36
f -22/-22/-22 -23/-23/-23 -24/-24/-24
f -21/-21/-21 -22/-22/-22 -24/-24/-24
f -23/-23/-23 -20/-20/-20 -24/-24/-24
f -20/-20/-20 -19/-19/-19 -24/-24/-24
f -24/-24/-24 -18/-18/-18 -21/-21/-21
f -18/-18/-18 -17/-17/-17 -21/-21/-21
f -17/-17/-17 -18/-18/-18 -16/-16/-16
f -18/-18/-18 -15/-15/-15 -16/-16/-16
f -18/-18/-18 -14/-14/-14 -15/-15/-15
f -14/-14/-14 -13/-13/-13 -15/-15/-15
f -10/-10/-10 -11/-11/-11 -12/-12/-12
f -9/-9/-9 -10/-10/-10 -12/-12/-12
f -6/-6/-6 -7/-7/-7 -8/-8/-8
f -5/-5/-5 -6/-6/-6 -8/-8/-8
f -2/-2/-2 -3/-3/-3 -4/-4/-4
f -1/-1/-1 -2/-2/-2 -4/-4/-4

