# Mesh "vigil" exported with Unity Assets Bundle Extractor; 24 vertices, 36 indices, 48 bytes per vertex
g vigil
# SubMesh 0
# Vertices
v -0.034926 -0.012042 0.000193
vt 0.001486 0.998008
vn -0.000000 0.000000 1.000000
v -0.034926 0.012042 0.000193
vt 0.344890 0.998008
vn -0.000000 0.000000 1.000000
v 0.034926 0.012042 0.000193
vt 0.344890 0.001992
vn -0.000000 0.000000 1.000000
v 0.034926 -0.012042 0.000193
vt 0.001486 0.001992
vn -0.000000 0.000000 1.000000
v -0.034926 0.012042 0.000193
vt 0.351557 0.998008
vn -0.000000 1.000000 0.000000
v -0.034926 0.012042 -0.000193
vt 0.357053 0.998008
vn -0.000000 1.000000 0.000000
v 0.034926 0.012042 -0.000193
vt 0.357053 0.001992
vn -0.000000 1.000000 0.000000
v 0.034926 0.012042 0.000193
vt 0.351557 0.001992
vn -0.000000 1.000000 0.000000
v -0.034926 0.012042 -0.000193
vt 0.364053 0.998008
vn -0.000000 0.000000 -1.000000
v -0.034926 -0.012042 -0.000193
vt 0.707457 0.998008
vn -0.000000 0.000000 -1.000000
v 0.034926 -0.012042 -0.000193
vt 0.707457 0.001992
vn -0.000000 0.000000 -1.000000
v 0.034926 0.012042 -0.000193
vt 0.364053 0.001992
vn -0.000000 0.000000 -1.000000
v -0.034926 -0.012042 -0.000193
vt 0.713946 0.998008
vn -0.000000 -1.000000 0.000000
v -0.034926 -0.012042 0.000193
vt 0.719442 0.998008
vn -0.000000 -1.000000 0.000000
v 0.034926 -0.012042 0.000193
vt 0.719442 0.001992
vn -0.000000 -1.000000 0.000000
v 0.034926 -0.012042 -0.000193
vt 0.713946 0.001992
vn -0.000000 -1.000000 0.000000
v 0.034926 -0.012042 0.000193
vt 0.726442 0.001992
vn 1.000000 0.000000 0.000000
v 0.034926 0.012042 0.000193
vt 0.726442 0.345396
vn 1.000000 0.000000 0.000000
v 0.034926 0.012042 -0.000193
vt 0.731938 0.345396
vn 1.000000 0.000000 0.000000
v 0.034926 -0.012042 -0.000193
vt 0.731938 0.001992
vn 1.000000 0.000000 0.000000
v -0.034926 -0.012042 -0.000193
vt 0.738938 0.001992
vn -1.000000 0.000000 0.000000
v -0.034926 0.012042 -0.000193
vt 0.738938 0.345396
vn -1.000000 0.000000 0.000000
v -0.034926 0.012042 0.000193
vt 0.744434 0.345396
vn -1.000000 0.000000 0.000000
v -0.034926 -0.012042 0.000193
vt 0.744434 0.001992
vn -1.000000 0.000000 0.000000
# Faces (1 to 24)
f -22/-22/-22 -23/-23/-23 -24/-24/-24
f -21/-21/-21 -22/-22/-22 -24/-24/-24
f -18/-18/-18 -19/-19/-19 -20/-20/-20
f -17/-17/-17 -18/-18/-18 -20/-20/-20
f -14/-14/-14 -15/-15/-15 -16/-16/-16
f -13/-13/-13 -14/-14/-14 -16/-16/-16
f -10/-10/-10 -11/-11/-11 -12/-12/-12
f -9/-9/-9 -10/-10/-10 -12/-12/-12
f -6/-6/-6 -7/-7/-7 -8/-8/-8
f -5/-5/-5 -6/-6/-6 -8/-8/-8
f -2/-2/-2 -3/-3/-3 -4/-4/-4
f -1/-1/-1 -2/-2/-2 -4/-4/-4

