# Mesh "wall_roundCorner4" exported with Unity Assets Bundle Extractor; 177 vertices, 468 indices, 56 bytes per vertex
g wall_roundCorner4
# SubMesh 0
# Vertices
v -1.393761 3.844068 -2.600000
vt 0.269887 1.109140
vn 0.007329 -0.830339 -0.557210
v -1.363389 3.864760 -2.630430
vt 0.284007 1.109140
vn 0.011677 -0.470516 -0.882314
v -2.630458 3.864760 -2.630459
vt 0.284005 0.629449
vn 0.000016 -0.467913 -0.883775
v -2.630458 3.844068 -2.600000
vt 0.269894 0.629449
vn -0.000000 -0.827059 -0.562115
v -1.081684 3.864760 -2.622952
vt 0.284008 1.217107
vn 0.074703 -0.483584 -0.872104
v -1.112124 3.844068 -2.592533
vt 0.269885 1.217107
vn 0.044732 -0.846221 -0.530951
v -0.802942 3.864760 -2.581991
vt 0.284008 1.325031
vn 0.210478 -0.506062 -0.836421
v -0.833534 3.844068 -2.551626
vt 0.269883 1.325031
vn 0.118025 -0.871817 -0.475401
v -0.538220 3.864760 -2.485219
vt 0.284009 1.432985
vn 0.209902 -0.892951 -0.398220
v -0.802942 3.864760 -2.581991
vt 0.284008 1.325031
vn 0.118025 -0.871817 -0.475401
v -0.569008 3.844068 -2.455022
vt 0.269881 1.432985
vn 0.209902 -0.892951 -0.398220
v -0.310511 3.864760 -2.319293
vt 0.284009 1.540887
vn 0.306772 -0.901025 -0.306669
v -0.341429 3.844068 -2.289430
vt 0.269880 1.540887
vn 0.306772 -0.901025 -0.306669
v -0.144995 3.864760 -2.091608
vt 0.284010 1.648805
vn 0.398120 -0.893058 -0.209637
v -0.175585 3.844068 -2.061607
vt 0.269878 1.648805
vn 0.398120 -0.893058 -0.209637
v -0.048430 3.864760 -1.826958
vt 0.284010 1.756799
vn 0.475461 -0.871798 -0.117919
v -0.078863 3.844068 -1.796751
vt 0.269876 1.756800
vn 0.475461 -0.871798 -0.117919
v -0.007532 3.864760 -1.548239
vt 0.284011 1.864774
vn 0.872215 -0.483392 -0.074654
v -0.048430 3.864760 -1.826958
vt 0.284010 1.756799
vn 0.836576 -0.505870 -0.210326
v -0.037927 3.844068 -1.517864
vt 0.269874 1.864775
vn 0.531192 -0.846071 -0.044710
v -0.000056 3.864760 -1.266472
vt 0.284011 1.972794
vn 0.882390 -0.470373 -0.011683
v -0.030459 3.844068 -1.236011
vt 0.269873 1.972795
vn 0.557457 -0.830174 -0.007332
v -2.630458 3.926835 -2.630459
vt 0.358215 0.003519
vn 0.000016 0.467913 -0.883775
v -2.630458 3.864760 -2.630459
vt 0.271395 0.003520
vn 0.000016 -0.467913 -0.883775
v -1.363389 3.864760 -2.630430
vt 0.271436 1.015087
vn 0.011677 -0.470516 -0.882314
v -1.363389 3.926835 -2.630430
vt 0.358259 1.015086
vn 0.011677 0.470516 -0.882314
v -1.081759 3.926835 -2.622957
vt 0.358268 1.242766
vn 0.074702 0.483573 -0.872111
v -1.081684 3.864760 -2.622952
vt 0.271445 1.242767
vn 0.074703 -0.483584 -0.872104
v -0.803172 3.926835 -2.582045
vt 0.358278 1.470355
vn 0.213000 0.324203 -0.921696
v -0.802942 3.864760 -2.581991
vt 0.271454 1.470356
vn 0.212978 -0.324415 -0.921626
v -0.538647 3.926835 -2.485440
vt 0.358288 1.698007
vn 0.470483 -0.000345 -0.882409
v -0.538220 3.864760 -2.485219
vt 0.271463 1.698008
vn 0.470483 -0.000345 -0.882409
v -0.311067 3.926835 -2.319850
vt 0.358298 1.925549
vn 0.707260 -0.000007 -0.706953
v -0.310511 3.864760 -2.319293
vt 0.271472 1.925550
vn 0.707260 -0.000007 -0.706953
v -1.393761 3.947527 -2.600000
vt 0.269902 0.123532
vn 0.007329 0.830352 -0.557191
v -2.630458 3.947527 -2.600000
vt 0.269895 0.603223
vn -0.000000 0.827059 -0.562115
v -2.630458 3.926835 -2.630459
vt 0.284005 0.603223
vn 0.000016 0.467913 -0.883775
v -1.363389 3.926835 -2.630430
vt 0.284003 0.123532
vn 0.011677 0.470516 -0.882314
v -1.112051 3.947527 -2.592528
vt 0.269904 0.015565
vn 0.044720 0.846285 -0.530850
v -1.081759 3.926835 -2.622957
vt 0.284002 0.015565
vn 0.074702 0.483573 -0.872111
v -0.833304 3.947527 -2.551571
vt 0.269906 -0.092359
vn 0.117958 0.871953 -0.475168
v -0.803172 3.926835 -2.582045
vt 0.284002 -0.092359
vn 0.210481 0.506012 -0.836450
v -0.803172 3.926835 -2.582045
vt 0.284002 -0.092359
vn 0.117958 0.871953 -0.475168
v -0.568580 3.947527 -2.454800
vt 0.269907 -0.200313
vn 0.209721 0.893138 -0.397896
v -0.538647 3.926835 -2.485440
vt 0.284001 -0.200313
vn 0.209721 0.893138 -0.397896
v -0.340874 3.947527 -2.288873
vt 0.269909 -0.308215
vn 0.306814 0.901027 -0.306619
v -0.311067 3.926835 -2.319850
vt 0.284001 -0.308215
vn 0.306814 0.901027 -0.306619
v -0.175364 3.947527 -2.061180
vt 0.269911 -0.416133
vn 0.398440 0.892874 -0.209815
v -0.145217 3.926835 -2.092035
vt 0.284001 -0.416133
vn 0.398440 0.892874 -0.209815
v -0.078809 3.947527 -1.796521
vt 0.269913 -0.524128
vn 0.475699 0.871659 -0.117987
v -0.048485 3.926835 -1.827188
vt 0.284000 -0.524128
vn 0.475699 0.871659 -0.117987
v -0.048485 3.926835 -1.827188
vt 0.284000 -0.524128
vn 0.836543 0.505924 -0.210323
v -0.037922 3.947527 -1.517791
vt 0.269914 -0.632102
vn 0.531301 0.846002 -0.044724
v -0.007538 3.926835 -1.548312
vt 0.284000 -0.632102
vn 0.872207 0.483406 -0.074656
v -0.030459 3.947527 -1.236011
vt 0.269916 -0.740123
vn 0.557480 0.830158 -0.007333
v -0.000056 3.926835 -1.266472
vt 0.283999 -0.740123
vn 0.882390 0.470374 -0.011683
v -0.030459 3.947527 0.000000
vt 0.269924 -1.219568
vn 0.562290 0.826940 -0.000013
v -0.000000 3.926835 0.000000
vt 0.283997 -1.219568
vn 0.883824 0.467820 -0.000032
v -0.000000 3.926835 0.000000
vt 0.283997 -1.219568
vn -0.000000 0.000000 1.000000
v -0.000000 3.864760 0.000000
vt 0.283997 -1.245794
vn -0.000000 0.000000 1.000000
v -0.030459 3.844068 0.000000
vt 0.269924 -1.245794
vn -0.000000 0.000000 1.000000
v -0.030459 3.947527 0.000000
vt 0.269924 -1.219568
vn -0.000000 0.000000 1.000000
v -2.630458 3.947527 -2.600000
vt 0.269895 0.603223
vn -1.000000 0.000000 0.000000
v -2.630458 3.844068 -2.600000
vt 0.269894 0.629449
vn -1.000000 0.000000 0.000000
v -2.630458 3.864760 -2.630459
vt 0.284005 0.629449
vn -1.000000 0.000000 0.000000
v -2.630458 3.926835 -2.630459
vt 0.284005 0.603223
vn -1.000000 0.000000 0.000000
v -0.000056 3.926835 -1.266472
vt 0.358337 2.836351
vn 0.882390 0.470374 -0.011683
v -0.000056 3.864760 -1.266472
vt 0.271508 2.836352
vn 0.882390 -0.470373 -0.011683
v -0.000000 3.864760 0.000000
vt 0.271548 3.847402
vn 0.883824 -0.467820 -0.000032
v -0.000000 3.926835 0.000000
vt 0.358381 3.847401
vn 0.883824 0.467820 -0.000032
v -0.007532 3.864760 -1.548239
vt 0.271499 2.608560
vn 0.872215 -0.483392 -0.074654
v -0.007538 3.926835 -1.548312
vt 0.358328 2.608559
vn 0.872207 0.483406 -0.074656
v -0.048430 3.864760 -1.826958
vt 0.271490 2.380864
vn 0.921775 -0.324093 -0.212826
v -0.048485 3.926835 -1.827188
vt 0.358318 2.380863
vn 0.921702 0.324314 -0.212804
v -0.144995 3.864760 -2.091608
vt 0.271481 2.153126
vn 0.882579 0.000341 -0.470165
v -0.145217 3.926835 -2.092035
vt 0.358308 2.153125
vn 0.882579 0.000341 -0.470165
v -0.310511 3.864760 -2.319293
vt 0.271472 1.925550
vn 0.707260 -0.000007 -0.706953
v -0.311067 3.926835 -2.319850
vt 0.358298 1.925549
vn 0.707260 -0.000007 -0.706953
v -0.030459 3.844068 0.000000
vt 0.269924 -1.245794
vn 0.562290 -0.826940 -0.000013
v -0.000000 3.864760 0.000000
vt 0.283997 -1.245794
vn 0.883824 -0.467820 -0.000032
v -0.000056 3.864760 -1.266472
vt 0.283995 -1.725239
vn 0.882390 -0.470373 -0.011683
v -0.030459 3.844068 -1.236011
vt 0.269932 -1.725239
vn 0.557457 -0.830174 -0.007332
v -2.630458 0.219025 -2.630459
vt 0.168071 0.013588
vn 0.000023 0.000000 -1.000000
v -2.630458 0.000000 -2.630459
vt 0.000162 0.013592
vn 0.000023 0.000000 -1.000000
v -1.363389 0.000000 -2.630430
vt 0.000184 0.984955
vn 0.013278 0.000000 -0.999912
v -1.363389 0.219025 -2.630430
vt 0.168093 0.984951
vn 0.013278 0.000000 -0.999912
v -1.081759 0.219025 -2.622957
vt 0.168098 1.202711
vn 0.086090 -0.000021 -0.996287
v -1.081684 0.000000 -2.622952
vt 0.000189 1.202715
vn 0.086090 -0.000021 -0.996287
v -0.803172 0.219025 -2.582045
vt 0.168103 1.420395
vn 0.245549 -0.000056 -0.969384
v -0.802942 0.000000 -2.581991
vt 0.000194 1.420398
vn 0.245549 -0.000056 -0.969384
v -0.538647 0.219025 -2.485440
vt 0.168108 1.638149
vn 0.470483 -0.000098 -0.882409
v -0.538220 0.000000 -2.485219
vt 0.000199 1.638153
vn 0.470483 -0.000098 -0.882409
v -0.311067 0.219025 -2.319850
vt 0.168113 1.855807
vn 0.707260 0.000000 -0.706953
v -0.310511 0.000000 -2.319293
vt 0.000204 1.855810
vn 0.707260 0.000000 -0.706953
v -1.393761 0.219025 -2.600000
vt 0.136869 -0.002725
vn -0.000000 1.000000 0.000000
v -2.630458 0.219025 -2.600000
vt 0.136869 0.985259
vn -0.000000 1.000000 0.000000
v -2.630458 0.219025 -2.630459
vt 0.160909 0.985259
vn -0.000000 1.000000 0.000000
v -1.363389 0.219025 -2.630430
vt 0.160884 -0.002725
vn -0.000000 1.000000 0.000000
v -1.112051 0.219025 -2.592528
vt 0.136869 -0.224211
vn -0.000000 1.000000 0.000000
v -1.081759 0.219025 -2.622957
vt 0.160879 -0.224211
vn -0.000000 1.000000 0.000000
v -0.833304 0.219025 -2.551571
vt 0.136869 -0.445620
vn -0.000000 1.000000 0.000000
v -0.803172 0.219025 -2.582045
vt 0.160873 -0.445620
vn -0.000000 1.000000 0.000000
v -0.568580 0.219025 -2.454800
vt 0.136869 -0.667101
vn -0.000000 1.000000 0.000000
v -0.538647 0.219025 -2.485440
vt 0.160868 -0.667101
vn -0.000000 1.000000 0.000000
v -0.340874 0.219025 -2.288873
vt 0.136869 -0.888482
vn -0.000000 1.000000 0.000000
v -0.311067 0.219025 -2.319850
vt 0.160862 -0.888482
vn -0.000000 1.000000 0.000000
v -0.175364 0.219025 -2.061180
vt 0.136869 -1.109818
vn -0.000000 1.000000 0.000000
v -0.145217 0.219025 -2.092035
vt 0.160857 -1.109818
vn -0.000000 1.000000 0.000000
v -0.078809 0.219025 -1.796521
vt 0.136869 -1.331318
vn -0.000000 1.000000 0.000000
v -0.048485 0.219025 -1.827188
vt 0.160851 -1.331318
vn -0.000000 1.000000 0.000000
v -0.037922 0.219025 -1.517791
vt 0.136869 -1.552788
vn -0.000000 1.000000 0.000000
v -0.007538 0.219025 -1.548312
vt 0.160846 -1.552788
vn -0.000000 1.000000 0.000000
v -0.030459 0.219025 -1.236011
vt 0.136869 -1.774363
vn -0.000000 1.000000 0.000000
v -0.000056 0.219025 -1.266472
vt 0.160840 -1.774363
vn -0.000000 1.000000 0.000000
v -0.030459 0.219025 0.000000
vt 0.136869 -2.761855
vn -0.000000 1.000000 0.000000
v -0.000000 0.219025 0.000000
vt 0.160816 -2.761855
vn -0.000000 1.000000 0.000000
v -0.000000 0.219025 0.000000
vt 0.160816 -2.761855
vn -0.000000 0.000000 1.000000
v -0.000000 0.000000 0.000000
vt 0.160811 -2.934013
vn -0.000000 0.000000 1.000000
v -0.030459 0.000443 0.000000
vt 0.136869 -2.934013
vn -0.000000 0.000000 1.000000
v -0.030459 0.219025 0.000000
vt 0.136869 -2.761855
vn -0.000000 0.000000 1.000000
v -2.630458 0.219025 -2.600000
vt 0.136869 0.985259
vn -1.000000 0.000000 0.000000
v -2.630458 0.000443 -2.600000
vt 0.136869 1.157417
vn -1.000000 0.000000 0.000000
v -2.630458 0.000000 -2.630459
vt 0.160913 1.157417
vn -1.000000 0.000000 0.000000
v -2.630458 0.219025 -2.630459
vt 0.160909 0.985259
vn -1.000000 0.000000 0.000000
v -0.000056 0.219025 -1.266472
vt 0.168133 2.726783
vn 0.999912 0.000000 -0.013288
v -0.000056 0.000000 -1.266472
vt 0.000223 2.726787
vn 0.999912 0.000000 -0.013288
v -0.000000 0.000000 0.000000
vt 0.000245 3.697665
vn 1.000000 0.000000 -0.000045
v -0.000000 0.219025 0.000000
vt 0.168155 3.697661
vn 1.000000 0.000000 -0.000045
v -0.007532 0.000000 -1.548239
vt 0.000219 2.508940
vn 0.996293 0.000023 -0.086031
v -0.007538 0.219025 -1.548312
vt 0.168128 2.508936
vn 0.996293 0.000023 -0.086031
v -0.048430 0.000000 -1.826958
vt 0.000214 2.291196
vn 0.969434 0.000058 -0.245353
v -0.048485 0.219025 -1.827188
vt 0.168123 2.291192
vn 0.969434 0.000058 -0.245353
v -0.144995 0.000000 -2.091608
vt 0.000209 2.073423
vn 0.882579 0.000097 -0.470165
v -0.145217 0.219025 -2.092035
vt 0.168118 2.073419
vn 0.882579 0.000097 -0.470165
v -0.310511 0.000000 -2.319293
vt 0.000204 1.855810
vn 0.707260 0.000000 -0.706953
v -0.311067 0.219025 -2.319850
vt 0.168113 1.855807
vn 0.707260 0.000000 -0.706953
# Faces (1 to 136)
f -134/-134/-134 -135/-135/-135 -136/-136/-136
f -133/-133/-133 -134/-134/-134 -136/-136/-136
f -136/-136/-136 -135/-135/-135 -132/-132/-132
f -131/-131/-131 -136/-136/-136 -132/-132/-132
f -131/-131/-131 -132/-132/-132 -130/-130/-130
f -129/-129/-129 -131/-131/-131 -130/-130/-130
f -129/-129/-129 -127/-127/-127 -128/-128/-128
f -126/-126/-126 -129/-129/-129 -128/-128/-128
f -126/-126/-126 -128/-128/-128 -125/-125/-125
f -124/-124/-124 -126/-126/-126 -125/-125/-125
f -124/-124/-124 -125/-125/-125 -123/-123/-123
f -122/-122/-122 -124/-124/-124 -123/-123/-123
f -122/-122/-122 -123/-123/-123 -121/-121/-121
f -120/-120/-120 -122/-122/-122 -121/-121/-121
f -120/-120/-120 -118/-118/-118 -119/-119/-119
f -117/-117/-117 -120/-120/-120 -119/-119/-119
f -117/-117/-117 -119/-119/-119 -116/-116/-116
f -115/-115/-115 -117/-117/-117 -116/-116/-116
f -112/-112/-112 -113/-113/-113 -114/-114/-114
f -111/-111/-111 -112/-112/-112 -114/-114/-114
f -112/-112/-112 -111/-111/-111 -110/-110/-110
f -109/-109/-109 -112/-112/-112 -110/-110/-110
f -109/-109/-109 -110/-110/-110 -108/-108/-108
f -107/-107/-107 -109/-109/-109 -108/-108/-108
f -107/-107/-107 -108/-108/-108 -106/-106/-106
f -105/-105/-105 -107/-107/-107 -106/-106/-106
f -105/-105/-105 -106/-106/-106 -104/-104/-104
f -103/-103/-103 -105/-105/-105 -104/-104/-104
f -100/-100/-100 -101/-101/-101 -102/-102/-102
f -99/-99/-99 -100/-100/-100 -102/-102/-102
f -102/-102/-102 -98/-98/-98 -99/-99/-99
f -98/-98/-98 -97/-97/-97 -99/-99/-99
f -98/-98/-98 -96/-96/-96 -97/-97/-97
f -96/-96/-96 -95/-95/-95 -97/-97/-97
f -96/-96/-96 -93/-93/-93 -94/-94/-94
f -93/-93/-93 -92/-92/-92 -94/-94/-94
f -93/-93/-93 -91/-91/-91 -92/-92/-92
f -91/-91/-91 -90/-90/-90 -92/-92/-92
f -91/-91/-91 -89/-89/-89 -90/-90/-90
f -89/-89/-89 -88/-88/-88 -90/-90/-90
f -89/-89/-89 -87/-87/-87 -88/-88/-88
f -87/-87/-87 -86/-86/-86 -88/-88/-88
f -87/-87/-87 -84/-84/-84 -85/-85/-85
f -84/-84/-84 -83/-83/-83 -85/-85/-85
f -84/-84/-84 -82/-82/-82 -83/-83/-83
f -82/-82/-82 -81/-81/-81 -83/-83/-83
f -81/-81/-81 -82/-82/-82 -80/-80/-80
f -79/-79/-79 -81/-81/-81 -80/-80/-80
f -76/-76/-76 -77/-77/-77 -78/-78/-78
f -75/-75/-75 -76/-76/-76 -78/-78/-78
f -72/-72/-72 -73/-73/-73 -74/-74/-74
f -71/-71/-71 -72/-72/-72 -74/-74/-74
f -68/-68/-68 -69/-69/-69 -70/-70/-70
f -67/-67/-67 -68/-68/-68 -70/-70/-70
f -69/-69/-69 -66/-66/-66 -70/-70/-70
f -66/-66/-66 -65/-65/-65 -70/-70/-70
f -66/-66/-66 -64/-64/-64 -65/-65/-65
f -64/-64/-64 -63/-63/-63 -65/-65/-65
f -64/-64/-64 -62/-62/-62 -63/-63/-63
f -62/-62/-62 -61/-61/-61 -63/-63/-63
f -62/-62/-62 -60/-60/-60 -61/-61/-61
f -60/-60/-60 -59/-59/-59 -61/-61/-61
f -56/-56/-56 -57/-57/-57 -58/-58/-58
f -55/-55/-55 -56/-56/-56 -58/-58/-58
f -52/-52/-52 -53/-53/-53 -54/-54/-54
f -51/-51/-51 -52/-52/-52 -54/-54/-54
f -52/-52/-52 -51/-51/-51 -50/-50/-50
f -49/-49/-49 -52/-52/-52 -50/-50/-50
f -49/-49/-49 -50/-50/-50 -48/-48/-48
f -47/-47/-47 -49/-49/-49 -48/-48/-48
f -47/-47/-47 -48/-48/-48 -46/-46/-46
f -45/-45/-45 -47/-47/-47 -46/-46/-46
f -45/-45/-45 -46/-46/-46 -44/-44/-44
f -43/-43/-43 -45/-45/-45 -44/-44/-44
f -40/-40/-40 -41/-41/-41 -42/-42/-42
f -39/-39/-39 -40/-40/-40 -42/-42/-42
f -42/-42/-42 -38/-38/-38 -39/-39/-39
f -38/-38/-38 -37/-37/-37 -39/-39/-39
f -38/-38/-38 -36/-36/-36 -37/-37/-37
f -36/-36/-36 -35/-35/-35 -37/-37/-37
f -36/-36/-36 -34/-34/-34 -35/-35/-35
f -34/-34/-34 -33/-33/-33 -35/-35/-35
f -34/-34/-34 -32/-32/-32 -33/-33/-33
f -32/-32/-32 -31/-31/-31 -33/-33/-33
f -32/-32/-32 -30/-30/-30 -31/-31/-31
f -30/-30/-30 -29/-29/-29 -31/-31/-31
f -30/-30/-30 -28/-28/-28 -29/-29/-29
f -28/-28/-28 -27/-27/-27 -29/-29/-29
f -28/-28/-28 -26/-26/-26 -27/-27/-27
f -26/-26/-26 -25/-25/-25 -27/-27/-27
f -26/-26/-26 -24/-24/-24 -25/-25/-25
f -24/-24/-24 -23/-23/-23 -25/-25/-25
f -23/-23/-23 -24/-24/-24 -22/-22/-22
f -21/-21/-21 -23/-23/-23 -22/-22/-22
f -18/-18/-18 -19/-19/-19 -20/-20/-20
f -17/-17/-17 -18/-18/-18 -20/-20/-20
f -14/-14/-14 -15/-15/-15 -16/-16/-16
f -13/-13/-13 -14/-14/-14 -16/-16/-16
f -10/-10/-10 -11/-11/-11 -12/-12/-12
f -9/-9/-9 -10/-10/-10 -12/-12/-12
f -11/-11/-11 -8/-8/-8 -12/-12/-12
f -8/-8/-8 -7/-7/-7 -12/-12/-12
f -8/-8/-8 -6/-6/-6 -7/-7/-7
f -6/-6/-6 -5/-5/-5 -7/-7/-7
f -6/-6/-6 -4/-4/-4 -5/-5/-5
f -4/-4/-4 -3/-3/-3 -5/-5/-5
f -4/-4/-4 -2/-2/-2 -3/-3/-3
f -2/-2/-2 -1/-1/-1 -3/-3/-3

# SubMesh 1
# Vertices
v -1.058568 3.895527 -2.600000
vt 1.286757 0.996183
vn 0.064276 -0.000232 -0.997932
v -2.630459 3.895527 -2.600000
vt 2.151061 0.996174
vn -0.000000 0.000000 -1.000000
v -2.630458 2.600885 -2.600000
vt 2.151036 0.665896
vn -0.000000 0.000000 -1.000000
v -1.067992 2.594222 -2.600000
vt 1.291895 0.664198
vn 0.064279 0.000000 -0.997932
v -0.792473 3.895527 -2.564968
vt 1.139184 0.996182
vn 0.257728 -0.000234 -0.966217
v -0.792473 2.587558 -2.564968
vt 1.139175 0.662498
vn 0.257731 0.000000 -0.966217
v -0.544513 3.895527 -2.462260
vt 0.991614 0.996182
vn 0.500001 0.000000 -0.866025
v -0.544513 2.587558 -2.462260
vt 0.991597 0.662499
vn 0.500001 0.000000 -0.866025
v -0.331586 3.895527 -2.298874
vt 0.844043 0.996182
vn 0.707107 0.000000 -0.707107
v -0.331586 2.587558 -2.298874
vt 0.844018 0.662499
vn 0.707107 0.000000 -0.707107
v -0.168200 3.895527 -2.085945
vt 0.696473 0.996184
vn 0.866025 0.000000 -0.500001
v -0.168200 2.587558 -2.085945
vt 0.696439 0.662500
vn 0.866025 0.000000 -0.500001
v -1.058567 1.300885 -2.600000
vt 1.286720 0.334250
vn 0.064842 0.000117 -0.997895
v -0.792473 1.300885 -2.564968
vt 1.139143 0.334249
vn 0.258277 0.000118 -0.966071
v -0.544513 1.300885 -2.462260
vt 0.991565 0.334249
vn 0.500001 0.000000 -0.866025
v -0.331586 1.300885 -2.298874
vt 0.843987 0.334249
vn 0.707107 0.000000 -0.707107
v -0.544513 0.000885 -2.462260
vt 0.991572 0.002599
vn 0.500001 0.000000 -0.866025
v -0.331584 0.000885 -2.298874
vt 0.843990 0.002597
vn 0.707107 0.000000 -0.707106
v -0.792473 0.000885 -2.564968
vt 1.139154 0.002600
vn 0.258819 0.000000 -0.965926
v -1.058567 0.000885 -2.600000
vt 1.286736 0.002602
vn 0.065403 0.000000 -0.997859
v -2.630458 0.000443 -2.600000
vt 2.151043 0.002502
vn -0.000000 0.000000 -1.000000
v -2.630458 1.300885 -2.600000
vt 2.151038 0.334253
vn -0.000000 0.000000 -1.000000
v -0.030459 3.895527 0.000000
vt -0.462968 0.996212
vn 1.000000 0.000000 0.000000
v -0.030459 3.895527 -1.571891
vt 0.401334 0.996190
vn 0.997932 -0.000232 -0.064277
v -0.030459 2.594222 -1.562468
vt 0.396139 0.664205
vn 0.997932 0.000000 -0.064280
v -0.030459 2.600885 0.000000
vt -0.463021 0.665927
vn 1.000000 0.000000 0.000000
v -0.065491 2.587558 -1.837985
vt 0.548861 0.662502
vn 0.966216 0.000000 -0.257732
v -0.065491 3.895527 -1.837985
vt 0.548903 0.996186
vn 0.966217 -0.000234 -0.257729
v -0.168200 2.587558 -2.085945
vt 0.696439 0.662500
vn 0.866025 0.000000 -0.500001
v -0.168200 3.895527 -2.085945
vt 0.696473 0.996184
vn 0.866025 0.000000 -0.500001
v -0.168200 1.300885 -2.085945
vt 0.696407 0.334250
vn 0.866025 0.000000 -0.500001
v -0.065491 1.300885 -1.837985
vt 0.548831 0.334250
vn 0.966071 0.000118 -0.258277
v -0.331586 1.300885 -2.298874
vt 0.843987 0.334249
vn 0.707107 0.000000 -0.707107
v -0.331586 2.587558 -2.298874
vt 0.844018 0.662499
vn 0.707107 0.000000 -0.707107
v -0.168200 0.000885 -2.085945
vt 0.696407 0.002597
vn 0.866025 0.000000 -0.500001
v -0.065491 0.000885 -1.837985
vt 0.548825 0.002595
vn 0.965926 0.000000 -0.258820
v -0.030459 1.300885 -1.571891
vt 0.401255 0.334251
vn 0.997895 0.000117 -0.064843
v -0.030459 0.000885 -1.571891
vt 0.401242 0.002597
vn 0.997859 0.000000 -0.065403
v -0.030459 1.300885 0.000000
vt -0.463075 0.334271
vn 1.000000 0.000000 0.000000
v -0.030459 0.000443 0.000000
vt -0.463103 0.002498
vn 1.000000 0.000000 0.000000
v -0.331584 0.000885 -2.298874
vt 0.843990 0.002597
vn 0.707107 0.000000 -0.707106
# Faces (137 to 177)
f -39/-39/-39 -40/-40/-40 -41/-41/-41
f -38/-38/-38 -39/-39/-39 -41/-41/-41
f -38/-38/-38 -41/-41/-41 -37/-37/-37
f -36/-36/-36 -38/-38/-38 -37/-37/-37
f -36/-36/-36 -37/-37/-37 -35/-35/-35
f -34/-34/-34 -36/-36/-36 -35/-35/-35
f -34/-34/-34 -35/-35/-35 -33/-33/-33
f -32/-32/-32 -34/-34/-34 -33/-33/-33
f -32/-32/-32 -33/-33/-33 -31/-31/-31
f -30/-30/-30 -32/-32/-32 -31/-31/-31
f -38/-38/-38 -36/-36/-36 -29/-29/-29
f -36/-36/-36 -28/-28/-28 -29/-29/-29
f -36/-36/-36 -34/-34/-34 -28/-28/-28
f -34/-34/-34 -27/-27/-27 -28/-28/-28
f -34/-34/-34 -32/-32/-32 -27/-27/-27
f -32/-32/-32 -26/-26/-26 -27/-27/-27
f -25/-25/-25 -27/-27/-27 -26/-26/-26
f -24/-24/-24 -25/-25/-25 -26/-26/-26
f -23/-23/-23 -28/-28/-28 -27/-27/-27
f -25/-25/-25 -23/-23/-23 -27/-27/-27
f -22/-22/-22 -29/-29/-29 -28/-28/-28
f -23/-23/-23 -22/-22/-22 -28/-28/-28
f -22/-22/-22 -21/-21/-21 -29/-29/-29
f -21/-21/-21 -20/-20/-20 -29/-29/-29
f -29/-29/-29 -20/-20/-20 -38/-38/-38
f -20/-20/-20 -39/-39/-39 -38/-38/-38
f -17/-17/-17 -18/-18/-18 -19/-19/-19
f -16/-16/-16 -17/-17/-17 -19/-19/-19
f -17/-17/-17 -15/-15/-15 -18/-18/-18
f -15/-15/-15 -14/-14/-14 -18/-18/-18
f -15/-15/-15 -13/-13/-13 -14/-14/-14
f -13/-13/-13 -12/-12/-12 -14/-14/-14
f -13/-13/-13 -15/-15/-15 -11/-11/-11
f -15/-15/-15 -10/-10/-10 -11/-11/-11
f -15/-15/-15 -17/-17/-17 -10/-10/-10
f -13/-13/-13 -11/-11/-11 -9/-9/-9
f -8/-8/-8 -13/-13/-13 -9/-9/-9
f -7/-7/-7 -11/-11/-11 -10/-10/-10
f -6/-6/-6 -7/-7/-7 -10/-10/-10
f -6/-6/-6 -10/-10/-10 -5/-5/-5
f -17/-17/-17 -5/-5/-5 -10/-10/-10
f -5/-5/-5 -17/-17/-17 -16/-16/-16
f -4/-4/-4 -6/-6/-6 -5/-5/-5
f -4/-4/-4 -5/-5/-5 -3/-3/-3
f -3/-3/-3 -5/-5/-5 -16/-16/-16
f -2/-2/-2 -4/-4/-4 -3/-3/-3
f -1/-1/-1 -9/-9/-9 -11/-11/-11
f -7/-7/-7 -1/-1/-1 -11/-11/-11

