# Mesh "wallB_transition3" exported with Unity Assets Bundle Extractor; 128 vertices, 276 indices, 56 bytes per vertex
g wallB_transition3
# SubMesh 0
# Vertices
v 0.020213 -0.596079 -0.309638
vt 0.269425 0.470145
vn 0.093224 0.874410 -0.476147
v -0.597380 -0.596079 -0.309638
vt 0.269425 0.519332
vn -0.000000 0.828071 -0.560623
v -0.597374 -0.616879 -0.340362
vt 0.285111 0.519332
vn 0.000000 0.468732 -0.883340
v 0.050672 -0.616879 -0.340361
vt 0.285110 0.470145
vn 0.207957 0.500575 -0.840344
v 0.034992 -0.596079 -0.294826
vt 0.269425 0.460884
vn 0.283668 0.916317 -0.282657
v 0.071572 -0.616879 -0.331686
vt 0.285110 0.460884
vn 0.614623 0.495507 -0.613768
v 0.049771 -0.596079 -0.280017
vt 0.269425 0.451616
vn 0.479133 0.872844 -0.092599
v 0.080229 -0.616879 -0.310740
vt 0.285110 0.451616
vn 0.840681 0.500148 -0.207622
v 0.080229 -0.616879 0.340362
vt 0.285108 0.181257
vn 0.884291 0.466937 0.000000
v 0.049771 -0.596079 0.340362
vt 0.269423 0.181257
vn 0.563940 0.825816 0.000000
v 0.050672 -0.679279 -0.340362
vt 0.268708 0.483391
vn 0.207957 -0.500575 -0.840344
v -0.597374 -0.679279 -0.340362
vt 0.268708 0.532739
vn 0.000000 -0.468731 -0.883341
v -0.597380 -0.700079 -0.309638
vt 0.284445 0.532739
vn -0.000000 -0.828072 -0.560621
v 0.020213 -0.700079 -0.309638
vt 0.284445 0.483391
vn 0.093223 -0.874411 -0.476146
v 0.071572 -0.679279 -0.331686
vt 0.268708 0.474100
vn 0.614623 -0.495507 -0.613768
v 0.034992 -0.700079 -0.294826
vt 0.284445 0.474100
vn 0.283664 -0.916318 -0.282658
v 0.080229 -0.679279 -0.310740
vt 0.268708 0.464801
vn 0.840681 -0.500148 -0.207622
v 0.049771 -0.700079 -0.280017
vt 0.284445 0.464801
vn 0.479131 -0.872845 -0.092599
v 0.049771 -0.700079 0.340362
vt 0.284445 0.193554
vn 0.563940 -0.825816 0.000000
v 0.080229 -0.679279 0.340362
vt 0.268708 0.193554
vn 0.884291 -0.466937 0.000000
v 0.080229 -0.616879 0.340362
vt 0.000000 0.000000
vn -0.000000 0.000000 1.000000
v 0.080229 -0.679279 0.340362
vt 0.000000 0.000000
vn -0.000000 0.000000 1.000000
v 0.049771 -0.700079 0.340362
vt 0.000000 0.000000
vn -0.000000 0.000000 1.000000
v 0.049771 -0.596079 0.340362
vt 0.000000 0.000000
vn -0.000000 0.000000 1.000000
v 0.050672 -0.616879 -0.340361
vt 0.269613 0.791320
vn 0.207957 0.500575 -0.840344
v -0.597374 -0.616879 -0.340362
vt 0.269613 0.885552
vn 0.000000 0.468732 -0.883340
v -0.597374 -0.679279 -0.340362
vt 0.358925 0.885552
vn 0.000000 -0.468731 -0.883341
v 0.050672 -0.679279 -0.340362
vt 0.358925 0.791320
vn 0.207957 -0.500575 -0.840344
v 0.071572 -0.616879 -0.331686
vt 0.269613 0.773578
vn 0.614623 0.495507 -0.613768
v 0.071572 -0.679279 -0.331686
vt 0.358925 0.773578
vn 0.614623 -0.495507 -0.613768
v 0.049771 1.853950 0.340362
vt 0.138319 0.753532
vn 0.000013 -1.000000 0.000000
v 0.080229 1.853950 0.340362
vt 0.162701 0.753532
vn 0.707111 -0.707102 0.000000
v 0.080229 1.853950 -0.310740
vt 0.162703 0.244645
vn 0.731848 -0.665804 -0.145271
v 0.049771 1.853950 -0.280017
vt 0.138321 0.244645
vn 0.000002 -1.000000 0.000000
v 0.034992 1.853950 -0.294826
vt 0.138321 0.227109
vn -0.000000 -1.000000 0.000003
v 0.071572 1.853950 -0.331686
vt 0.162703 0.227109
vn 0.549414 -0.630260 -0.548559
v 0.020213 1.853950 -0.309638
vt 0.138322 0.209591
vn 0.000005 -1.000000 0.000005
v 0.050672 1.853950 -0.340362
vt 0.162703 0.209591
vn 0.145880 -0.665645 -0.731871
v -0.597380 1.853950 -0.309638
vt 0.138322 0.113718
vn -0.000002 -1.000000 0.000004
v -0.597374 1.853950 -0.340362
vt 0.162703 0.113718
vn -0.000002 -0.707147 -0.707066
v 0.020213 -1.731982 -0.309638
vt 0.138278 0.623166
vn -0.000000 1.000000 -0.000000
v -0.597380 -1.731982 -0.309638
vt 0.138278 0.733173
vn -0.000001 1.000000 0.000000
v -0.597374 -1.731982 -0.340362
vt 0.166254 0.733173
vn -0.000000 0.707146 -0.707067
v 0.050672 -1.731982 -0.340361
vt 0.166254 0.623166
vn 0.145850 0.665648 -0.731874
v 0.034992 -1.731982 -0.294826
vt 0.138278 0.603065
vn 0.000000 1.000000 -0.000000
v 0.071572 -1.731982 -0.331686
vt 0.166254 0.603065
vn 0.549414 0.630260 -0.548559
v 0.049771 -1.731982 -0.280017
vt 0.138278 0.582944
vn 0.000000 1.000000 0.000000
v 0.080229 -1.731982 -0.310740
vt 0.166254 0.582944
vn 0.731848 0.665804 -0.145271
v 0.080229 -1.731982 0.340362
vt 0.166254 -0.000965
vn 0.707107 0.707107 0.000000
v 0.049771 -1.731982 0.340362
vt 0.138278 -0.000965
vn -0.000000 1.000000 0.000000
v 0.080229 -1.731982 0.340362
vt 0.000000 0.000000
vn -0.000000 0.000000 1.000000
v 0.080229 -1.950000 0.340362
vt 0.000000 0.000000
vn -0.000000 0.000000 1.000000
v 0.049771 -1.950000 0.340362
vt 0.000000 0.000000
vn -0.000000 0.000000 1.000000
v 0.049771 -1.731982 0.340362
vt 0.000000 0.000000
vn -0.000000 0.000000 1.000000
v 0.050672 -1.731982 -0.340361
vt 0.165692 0.120398
vn 0.145850 0.665648 -0.731874
v -0.597374 -1.731982 -0.340362
vt 0.165692 0.026901
vn -0.000000 0.707146 -0.707067
v -0.597374 -1.950000 -0.340362
vt -0.000482 0.026901
vn 0.000000 0.000000 -1.000000
v 0.050672 -1.950000 -0.340362
vt -0.000482 0.120398
vn 0.195469 0.000000 -0.980710
v 0.071572 -1.731982 -0.331686
vt 0.165692 0.137481
vn 0.549414 0.630260 -0.548559
v 0.071572 -1.950000 -0.331686
vt -0.000482 0.137481
vn 0.707651 0.000000 -0.706562
v 0.080229 1.950000 0.340362
vt 0.084506 0.016202
vn -0.000000 0.000000 1.000000
v 0.080229 1.853950 0.340362
vt 0.168327 0.016202
vn -0.000000 0.000000 1.000000
v 0.049771 1.853950 0.340362
vt 0.168327 -0.016833
vn -0.000000 0.000000 1.000000
v 0.049771 1.950000 0.340362
vt 0.084506 -0.016833
vn -0.000000 0.000000 1.000000
v 0.050672 1.950000 -0.340362
vt 0.084506 0.623546
vn 0.195469 -0.000000 -0.980710
v -0.597374 1.950000 -0.340362
vt 0.084506 0.730594
vn -0.000000 0.000000 -1.000000
v -0.597374 1.853950 -0.340362
vt 0.168327 0.730594
vn -0.000002 -0.707147 -0.707066
v 0.050672 1.853950 -0.340362
vt 0.168327 0.623546
vn 0.145880 -0.665645 -0.731871
v 0.071572 1.950000 -0.331686
vt 0.084506 0.603986
vn 0.707651 -0.000000 -0.706562
v 0.071572 1.853950 -0.331686
vt 0.168327 0.603986
vn 0.549414 -0.630260 -0.548559
v 0.080229 -1.731982 -0.310740
vt 0.165692 0.154583
vn 0.731848 0.665804 -0.145271
v 0.080229 -1.950000 -0.310740
vt -0.000482 0.154583
vn 0.980860 0.000000 -0.194713
v 0.080229 -1.950000 0.340362
vt -0.000482 0.650856
vn 1.000000 0.000000 0.000000
v 0.080229 -1.731982 0.340362
vt 0.165692 0.650856
vn 0.707107 0.707107 0.000000
v 0.071572 -1.950000 -0.331686
vt -0.000482 0.137481
vn 0.707651 0.000000 -0.706562
v 0.071572 -1.731982 -0.331686
vt 0.165692 0.137481
vn 0.549414 0.630260 -0.548559
v 0.080229 1.950000 -0.310740
vt 0.084506 0.584406
vn 0.980860 0.000000 -0.194713
v 0.080229 1.853950 -0.310740
vt 0.168327 0.584406
vn 0.731848 -0.665804 -0.145271
v 0.080229 1.853950 0.340362
vt 0.168327 0.016202
vn 0.707111 -0.707102 0.000000
v 0.080229 1.950000 0.340362
vt 0.084506 0.016202
vn 1.000000 0.000000 0.000000
v 0.071572 1.853950 -0.331686
vt 0.168327 0.603986
vn 0.549414 -0.630260 -0.548559
v 0.071572 1.950000 -0.331686
vt 0.084506 0.603986
vn 0.707651 -0.000000 -0.706562
v -0.597475 1.950000 -0.309638
vt 0.105973 0.947608
vn -1.000000 0.000000 -0.000175
v -0.597475 1.853950 -0.309638
vt 0.105973 0.926129
vn -1.000000 0.000000 -0.000175
v -0.597470 1.853950 -0.340362
vt 0.105980 0.926129
vn -1.000000 0.000000 -0.000175
v -0.597470 1.950000 -0.340362
vt 0.105980 0.947608
vn -1.000000 0.000000 -0.000175
v -0.597475 -1.731982 -0.309638
vt 0.105973 0.124236
vn -1.000000 0.000000 -0.000176
v -0.597475 -1.950000 -0.309638
vt 0.105973 0.075483
vn -1.000000 0.000000 -0.000176
v -0.597470 -1.950000 -0.340362
vt 0.105980 0.075483
vn -1.000000 0.000000 -0.000176
v -0.597470 -1.731982 -0.340362
vt 0.105980 0.124236
vn -1.000000 0.000000 -0.000176
v -0.597475 -0.596079 -0.309638
vt 0.105973 0.668528
vn -1.000000 0.000000 -0.000176
v -0.597475 -0.700079 -0.309638
vt 0.105973 0.645271
vn -1.000000 0.000000 -0.000176
v -0.597470 -0.679279 -0.340362
vt 0.105980 0.649923
vn -1.000000 0.000000 -0.000176
v -0.597470 -0.616879 -0.340362
vt 0.105980 0.663877
vn -1.000000 0.000000 -0.000176
v 0.080229 -0.616879 -0.310740
vt 0.269613 0.755822
vn 0.840681 0.500148 -0.207622
v 0.071572 -0.616879 -0.331686
vt 0.269613 0.773578
vn 0.614623 0.495507 -0.613768
v 0.071572 -0.679279 -0.331686
vt 0.358925 0.773578
vn 0.614623 -0.495507 -0.613768
v 0.080229 -0.679279 -0.310740
vt 0.358925 0.755822
vn 0.840681 -0.500148 -0.207622
v 0.080229 -0.679279 0.340362
vt 0.358925 0.237868
vn 0.884291 -0.466937 0.000000
v 0.080229 -0.616879 0.340362
vt 0.269613 0.237868
vn 0.884291 0.466937 0.000000
# Faces (1 to 100)
f -98/-98/-98 -99/-99/-99 -100/-100/-100
f -97/-97/-97 -98/-98/-98 -100/-100/-100
f -97/-97/-97 -100/-100/-100 -96/-96/-96
f -95/-95/-95 -97/-97/-97 -96/-96/-96
f -95/-95/-95 -96/-96/-96 -94/-94/-94
f -93/-93/-93 -95/-95/-95 -94/-94/-94
f -93/-93/-93 -94/-94/-94 -92/-92/-92
f -94/-94/-94 -91/-91/-91 -92/-92/-92
f -88/-88/-88 -89/-89/-89 -90/-90/-90
f -87/-87/-87 -88/-88/-88 -90/-90/-90
f -87/-87/-87 -90/-90/-90 -86/-86/-86
f -85/-85/-85 -87/-87/-87 -86/-86/-86
f -85/-85/-85 -86/-86/-86 -84/-84/-84
f -83/-83/-83 -85/-85/-85 -84/-84/-84
f -83/-83/-83 -84/-84/-84 -82/-82/-82
f -84/-84/-84 -81/-81/-81 -82/-82/-82
f -78/-78/-78 -79/-79/-79 -80/-80/-80
f -77/-77/-77 -78/-78/-78 -80/-80/-80
f -74/-74/-74 -75/-75/-75 -76/-76/-76
f -73/-73/-73 -74/-74/-74 -76/-76/-76
f -73/-73/-73 -76/-76/-76 -72/-72/-72
f -71/-71/-71 -73/-73/-73 -72/-72/-72
f -68/-68/-68 -69/-69/-69 -70/-70/-70
f -67/-67/-67 -68/-68/-68 -70/-70/-70
f -67/-67/-67 -66/-66/-66 -68/-68/-68
f -66/-66/-66 -65/-65/-65 -68/-68/-68
f -66/-66/-66 -64/-64/-64 -65/-65/-65
f -64/-64/-64 -63/-63/-63 -65/-65/-65
f -64/-64/-64 -62/-62/-62 -63/-63/-63
f -62/-62/-62 -61/-61/-61 -63/-63/-63
f -58/-58/-58 -59/-59/-59 -60/-60/-60
f -57/-57/-57 -58/-58/-58 -60/-60/-60
f -57/-57/-57 -60/-60/-60 -56/-56/-56
f -55/-55/-55 -57/-57/-57 -56/-56/-56
f -55/-55/-55 -56/-56/-56 -54/-54/-54
f -53/-53/-53 -55/-55/-55 -54/-54/-54
f -53/-53/-53 -54/-54/-54 -52/-52/-52
f -54/-54/-54 -51/-51/-51 -52/-52/-52
f -48/-48/-48 -49/-49/-49 -50/-50/-50
f -47/-47/-47 -48/-48/-48 -50/-50/-50
f -44/-44/-44 -45/-45/-45 -46/-46/-46
f -43/-43/-43 -44/-44/-44 -46/-46/-46
f -43/-43/-43 -46/-46/-46 -42/-42/-42
f -41/-41/-41 -43/-43/-43 -42/-42/-42
f -38/-38/-38 -39/-39/-39 -40/-40/-40
f -37/-37/-37 -38/-38/-38 -40/-40/-40
f -34/-34/-34 -35/-35/-35 -36/-36/-36
f -33/-33/-33 -34/-34/-34 -36/-36/-36
f -33/-33/-33 -36/-36/-36 -32/-32/-32
f -31/-31/-31 -33/-33/-33 -32/-32/-32
f -28/-28/-28 -29/-29/-29 -30/-30/-30
f -27/-27/-27 -28/-28/-28 -30/-30/-30
f -29/-29/-29 -26/-26/-26 -30/-30/-30
f -26/-26/-26 -25/-25/-25 -30/-30/-30
f -22/-22/-22 -23/-23/-23 -24/-24/-24
f -21/-21/-21 -22/-22/-22 -24/-24/-24
f -23/-23/-23 -20/-20/-20 -24/-24/-24
f -20/-20/-20 -19/-19/-19 -24/-24/-24
f -16/-16/-16 -17/-17/-17 -18/-18/-18
f -15/-15/-15 -16/-16/-16 -18/-18/-18
f -12/-12/-12 -13/-13/-13 -14/-14/-14
f -11/-11/-11 -12/-12/-12 -14/-14/-14
f -8/-8/-8 -9/-9/-9 -10/-10/-10
f -7/-7/-7 -8/-8/-8 -10/-10/-10
f -4/-4/-4 -5/-5/-5 -6/-6/-6
f -3/-3/-3 -4/-4/-4 -6/-6/-6
f -2/-2/-2 -3/-3/-3 -6/-6/-6
f -1/-1/-1 -2/-2/-2 -6/-6/-6

# SubMesh 1
# Vertices
v 0.023771 -0.650000 -0.309638
vt 0.898068 0.366191
vn 0.195077 0.000000 -0.980788
v -0.596855 -0.650000 -0.309638
vt 0.106764 0.366191
vn -0.000000 0.000000 -1.000000
v -0.596855 -1.950000 -0.309638
vt 0.106764 0.075483
vn -0.000000 0.000000 -1.000000
v 0.023771 -1.950000 -0.309638
vt 0.898068 0.075483
vn 0.195090 0.000000 -0.980785
v 0.023771 0.650000 -0.309638
vt 0.898068 0.656900
vn 0.195077 0.000000 -0.980788
v -0.596855 0.650000 -0.309638
vt 0.106764 0.656900
vn -0.000000 0.000000 -1.000000
v 0.023771 1.950000 -0.309638
vt 0.898068 0.947608
vn 0.195090 0.000000 -0.980785
v -0.596855 1.950000 -0.309638
vt 0.106764 0.947608
vn -0.000000 0.000000 -1.000000
v 0.049771 0.650000 0.340362
vt 0.002729 0.680958
vn 1.000000 0.000000 0.000000
v 0.049771 1.950000 0.340362
vt 0.002729 0.995700
vn 1.000000 0.000000 0.000000
v 0.049771 1.950000 -0.283638
vt 0.242729 0.995700
vn 0.980785 0.000000 -0.195090
v 0.049771 0.650000 -0.283638
vt 0.242729 0.680958
vn 0.980788 0.000000 -0.195077
v 0.049771 -0.650000 -0.283638
vt 0.242729 0.366216
vn 0.980788 0.000000 -0.195077
v 0.049771 -0.650000 0.340362
vt 0.002729 0.366216
vn 1.000000 0.000000 0.000000
v 0.049771 -1.950000 -0.283638
vt 0.242729 0.051475
vn 0.980785 0.000000 -0.195090
v 0.049771 -1.950000 0.340362
vt 0.002729 0.051475
vn 1.000000 0.000000 0.000000
v 0.042155 -0.650000 -0.302023
vt 0.249800 0.366216
vn 0.707107 0.000000 -0.707107
v 0.042155 0.650000 -0.302023
vt 0.249800 0.680958
vn 0.707107 0.000000 -0.707107
v 0.042155 -1.950000 -0.302023
vt 0.249800 0.051475
vn 0.707106 0.000000 -0.707107
v 0.042155 1.950000 -0.302023
vt 0.249800 0.995700
vn 0.707106 0.000000 -0.707107
v 0.023771 -0.650000 -0.309638
vt 0.252729 0.366216
vn 0.195077 0.000000 -0.980788
v 0.042155 -0.650000 -0.302023
vt 0.249800 0.366216
vn 0.707107 0.000000 -0.707107
v 0.042155 0.650000 -0.302023
vt 0.249800 0.680958
vn 0.707107 0.000000 -0.707107
v 0.023771 0.650000 -0.309638
vt 0.252729 0.680958
vn 0.195077 0.000000 -0.980788
v 0.023771 -1.950000 -0.309638
vt 0.252729 0.051475
vn 0.195090 0.000000 -0.980785
v 0.042155 -1.950000 -0.302023
vt 0.249800 0.051475
vn 0.707106 0.000000 -0.707107
v 0.042155 1.950000 -0.302023
vt 0.249800 0.995700
vn 0.707106 0.000000 -0.707107
v 0.023771 1.950000 -0.309638
vt 0.252729 0.995700
vn 0.195090 0.000000 -0.980785
# Faces (101 to 128)
f -26/-26/-26 -27/-27/-27 -28/-28/-28
f -25/-25/-25 -26/-26/-26 -28/-28/-28
f -28/-28/-28 -27/-27/-27 -24/-24/-24
f -27/-27/-27 -23/-23/-23 -24/-24/-24
f -24/-24/-24 -23/-23/-23 -22/-22/-22
f -23/-23/-23 -21/-21/-21 -22/-22/-22
f -18/-18/-18 -19/-19/-19 -20/-20/-20
f -17/-17/-17 -18/-18/-18 -20/-20/-20
f -16/-16/-16 -17/-17/-17 -20/-20/-20
f -15/-15/-15 -16/-16/-16 -20/-20/-20
f -14/-14/-14 -16/-16/-16 -15/-15/-15
f -13/-13/-13 -14/-14/-14 -15/-15/-15
f -17/-17/-17 -16/-16/-16 -12/-12/-12
f -11/-11/-11 -17/-17/-17 -12/-12/-12
f -18/-18/-18 -17/-17/-17 -11/-11/-11
f -16/-16/-16 -14/-14/-14 -10/-10/-10
f -12/-12/-12 -16/-16/-16 -10/-10/-10
f -9/-9/-9 -18/-18/-18 -11/-11/-11
f -6/-6/-6 -7/-7/-7 -8/-8/-8
f -5/-5/-5 -6/-6/-6 -8/-8/-8
f -8/-8/-8 -7/-7/-7 -4/-4/-4
f -7/-7/-7 -3/-3/-3 -4/-4/-4
f -2/-2/-2 -6/-6/-6 -5/-5/-5
f -1/-1/-1 -2/-2/-2 -5/-5/-5

