# Mesh "wallA_transition1" exported with Unity Assets Bundle Extractor; 166 vertices, 378 indices, 56 bytes per vertex
g wallA_transition1
# SubMesh 0
# Vertices
v -0.000000 0.038039 -0.013000
vt 0.138319 0.753532
vn 0.000007 -1.000000 0.000000
v -0.000000 0.038039 -0.006796
vt 0.138321 0.244645
vn -0.000000 -1.000000 0.000000
v 0.000305 0.038039 -0.006489
vt 0.162703 0.244645
vn 0.731848 -0.665804 0.145271
v 0.000305 0.038039 -0.013000
vt 0.162701 0.753532
vn 0.707109 -0.707104 0.000000
v -0.000148 0.038039 -0.006648
vt 0.138321 0.227109
vn 0.000004 -1.000000 -0.000003
v 0.000218 0.038039 -0.006280
vt 0.162703 0.227109
vn 0.549414 -0.630260 0.548559
v -0.000296 0.038039 -0.006500
vt 0.138322 0.209591
vn 0.000007 -1.000000 -0.000005
v 0.000009 0.038039 -0.006193
vt 0.162703 0.209591
vn 0.145880 -0.665645 0.731871
v -0.001300 0.038039 -0.006500
vt 0.138322 0.113718
vn -0.000002 -1.000000 -0.000004
v -0.001300 0.038039 -0.006193
vt 0.162703 0.113718
vn -0.000002 -0.707147 0.707066
v -0.000296 0.002180 -0.006500
vt 0.138278 0.623166
vn -0.000000 1.000000 0.000000
v 0.000009 0.002180 -0.006193
vt 0.166254 0.623166
vn 0.145850 0.665648 0.731874
v -0.001300 0.002180 -0.006193
vt 0.166254 0.733173
vn -0.000000 0.707146 0.707067
v -0.001300 0.002180 -0.006500
vt 0.138278 0.733173
vn -0.000001 1.000000 -0.000000
v -0.000148 0.002180 -0.006648
vt 0.138278 0.603065
vn 0.000000 1.000000 0.000000
v 0.000218 0.002180 -0.006280
vt 0.166254 0.603065
vn 0.549414 0.630260 0.548559
v -0.000000 0.002180 -0.006796
vt 0.138278 0.582944
vn 0.000000 1.000000 0.000000
v 0.000305 0.002180 -0.006489
vt 0.166254 0.582944
vn 0.731848 0.665804 0.145271
v 0.000305 0.002180 -0.013000
vt 0.166254 -0.000965
vn 0.707107 0.707107 0.000000
v -0.000000 0.002180 -0.013000
vt 0.138278 -0.000965
vn 0.000000 1.000000 0.000000
v 0.000305 0.002180 -0.013000
vt 0.000000 0.000000
vn -0.000000 0.000000 -1.000000
v -0.000000 0.002180 -0.013000
vt 0.000000 0.000000
vn -0.000000 0.000000 -1.000000
v -0.000000 0.000000 -0.013000
vt 0.000000 0.000000
vn -0.000000 0.000000 -1.000000
v 0.000305 0.000000 -0.013000
vt 0.000000 0.000000
vn -0.000000 0.000000 -1.000000
v 0.000009 0.002180 -0.006193
vt 0.165692 0.120398
vn 0.145850 0.665648 0.731874
v 0.000009 0.000000 -0.006193
vt -0.000482 0.120398
vn 0.195469 0.000000 0.980710
v -0.001300 0.000000 -0.006193
vt -0.000482 0.026901
vn 0.000000 0.000000 1.000000
v -0.001300 0.002180 -0.006193
vt 0.165692 0.026901
vn -0.000000 0.707146 0.707067
v 0.000218 0.002180 -0.006280
vt 0.165692 0.137481
vn 0.549414 0.630260 0.548559
v 0.000218 0.000000 -0.006280
vt -0.000482 0.137481
vn 0.707651 0.000000 0.706562
v 0.000305 0.039000 -0.013000
vt 0.084506 0.016202
vn -0.000000 0.000000 -1.000000
v -0.000000 0.039000 -0.013000
vt 0.084506 -0.016833
vn -0.000000 0.000000 -1.000000
v -0.000000 0.038039 -0.013000
vt 0.168327 -0.016833
vn -0.000000 0.000000 -1.000000
v 0.000305 0.038039 -0.013000
vt 0.168327 0.016202
vn -0.000000 0.000000 -1.000000
v 0.000009 0.039000 -0.006193
vt 0.084506 0.623546
vn 0.195469 0.000000 0.980710
v 0.000009 0.038039 -0.006193
vt 0.168327 0.623546
vn 0.145880 -0.665645 0.731871
v -0.001300 0.038039 -0.006193
vt 0.168327 0.730594
vn -0.000002 -0.707147 0.707066
v -0.001300 0.039000 -0.006193
vt 0.084506 0.730594
vn -0.000000 0.000000 1.000000
v 0.000218 0.039000 -0.006280
vt 0.084506 0.603986
vn 0.707651 0.000000 0.706562
v 0.000218 0.038039 -0.006280
vt 0.168327 0.603986
vn 0.549414 -0.630260 0.548559
v 0.000305 0.002180 -0.006489
vt 0.165692 0.154583
vn 0.731848 0.665804 0.145271
v 0.000305 0.002180 -0.013000
vt 0.165692 0.650856
vn 0.707107 0.707107 0.000000
v 0.000305 0.000000 -0.013000
vt -0.000482 0.650856
vn 1.000000 0.000000 0.000000
v 0.000305 0.000000 -0.006489
vt -0.000482 0.154583
vn 0.980860 0.000000 0.194713
v 0.000218 0.000000 -0.006280
vt -0.000482 0.137481
vn 0.707651 0.000000 0.706562
v 0.000218 0.002180 -0.006280
vt 0.165692 0.137481
vn 0.549414 0.630260 0.548559
v 0.000305 0.039000 -0.006489
vt 0.084506 0.584406
vn 0.980860 0.000000 0.194713
v 0.000305 0.039000 -0.013000
vt 0.084506 0.016202
vn 1.000000 0.000000 0.000000
v 0.000305 0.038039 -0.013000
vt 0.168327 0.016202
vn 0.707109 -0.707104 0.000000
v 0.000305 0.038039 -0.006489
vt 0.168327 0.584406
vn 0.731848 -0.665804 0.145271
v 0.000218 0.038039 -0.006280
vt 0.168327 0.603986
vn 0.549414 -0.630260 0.548559
v 0.000218 0.039000 -0.006280
vt 0.084506 0.603986
vn 0.707651 0.000000 0.706562
v -0.001300 0.039000 -0.006500
vt 0.084506 0.763630
vn -1.000000 0.000000 0.000175
v -0.001300 0.039000 -0.006193
vt 0.084506 0.730594
vn -1.000000 0.000000 0.000175
v -0.001300 0.038039 -0.006193
vt 0.168327 0.730594
vn -1.000000 0.000000 0.000175
v -0.001300 0.038039 -0.006500
vt 0.168327 0.763630
vn -1.000000 0.000000 0.000175
v -0.001300 0.002180 -0.006500
vt 0.000000 0.000000
vn -1.000000 0.000000 0.000176
v -0.001300 0.002180 -0.006193
vt 0.000000 0.000000
vn -1.000000 0.000000 0.000176
v -0.001300 0.000000 -0.006193
vt 0.000000 0.000000
vn -1.000000 0.000000 0.000176
v -0.001300 0.000000 -0.006500
vt 0.000000 0.000000
vn -1.000000 0.000000 0.000176
v -0.000000 0.038039 0.013000
vt 0.138319 0.753532
vn 0.000013 -1.000000 0.000000
v 0.000305 0.038039 0.013000
vt 0.162701 0.753532
vn 0.707111 -0.707102 0.000000
v 0.000305 0.038039 0.006489
vt 0.162703 0.244645
vn 0.731848 -0.665804 -0.145271
v -0.000000 0.038039 0.006796
vt 0.138321 0.244645
vn 0.000002 -1.000000 0.000000
v -0.000148 0.038039 0.006648
vt 0.138321 0.227109
vn -0.000000 -1.000000 0.000003
v 0.000218 0.038039 0.006280
vt 0.162703 0.227109
vn 0.549414 -0.630260 -0.548559
v -0.000296 0.038039 0.006500
vt 0.138322 0.209591
vn 0.000005 -1.000000 0.000005
v 0.000009 0.038039 0.006193
vt 0.162703 0.209591
vn 0.145880 -0.665645 -0.731871
v -0.001300 0.038039 0.006500
vt 0.138322 0.113718
vn -0.000002 -1.000000 0.000004
v -0.001300 0.038039 0.006193
vt 0.162703 0.113718
vn -0.000002 -0.707147 -0.707066
v -0.000296 0.002180 0.006500
vt 0.138278 0.623166
vn -0.000000 1.000000 -0.000000
v -0.001300 0.002180 0.006500
vt 0.138278 0.733173
vn -0.000001 1.000000 0.000000
v -0.001300 0.002180 0.006193
vt 0.166254 0.733173
vn -0.000000 0.707146 -0.707067
v 0.000009 0.002180 0.006193
vt 0.166254 0.623166
vn 0.145850 0.665648 -0.731874
v -0.000148 0.002180 0.006648
vt 0.138278 0.603065
vn 0.000000 1.000000 -0.000000
v 0.000218 0.002180 0.006280
vt 0.166254 0.603065
vn 0.549414 0.630260 -0.548559
v -0.000000 0.002180 0.006796
vt 0.138278 0.582944
vn 0.000000 1.000000 0.000000
v 0.000305 0.002180 0.006489
vt 0.166254 0.582944
vn 0.731848 0.665804 -0.145271
v 0.000305 0.002180 0.013000
vt 0.166254 -0.000965
vn 0.707107 0.707107 0.000000
v -0.000000 0.002180 0.013000
vt 0.138278 -0.000965
vn -0.000000 1.000000 0.000000
v 0.000305 0.002180 0.013000
vt 0.000000 0.000000
vn -0.000000 0.000000 1.000000
v 0.000305 0.000000 0.013000
vt 0.000000 0.000000
vn -0.000000 0.000000 1.000000
v -0.000000 0.000000 0.013000
vt 0.000000 0.000000
vn -0.000000 0.000000 1.000000
v -0.000000 0.002180 0.013000
vt 0.000000 0.000000
vn -0.000000 0.000000 1.000000
v 0.000009 0.002180 0.006193
vt 0.165692 0.120398
vn 0.145850 0.665648 -0.731874
v -0.001300 0.002180 0.006193
vt 0.165692 0.026901
vn -0.000000 0.707146 -0.707067
v -0.001300 0.000000 0.006193
vt -0.000482 0.026901
vn 0.000000 0.000000 -1.000000
v 0.000009 0.000000 0.006193
vt -0.000482 0.120398
vn 0.195469 0.000000 -0.980710
v 0.000218 0.002180 0.006280
vt 0.165692 0.137481
vn 0.549414 0.630260 -0.548559
v 0.000218 0.000000 0.006280
vt -0.000482 0.137481
vn 0.707651 0.000000 -0.706562
v 0.000305 0.039000 0.013000
vt 0.084506 0.016202
vn -0.000000 0.000000 1.000000
v 0.000305 0.038039 0.013000
vt 0.168327 0.016202
vn -0.000000 0.000000 1.000000
v -0.000000 0.038039 0.013000
vt 0.168327 -0.016833
vn -0.000000 0.000000 1.000000
v -0.000000 0.039000 0.013000
vt 0.084506 -0.016833
vn -0.000000 0.000000 1.000000
v 0.000009 0.039000 0.006193
vt 0.084506 0.623546
vn 0.195469 -0.000000 -0.980710
v -0.001300 0.039000 0.006193
vt 0.084506 0.730594
vn -0.000000 0.000000 -1.000000
v -0.001300 0.038039 0.006193
vt 0.168327 0.730594
vn -0.000002 -0.707147 -0.707066
v 0.000009 0.038039 0.006193
vt 0.168327 0.623546
vn 0.145880 -0.665645 -0.731871
v 0.000218 0.039000 0.006280
vt 0.084506 0.603986
vn 0.707651 -0.000000 -0.706562
v 0.000218 0.038039 0.006280
vt 0.168327 0.603986
vn 0.549414 -0.630260 -0.548559
v 0.000305 0.002180 0.006489
vt 0.165692 0.154583
vn 0.731848 0.665804 -0.145271
v 0.000305 0.000000 0.006489
vt -0.000482 0.154583
vn 0.980860 0.000000 -0.194713
v 0.000305 0.000000 0.013000
vt -0.000482 0.650856
vn 1.000000 0.000000 0.000000
v 0.000305 0.002180 0.013000
vt 0.165692 0.650856
vn 0.707107 0.707107 0.000000
v 0.000305 0.039000 0.006489
vt 0.084506 0.584406
vn 0.980860 0.000000 -0.194713
v 0.000305 0.038039 0.006489
vt 0.168327 0.584406
vn 0.731848 -0.665804 -0.145271
v 0.000305 0.038039 0.013000
vt 0.168327 0.016202
vn 0.707111 -0.707102 0.000000
v 0.000305 0.039000 0.013000
vt 0.084506 0.016202
vn 1.000000 0.000000 0.000000
v 0.000218 0.038039 0.006280
vt 0.168327 0.603986
vn 0.549414 -0.630260 -0.548559
v 0.000218 0.039000 0.006280
vt 0.084506 0.603986
vn 0.707651 -0.000000 -0.706562
v -0.001300 0.039000 0.006500
vt 0.084506 0.763630
vn -1.000000 0.000000 -0.000175
v -0.001300 0.038039 0.006500
vt 0.168327 0.763630
vn -1.000000 0.000000 -0.000175
v -0.001300 0.038039 0.006193
vt 0.168327 0.730594
vn -1.000000 0.000000 -0.000175
v -0.001300 0.039000 0.006193
vt 0.084506 0.730594
vn -1.000000 0.000000 -0.000175
v -0.001300 0.002180 0.006500
vt 0.000000 0.000000
vn -1.000000 0.000000 -0.000176
v -0.001300 0.000000 0.006500
vt 0.000000 0.000000
vn -1.000000 0.000000 -0.000176
v -0.001300 0.000000 0.006193
vt 0.000000 0.000000
vn -1.000000 0.000000 -0.000176
v -0.001300 0.002180 0.006193
vt 0.000000 0.000000
vn -1.000000 0.000000 -0.000176
# Faces (1 to 118)
f -116/-116/-116 -117/-117/-117 -118/-118/-118
f -115/-115/-115 -116/-116/-116 -118/-118/-118
f -114/-114/-114 -117/-117/-117 -116/-116/-116
f -113/-113/-113 -114/-114/-114 -116/-116/-116
f -112/-112/-112 -114/-114/-114 -113/-113/-113
f -111/-111/-111 -112/-112/-112 -113/-113/-113
f -110/-110/-110 -112/-112/-112 -111/-111/-111
f -109/-109/-109 -110/-110/-110 -111/-111/-111
f -106/-106/-106 -107/-107/-107 -108/-108/-108
f -105/-105/-105 -106/-106/-106 -108/-108/-108
f -108/-108/-108 -107/-107/-107 -104/-104/-104
f -107/-107/-107 -103/-103/-103 -104/-104/-104
f -104/-104/-104 -103/-103/-103 -102/-102/-102
f -103/-103/-103 -101/-101/-101 -102/-102/-102
f -102/-102/-102 -101/-101/-101 -100/-100/-100
f -99/-99/-99 -102/-102/-102 -100/-100/-100
f -96/-96/-96 -97/-97/-97 -98/-98/-98
f -95/-95/-95 -96/-96/-96 -98/-98/-98
f -92/-92/-92 -93/-93/-93 -94/-94/-94
f -91/-91/-91 -92/-92/-92 -94/-94/-94
f -94/-94/-94 -93/-93/-93 -90/-90/-90
f -93/-93/-93 -89/-89/-89 -90/-90/-90
f -86/-86/-86 -87/-87/-87 -88/-88/-88
f -85/-85/-85 -86/-86/-86 -88/-88/-88
f -82/-82/-82 -83/-83/-83 -84/-84/-84
f -81/-81/-81 -82/-82/-82 -84/-84/-84
f -84/-84/-84 -83/-83/-83 -80/-80/-80
f -83/-83/-83 -79/-79/-79 -80/-80/-80
f -76/-76/-76 -77/-77/-77 -78/-78/-78
f -75/-75/-75 -76/-76/-76 -78/-78/-78
f -74/-74/-74 -75/-75/-75 -78/-78/-78
f -73/-73/-73 -74/-74/-74 -78/-78/-78
f -70/-70/-70 -71/-71/-71 -72/-72/-72
f -69/-69/-69 -70/-70/-70 -72/-72/-72
f -68/-68/-68 -69/-69/-69 -72/-72/-72
f -67/-67/-67 -68/-68/-68 -72/-72/-72
f -64/-64/-64 -65/-65/-65 -66/-66/-66
f -63/-63/-63 -64/-64/-64 -66/-66/-66
f -60/-60/-60 -61/-61/-61 -62/-62/-62
f -59/-59/-59 -60/-60/-60 -62/-62/-62
f -56/-56/-56 -57/-57/-57 -58/-58/-58
f -55/-55/-55 -56/-56/-56 -58/-58/-58
f -55/-55/-55 -54/-54/-54 -56/-56/-56
f -54/-54/-54 -53/-53/-53 -56/-56/-56
f -54/-54/-54 -52/-52/-52 -53/-53/-53
f -52/-52/-52 -51/-51/-51 -53/-53/-53
f -52/-52/-52 -50/-50/-50 -51/-51/-51
f -50/-50/-50 -49/-49/-49 -51/-51/-51
f -46/-46/-46 -47/-47/-47 -48/-48/-48
f -45/-45/-45 -46/-46/-46 -48/-48/-48
f -45/-45/-45 -48/-48/-48 -44/-44/-44
f -43/-43/-43 -45/-45/-45 -44/-44/-44
f -43/-43/-43 -44/-44/-44 -42/-42/-42
f -41/-41/-41 -43/-43/-43 -42/-42/-42
f -41/-41/-41 -42/-42/-42 -40/-40/-40
f -42/-42/-42 -39/-39/-39 -40/-40/-40
f -36/-36/-36 -37/-37/-37 -38/-38/-38
f -35/-35/-35 -36/-36/-36 -38/-38/-38
f -32/-32/-32 -33/-33/-33 -34/-34/-34
f -31/-31/-31 -32/-32/-32 -34/-34/-34
f -31/-31/-31 -34/-34/-34 -30/-30/-30
f -29/-29/-29 -31/-31/-31 -30/-30/-30
f -26/-26/-26 -27/-27/-27 -28/-28/-28
f -25/-25/-25 -26/-26/-26 -28/-28/-28
f -22/-22/-22 -23/-23/-23 -24/-24/-24
f -21/-21/-21 -22/-22/-22 -24/-24/-24
f -21/-21/-21 -24/-24/-24 -20/-20/-20
f -19/-19/-19 -21/-21/-21 -20/-20/-20
f -16/-16/-16 -17/-17/-17 -18/-18/-18
f -15/-15/-15 -16/-16/-16 -18/-18/-18
f -12/-12/-12 -13/-13/-13 -14/-14/-14
f -11/-11/-11 -12/-12/-12 -14/-14/-14
f -13/-13/-13 -10/-10/-10 -14/-14/-14
f -10/-10/-10 -9/-9/-9 -14/-14/-14
f -6/-6/-6 -7/-7/-7 -8/-8/-8
f -5/-5/-5 -6/-6/-6 -8/-8/-8
f -2/-2/-2 -3/-3/-3 -4/-4/-4
f -1/-1/-1 -2/-2/-2 -4/-4/-4

# SubMesh 1
# Vertices
v -0.000000 0.026000 -0.006760
vt 0.765833 0.667759
vn 0.980788 0.000000 0.195077
v -0.000000 0.039000 -0.006760
vt 0.765833 1.000000
vn 0.980785 0.000000 0.195090
v -0.000000 0.039000 -0.013000
vt 1.000184 1.000000
vn 1.000000 0.000000 0.000000
v -0.000000 0.026000 -0.013000
vt 1.000184 0.667759
vn 1.000000 0.000000 0.000000
v -0.000000 0.013000 -0.013000
vt 1.000184 0.333333
vn 1.000000 0.000000 0.000000
v -0.000000 0.013000 -0.006760
vt 0.765833 0.333333
vn 0.980788 0.000000 0.195077
v -0.000000 0.000000 -0.013000
vt 1.000184 0.000000
vn 1.000000 0.000000 0.000000
v -0.000000 0.000000 -0.006760
vt 0.765833 0.000000
vn 0.980785 0.000000 0.195090
v -0.000076 0.013000 -0.006576
vt 0.758762 0.333333
vn 0.707107 0.000000 0.707107
v -0.000076 0.000000 -0.006576
vt 0.758762 0.000000
vn 0.707106 0.000000 0.707107
v -0.000076 0.039000 -0.006576
vt 0.758762 1.000000
vn 0.707106 0.000000 0.707107
v -0.000076 0.026000 -0.006576
vt 0.758762 0.667759
vn 0.707107 0.000000 0.707107
v -0.000260 0.000000 -0.006500
vt 0.433890 0.000000
vn 0.195090 0.000000 0.980785
v -0.001300 0.000000 -0.006500
vt 0.594501 0.000000
vn -0.000000 0.000000 1.000000
v -0.001300 0.013000 -0.006500
vt 0.594501 0.333333
vn -0.000000 0.000000 1.000000
v -0.000260 0.013000 -0.006500
vt 0.433890 0.333333
vn 0.195077 0.000000 0.980788
v -0.001300 0.026000 -0.006500
vt 0.594501 0.667759
vn -0.000000 0.000000 1.000000
v -0.000260 0.026000 -0.006500
vt 0.433890 0.667759
vn 0.195077 0.000000 0.980788
v -0.001300 0.039000 -0.006500
vt 0.594501 1.000000
vn -0.000000 0.000000 1.000000
v -0.000260 0.039000 -0.006500
vt 0.433890 1.000000
vn 0.195090 0.000000 0.980785
v -0.000076 0.000000 -0.006576
vt 0.405498 0.000000
vn 0.707106 0.000000 0.707107
v -0.000076 0.013000 -0.006576
vt 0.405498 0.333333
vn 0.707107 0.000000 0.707107
v -0.000076 0.026000 -0.006576
vt 0.405498 0.667759
vn 0.707107 0.000000 0.707107
v -0.000076 0.039000 -0.006576
vt 0.405498 1.000000
vn 0.707106 0.000000 0.707107
v -0.000260 0.013000 0.006500
vt 0.435242 0.333333
vn 0.195077 0.000000 -0.980788
v -0.001300 0.013000 0.006500
vt 0.592570 0.333333
vn -0.000000 0.000000 -1.000000
v -0.001300 0.000000 0.006500
vt 0.592570 0.000000
vn -0.000000 0.000000 -1.000000
v -0.000260 0.000000 0.006500
vt 0.435242 0.000000
vn 0.195090 0.000000 -0.980785
v -0.000260 0.026000 0.006500
vt 0.435242 0.667759
vn 0.195077 0.000000 -0.980788
v -0.001300 0.026000 0.006500
vt 0.592570 0.667759
vn -0.000000 0.000000 -1.000000
v -0.000260 0.039000 0.006500
vt 0.435242 1.000000
vn 0.195090 0.000000 -0.980785
v -0.001300 0.039000 0.006500
vt 0.592570 1.000000
vn -0.000000 0.000000 -1.000000
v -0.000076 0.013000 0.006576
vt 0.407430 0.333333
vn 0.707107 0.000000 -0.707107
v -0.000076 0.000000 0.006576
vt 0.407430 0.000000
vn 0.707106 0.000000 -0.707107
v -0.000076 0.039000 0.006576
vt 0.407430 1.000000
vn 0.707106 0.000000 -0.707107
v -0.000076 0.026000 0.006576
vt 0.407430 0.667759
vn 0.707107 0.000000 -0.707107
v -0.000000 0.026000 0.013000
vt 0.005834 0.667759
vn 1.000000 0.000000 0.000000
v -0.000000 0.039000 0.013000
vt 0.005834 1.000000
vn 1.000000 0.000000 0.000000
v -0.000000 0.039000 0.006760
vt 0.245834 1.000000
vn 0.980785 0.000000 -0.195090
v -0.000000 0.026000 0.006760
vt 0.245834 0.667759
vn 0.980788 0.000000 -0.195077
v -0.000000 0.013000 0.006760
vt 0.245834 0.333333
vn 0.980788 0.000000 -0.195077
v -0.000000 0.013000 0.013000
vt 0.005834 0.333333
vn 1.000000 0.000000 0.000000
v -0.000000 0.000000 0.006760
vt 0.245834 0.000000
vn 0.980785 0.000000 -0.195090
v -0.000000 0.000000 0.013000
vt 0.005834 0.000000
vn 1.000000 0.000000 0.000000
v -0.000076 0.000000 0.006576
vt 0.252905 0.000000
vn 0.707106 0.000000 -0.707107
v -0.000076 0.013000 0.006576
vt 0.252905 0.333333
vn 0.707107 0.000000 -0.707107
v -0.000076 0.026000 0.006576
vt 0.252905 0.667759
vn 0.707107 0.000000 -0.707107
v -0.000076 0.039000 0.006576
vt 0.252905 1.000000
vn 0.707106 0.000000 -0.707107
# Faces (119 to 166)
f -46/-46/-46 -47/-47/-47 -48/-48/-48
f -45/-45/-45 -46/-46/-46 -48/-48/-48
f -44/-44/-44 -45/-45/-45 -48/-48/-48
f -43/-43/-43 -44/-44/-44 -48/-48/-48
f -42/-42/-42 -44/-44/-44 -43/-43/-43
f -41/-41/-41 -42/-42/-42 -43/-43/-43
f -43/-43/-43 -40/-40/-40 -41/-41/-41
f -40/-40/-40 -39/-39/-39 -41/-41/-41
f -47/-47/-47 -38/-38/-38 -48/-48/-48
f -38/-38/-38 -37/-37/-37 -48/-48/-48
f -37/-37/-37 -40/-40/-40 -43/-43/-43
f -48/-48/-48 -37/-37/-37 -43/-43/-43
f -34/-34/-34 -35/-35/-35 -36/-36/-36
f -33/-33/-33 -34/-34/-34 -36/-36/-36
f -32/-32/-32 -34/-34/-34 -33/-33/-33
f -31/-31/-31 -32/-32/-32 -33/-33/-33
f -30/-30/-30 -32/-32/-32 -31/-31/-31
f -29/-29/-29 -30/-30/-30 -31/-31/-31
f -33/-33/-33 -36/-36/-36 -28/-28/-28
f -27/-27/-27 -33/-33/-33 -28/-28/-28
f -31/-31/-31 -33/-33/-33 -27/-27/-27
f -29/-29/-29 -31/-31/-31 -26/-26/-26
f -26/-26/-26 -31/-31/-31 -27/-27/-27
f -25/-25/-25 -29/-29/-29 -26/-26/-26
f -22/-22/-22 -23/-23/-23 -24/-24/-24
f -21/-21/-21 -22/-22/-22 -24/-24/-24
f -24/-24/-24 -23/-23/-23 -20/-20/-20
f -23/-23/-23 -19/-19/-19 -20/-20/-20
f -20/-20/-20 -19/-19/-19 -18/-18/-18
f -19/-19/-19 -17/-17/-17 -18/-18/-18
f -24/-24/-24 -16/-16/-16 -21/-21/-21
f -16/-16/-16 -15/-15/-15 -21/-21/-21
f -18/-18/-18 -14/-14/-14 -20/-20/-20
f -14/-14/-14 -13/-13/-13 -20/-20/-20
f -13/-13/-13 -16/-16/-16 -24/-24/-24
f -20/-20/-20 -13/-13/-13 -24/-24/-24
f -10/-10/-10 -11/-11/-11 -12/-12/-12
f -9/-9/-9 -10/-10/-10 -12/-12/-12
f -8/-8/-8 -9/-9/-9 -12/-12/-12
f -7/-7/-7 -8/-8/-8 -12/-12/-12
f -6/-6/-6 -8/-8/-8 -7/-7/-7
f -5/-5/-5 -6/-6/-6 -7/-7/-7
f -8/-8/-8 -6/-6/-6 -4/-4/-4
f -3/-3/-3 -8/-8/-8 -4/-4/-4
f -9/-9/-9 -8/-8/-8 -3/-3/-3
f -10/-10/-10 -9/-9/-9 -2/-2/-2
f -2/-2/-2 -9/-9/-9 -3/-3/-3
f -1/-1/-1 -10/-10/-10 -2/-2/-2

