# Mesh "Water_Cooler_2" exported with Unity Assets Bundle Extractor; 60 vertices, 180 indices, 48 bytes per vertex
g Water_Cooler_2
# SubMesh 0
# Vertices
v 0.106649 0.012766 -0.048058
vt 0.933380 0.743778
vn 0.678602 0.669624 -0.301833
v 0.077771 0.012766 -0.087807
vt 0.948093 0.754418
vn 0.496735 0.670618 -0.550931
v 0.093106 -0.012817 -0.105121
vt 0.957715 0.746070
vn 0.495918 0.670623 -0.551662
v 0.127679 -0.012817 -0.057535
vt 0.938693 0.732217
vn 0.678356 0.669626 -0.302382
v 0.042166 -0.012817 -0.134531
vt 0.969407 0.766457
vn 0.228096 0.672083 -0.704470
v 0.035221 0.012766 -0.112373
vt 0.957193 0.770148
vn 0.229428 0.672075 -0.704044
v -0.016332 -0.012817 -0.140679
vt 0.971788 0.789817
vn -0.078031 0.673747 -0.734830
v -0.013642 0.012766 -0.117508
vt 0.959116 0.788211
vn -0.076584 0.673740 -0.734990
v -0.072273 -0.012817 -0.122503
vt 0.964467 0.812113
vn -0.369354 0.675330 -0.638363
v -0.060369 0.012766 -0.102326
vt 0.953524 0.805492
vn -0.368262 0.675325 -0.638999
v -0.115984 -0.012817 -0.083145
vt 0.948745 0.829471
vn -0.596024 0.676559 -0.432461
v -0.096881 0.012766 -0.069450
vt 0.941374 0.819001
vn -0.595524 0.676556 -0.433155
v -0.139909 -0.012817 -0.029410
vt 0.927364 0.838990
vn -0.719728 0.677229 -0.152815
v -0.116865 0.012766 -0.024566
vt 0.924786 0.826415
vn -0.719665 0.677229 -0.153111
v -0.139909 -0.012817 0.029410
vt 0.903945 0.838930
vn -0.719728 0.677229 0.152814
v -0.116865 0.012766 0.024566
vt 0.906527 0.826581
vn -0.719666 0.677229 0.153109
v -0.115984 -0.012817 0.083145
vt 0.882521 0.829459
vn -0.596025 0.676559 0.432462
v -0.096881 0.012766 0.069450
vt 0.889963 0.819032
vn -0.595524 0.676556 0.433155
v -0.072273 -0.012817 0.122503
vt 0.866849 0.812072
vn -0.369353 0.675329 0.638364
v -0.060369 0.012766 0.102326
vt 0.877823 0.805496
vn -0.368262 0.675323 0.639001
v -0.016332 -0.012817 0.140679
vt 0.859543 0.789811
vn -0.078032 0.673747 0.734830
v -0.013642 0.012766 0.117508
vt 0.872219 0.788218
vn -0.076584 0.673740 0.734990
v 0.042166 -0.012817 0.134531
vt 0.861919 0.766458
vn 0.228096 0.672083 0.704470
v 0.035221 0.012766 0.112373
vt 0.874133 0.770150
vn 0.229428 0.672075 0.704044
v 0.093106 -0.012817 0.105121
vt 0.873609 0.746070
vn 0.495917 0.670622 0.551663
v 0.077771 0.012766 0.087807
vt 0.883232 0.754418
vn 0.496735 0.670618 0.550933
v 0.127679 -0.012817 0.057535
vt 0.892632 0.732217
vn 0.678356 0.669625 0.302382
v 0.106649 0.012766 0.048058
vt 0.897945 0.743778
vn 0.678602 0.669624 0.301833
v 0.139909 -0.012817 -0.000000
vt 0.915662 0.727253
vn 0.743017 0.669272 0.000000
v 0.116865 0.012766 -0.000000
vt 0.915662 0.740173
vn 0.743017 0.669272 0.000000
v 0.106649 0.012766 -0.048058
vt 0.933380 0.743778
vn 0.002258 0.999997 -0.001009
v 0.087591 0.012817 -0.039470
vt 0.930172 0.750986
vn 0.002259 0.999997 -0.001006
v 0.063873 0.012817 -0.072115
vt 0.942169 0.759639
vn 0.001652 0.999997 -0.001832
v 0.077771 0.012766 -0.087807
vt 0.948093 0.754418
vn 0.001648 0.999997 -0.001836
v 0.028927 0.012817 -0.092291
vt 0.949619 0.772480
vn 0.000762 0.999997 -0.002335
v 0.035221 0.012766 -0.112373
vt 0.957193 0.770148
vn 0.000755 0.999997 -0.002337
v -0.011204 0.012817 -0.096509
vt 0.951213 0.787254
vn -0.000252 0.999997 -0.002429
v -0.013642 0.012766 -0.117508
vt 0.959116 0.788211
vn -0.000260 0.999997 -0.002428
v -0.049581 0.012817 -0.084040
vt 0.946655 0.801407
vn -0.001215 0.999997 -0.002107
v -0.060369 0.012766 -0.102326
vt 0.953524 0.805492
vn -0.001220 0.999997 -0.002104
v -0.079568 0.012817 -0.057039
vt 0.936709 0.812485
vn -0.001962 0.999997 -0.001429
v -0.096881 0.012766 -0.069450
vt 0.941374 0.819001
vn -0.001965 0.999997 -0.001425
v -0.095981 0.012817 -0.020176
vt 0.923094 0.818572
vn -0.002369 0.999997 -0.000505
v -0.116865 0.012766 -0.024566
vt 0.924786 0.826415
vn -0.002369 0.999997 -0.000503
v -0.095981 0.012817 0.020176
vt 0.908223 0.818722
vn -0.002369 0.999997 0.000506
v -0.116865 0.012766 0.024566
vt 0.906527 0.826581
vn -0.002369 0.999997 0.000505
v -0.079568 0.012817 0.057039
vt 0.894626 0.812526
vn -0.001962 0.999997 0.001429
v -0.096881 0.012766 0.069450
vt 0.889963 0.819032
vn -0.001965 0.999997 0.001425
v -0.049581 0.012817 0.084040
vt 0.884703 0.801426
vn -0.001215 0.999997 0.002107
v -0.060369 0.012766 0.102326
vt 0.877823 0.805496
vn -0.001220 0.999997 0.002104
v -0.011204 0.012817 0.096509
vt 0.880120 0.787266
vn -0.000252 0.999997 0.002431
v -0.013642 0.012766 0.117508
vt 0.872219 0.788218
vn -0.000260 0.999997 0.002431
v 0.028927 0.012817 0.092291
vt 0.881706 0.772483
vn 0.000762 0.999997 0.002336
v 0.035221 0.012766 0.112373
vt 0.874133 0.770150
vn 0.000755 0.999997 0.002338
v 0.063873 0.012817 0.072115
vt 0.889155 0.759640
vn 0.001652 0.999997 0.001830
v 0.077771 0.012766 0.087807
vt 0.883232 0.754418
vn 0.001648 0.999997 0.001834
v 0.087591 0.012817 0.039470
vt 0.901153 0.750987
vn 0.002259 0.999997 0.001005
v 0.106649 0.012766 0.048058
vt 0.897945 0.743778
vn 0.002258 0.999997 0.001008
v 0.095981 0.012817 -0.000000
vt 0.915662 0.748044
vn 0.002475 0.999997 0.000000
v 0.116865 0.012766 -0.000000
vt 0.915662 0.740173
vn 0.002475 0.999997 0.000000
# Faces (1 to 60)
f -58/-58/-58 -59/-59/-59 -60/-60/-60
f -57/-57/-57 -58/-58/-58 -60/-60/-60
f -58/-58/-58 -56/-56/-56 -59/-59/-59
f -56/-56/-56 -55/-55/-55 -59/-59/-59
f -56/-56/-56 -54/-54/-54 -55/-55/-55
f -54/-54/-54 -53/-53/-53 -55/-55/-55
f -54/-54/-54 -52/-52/-52 -53/-53/-53
f -52/-52/-52 -51/-51/-51 -53/-53/-53
f -52/-52/-52 -50/-50/-50 -51/-51/-51
f -50/-50/-50 -49/-49/-49 -51/-51/-51
f -50/-50/-50 -48/-48/-48 -49/-49/-49
f -48/-48/-48 -47/-47/-47 -49/-49/-49
f -48/-48/-48 -46/-46/-46 -47/-47/-47
f -46/-46/-46 -45/-45/-45 -47/-47/-47
f -46/-46/-46 -44/-44/-44 -45/-45/-45
f -44/-44/-44 -43/-43/-43 -45/-45/-45
f -44/-44/-44 -42/-42/-42 -43/-43/-43
f -42/-42/-42 -41/-41/-41 -43/-43/-43
f -42/-42/-42 -40/-40/-40 -41/-41/-41
f -40/-40/-40 -39/-39/-39 -41/-41/-41
f -40/-40/-40 -38/-38/-38 -39/-39/-39
f -38/-38/-38 -37/-37/-37 -39/-39/-39
f -38/-38/-38 -36/-36/-36 -37/-37/-37
f -36/-36/-36 -35/-35/-35 -37/-37/-37
f -36/-36/-36 -34/-34/-34 -35/-35/-35
f -34/-34/-34 -33/-33/-33 -35/-35/-35
f -34/-34/-34 -32/-32/-32 -33/-33/-33
f -32/-32/-32 -31/-31/-31 -33/-33/-33
f -32/-32/-32 -57/-57/-57 -31/-31/-31
f -57/-57/-57 -60/-60/-60 -31/-31/-31
f -28/-28/-28 -29/-29/-29 -30/-30/-30
f -27/-27/-27 -28/-28/-28 -30/-30/-30
f -26/-26/-26 -28/-28/-28 -27/-27/-27
f -25/-25/-25 -26/-26/-26 -27/-27/-27
f -24/-24/-24 -26/-26/-26 -25/-25/-25
f -23/-23/-23 -24/-24/-24 -25/-25/-25
f -22/-22/-22 -24/-24/-24 -23/-23/-23
f -21/-21/-21 -22/-22/-22 -23/-23/-23
f -20/-20/-20 -22/-22/-22 -21/-21/-21
f -19/-19/-19 -20/-20/-20 -21/-21/-21
f -18/-18/-18 -20/-20/-20 -19/-19/-19
f -17/-17/-17 -18/-18/-18 -19/-19/-19
f -16/-16/-16 -18/-18/-18 -17/-17/-17
f -15/-15/-15 -16/-16/-16 -17/-17/-17
f -14/-14/-14 -16/-16/-16 -15/-15/-15
f -13/-13/-13 -14/-14/-14 -15/-15/-15
f -12/-12/-12 -14/-14/-14 -13/-13/-13
f -11/-11/-11 -12/-12/-12 -13/-13/-13
f -10/-10/-10 -12/-12/-12 -11/-11/-11
f -9/-9/-9 -10/-10/-10 -11/-11/-11
f -8/-8/-8 -10/-10/-10 -9/-9/-9
f -7/-7/-7 -8/-8/-8 -9/-9/-9
f -6/-6/-6 -8/-8/-8 -7/-7/-7
f -5/-5/-5 -6/-6/-6 -7/-7/-7
f -4/-4/-4 -6/-6/-6 -5/-5/-5
f -3/-3/-3 -4/-4/-4 -5/-5/-5
f -2/-2/-2 -4/-4/-4 -3/-3/-3
f -1/-1/-1 -2/-2/-2 -3/-3/-3
f -29/-29/-29 -2/-2/-2 -1/-1/-1
f -30/-30/-30 -29/-29/-29 -1/-1/-1

