# Mesh "welcome" exported with Unity Assets Bundle Extractor; 20 vertices, 30 indices, 56 bytes per vertex
g welcome
# SubMesh 0
# Vertices
v -0.022916 -0.013034 0.000149
vt 0.636732 0.029318
vn -0.000000 0.000000 1.000000
v -0.022916 0.013034 0.000149
vt 0.636732 0.233409
vn -0.000000 0.000000 1.000000
v 0.022916 0.013034 0.000149
vt 0.836979 0.233409
vn -0.000000 0.000000 1.000000
v 0.022916 -0.013034 0.000149
vt 0.836979 0.029318
vn -0.000000 0.000000 1.000000
v -0.022916 0.013034 0.000149
vt 0.750296 0.215938
vn -0.000000 1.000000 0.000000
v -0.022916 0.013034 -0.000149
vt 0.750296 0.212659
vn -0.000000 1.000000 0.000000
v 0.022916 0.013034 -0.000149
vt 0.734704 0.212659
vn -0.000000 1.000000 0.000000
v 0.022916 0.013034 0.000149
vt 0.734704 0.215938
vn -0.000000 1.000000 0.000000
v -0.022916 -0.013034 -0.000149
vt 0.750471 0.215940
vn -0.000000 -1.000000 0.000000
v -0.022916 -0.013034 0.000149
vt 0.766064 0.215940
vn -0.000000 -1.000000 0.000000
v 0.022916 -0.013034 0.000149
vt 0.766063 0.212660
vn -0.000000 -1.000000 0.000000
v 0.022916 -0.013034 -0.000149
vt 0.750471 0.212660
vn -0.000000 -1.000000 0.000000
v 0.022916 -0.013034 0.000149
vt 0.766011 0.215945
vn 1.000000 0.000000 0.000000
v 0.022916 0.013034 0.000149
vt 0.781603 0.215945
vn 1.000000 0.000000 0.000000
v 0.022916 0.013034 -0.000149
vt 0.781603 0.212665
vn 1.000000 0.000000 0.000000
v 0.022916 -0.013034 -0.000149
vt 0.766011 0.212665
vn 1.000000 0.000000 0.000000
v -0.022916 -0.013034 -0.000149
vt 0.781897 0.215929
vn -1.000000 0.000000 0.000000
v -0.022916 0.013034 -0.000149
vt 0.797490 0.215929
vn -1.000000 0.000000 0.000000
v -0.022916 0.013034 0.000149
vt 0.797490 0.212650
vn -1.000000 0.000000 0.000000
v -0.022916 -0.013034 0.000149
vt 0.781897 0.212650
vn -1.000000 0.000000 0.000000
# Faces (1 to 20)
f -18/-18/-18 -19/-19/-19 -20/-20/-20
f -17/-17/-17 -18/-18/-18 -20/-20/-20
f -14/-14/-14 -15/-15/-15 -16/-16/-16
f -13/-13/-13 -14/-14/-14 -16/-16/-16
f -10/-10/-10 -11/-11/-11 -12/-12/-12
f -9/-9/-9 -10/-10/-10 -12/-12/-12
f -6/-6/-6 -7/-7/-7 -8/-8/-8
f -5/-5/-5 -6/-6/-6 -8/-8/-8
f -2/-2/-2 -3/-3/-3 -4/-4/-4
f -1/-1/-1 -2/-2/-2 -4/-4/-4

