# Mesh "window_3" exported with Unity Assets Bundle Extractor; 48 vertices, 96 indices, 56 bytes per vertex
g window_3
# SubMesh 0
# Vertices
v -0.045553 -0.525156 0.735236
vt 0.531154 -0.222756
vn -0.000000 0.000000 1.000000
v -0.045553 0.525157 0.735236
vt 0.531154 -0.945784
vn -0.000000 0.000000 1.000000
v 0.007817 0.525157 0.735236
vt 0.502802 -0.945784
vn -0.000000 0.000000 1.000000
v 0.007817 -0.525156 0.735236
vt 0.502802 -0.222756
vn -0.000000 0.000000 1.000000
v -0.045553 0.525157 0.735236
vt 0.507635 -0.979818
vn -0.000000 1.000000 0.000000
v -0.045553 0.525157 -0.001355
vt 0.037938 -0.979818
vn -0.000000 1.000000 0.000000
v 0.007817 0.525157 -0.001355
vt 0.042772 -0.945784
vn -0.000000 1.000000 0.000000
v 0.007817 0.525157 0.735236
vt 0.502802 -0.945784
vn -0.000000 1.000000 0.000000
v -0.045553 0.525157 -0.001355
vt 0.014419 -0.948830
vn -0.000000 0.000000 -1.000000
v -0.045553 -0.525156 -0.001355
vt 0.014419 -0.219710
vn -0.000000 0.000000 -1.000000
v 0.007817 -0.525156 -0.001355
vt 0.042772 -0.222756
vn -0.000000 0.000000 -1.000000
v 0.007817 0.525157 -0.001355
vt 0.042772 -0.945784
vn -0.000000 0.000000 -1.000000
v -0.045553 -0.525156 -0.001355
vt 0.037938 -0.188723
vn -0.000000 -1.000000 0.000000
v -0.045553 -0.525156 0.735236
vt 0.507635 -0.188723
vn -0.000000 -1.000000 0.000000
v 0.007817 -0.525156 0.735236
vt 0.502802 -0.222756
vn -0.000000 -1.000000 0.000000
v 0.007817 -0.525156 -0.001355
vt 0.042772 -0.222756
vn -0.000000 -1.000000 0.000000
v 0.007817 -0.525156 0.735236
vt 0.502802 -0.222756
vn 1.000000 0.000000 0.000000
v 0.007817 -0.464473 0.680823
vt 0.464698 -0.267224
vn 1.000000 0.000000 0.000000
v 0.007817 -0.464473 0.053058
vt 0.080875 -0.267224
vn 1.000000 0.000000 0.000000
v 0.007817 -0.525156 -0.001355
vt 0.042772 -0.222756
vn 1.000000 0.000000 0.000000
v 0.007817 0.464473 0.053058
vt 0.080875 -0.901316
vn 1.000000 0.000000 0.000000
v 0.007817 0.525157 -0.001355
vt 0.042772 -0.945784
vn 1.000000 0.000000 0.000000
v 0.007817 0.464473 0.680823
vt 0.464698 -0.901316
vn 1.000000 0.000000 0.000000
v 0.007817 0.525157 0.735236
vt 0.502802 -0.945784
vn 1.000000 0.000000 0.000000
v -0.045553 -0.525156 -0.001355
vt 0.981516 -0.225802
vn -1.000000 -0.000002 0.000000
v -0.045553 -0.464473 0.053058
vt 0.953881 -0.263738
vn -1.000000 -0.000002 0.000000
v -0.045553 -0.464473 0.680823
vt 0.558759 -0.263820
vn -1.000000 -0.000002 0.000000
v -0.045553 -0.525156 0.735236
vt 0.531154 -0.222756
vn -1.000000 -0.000002 0.000000
v -0.045553 0.464473 0.680823
vt 0.558763 -0.904771
vn -1.000000 0.000000 0.000000
v -0.045553 0.525157 0.735236
vt 0.531154 -0.945784
vn -1.000000 0.000000 0.000000
v -0.045553 0.464473 0.053058
vt 0.953938 -0.904752
vn -1.000000 0.000002 0.000000
v -0.045553 0.525157 -0.001355
vt 0.981516 -0.942738
vn -1.000000 0.000002 0.000000
v 0.007817 -0.464473 0.053058
vt 0.937351 -0.279447
vn -0.000000 0.000000 1.000000
v -0.045553 -0.464473 0.053058
vt 0.953881 -0.263738
vn -0.000000 0.000000 1.000000
v -0.045553 0.464473 0.053058
vt 0.953938 -0.904752
vn -0.000000 0.000000 1.000000
v 0.007817 0.464473 0.053058
vt 0.940099 -0.887622
vn -0.000000 0.000000 1.000000
v 0.007817 0.464473 0.053058
vt 0.940099 -0.887622
vn -0.000000 -1.000000 0.000000
v -0.045553 0.464473 0.053058
vt 0.953938 -0.904752
vn -0.000000 -1.000000 0.000000
v -0.045553 0.464473 0.680823
vt 0.558763 -0.904771
vn -0.000000 -1.000000 0.000000
v 0.007817 0.464473 0.680823
vt 0.572603 -0.887492
vn -0.000000 -1.000000 0.000000
v 0.007817 -0.464473 0.680823
vt 0.572752 -0.281123
vn -0.000000 1.000000 0.000000
v -0.045553 -0.464473 0.680823
vt 0.558759 -0.263820
vn -0.000000 1.000000 0.000000
v -0.045553 -0.464473 0.053058
vt 0.953881 -0.263738
vn -0.000000 1.000000 0.000000
v 0.007817 -0.464473 0.053058
vt 0.937351 -0.279447
vn -0.000000 1.000000 0.000000
v 0.007817 0.464473 0.680823
vt 0.572603 -0.887492
vn -0.000000 0.000000 -1.000000
v -0.045553 0.464473 0.680823
vt 0.558763 -0.904771
vn -0.000000 0.000000 -1.000000
v -0.045553 -0.464473 0.680823
vt 0.558759 -0.263820
vn -0.000000 0.000000 -1.000000
v 0.007817 -0.464473 0.680823
vt 0.572752 -0.281123
vn -0.000000 0.000000 -1.000000
# Faces (1 to 48)
f -46/-46/-46 -47/-47/-47 -48/-48/-48
f -45/-45/-45 -46/-46/-46 -48/-48/-48
f -42/-42/-42 -43/-43/-43 -44/-44/-44
f -41/-41/-41 -42/-42/-42 -44/-44/-44
f -38/-38/-38 -39/-39/-39 -40/-40/-40
f -37/-37/-37 -38/-38/-38 -40/-40/-40
f -34/-34/-34 -35/-35/-35 -36/-36/-36
f -33/-33/-33 -34/-34/-34 -36/-36/-36
f -30/-30/-30 -31/-31/-31 -32/-32/-32
f -29/-29/-29 -30/-30/-30 -32/-32/-32
f -28/-28/-28 -30/-30/-30 -29/-29/-29
f -27/-27/-27 -28/-28/-28 -29/-29/-29
f -26/-26/-26 -28/-28/-28 -27/-27/-27
f -25/-25/-25 -26/-26/-26 -27/-27/-27
f -31/-31/-31 -26/-26/-26 -25/-25/-25
f -32/-32/-32 -31/-31/-31 -25/-25/-25
f -22/-22/-22 -23/-23/-23 -24/-24/-24
f -21/-21/-21 -22/-22/-22 -24/-24/-24
f -20/-20/-20 -22/-22/-22 -21/-21/-21
f -19/-19/-19 -20/-20/-20 -21/-21/-21
f -18/-18/-18 -20/-20/-20 -19/-19/-19
f -17/-17/-17 -18/-18/-18 -19/-19/-19
f -23/-23/-23 -18/-18/-18 -17/-17/-17
f -24/-24/-24 -23/-23/-23 -17/-17/-17
f -14/-14/-14 -15/-15/-15 -16/-16/-16
f -13/-13/-13 -14/-14/-14 -16/-16/-16
f -10/-10/-10 -11/-11/-11 -12/-12/-12
f -9/-9/-9 -10/-10/-10 -12/-12/-12
f -6/-6/-6 -7/-7/-7 -8/-8/-8
f -5/-5/-5 -6/-6/-6 -8/-8/-8
f -2/-2/-2 -3/-3/-3 -4/-4/-4
f -1/-1/-1 -2/-2/-2 -4/-4/-4

